<svg width="24" height="24" viewBox="0 0 24 24" fill="none" xmlns="http://www.w3.org/2000/svg">
<path d="M20 8.00098H14.388L15.511 4.63398C15.713 4.02598 15.611 3.35198 15.236 2.83198C14.861 2.31198 14.253 2.00098 13.612 2.00098H12C11.703 2.00098 11.422 2.13298 11.231 2.36098L6.531 8.00098H4C2.897 8.00098 2 8.89798 2 10.001V19.001C2 20.104 2.897 21.001 4 21.001H7H17.307C18.136 21.001 18.888 20.48 19.18 19.703L21.937 12.352C21.979 12.24 22 12.121 22 12.001V10.001C22 8.89798 21.103 8.00098 20 8.00098ZM4 10.001H6V19.001H4V10.001ZM20 11.82L17.307 19.001H8V9.36298L12.468 4.00098H13.614L12.052 8.68398C11.949 8.98898 12.001 9.32398 12.189 9.58498C12.377 9.84698 12.679 10.001 13 10.001H20V11.82Z" fill="#3B2317"/>
</svg>
