<svg width="40" height="40" viewBox="0 0 40 40" fill="none" xmlns="http://www.w3.org/2000/svg">
<path d="M15.9375 3.75H5.3125C4.44956 3.75 3.75 4.44956 3.75 5.3125V15.9375C3.75 16.8004 4.44956 17.5 5.3125 17.5H15.9375C16.8004 17.5 17.5 16.8004 17.5 15.9375V5.3125C17.5 4.44956 16.8004 3.75 15.9375 3.75Z" stroke="#3B2317" stroke-width="2" stroke-linecap="round" stroke-linejoin="round"/>
<path d="M34.6875 3.75H24.0625C23.1996 3.75 22.5 4.44956 22.5 5.3125V15.9375C22.5 16.8004 23.1996 17.5 24.0625 17.5H34.6875C35.5504 17.5 36.25 16.8004 36.25 15.9375V5.3125C36.25 4.44956 35.5504 3.75 34.6875 3.75Z" stroke="#3B2317" stroke-width="2" stroke-linecap="round" stroke-linejoin="round"/>
<path d="M15.9375 22.5H5.3125C4.44956 22.5 3.75 23.1996 3.75 24.0625V34.6875C3.75 35.5504 4.44956 36.25 5.3125 36.25H15.9375C16.8004 36.25 17.5 35.5504 17.5 34.6875V24.0625C17.5 23.1996 16.8004 22.5 15.9375 22.5Z" stroke="#3B2317" stroke-width="2" stroke-linecap="round" stroke-linejoin="round"/>
<path d="M34.6875 22.5H24.0625C23.1996 22.5 22.5 23.1996 22.5 24.0625V34.6875C22.5 35.5504 23.1996 36.25 24.0625 36.25H34.6875C35.5504 36.25 36.25 35.5504 36.25 34.6875V24.0625C36.25 23.1996 35.5504 22.5 34.6875 22.5Z" stroke="#3B2317" stroke-width="2" stroke-linecap="round" stroke-linejoin="round"/>
</svg>
