<svg width="24" height="24" viewBox="0 0 24 24" fill="none" xmlns="http://www.w3.org/2000/svg">
<path d="M5.5 15.001C6.41 15.001 7.233 14.643 7.857 14.071L14.117 17.648C14.048 17.923 14 18.205 14 18.501C14 20.431 15.57 22.001 17.5 22.001C19.43 22.001 21 20.431 21 18.501C21 16.571 19.43 15.001 17.5 15.001C16.59 15.001 15.767 15.359 15.143 15.931L8.883 12.354C8.946 12.107 8.986 11.852 8.991 11.586L15.142 8.07098C15.767 8.64298 16.59 9.00098 17.5 9.00098C19.43 9.00098 21 7.43098 21 5.50098C21 3.57098 19.43 2.00098 17.5 2.00098C15.57 2.00098 14 3.57098 14 5.50098C14 5.79698 14.048 6.07898 14.117 6.35398L8.433 9.60298C7.808 8.64098 6.729 8.00098 5.5 8.00098C3.57 8.00098 2 9.57098 2 11.501C2 13.431 3.57 15.001 5.5 15.001ZM17.5 17.001C18.327 17.001 19 17.674 19 18.501C19 19.328 18.327 20.001 17.5 20.001C16.673 20.001 16 19.328 16 18.501C16 17.674 16.673 17.001 17.5 17.001ZM17.5 4.00098C18.327 4.00098 19 4.67398 19 5.50098C19 6.32798 18.327 7.00098 17.5 7.00098C16.673 7.00098 16 6.32798 16 5.50098C16 4.67398 16.673 4.00098 17.5 4.00098ZM5.5 10.001C6.327 10.001 7 10.674 7 11.501C7 12.328 6.327 13.001 5.5 13.001C4.673 13.001 4 12.328 4 11.501C4 10.674 4.673 10.001 5.5 10.001Z" fill="#3B2317"/>
</svg>
