<svg width="20" height="20" viewBox="0 0 20 20" fill="none" xmlns="http://www.w3.org/2000/svg">
<g clip-path="url(#clip0_2_491)">
<g clip-path="url(#clip1_2_491)">
<path d="M5.46726 0.621633C5.46726 0.277663 5.1896 0 4.84563 0H0.659964C0.315993 0 0.0383301 0.277663 0.0383301 0.621633V4.80937C0.0383301 5.15334 0.315993 5.431 0.659964 5.431H4.8477C5.19167 5.431 5.46933 5.15334 5.46933 4.80937V0.621633H5.46726Z" fill="#94897C"/>
<path d="M12.7134 0.621633C12.7134 0.277663 12.4358 0 12.0918 0H7.90615C7.56218 0 7.28452 0.277663 7.28452 0.621633V4.80937C7.28452 5.15334 7.56218 5.431 7.90615 5.431H12.0918C12.4358 5.431 12.7134 5.15334 12.7134 4.80937V0.621633Z" fill="#94897C"/>
<path d="M19.9596 0.621633C19.9596 0.277663 19.6819 0 19.338 0H15.1523C14.8083 0 14.5307 0.277663 14.5307 0.621633V4.80937C14.5307 5.15334 14.8083 5.431 15.1523 5.431H19.34C19.684 5.431 19.9617 5.15334 19.9617 4.80937V0.621633H19.9596Z" fill="#94897C"/>
<path d="M5.46726 7.90679C5.46726 7.56282 5.1896 7.28516 4.84563 7.28516H0.659964C0.315993 7.28516 0.0383301 7.56282 0.0383301 7.90679V12.0925C0.0383301 12.4364 0.315993 12.7141 0.659964 12.7141H4.8477C5.19167 12.7141 5.46933 12.4364 5.46933 12.0925V7.90679H5.46726Z" fill="#94897C"/>
<path d="M12.7134 7.90679C12.7134 7.56282 12.4357 7.28516 12.0917 7.28516H7.90606C7.56209 7.28516 7.28442 7.56282 7.28442 7.90679V12.0925C7.28442 12.4364 7.56209 12.7141 7.90606 12.7141H12.0917C12.4357 12.7141 12.7134 12.4364 12.7134 12.0925V7.90679Z" fill="#94897C"/>
<path d="M19.9597 7.90679C19.9597 7.56282 19.682 7.28516 19.3381 7.28516H15.1524C14.8084 7.28516 14.5308 7.56282 14.5308 7.90679V12.0925C14.5308 12.4364 14.8084 12.7141 15.1524 12.7141H19.3401C19.6841 12.7141 19.9618 12.4364 19.9618 12.0925V7.90679H19.9597Z" fill="#94897C"/>
<path d="M4.84563 14.5693H0.659964C0.315993 14.5693 0.0383301 14.847 0.0383301 15.191V19.3787C0.0383301 19.7227 0.315993 20.0003 0.659964 20.0003H4.8477C5.19167 20.0003 5.46933 19.7227 5.46933 19.3787V15.191C5.46726 14.8491 5.1896 14.5693 4.84563 14.5693Z" fill="#94897C"/>
<path d="M12.0917 14.5693H7.90606C7.56209 14.5693 7.28442 14.847 7.28442 15.191V19.3787C7.28442 19.7227 7.56209 20.0003 7.90606 20.0003H12.0917C12.4357 20.0003 12.7134 19.7227 12.7134 19.3787V15.191C12.7134 14.8491 12.4357 14.5693 12.0917 14.5693Z" fill="#94897C"/>
<path d="M19.3381 14.5693H15.1524C14.8084 14.5693 14.5308 14.847 14.5308 15.191V19.3787C14.5308 19.7227 14.8084 20.0003 15.1524 20.0003H19.3401C19.6841 20.0003 19.9618 19.7227 19.9618 19.3787V15.191C19.9597 14.8491 19.682 14.5693 19.3381 14.5693Z" fill="#94897C"/>
</g>
</g>
<defs>
<clipPath id="clip0_2_491">
<rect width="20" height="20" fill="white"/>
</clipPath>
<clipPath id="clip1_2_491">
<rect width="20" height="20" fill="white"/>
</clipPath>
</defs>
</svg>
