<svg width="15" height="11" viewBox="0 0 15 11" fill="none" xmlns="http://www.w3.org/2000/svg">
<path d="M13.7878 11H1.53528C0.847636 11 0.347534 10.4107 0.347534 9.75595V1.24405C0.347534 0.52381 0.910149 0 1.53528 0H13.7878C14.4754 0 14.9755 0.589286 14.9755 1.24405V9.75595C14.9755 10.4762 14.4129 11 13.7878 11ZM1.53528 0.458334C1.1602 0.458334 0.785123 0.785714 0.785123 1.24405V9.75595C0.785123 10.2143 1.09769 10.5417 1.53528 10.5417H13.7878C14.2254 10.5417 14.5379 10.2143 14.5379 9.75595V1.24405C14.5379 0.785714 14.2254 0.458334 13.7878 0.458334H1.53528Z" fill="#94897C"/>
<path d="M7.6614 5.76197C7.59889 5.76197 7.47386 5.69649 7.47386 5.63102C7.41135 5.50006 7.47386 5.36911 7.59889 5.30363L14.6628 1.70244C14.7879 1.63697 14.9129 1.70244 14.9754 1.8334C15.0379 1.96435 14.9754 2.0953 14.8504 2.16078L7.78643 5.76197C7.72392 5.76197 7.72392 5.76197 7.6614 5.76197Z" fill="#94897C"/>
<path d="M7.66155 5.76173C7.59904 5.76173 7.59904 5.76173 7.53652 5.76173L0.535093 1.7022C0.410068 1.63673 0.410068 1.50578 0.47258 1.37482C0.535093 1.30935 0.660119 1.24387 0.785144 1.30935L7.78657 5.3034C7.9116 5.36887 7.9116 5.49982 7.9116 5.63078C7.84909 5.69625 7.72406 5.76173 7.66155 5.76173Z" fill="#94897C"/>
</svg>
