<svg width="24" height="21" viewBox="0 0 24 21" fill="none" xmlns="http://www.w3.org/2000/svg">
<path d="M10.5844 20.4285L10.4672 20.3181L2.25469 12.5045C0.815625 11.1358 0 9.21483 0 7.20261V7.04413C0 3.66322 2.34375 0.762546 5.5875 0.128625C7.43437 -0.23636 9.32344 0.200662 10.8281 1.28601C11.25 1.59337 11.6438 1.94875 12 2.35695C12.1969 2.12644 12.4078 1.91513 12.6328 1.71823C12.8062 1.56455 12.9844 1.42048 13.1719 1.28601C14.6766 0.200662 16.5656 -0.23636 18.4125 0.123823C21.6562 0.757744 24 3.66322 24 7.04413V7.20261C24 9.21483 23.1844 11.1358 21.7453 12.5045L13.5328 20.3181L13.4156 20.4285C13.0313 20.7935 12.525 21 12 21C11.475 21 10.9688 20.7983 10.5844 20.4285ZM11.2078 4.90705C11.1891 4.89264 11.175 4.87343 11.1609 4.85422L10.3266 3.89373L10.3219 3.88893C9.23906 2.6451 7.60312 2.07841 6.00937 2.39057C3.825 2.81799 2.25 4.76778 2.25 7.04413V7.20261C2.25 8.5713 2.80781 9.88237 3.7875 10.814L12 18.6276L20.2125 10.814C20.6973 10.3526 21.084 9.79382 21.3485 9.17245C21.6131 8.55108 21.7497 7.88051 21.75 7.20261V7.04413C21.75 4.77258 20.175 2.81799 17.9953 2.39057C16.4016 2.07841 14.7609 2.6499 13.6828 3.88893L13.6781 3.89373L13.6734 3.89854L12.8391 4.85902C12.825 4.87823 12.8062 4.89264 12.7922 4.91185C12.5812 5.12796 12.2953 5.24802 12 5.24802C11.7047 5.24802 11.4188 5.12796 11.2078 4.91185V4.90705Z" fill="#E9E1D7"/>
</svg>
