<svg width="16" height="20" viewBox="0 0 16 20" fill="none" xmlns="http://www.w3.org/2000/svg">
<path fill-rule="evenodd" clip-rule="evenodd" d="M5.10869 0.833008C2.60244 0.833008 0.663335 3.0296 0.974196 5.51649L2.40669 16.9764C2.56307 18.2275 3.62657 19.1663 4.88738 19.1663H11.1114C12.3722 19.1663 13.4358 18.2275 13.5921 16.9764L15.0246 5.51649C15.3355 3.0296 13.3964 0.833008 10.8901 0.833008H5.10869ZM2.75064 4.16634C3.09163 3.20426 4.0092 2.49967 5.10869 2.49967H10.8901C11.9896 2.49967 12.9072 3.20426 13.2482 4.16634H2.75064ZM2.6934 5.83301L4.06048 16.7697C4.11261 17.1867 4.46711 17.4997 4.88738 17.4997H11.1114C11.5317 17.4997 11.8862 17.1867 11.9383 16.7697L13.3054 5.83301H2.6934Z" fill="#513C27"/>
<path d="M10.501 9.16471C10.1756 8.83928 9.64797 8.83928 9.32254 9.16471L7.99943 10.4878L6.68282 9.17121C6.35738 8.84577 5.82974 8.84577 5.5043 9.17121C5.17887 9.49665 5.17887 10.0243 5.5043 10.3497L6.82092 11.6663L5.49942 12.9878C5.17398 13.3133 5.17398 13.8409 5.49942 14.1663C5.82486 14.4918 6.3525 14.4918 6.67793 14.1663L7.99943 12.8448L9.32254 14.168C9.64797 14.4934 10.1756 14.4934 10.501 14.168C10.8265 13.8425 10.8265 13.3149 10.501 12.9894L9.17794 11.6663L10.501 10.3432C10.8265 10.0178 10.8265 9.49015 10.501 9.16471Z" fill="#513C27"/>
</svg>
