<svg width="17" height="16" viewBox="0 0 17 16" fill="none" xmlns="http://www.w3.org/2000/svg">
<path fill-rule="evenodd" clip-rule="evenodd" d="M6.37516 5.87468H14.8752C15.6576 5.87468 16.2918 5.24041 16.2918 4.45801V1.62467C16.2918 0.842271 15.6576 0.208008 14.8752 0.208008H2.12516C1.34276 0.208008 0.708496 0.842271 0.708496 1.62467V14.3747C0.708496 15.1571 1.34276 15.7913 2.12516 15.7913H4.9585C5.7409 15.7913 6.37516 15.1571 6.37516 14.3747V5.87468ZM4.9585 11.5413V9.41634H4.25016C3.85896 9.41634 3.54183 9.09921 3.54183 8.70801C3.54183 8.31681 3.85896 7.99968 4.25016 7.99968H4.9585V5.87468H4.25016C3.85896 5.87468 3.54183 5.55754 3.54183 5.16634C3.54183 4.77514 3.85896 4.45801 4.25016 4.45801H4.9585V3.74968C4.9585 3.35847 5.27563 3.04134 5.66683 3.04134C6.05803 3.04134 6.37516 3.35847 6.37516 3.74968V4.45801H8.50016V3.74968C8.50016 3.35847 8.8173 3.04134 9.2085 3.04134C9.5997 3.04134 9.91683 3.35847 9.91683 3.74968V4.45801H12.0418V3.74968C12.0418 3.35847 12.359 3.04134 12.7502 3.04134C13.1414 3.04134 13.4585 3.35847 13.4585 3.74968V4.45801H14.1668C14.558 4.45801 14.8752 4.14088 14.8752 3.74968V2.33301C14.8752 1.94181 14.558 1.62467 14.1668 1.62467H2.8335C2.44229 1.62467 2.12516 1.94181 2.12516 2.33301V13.6663C2.12516 14.0575 2.44229 14.3747 2.8335 14.3747H4.25016C4.64137 14.3747 4.9585 14.0575 4.9585 13.6663V12.958H4.25016C3.85896 12.958 3.54183 12.6409 3.54183 12.2497C3.54183 11.8585 3.85896 11.5413 4.25016 11.5413H4.9585Z" fill="#94897C"/>
</svg>
