<svg width="26" height="26" viewBox="0 0 26 26" fill="none" xmlns="http://www.w3.org/2000/svg">
<path d="M13 25C6.42609 25 1 19.5739 1 13C1 6.42609 6.42609 1 13 1C19.5739 1 25 6.42609 25 13C25 19.5739 19.5739 25 13 25Z" stroke="#94897C" stroke-width="0.6875" stroke-miterlimit="10" stroke-linecap="round" stroke-linejoin="round"/>
<path d="M16.3083 6.95833C16.8145 6.95833 17.2249 6.54793 17.2249 6.04167C17.2249 5.53541 16.8145 5.125 16.3083 5.125C15.802 5.125 15.3916 5.53541 15.3916 6.04167C15.3916 6.54793 15.802 6.95833 16.3083 6.95833Z" stroke="#94897C" stroke-width="0.6875" stroke-miterlimit="10" stroke-linecap="round" stroke-linejoin="round"/>
<path d="M10.4417 15.3914H12.6417C14.1083 15.3914 15.3917 14.1081 15.3917 12.6414V10.4414C15.3917 8.97474 14.1083 7.69141 12.6417 7.69141H10.4417C8.97498 7.69141 7.69165 8.97474 7.69165 10.4414V12.6414C7.69165 14.1997 8.88332 15.3914 10.4417 15.3914Z" stroke="#94897C" stroke-width="0.6875" stroke-miterlimit="10" stroke-linecap="round" stroke-linejoin="round"/>
</svg>
