<svg width="18" height="18" viewBox="0 0 18 18" fill="none" xmlns="http://www.w3.org/2000/svg">
<path d="M0.657862 0.677609C0.00698848 1.32848 0.00698843 2.38376 0.657863 3.03463L6.63312 9.00989L0.657859 14.9851C0.00698594 15.636 0.0069878 16.6913 0.657861 17.3422C1.30874 17.993 2.36401 17.993 3.01488 17.3422L8.99014 11.3669L14.9654 17.3421C15.6162 17.993 16.6715 17.993 17.3224 17.3421C17.9733 16.6913 17.9733 15.636 17.3224 14.9851L11.3472 9.00989L17.3224 3.03466C17.9733 2.38378 17.9733 1.32851 17.3224 0.677632C16.6715 0.0267592 15.6162 0.0267591 14.9654 0.677634L8.99014 6.65286L3.01488 0.677609C2.36401 0.0267338 1.30874 0.0267337 0.657862 0.677609Z" fill="#513C27"/>
</svg>
