<svg width="24" height="24" viewBox="0 0 24 24" fill="none" xmlns="http://www.w3.org/2000/svg">
<path fill-rule="evenodd" clip-rule="evenodd" d="M16.5284 5.99961C16.5097 5.91891 16.4902 5.83803 16.47 5.75708C16.2059 4.70099 15.7902 3.55344 15.1123 2.64961C14.4133 1.71763 13.3927 0.999611 11.9998 0.999611C10.607 0.999611 9.5863 1.71763 8.88731 2.64961C8.20944 3.55344 7.79369 4.70099 7.52967 5.75708C7.50943 5.83803 7.48997 5.91891 7.47126 5.99961H5.87092C4.29153 5.99961 2.98262 7.22416 2.87756 8.80005L2.14423 19.8001C2.02879 21.5316 3.40219 22.9996 5.13759 22.9996H18.862C20.5974 22.9996 21.9708 21.5316 21.8554 19.8001L21.1221 8.80005C21.017 7.22416 19.7081 5.99961 18.1287 5.99961H16.5284ZM7.99982 10.9996C8.5728 10.9996 8.99787 10.568 8.99983 9.99778C8.99997 9.974 9.00026 9.95021 9.00066 9.92643C9.00153 9.87374 9.00333 9.79416 9.00699 9.69155C9.01433 9.48613 9.02912 9.1896 9.05886 8.83266C9.07997 8.57937 9.1084 8.29823 9.14656 7.99961H14.8531C14.8912 8.29823 14.9197 8.57937 14.9408 8.83266C14.9705 9.1896 14.9853 9.48613 14.9926 9.69155C14.9963 9.79416 14.9981 9.87374 14.999 9.92643C14.9994 9.95095 14.9997 9.97548 14.9998 10C14.9998 10 14.9998 10.9996 15.9998 10.9996C16.9998 10.9996 16.9998 9.99827 16.9998 9.99827C16.9997 9.96321 16.9993 9.92815 16.9987 9.8931C16.9976 9.82861 16.9955 9.73631 16.9914 9.62017C16.9831 9.38809 16.9666 9.05962 16.9339 8.66657C16.9168 8.46163 16.8952 8.23773 16.8677 7.99961H18.1287C18.6552 7.99961 19.0915 8.40779 19.1265 8.93309L19.8598 19.9331C19.8983 20.5103 19.4405 20.9996 18.862 20.9996H5.13759C4.55912 20.9996 4.10132 20.5103 4.1398 19.9331L4.87313 8.93309C4.90815 8.40779 5.34446 7.99961 5.87092 7.99961H7.13189C7.10447 8.23773 7.08285 8.46163 7.06577 8.66657C7.03302 9.05962 7.01655 9.38809 7.00827 9.62017C7.00412 9.73631 7.00201 9.82861 7.00093 9.8931C7.00036 9.92746 6.99992 9.96182 6.99982 9.99619C6.99906 10.5668 7.42815 10.9996 7.99982 10.9996ZM9.53334 5.99961H14.4663C14.2351 5.15283 13.9208 4.39427 13.5123 3.84961C13.0863 3.28159 12.607 2.99961 11.9998 2.99961C11.3927 2.99961 10.9133 3.28159 10.4873 3.84961C10.0788 4.39427 9.76454 5.15283 9.53334 5.99961Z" fill="#513C27"/>
</svg>
