<svg width="22" height="20" viewBox="0 0 22 20" fill="none" xmlns="http://www.w3.org/2000/svg">
<path d="M10.7607 0.540039C10.8267 0.337613 11.0863 0.312616 11.2002 0.464844L11.2393 0.540039L13.3457 7.02344C13.4461 7.33179 13.7333 7.54102 14.0576 7.54102H20.874C21.0867 7.54116 21.1911 7.77922 21.082 7.93457L21.0215 7.99512L15.5068 12.002C15.2774 12.1688 15.1646 12.4479 15.207 12.7217L15.2344 12.8389L17.3408 19.3213C17.4066 19.5237 17.2127 19.6962 17.0312 19.6406L16.9551 19.6025L11.4404 15.5957C11.2107 15.4288 10.9096 15.408 10.6621 15.5332L10.5596 15.5957L5.04492 19.6025C4.87283 19.7272 4.64876 19.5959 4.64551 19.4062L4.65918 19.3213L6.76562 12.8389C6.8533 12.5689 6.77939 12.2767 6.58398 12.0801L6.49316 12.002L0.978516 7.99512C0.781738 7.85215 0.88282 7.54118 1.12598 7.54102H7.94238C8.22628 7.54102 8.48178 7.38051 8.6084 7.13379L8.6543 7.02344L10.7607 0.540039Z" stroke="#3B2317" stroke-width="0.497704"/>
</svg>
