<svg width="24" height="24" viewBox="0 0 24 24" fill="none" xmlns="http://www.w3.org/2000/svg">
<path fill-rule="evenodd" clip-rule="evenodd" d="M12 11.9996C14.7614 11.9996 17 9.53717 17 6.49961C17 3.46204 14.7614 0.999611 12 0.999611C9.23858 0.999611 7 3.46204 7 6.49961C7 9.53717 9.23858 11.9996 12 11.9996ZM12 9.79961C10.3431 9.79961 9 8.32215 9 6.49961C9 4.67707 10.3431 3.19961 12 3.19961C13.6569 3.19961 15 4.67707 15 6.49961C15 8.32215 13.6569 9.79961 12 9.79961Z" fill="#513C27"/>
<path fill-rule="evenodd" clip-rule="evenodd" d="M19.1029 14.1083C18.2604 13.263 16.957 13.0807 15.9161 13.6983C15.7257 13.8113 15.5581 13.9147 15.4036 14.0101C14.9937 14.2631 14.6755 14.4594 14.2654 14.6279C13.75 14.8397 13.0835 14.9996 12 14.9996C10.9268 14.9996 10.2493 14.8487 9.72609 14.6443C9.26355 14.4636 8.89822 14.2366 8.41685 13.9375C8.32296 13.8791 8.22448 13.8179 8.12019 13.7539C7.07587 13.1128 5.73464 13.2618 4.86415 14.1415C4.48443 14.5252 4.04036 15.0215 3.6849 15.5622C3.34603 16.0777 3 16.7634 3 17.4996V19.9999C3 21.657 4.34334 22.9996 6 22.9996H18C19.6567 22.9996 21 21.657 21 19.9999V17.4996C21 16.7537 20.6447 16.0588 20.2996 15.5387C19.937 14.9924 19.4852 14.4919 19.1029 14.1083ZM16.9367 15.4183C17.1759 15.2764 17.478 15.3112 17.6863 15.5201C18.0214 15.8564 18.3724 16.2517 18.6331 16.6446C18.9113 17.0638 19 17.3516 19 17.4996V19.9999C19 20.552 18.5525 20.9996 18 20.9996H6C5.44752 20.9996 5 20.552 5 19.9999V17.4996C5 17.3545 5.08549 17.0726 5.35613 16.6609C5.61017 16.2744 5.95358 15.884 6.28579 15.5483C6.49412 15.3377 6.81106 15.297 7.07389 15.4584C7.15661 15.5092 7.24087 15.5617 7.32694 15.6155C7.80938 15.9167 8.34918 16.2536 8.99836 16.5072C9.79304 16.8177 10.7242 16.9996 12 16.9996C13.3002 16.9996 14.2313 16.8042 15.0254 16.4779C15.6006 16.2416 16.1079 15.9278 16.5558 15.6508C16.6879 15.5691 16.8148 15.4906 16.9367 15.4183Z" fill="#513C27"/>
</svg>
