<svg width="24" height="22" viewBox="0 0 24 22" fill="none" xmlns="http://www.w3.org/2000/svg">
<path d="M10.5844 20.9285L10.4672 20.8181L2.25469 13.0045C0.815625 11.6358 0 9.71483 0 7.70261V7.54413C0 4.16322 2.34375 1.26255 5.5875 0.628625C7.43437 0.26364 9.32344 0.700662 10.8281 1.78601C11.25 2.09337 11.6438 2.44875 12 2.85695C12.1969 2.62644 12.4078 2.41513 12.6328 2.21823C12.8062 2.06455 12.9844 1.92048 13.1719 1.78601C14.6766 0.700662 16.5656 0.26364 18.4125 0.623823C21.6562 1.25774 24 4.16322 24 7.54413V7.70261C24 9.71483 23.1844 11.6358 21.7453 13.0045L13.5328 20.8181L13.4156 20.9285C13.0313 21.2935 12.525 21.5 12 21.5C11.475 21.5 10.9688 21.2983 10.5844 20.9285ZM11.2078 5.40705C11.1891 5.39264 11.175 5.37343 11.1609 5.35422L10.3266 4.39373L10.3219 4.38893C9.23906 3.1451 7.60312 2.57841 6.00937 2.89057C3.825 3.31799 2.25 5.26778 2.25 7.54413V7.70261C2.25 9.0713 2.80781 10.3824 3.7875 11.314L12 19.1276L20.2125 11.314C20.6973 10.8526 21.084 10.2938 21.3485 9.67245C21.6131 9.05108 21.7497 8.38051 21.75 7.70261V7.54413C21.75 5.27258 20.175 3.31799 17.9953 2.89057C16.4016 2.57841 14.7609 3.1499 13.6828 4.38893L13.6781 4.39373L13.6734 4.39854L12.8391 5.35902C12.825 5.37823 12.8062 5.39264 12.7922 5.41185C12.5812 5.62796 12.2953 5.74802 12 5.74802C11.7047 5.74802 11.4188 5.62796 11.2078 5.41185V5.40705Z" fill="#513C27"/>
</svg>
