<svg width="359" height="365" fill="none" xmlns="http://www.w3.org/2000/svg"><g opacity=".4" clip-path="url(#clip0_2_5724)" fill="#C89663"><path d="M157.218 218.18c-2.952 2.916-5.262 6.26-6.715 10.097-2.717 7.26-3.764 14.873-4.342 22.563-.039.415-.117.819-.176 1.229-.169-.008-.358-.022-.526-.03.18-3.023.173-6.059.575-9.036.529-3.966 1.167-7.941 2.145-11.835 1.659-6.659 5.673-11.97 10.402-16.809 1.238-1.273 2.636-2.007 4.697-1.388-6.221 5.673-8.471 13.373-11.406 20.718 1.2-5.345 2.91-10.536 5.34-15.489l.006-.02zm-.976-42.111c-15.234-17.314-20.344-37.696-18.128-60.235-.364 10.681.527 21.248 3.466 31.619 2.99 10.557 8.391 19.787 14.681 28.622l-.019-.006zm-30.726 17.86c-19.404-.447-38.563-2.422-56.594-10.427 9.046 3.296 18.426 5.41 27.914 6.808 9.521 1.43 19.107 2.431 28.68 3.619zm6.998 12.103c-20.543 3.484-38 13.793-55.443 24.406.24-.228.44-.467.693-.668.26-.222.566-.386.858-.576 11.656-7.736 23.531-15.065 36.843-19.696 5.517-1.911 11.156-3.229 17.055-3.486l-.006.02zm7.263-23.737s-.14.108-.23.123a.43.43 0 01-.239.014c-.079-.024-.189-.014-.236-.071a1.842 1.842 0 01-.398-.312c-10.805-10.833-23.303-19.589-34.89-29.524 4.227 3.022 8.523 5.959 12.682 9.068 4.173 3.134 8.24 6.408 12.3 9.701 8.991 7.253 10.449 8.738 11.017 10.981l-.006.02zm2.467 131.212c-8.048-18.508-8.216-37.746-4.852-57.27-1.342 19.276-3.647 31.789 4.852 57.27zm-20.408-208.802c-2.296 22.024 5.61 41.003 17.967 58.99-4.116-3.395-11.829-17.679-15.217-27.907-3.658-10.971-4.896-24.227-2.75-31.083zM109.01 228.84c11.498-10.134 30.087-20.146 37.005-19.883-3.183 1.266-6.436 2.404-9.543 3.841-3.254 1.501-6.43 3.239-9.567 4.988-3.06 1.709-6.071 3.539-9.062 5.375-2.972 1.842-5.889 3.786-8.833 5.679zm111.977-94.529c-9.85 11.911-19.986 23.566-29.053 36.076 8.109-13.311 18.318-24.922 29.053-36.076zm-43.117 70.696c6.912 12.034 17.218 19.897 27.32 28.082-1.686-1.083-3.441-2.081-5.064-3.231-7.953-5.723-15.391-12.019-20.918-20.261-1.391-2.063-1.403-2.238-1.357-4.596l.019.006zm-91.702 13.677c-6.664 4.941-13.516 9.656-19.958 14.856-6.474 5.234-11.519 11.838-16.147 18.694 8.236-15.302 21.458-25.26 36.111-33.57l-.006.02zm-38.125-32.503L83 196.687c-12.377-1.968-24.106-4.809-34.975-10.512l.02.006zm175.292 28.043c-4.027-3.262-8.526-5.597-13.403-7.169-4.824-1.536-9.676-2.909-14.477-4.522 8.597 1.088 16.809 3.385 24.424 7.597 1.174.651 2.22 1.585 3.258 2.474.306.263.387.779.587 1.181-.126.133-.232.272-.363.425l-.026.014z"/><path d="M135.657 143.452c3.36 12.035 9.021 22.818 17.496 32.075-6.418-3.639-15.285-19.423-17.496-32.075zm52.984 15.177c-1.947 3.774-4.026 7.487-5.828 11.347-2.118 4.556-4.091 9.198-5.96 13.85-.603 1.507-.674 3.237-1.202 4.852-.561-1.408-.486-2.796-.009-4.169 1.111-3.128 1.985-6.391 3.457-9.367 2.609-5.263 5.573-10.355 8.4-15.489.239-.44.624-.795.936-1.193.067.063.159.112.226.175l-.02-.006zm-131.274-2.615c3.064-.938 11.427 2.28 26.98 9.988-8.996-3.323-17.985-6.665-26.98-9.988zm172.103-60.82c-4.798 7.276-9.621 14.566-14.511 22.007 1.047-4.194 11.722-20.772 14.511-22.007zM90.654 257.875c-7.587 8.296-16.316 14.626-19.998 14.203 7.593-4.043 13.534-9.501 19.998-14.203zm52.309-72.867c3.71-6.364 15.387-9.543 24.284-5.181-4.738-.398-8.858-1.572-13.074-.574-4.216.998-8.062 2.684-11.216 5.774l.006-.019zm1.563-111.797c.214.641.405.933.346 1.13-1.895 6.375-3.834 12.757-5.625 18.715-.008-4.105 2.918-15.832 5.26-19.85l.019.005zm48.793 45.07c-5.829 6.154-8.246 13.697-11.813 20.296 1.704-8.377 8.066-19.862 11.813-20.296zm-37.827-8.143c.33-7.507 2.631-14.594 5.213-21.617l-4.43 21.788-.783-.171zm38.605 109.659c-6.084-3.965-14.376-13.188-14.398-16.036 4.791 5.35 9.588 10.68 14.398 16.036zm-66.016.629c6.322-4.233 12.796-8.398 20.259-10.514.082.153.145.3.227.453l-20.486 10.061zm64.576 35.561c-3.511-.564-10.741-9.404-13.355-16.087 4.074 5.669 7.869 11.553 13.355 16.087zM149.6 201.658c6.939 3.474 14.576 3.483 22.022 4.482-7.643.01-15.26.007-22.022-4.482zm24.823 8.339c-.148 6.473 3.553 11.602 6.01 17.597-4.357-4.301-7.754-14.146-6.01-17.597zm63.326 29.181c-4.724-2.937-9.454-5.854-14.343-8.884 3.407.554 13.154 6.219 14.62 8.39l-.277.494zm-114.623-65.284c7.211 3.492 13.941 8.442 14.823 10.993-5.18-3.843-9.988-7.425-14.823-10.993zm-66.288-38.98c3.092-.246 11.198 3.259 18.314 7.919a9206.052 9206.052 0 01-18.314-7.919z"/><path d="M153.242 181.492c5.865-2.212 11.483-1.463 16.933 1.478-5.549-1.475-11.135-2.684-16.933-1.478zm-1.833 7.527c2.86-1.042 10.852 2.129 15.563 6.109-5.439-1.913-10.038-5.196-15.563-6.109zm22.246-3.1c-.107-6.336 3.073-11.577 5.65-17.02-1.647 5.766-4.906 10.983-5.65 17.02zm32.269 15.531c6.825 1.431 13.247 4.558 13.904 6.571-4.63-2.182-9.28-4.37-13.904-6.571zm-45.5 63.953c-1.955-1.827-3.179-10.571-2.36-14.79.795 5.046 1.577 9.918 2.36 14.79zm20.762-133.098c1.581-6.256 4.041-11.521 6.453-12.783a7481.032 7481.032 0 00-6.453 12.783zM55.532 151.723c2.976-.217 4.997 1.459 7.26 2.117 2.283.665 4.44 1.677 7.215 2.767-4.973-.896-12.661-3.442-14.475-4.884zm29.32 114.706c-2.57 3.352-5.662 6.162-9.346 8.238-.169-.221-.343-.423-.512-.645 3.288-2.538 6.57-5.056 9.877-7.587l-.02-.006zm135.093-163.972c1.323-3.406 3.043-6.564 5.929-9.543.094.755.268 1.17.125 1.362-1.998 2.733-4.036 5.454-6.054 8.181zm-31.171 145.164c3.311 2.085 6.836 5.452 7.589 7.43-3.199-2.03-5.364-4.368-7.589-7.43zM137.128 86.437c-.11-3.195.165-6.318 1.557-9.169.157.048.34.081.503.109-.693 3.018-1.387 6.036-2.074 9.035l.014.025zm-.574 111.708c1.739-3.367 3.608-4.6 5.672-3.851-1.829 1.245-3.601 2.443-5.672 3.851zm18.178-11.569c2.576.262 4.99.987 7.496 2.83l-7.694-2.312c.053-.177.126-.347.198-.518z"/><path d="M357.488 83.859c-.773.366-1.568.66-2.295 1.084-13.331 7.83-23.884 18.591-32.757 31.095-7.045 9.913-13.819 19.992-20.825 29.916-2.462 3.491-5.194 6.815-7.901 10.126-8.816 10.748-19.91 18.183-32.939 22.942-12.786 4.662-25.986 6.785-39.541 7.241-5.472.193-10.909.909-16.365 1.406-.815.076-1.63.365-2.66.59 4.567 2.462 8.871 4.803 13.187 7.104 6.083 3.26 11.953 6.797 16.143 12.437 5.313 7.174 8.82 15.087 8.868 24.182.08 11.84-8.975 21.106-17.998 23.715-5.604 1.628-11.159 3.377-16.692 5.197-6.277 2.088-12.546 2.725-18.888.328-3.705-1.413-7.085-3.412-10.231-5.832-.664-.498-1.308-.991-2.236-1.676-.222 1.664-.31 3.027-.575 4.336-.701 3.614-2.554 6.647-4.847 9.505-2.837 3.528-5.752 7.032-8.184 10.852-5.119 7.992-7.104 16.946-7.325 26.367-.073 2.735-.334 5.455-.66 8.178-.412 3.295-1.663 6.316-3.704 8.908-2.921 3.738-6.488 4.14-10.334 1.275-2.621-1.963-4.422-4.513-5.615-7.521-1.496-3.783-2.231-7.744-2.451-11.784-.19-3.283-.92-6.409-1.884-9.54-3.076-9.985-4.379-20.248-3.988-30.665.087-2.281.576-4.549.89-7.019-.349.237-.683.351-.864.595-6.591 8.618-15.522 13.84-25.519 17.481-4.373 1.591-8.85 2.746-13.541 2.832-4.004.078-7.914-.584-11.302-2.841-5.796-3.858-12.316-5.945-18.777-8.229-4.934-1.74-8.926-4.691-11.959-8.915-2.883-4.007-3.546-8.352-2.271-13.161 2.171-8.151 7.165-14.086 14.002-18.677 1.848-1.239 3.833-2.288 5.668-3.552 3.043-2.078 6.132-4.098 9.006-6.396 3.83-3.059 7.667-6.072 12.115-8.197.351-.172.653-.466 1.2-.858-.735-.263-1.184-.548-1.646-.579-5.252-.468-9.93-2.707-14.461-5.073-8.826-4.597-16.506-10.73-23.022-18.244-2.942-3.384-5.534-7.005-7.281-11.162-2.775-6.646.005-12.05 7.024-13.616 4.173-.925 8.342-1.766 12.774-2.699-.736-1.183-1.49-2.093-1.963-3.154-4.052-9.231-1.262-19.226 7.9-23.652 7.163-3.467 14.611-4.326 22.478-1.877 10.373 3.225 19.297 8.706 27.258 15.97 1.427 1.305 2.871 2.551 4.324 3.842.164-.121.31-.248.469-.35-.375-.818-.775-1.622-1.131-2.434-1.905-4.483-4.068-8.894-5.634-13.51-2.062-6.025-2.127-12.22-.67-18.491 2.883-12.297 10.144-21.503 19.905-29.061 3.066-2.37 6.228-4.56 9.875-5.942 1.89-.736 3.323-2.015 4.611-3.593 1.731-2.13 3.429-4.29 5.388-6.18 2.809-2.724 6.181-4.19 10.242-3.888 2.301.179 4.079 1.312 5.696 2.695 6.54 5.512 9.998 12.663 10.06 21.143a82.72 82.72 0 01-1.358 15.553c-1.08 5.872-2.915 11.624-4.458 17.4-2.455 9.091-5.189 18.12-6.24 27.526-.116 1.098-.258 2.209-.315 3.325-.021.57.126 1.148.263 2.044 2.641-9.569 6.746-18.101 12.279-25.903 5.267-7.413 11.7-13.578 19.516-18.366 2.73-1.679 5.05-4.059 7.441-6.246 2.391-2.188 4.532-4.685 7.004-6.784 3.445-2.918 7.516-4.43 12.122-4.092 6.224.439 16.253 6.444 15.556 16.171-.273 3.828-.715 7.648-.988 11.476-.454 6.637-.622 13.318-1.264 19.941-.972 10.285-4.404 19.638-11.117 27.663-3.579 4.288-7.834 7.624-12.788 10.152-5.74 2.934-11.418 5.949-16.225 10.338-.505.468-1.003.916-1.494 1.41-.094.1-.089.294-.147.703 1.481-.302 2.916-.448 4.245-.882 7.763-2.474 15.732-3.285 23.836-3.477 12.951-.296 25.566-2.466 37.818-6.776 14.047-4.944 25.915-12.959 34.917-24.826 7.026-9.277 13.753-18.773 20.36-28.368 6.372-9.239 12.791-18.421 20.823-26.349 6.125-6.065 12.891-11.275 20.399-15.536.726-.423 1.554-.687 2.316-1.013l-.595 1.979-.053-.037zM142.736 179.21a208.15 208.15 0 00-24.384-29.379c-8.37-8.392-17.141-16.306-28.52-20.601-5.993-2.272-12.06-4.159-18.533-2.558-2.729.676-5.498 1.489-8.029 2.716-10.817 5.232-11.083 18.507-5.884 24.706.397.461.603 1.057.905 1.618-2.593.652-4.89 1.244-7.194 1.791-2.42.576-4.856 1.062-7.256 1.644-5.965 1.476-8.521 6.136-6.025 11.715a44.569 44.569 0 005.381 9.01c6.316 8.18 14.218 14.572 23.244 19.571 4.734 2.62 9.712 4.714 15.095 5.67 2.38.415 4.693.619 7.088-.157 12.858-4.191 25.988-6.933 39.572-7.273 1.335-.027 2.673-.137 3.547-.195 1.085-2.259 1.951-4.072 3.115-6.521.038-4.326 1.214-6.174 7.917-11.745l-.039-.012zM132.2 198.672c-.236-.07-.393-.118-.561-.126-10.281.457-20.476 1.624-30.594 3.605-11.626 2.296-21.96 6.99-30.813 15.013-2.827 2.569-6.25 4.489-9.446 6.648-2.477 1.692-5.09 3.193-7.486 4.973-5.502 4.137-9.3 9.512-11.134 16.183-1.215 4.4-.611 8.513 2.139 12.181 2.926 3.935 6.663 6.811 11.373 8.44 6.63 2.292 13.345 4.374 19.317 8.284 1.786 1.178 4.079 1.739 6.226 2.213 4.379.953 8.713.204 12.942-.982 10.427-2.935 19.786-7.729 27.345-15.649 2.935-3.071 5.21-6.511 6.36-10.696.554-2.055 1.447-4.031 2.407-5.943 5.87-11.697 14.579-20.811 25.555-27.854.452-.291.843-.665 1.323-1.055-2.107-.89-3.98-1.709-5.895-2.456-.88-.35-1.783-.621-2.721-.775-7.427-1.206-13.048-4.861-16.325-12.043l-.012.039zm50.608-.559c1.355-1.73 2.297-3.156 3.478-4.382 1.182-1.226 2.611-2.207 3.907-3.313.196-.155.345-.367.514-.572 4.275-5.04 9.583-8.744 15.348-11.905 2.614-1.436 5.105-3.102 7.576-4.774 5.964-4.105 8.706-10.097 10.067-16.975 1.021-5.248 1.049-10.539 1.083-15.85.037-7.745 1.534-15.073 4.985-22.07 2.236-4.52 3.853-9.333 4.503-14.415.305-2.366-.07-4.466-2.017-6.034-1.323-1.081-2.671-2.149-4.1-3.091-3.762-2.434-7.423-2.573-11.162.256-3.581 2.728-6.721 5.844-9.387 9.444-1.937 2.602-3.861 5.229-5.871 7.787-2.46 3.128-5.632 5.209-9.483 6.274a185.147 185.147 0 00-6.147 1.87c-3.795 1.232-6.753 3.527-9.085 6.8-4.793 6.764-8.468 14.079-11.228 21.839-1.058 2.951-1.565 6.132-1.944 9.245-.86 7.135 1.646 13.678 4.124 20.171.31.82 1.152 1.436 1.782 2.117 1.413 1.493 3.023 2.831 4.2 4.467 1.515 2.079 3.028 4.094 4.828 5.938 1.272 1.323 2.059 3.119 3.009 4.729.363.644.598 1.355 1.032 2.405l-.012.039zm-21.509-88.858c.167-1.125.406-2.207.471-3.277.152-3.566.99-6.925 2.704-10.063 1.474-2.699 2.915-5.428 4.495-8.051 1.871-3.092 2.852-6.43 2.725-9.993-.047-1.553-.38-3.362-1.228-4.6-1.723-2.526-3.69-4.955-5.937-7.02-2.82-2.578-6.355-3.063-9.837-1.375-1.808.889-3.534 2.144-4.982 3.546-1.7 1.668-2.939 3.796-4.572 5.528-1.325 1.418-2.756 2.975-4.477 3.718-6.009 2.617-11.002 6.63-15.725 11.022-6.601 6.157-11.222 13.486-13.588 22.284-1.682 6.31-1.579 12.517.23 18.744 1.998 6.883 5.25 13.223 8.833 19.386 1.033 1.763 2.289 3.422 3.645 4.963 6.196 7.011 12.309 14.084 17.632 21.794.712 1.048 1.589 1.974 2.445 3.043 5.812-2.676 11.753-3.22 17.922-2.028-.041-.504-.002-.706-.096-.82-.386-.565-.799-1.116-1.211-1.667-5.546-7.607-10.026-15.77-12.931-24.762-3.206-9.981-3.702-19.938-.103-29.989 2.385-6.655 6.148-9.776 13.559-10.369l.026-.014zm76.982 129.29c.11-.65.287-1.666.483-2.675 1.011-5.359-.57-9.851-4.702-13.336-1.829-1.533-3.858-2.827-5.868-4.114-2.56-1.667-4.734-3.688-6.273-6.33-.944-1.63-2.009-3.211-2.781-4.917-2.49-5.385-6.144-9.817-10.605-13.7-5.906-5.13-14.262-5.312-20.074-.071-1.578 1.406-2.893 3.147-4.138 4.867-4.006 5.569-8.118 11.064-13.418 15.454-3.049 2.524-5.575 5.376-7.134 8.925-2.844 6.474-3.169 13.107 1.116 19.074a56.867 56.867 0 0015.373 14.642c1.435.923 3.307 1.315 5.04 1.6 2.756.444 5.231-.671 7.598-1.925 6.552-3.501 13.469-4.799 20.879-3.747 2.526.353 5.148.457 7.674.17 7.934-.907 14.272-5.69 16.869-13.905l-.039-.012zm-67.349-26.053c-.088-.133-.17-.286-.259-.419-2.073.488-4.13 1.28-6.245 1.413-4.342.277-7.84 2.302-11.196 4.712a75.526 75.526 0 00-14.495 13.764c-7.787 9.604-12.172 20.636-12.688 32.96-.41 9.984 1.092 19.794 3.989 29.383.857 2.843 1.401 5.805 1.75 8.773.48 4.098.928 8.164 2.478 12.049 1.228 3.104 3.071 5.73 5.921 7.57 2.593 1.698 4.669 1.553 6.946-.541 2.157-1.98 3.07-4.59 2.953-7.403-.102-2.723-.593-5.434-1.114-8.113-.97-5.035-2.514-10.007-3.044-15.081-.888-8.365 1.67-15.738 8.03-21.518 2.41-2.182 5.001-4.181 7.459-6.306 2.079-1.79 4.224-3.517 6.069-5.526 1.908-2.076 3.272-4.551 3.585-7.513-1.769-1.877-3.502-3.659-5.152-5.501-2.22-2.441-3.929-5.155-4.818-8.392-2.143-7.824 1.509-17.838 7.98-22.709.66-.485 1.251-1.098 1.863-1.641l-.012.039zm-4.582-34.24c.006-.233.065-.429.021-.571a61.093 61.093 0 00-.779-2.178c-3.603-9.587-4.548-19.401-3.228-29.56 1.178-9.048 3.63-17.777 6.226-26.484 2.154-7.237 4.262-14.467 5.189-21.966.632-5.023 1.09-10.035.146-15.084-.131-.702-.398-1.38-.68-2.363-.34.56-.528.76-.574.982-.828 4.11-2.781 7.69-4.97 11.198-2.955 4.775-5.214 9.801-4.92 15.658.043.783-.432 1.58-.697 2.462-.821.095-1.49.257-2.151.251-3.871-.01-6.884 1.756-8.784 4.945-1.555 2.61-2.894 5.498-3.608 8.446-1.765 7.439-1.473 14.942.559 22.348 2.288 8.337 6.009 16.036 10.702 23.28 1.536 2.363 3.201 4.658 4.896 6.92.628.83 1.282 1.86 2.632 1.71l.02.006zm15.284 21.987c-.826-4.373-2.708-7.652-5.881-10.123-5.272-4.105-11.29-5.017-17.728-3.96-.742.119-1.47.477-2.147.808-2.279 1.174-4.558 2.348-6.809 3.573-1.109.628-2.25 1.29-3.19 2.14-6.14 5.547-4.119 12.992 1.673 15.652 1.558.725 3.152 1.332 4.667 2.129 6.338 3.336 12.707 2.793 19.059.172 1.075-.446 2.224-1.062 2.995-1.92 2.542-2.762 4.931-5.655 7.367-8.491l-.006.02zm-9.388 51.388l-.624-.06c-.852 6.325-5.286 9.971-9.826 13.543-.672.524-1.376 1.018-2.02 1.594-2.122 1.862-4.325 3.636-6.319 5.643-3.09 3.089-5.129 6.813-6.036 11.114-.799 3.798-.845 7.652-.042 11.461 1.198 5.767 2.488 11.517 3.751 17.282.022.07.224.11.546.249.153-2.219.355-4.316.434-6.429.234-5.122.409-10.262 1.795-15.23 2.174-7.872 6.021-14.836 11.331-21.039 1.778-2.073 3.51-4.202 5.062-6.449 1.895-2.742 2.674-5.906 2.6-9.219-.012-.815-.452-1.631-.703-2.433l.051-.027zm49.221-84.524c.21-.129.46-.246.617-.413.471-.499.908-1.03 1.34-1.541 6.782-8.112 9.91-17.663 10.737-28.034.515-6.555.757-13.128 1.161-19.673.213-3.483.515-6.982.727-10.465.028-.59-.178-1.186-.28-1.772-.603.652-.797 1.299-.992 1.945-.806 2.685-1.482 5.431-2.42 8.055-1.204 3.292-2.768 6.433-3.991 9.719-2.103 5.715-2.337 11.691-2.343 17.694-.005 8.417-.577 16.728-4.542 24.511l-.014-.026zm-48.564 18.824c-1.132-3.14-6.121-6.263-9.519-7.348-7.437-2.385-14.536-1.335-21.241 2.462-2.607 1.481-4.338 3.824-5.685 6.454-.722 1.407-.942 2.922.172 4.624.64.15 1.498.643 2.232.479 2.34-.451 4.724-.91 6.901-1.815 2.97-1.266 5.82-2.845 8.623-4.481 2.542-1.48 5.292-2.085 8.132-1.851 3.464.293 6.881.957 10.385 1.476zm65.094 38.965c-1.509-6.586-4.095-12.577-8.542-17.717-3.976-4.571-12.85-10.721-16.184-11.018 3.161 3.151 5.149 6.932 7.086 10.741.925 1.837 1.863 3.701 3.091 5.309 1.27 1.685 2.726 3.319 4.404 4.572 3.463 2.579 7.323 4.615 10.151 8.093l-.006.02zm-51.786 34.671c.243.116.54.269.848.383 5.309 2.13 10.675 2.076 16.077.409 6.532-2.012 13.084-4.017 19.603-6.053.918-.28 1.774-.707 2.651-1.062-4.096.67-8.082.69-12.079.173-7.211-.928-13.902.544-20.344 3.821-2.094 1.059-4.452 1.568-6.782 2.343l.026-.014zm30.975-166.439c-2.94.74-5.144 2.022-7.056 3.755-2.209 2.008-4.309 4.154-6.323 6.37-2.56 2.82-5.39 5.26-8.725 7.1-4.234 2.338-7.812 5.558-11.237 8.909-.303.293-.452.719-.76 1.246 3.427-1.15 6.571-2.213 9.769-3.24 2.94-.954 5.405-2.606 7.404-4.911 1.24-1.422 2.448-2.876 3.529-4.41 3.718-5.25 7.709-10.268 13.034-14.031.108-.075.141-.257.391-.802l-.026.014zm-75.527 101.917c-.675-1.742-1.953-1.121-2.995-1.285-1.141-.193-2.257-.465-3.38-.717-2.055 2.566-2.228 5.207-.509 8.031 1.358 2.246 3.232 3.984 5.489 5.304 1.182.697 2.214 1.819 4.157 1.762-4.017-4.007-3.742-8.625-2.743-13.089l-.019-.006z"/></g><defs><clipPath id="clip0_2_5724"><path fill="#fff" transform="rotate(-73.272 190.256 140.685)" d="M0 0h294.877v284.485H0z"/></clipPath></defs></svg>