<svg width="241" height="619" fill="none" xmlns="http://www.w3.org/2000/svg"><g opacity=".4" clip-path="url(#clip0_2_723)" fill="#C89663"><path d="M152.158 359.739c.25-.671.406-1.373.75-1.998 1.375-2.528 2.859-4.978 4.218-7.522 5.061-9.489 8.342-19.727 12.325-29.653 2.703-6.727 5.093-13.578 7.811-20.289 7.577-18.744 18.841-35.038 33.025-49.396 9.467-9.583 18.903-19.197 27.589-29.513.734-.874 1.421-1.935 3.124-1.748-.062.547 0 1.108-.187 1.592-.766 2.092-1.5 4.183-2.406 6.212-6.561 14.842-11.842 30.137-17.184 45.431-1.594 4.558-3.359 9.068-5.062 13.578-4.593 12.283-11.904 22.755-21.246 31.885a141.826 141.826 0 01-13.997 11.986c-2.609 1.967-5.187 3.98-7.78 5.962-7.936 6.087-14.388 13.485-19.527 22.037-.328.546-.703 1.077-1.047 1.608-.125-.063-.265-.11-.39-.172h-.016zm77.672-125.901c-.265.593-.5 1.186-.796 1.748-3.625 6.586-7.311 13.126-10.889 19.743-4.28 7.928-8.451 15.935-12.716 23.878-7.624 14.203-17.091 27.235-26.308 40.407-5.733 8.193-11.591 16.293-17.387 24.456-.39.546-.687 1.139-1.031 1.716.484.047.719-.062.875-.234 5.171-5.883 11.42-10.534 17.543-15.326 4.578-3.589 9.108-7.241 13.373-11.205 6.717-6.259 12.701-13.188 17.168-21.288 3.797-6.898 6.64-14.202 9.233-21.6 6.296-17.995 12.56-36.021 20.355-53.454.157-.327.25-.686.36-1.045a3.48 3.48 0 00-1.516 1.155c-2.343 3.152-4.655 6.305-6.983 9.457a42.734 42.734 0 01-1.328 1.655c.297-.734.594-1.467 1.047-2.607-.562.515-.765.671-.937.859-6.483 6.726-12.92 13.515-19.465 20.179-14.716 14.983-25.995 32.182-33.556 51.784-4.515 11.69-9.061 23.379-13.576 35.084-.109.281-.125.578-.187.874.125.078.266.156.391.234.187-.343.343-.702.562-1.03 5.749-8.1 11.56-16.153 17.231-24.315 6.842-9.879 13.997-19.587 19.871-30.106 6.686-11.986 13.013-24.159 19.59-36.192 2.546-4.635 5.374-9.115 8.092-13.656.266-.437.672-.781 1-1.155l-.016-.016zM44.382 188.546c.61-.047 1.218-.14 1.828-.109 3.202.125 6.405.312 9.607.406 5.687.171 11.389.093 17.06.483 8.654.594 17.355 1.265 25.729 3.699 17.012 4.963 30.509 14.702 39.617 30.059 2.89 4.87 5.436 9.973 7.983 15.045 1.906 3.793 3.499 7.726 5.296 11.581 2.202 4.713 3.296 9.738 4.389 14.779.766 3.496 1.75 6.945 2.625 10.426.531 2.153 1.062 4.292 1.562 6.461.109.453 0 .968-.234 1.483-.188-.531-.406-1.046-.563-1.592-6.217-21.397-17.934-38.846-36.696-51.316-12.981-8.615-26.588-16.137-40.257-23.566-11.733-6.383-23.777-12.033-36.415-16.372-.578-.203-1.11-.499-1.672-.749.047-.234.078-.468.125-.702l.016-.016zm8.81 2.575c-.03.094-.062.188-.078.297.329.172.625.374.969.499 11.389 4.167 22.058 9.864 32.697 15.623 12.247 6.633 24.37 13.469 35.993 21.178 13.247 8.803 23.683 20.086 30.619 34.476.219.453.5.874.797 1.389.125-.281.218-.39.203-.499a5.21 5.21 0 00-.141-.968c-2.39-9.723-6.483-18.588-13.091-26.188-8.374-9.63-17.872-17.98-28.541-24.987-10.264-6.742-21.059-12.439-33.025-15.513-6.999-1.795-14.138-3.044-21.23-4.511-1.703-.343-3.437-.53-5.156-.796h-.015zm92.998 50.707c.094-.062.203-.125.297-.172-.188-.468-.359-.952-.547-1.42-2.562-6.024-5.639-11.767-9.107-17.323-9.764-15.685-23.886-25.268-41.695-29.607-3.094-.749-6.28-1.233-9.452-1.592-4.92-.577-9.873-1.077-14.81-1.373-5.155-.297-10.326-.297-15.48-.468-1.625-.047-3.235-.188-4.86-.297 4.812 1.14 9.67 1.967 14.514 2.794 8.436 1.451 16.793 3.262 24.73 6.539 22.182 9.193 40.913 23.005 55.692 42.014.234.296.484.593.734.889l-.016.016zm-36.086-97.855c-8.717.422-16.84-1.685-24.543-5.727-8.717-4.573-16.746-10.145-24.26-16.497-6.155-5.212-12.06-10.722-17.528-16.668-1.64-1.795-3.156-3.699-4.718-5.572l.328-.28c.531.64 1.031 1.31 1.593 1.919 12.935 13.968 27.026 26.516 43.867 35.678 5.046 2.746 10.31 4.994 16.028 5.93 3.062.515 6.171.827 9.233 1.233v-.016zm15.981-5.322c-.375.218-.734.437-1.484.874.531-1.296 1.031-2.17 1.25-3.106.703-2.965 1.609-5.931 1.843-8.943.281-3.636.094-7.319-.141-10.971-.703-11.347-4.249-22.1-6.889-33.071 1.031 3.168 2.218 6.29 3.031 9.52 1.562 6.102 3.187 12.204 4.249 18.416.906 5.228 1.25 10.535.75 15.903-.375 3.949-1.156 7.741-2.625 11.409l.032-.031h-.016zm-4.327-30.308c-4.828-18.744-12.623-36.224-21.653-53.204 9.92 16.637 18.013 34.038 21.653 53.204zm20.777 15.512c.187-.468.328-.952.562-1.389 2.172-4.182 3.312-8.661 3.984-13.297.609-4.151.953-8.334.75-12.532-.282-5.837-.719-11.674-1.078-17.51-.032-.532 0-1.062.312-1.608.375 3.62.875 7.225 1.078 10.846.266 4.916.422 9.848.406 14.764a45.56 45.56 0 01-2.874 15.998c-.656 1.763-1.328 3.574-2.703 4.931l-.437-.218v.015z"/><path d="M117.368 140.961c-7.639 1.03-14.56-1.014-20.98-4.9-7.265-4.417-13.701-9.895-19.575-16.013-.156-.172-.297-.374-.328-.624 2.734 2.388 5.374 4.916 8.249 7.148 3.733 2.887 7.56 5.665 11.497 8.271 4.484 2.966 9.467 4.807 14.794 5.635 2.094.327 4.234.343 6.358.483h-.015zM34.759 72.244s.125-.047.187-.047c.063 0 .14 0 .188.016.11.062.234.125.328.218.14.14.25.313.36.469 4.03 6.539 8.92 12.438 13.934 18.228 2.859 3.293 5.811 6.524 8.858 9.942-6.718-4.698-23.558-25.111-23.84-28.841l-.015.015zM92.076 96.59c7.295 12.159 13.357 25.128 23.355 35.522-.125.109-.25.203-.375.312-1.609-1.717-3.296-3.371-4.843-5.166-5.077-5.883-8.858-12.626-12.591-19.383-2.016-3.652-3.921-7.382-5.874-11.066l.328-.234v.016zm57.989-34.46c-3.594-12.5-7.202-25.018-10.795-37.519 4.764 12.174 8.654 24.597 11.263 37.394l-.468.125zM124.944 7.085c.407 2.887.75 5.775 1.203 8.63.485 2.95 1 5.9 1.641 8.803.64 2.856 1.437 5.665 2.218 8.474.781 2.857 1.625 5.713 2.499 8.756-3.936-6.524-9.42-30.855-7.561-34.679v.016zM81.297 81.873c6.592 13.266 12.825 26.703 21.558 38.783l-.453.406c-.266-.406-.516-.843-.812-1.233-4.78-6.258-8.796-12.985-12.232-20.055-2.844-5.837-5.609-11.736-8.405-17.604l.344-.297zM66.909 98.791c4.483 4.635 8.826 9.411 13.482 13.859 4.655 4.432 9.623 8.553 14.747 13.063-11.17-7.523-20.262-16.668-28.245-26.922h.016zm7.123-51.565c.235 1.357.438 2.73.72 4.073 1.093 5.103 3.186 9.848 5.17 14.64 1.562 3.776 3.218 7.506 4.608 11.392-.5-.905-1.03-1.794-1.5-2.715-3.592-6.992-6.764-14.156-8.95-21.725-.532-1.81-1.032-3.683-.5-5.587.156-.032.312-.063.468-.078h-.016zm-24.729 85.495c10.53 1.077 20.949 2.778 30.76 6.945-.047.187-.094.374-.141.546-3.28-.999-6.53-2.076-9.842-2.965-3.452-.921-6.967-1.655-10.467-2.419-3.42-.75-6.873-1.421-10.31-2.123v.016zm76.751 5.946c3.436-2.872 4.671-6.805 5.389-11.019.922-5.384 1.515-10.784 1.281-16.262.844 7.21.375 13.874-1.375 20.694-.593 2.31-1.671 4.324-3.343 6.04-.578.593-1.14.859-1.921.515l-.031.032zm-39.758 5.275c-7.03.406-26.136-2.996-28.417-5.306 9.561 2.778 19.169 3.777 28.417 5.306zM97.715 22.255c4.952 6.68 7.827 14.374 10.686 22.084-3.687-7.32-6.702-14.983-11.498-21.74l.812-.344zM151.33 93.75c0 2.294.141 4.604-.031 6.883-.282 3.823-.656 7.647-1.188 11.455-.375 2.591-1.359 4.417-2.624 5.603 1.406-3.855 2.468-7.772 2.781-11.861.296-4.027.515-8.053.765-12.08h.313-.016zm-28.276-81.265c.438 7.164 2.796 13.844 4.577 20.664-1.687-3.215-2.624-6.68-3.64-10.129-1.593-5.447-1.984-9.114-.952-10.55l.015.015zM38.305 72.103c3.234 4.386 6.483 8.756 9.717 13.142-2.578-1.686-9.733-11.066-10.108-12.892.125-.078.25-.171.391-.25zm-10.81 11.128c-3.094-3.309-5.343-7.117-7.343-11.08-.109-.22.032-.578.063-.86.14-.046.265-.093.406-.14 2.296 4.027 4.577 8.053 6.874 12.08zM20.45 130.52c1.561-1.53 7.591-2.248 15.34-1.842a4753.5 4753.5 0 01-15.34 1.842zm47.427 4.105l-14.59-3.559c5.092.172 9.935 1.389 14.668 3.122-.03.156-.062.296-.078.452v-.015zm7.671-69.061c-2-3.449-3.484-7.038-3.906-10.956.157-.047.297-.093.453-.14 1.156 3.699 2.297 7.397 3.453 11.096zM153.986 687c-.141-3.325-.203-6.665-.453-9.989-.438-5.79-.86-11.596-1.5-17.37-.703-6.29-1.609-12.548-2.453-18.822-.859-6.337-1.937-12.642-2.593-18.994-.75-7.335-1.375-14.701-1.593-22.068-.204-6.789.093-13.594.328-20.383.171-5.29.468-10.565.921-15.841a393.832 393.832 0 011.812-17.12c1-7.835 2.172-15.638 3.328-23.442.141-.999.047-2.154.75-2.996.187.015.359.031.547.062 0 .593.109 1.202.031 1.779-.953 6.586-2 13.157-2.906 19.743a362.042 362.042 0 00-1.734 14.764c-.578 5.977-1.218 11.971-1.421 17.964-.329 10.253-.688 20.523-.391 30.761.297 10.238 1.703 20.414 3.265 30.542 1.265 8.194 2.406 16.403 3.234 24.644.906 8.896 1.39 17.838 2.046 26.75h-1.171l-.047.016z"/><path d="M153.658 405.155c-1 .109-.985-.515-1.047-1.015-.234-2.122-.547-4.229-.687-6.352-.86-13.11-1.016-26.251-.36-39.376.438-8.646 1.125-17.277 1.984-25.892.828-8.272 2.031-16.512 3.031-24.768.89-7.335 1.687-14.686 2.562-22.021 1.656-13.844 2.359-27.749 2.171-41.686-.093-7.726-.484-15.451-1.109-23.161-1.218-14.967-3.827-29.684-9.107-43.84-3.297-8.849-7.78-17.089-12.561-25.189-3.577-6.056-9.138-8.912-15.996-9.489-.657-.063-1.344-.063-2 .078-3.968.827-8.03 1.279-11.841 2.856-6.359 2.637-13.045 3.246-19.84 2.856-7.827-.453-15.42-2.294-23.074-3.855-9.81-1.998-19.652-3.871-29.744-3.48-8.64.327-16.856 2.497-24.761 5.961-1.703.75-3.39 1.592-5.14 2.217-1.171.405-2.452.671-3.702.686-2.14.032-3.062-1.248-2.078-3.121 1.14-2.154 2.437-4.323 4.078-6.118 4.249-4.666 9.607-7.803 15.356-10.269 3.437-1.483 6.92-2.841 10.357-4.292 5.671-2.419 11.576-2.997 17.653-2.404.484.047.984 0 1.937 0-.78-.718-1.218-1.17-1.718-1.56-10.498-8.303-18.668-18.604-25.745-29.856-2.11-3.371-3.656-6.992-4.312-10.91-.328-2.013-.406-4.135-.156-6.149.422-3.418 2.484-5.119 5.936-5.353 2.906-.203 5.718.39 8.467 1.218 2.594.78 5.171 1.248 7.89.89 4.624-.61 8.857.826 12.95 2.715 7.42 3.433 13.341 8.755 18.543 14.951.344.406.672.827 1.016 1.233.078.078.234.094.531.203-.078-.515-.094-.952-.234-1.342-4-11.347-3.89-22.896-1.766-34.554 1.156-6.383 2.781-12.642 5.874-18.4 4.015-7.46 10.092-12.314 18.45-14.078 3.608-.765 7.03-.031 10.185 1.873 2.781 1.67 5.171 3.824 6.968 6.508 2.484 3.714 4.78 7.538 7.155 11.315.374.609.718 1.233 1.093 1.857.156-.031.312-.078.469-.109-.11-.64-.219-1.295-.328-1.935-.531-2.887-1.203-5.744-1.594-8.646-.859-6.415.313-12.61 2.187-18.713.641-2.107 1.125-4.26 1.828-6.337.594-1.763 1.172-3.574 2.125-5.15 2.062-3.418 5.03-4.073 8.326-1.857 1.469.999 2.796 2.279 3.968 3.62 5.327 6.197 8.124 13.563 9.436 21.523.5 3.012.734 6.102.75 9.16.093 12.877 1.577 25.534 5.014 37.957 2.062 7.444 2.328 14.998 1.125 22.599-.64 4.011-1.265 8.037-2.265 11.97-1.984 7.835-6.327 14.39-11.904 20.086-5.077 5.197-5.733 11.019-3.281 17.464.688 1.795 1.672 3.481 2.625 5.166 4.64 8.241 9.326 16.466 12.622 25.393 3.453 9.333 5.859 18.931 7.405 28.748 2.328 14.92 3.218 29.934 3.062 44.994-.078 7.726-.469 15.451-1.078 23.161-.765 9.489-1.828 18.947-2.906 28.404-.921 8.132-2.108 16.232-3.046 24.363-1.14 9.988-2.109 19.992-2.593 30.043-.547 11.331-.594 22.661-.219 33.976.156 4.526.688 9.037 1.031 13.547.047.562 0 1.139 0 1.686h.032zm-13.232-295.876c.093-7.959-1.375-15.747-4.546-23.223-1.125-2.638-2.219-5.29-3.218-7.975-3.187-8.553-6.327-17.12-9.499-25.69-2.608-7.053-6.358-13.483-10.607-19.664-1.906-2.762-4.155-5.197-6.983-7.054-3.374-2.216-7.014-2.81-10.904-1.81-3.609.92-6.827 2.59-9.733 4.931-4.124 3.309-6.842 7.6-8.732 12.455-3.062 7.834-4.484 15.997-5.108 24.346-.61 8.178.453 16.091 3.14 23.8 3.264 9.38 7.842 18.074 13.684 26.111 4.984 6.852 10.889 12.767 17.841 17.62 3.015 2.107 6.233 3.84 9.763 4.963 5.437 1.733 10.467 1.03 15.185-2.309 3.296-2.341 5.405-5.447 6.842-9.13 2.172-5.541 2.953-11.315 2.875-17.387v.016zm-20.387 31.713l-.062-.593c-.36-.109-.719-.234-1.078-.328-1.672-.421-3.406-.717-5.031-1.279-4.264-1.483-8.014-3.902-11.575-6.633-10.53-8.1-18.231-18.463-24.105-30.246-3.89-7.82-9.06-14.577-15.81-20.118-3.42-2.809-7.123-5.181-11.216-6.882-3.28-1.358-6.67-2.513-10.295-2.014-3.406.469-6.624-.14-9.842-1.139-2.421-.75-4.936-1.17-7.498-.905-2.562.265-4.14 1.514-4.5 4.042a19.657 19.657 0 00.032 5.743c.625 3.918 2.187 7.538 4.28 10.925 10.139 16.387 23.12 29.872 39.914 39.579 8.795 5.088 18.028 8.943 27.995 10.988 8.123 1.67 16.278 2.013 24.417.14 1.468-.343 2.906-.827 4.358-1.233l.016-.047zm19.043-14.467c.11.078.219.156.328.249.36-.249.797-.452 1.078-.78 3.89-4.448 7.186-9.255 9.264-14.842 1.875-5.041 2.687-10.301 3.406-15.591.968-7.21.718-14.343-1.11-21.429-1.093-4.26-2.108-8.537-2.921-12.86-1.578-8.271-2.046-16.652-2.171-25.064-.094-5.744-.672-11.425-2.562-16.918-1.703-4.963-3.89-9.661-7.436-13.594-1.313-1.467-2.859-2.81-4.531-3.855-1.952-1.202-3.718-.78-5.139 1.046-.844 1.077-1.578 2.34-2 3.652-1.343 4.183-2.531 8.412-3.718 12.641-.297 1.077-.406 2.232-.469 3.356-.312 5.712.75 11.159 3.359 16.247 1.609 3.137 3.359 6.211 5.14 9.27 4.546 7.82 8.154 16.029 10.31 24.846 1.531 6.243 2.469 12.533 1.984 18.994a139.497 139.497 0 00-.281 16.762c.25 5.556-.469 11.034-2.203 16.356-.156.484-.218 1.014-.328 1.514zM.922 148.109c1.952.936 3.233.827 5.186-.281 4.187-2.372 8.358-4.744 12.529-7.101a64.102 64.102 0 0113.779-5.837c6.639-1.935 13.153-1.842 19.543.968 2.437 1.076 4.936 2.029 7.295 3.277 9.545 5.025 19.715 7.679 30.463 8.194 4.952.234 9.873-.11 14.685-1.436.64-.172 1.249-.453 1.874-.687-.047-.14-.078-.296-.125-.437-.64-.047-1.281-.109-1.921-.109-7.546-.016-14.841-1.436-22.012-3.715-9.685-3.074-18.59-7.725-26.87-13.562-2.249-1.592-4.67-2.559-7.373-2.856-5.577-.64-11.06-.187-16.325 1.904a576.723 576.723 0 00-12.029 4.963 46.835 46.835 0 00-10.654 6.274c-2.906 2.279-5.53 4.838-7.202 8.194-.343.686-.562 1.435-.875 2.247h.032zM121.039 30.87c-.172 0-.344.016-.531.031.062 1.046.015 2.107.187 3.137.36 2.294.719 4.62 1.281 6.867 3.484 14.124 8.202 27.843 13.607 41.358 1.625 4.074 2.968 8.272 4.452 12.408.11.312.297.609.5 1.014.203-.28.328-.39.328-.499.391-5.057.469-10.098-.359-15.139-1.875-11.393-5.968-21.943-11.795-31.869-3.202-5.462-6.373-10.956-7.67-17.292v-.016zM16.153 143.411c.234.078.375.172.469.141 1.093-.297 2.187-.593 3.265-.921 8.592-2.622 17.371-3.418 26.276-2.388 5.624.656 11.185 1.67 16.793 2.497.485.078.969.078 1.453.11.063-.11.125-.235.172-.344a6.063 6.063 0 00-.547-.265c-4.999-2.201-9.935-4.526-14.997-6.539-3.78-1.499-7.78-1.655-11.81-.968-7.42 1.248-14.122 4.261-20.496 8.116-.203.124-.375.327-.594.546l.016.015zM156.579 446.03c-.453-.734-1.734-10.691-1.734-13.594 0-.453.156-.89.515-1.342 1.094 4.37 1.406 8.802 1.703 13.219.031.577.328 1.326-.484 1.717z"/></g><defs><clipPath id="clip0_2_723"><path fill="#fff" d="M0 0h241v619H0z"/></clipPath></defs></svg>