<svg width="570" height="548" fill="none" xmlns="http://www.w3.org/2000/svg"><g opacity=".4" clip-path="url(#clip0_2_803)" fill="#C89663"><path d="M205.541 401.974c-3.661 4.595-6.687 8.821-10.119 12.644-5.358 5.986-11.366 11.308-18.763 14.614-2.967 1.317-6.314 2.067-9.54 2.498a504.627 504.627 0 01-23.843 2.559c-3.591.287-7.295.336-10.854-.181-9.175-1.357-15.862-6.235-19.669-14.858-5.195-11.77-6.196-23.593-.826-35.584 2.722-6.065 6.911-11.096 11.57-15.712 9.016-8.928 18.819-17.001 29.391-24.003 4.358-2.894 9.447-4.689 14.206-6.944.823-.388 1.677-.652 2.974-1.148-.808-.318-1.148-.509-1.504-.601-18.355-4.62-34.325-13.674-47.54-27.049-10.435-10.59-18.453-22.942-22.005-37.715-1.116-4.587-1.67-9.2-.764-13.876.302-1.52.674-3.061 1.247-4.486 2.224-5.708 6.461-7.964 12.387-6.248 2.752.807 5.355 2.213 7.873 3.623 3.052 1.75 5.913 3.84 8.91 5.716 3.305 2.062 6.885 3.578 10.786 3.764 6.578.322 11.994 3.187 16.862 7.226 6.126 5.107 12.019 10.496 18.145 15.603 4.558 3.77 9.136 7.525 14.068 10.766 4.384 2.88 9.26 5.031 13.95 7.489.512.27 1.161.326 1.985.141-.633-.56-1.223-1.18-1.894-1.712-9.474-7.108-16.362-16.389-22.138-26.585-6.796-11.982-10.485-25.006-12.874-38.441-1.257-7.006-1.241-14.056-.348-21.097.821-6.411 3.101-12.245 6.903-17.491.723-1.012 1.48-2.018 2.365-2.884 4.898-4.729 9.006-5.184 14.913-1.716 1.967 1.167 3.896 2.361 5.858 3.561 3.817 2.331 7.877 2.982 12.272 2.118 3.661-.714 7.375-1.234 11.039-1.863 11.537-2.018 19.848 3.347 26.759 11.772 5.351 6.531 8.372 14.3 10.933 22.195 4.838 14.951 7.102 30.271 6.138 46.023-.061.884.061 1.782.126 2.923 1.685-1.933 3.144-3.617 4.617-5.281 2.834-3.162 6.518-4.733 10.612-5.409 1.527-.256 3.101-.486 4.639-.402 5.185.279 9.435-1.958 13.578-4.669 22.13-14.567 38.889-34.116 52.545-56.538 7-11.537 13.8-23.191 20.787-34.747 6.312-10.435 14.005-19.834 22.479-28.547 3.454-3.549 7.449-6.587 11.227-9.847 4.862-4.211 9.725-8.423 14.643-12.558 1.061-.905 1.929-2.483 4.147-1.815-1.395 2.217-3.257 3.581-5.009 5.098-8.726 7.677-17.634 15.138-26.088 23.112-7.94 7.519-14.331 16.389-20.007 25.731-7.306 11.959-14.291 24.122-21.658 36.038-7.644 12.375-16.193 24.096-26.554 34.423-7.371 7.342-15.205 14.119-23.903 19.894-1.023.675-1.991 1.427-2.771 2.682 1.168-.229 2.364-.421 3.51-.722 13.419-3.395 24.723 1.213 35.09 9.244 3.021 2.353 4.28 5.968 4.171 9.695-.104 3.493-.848 6.981-1.516 10.414-.283 1.506-1.025 2.936-1.649 4.369-3.077 7.188-5.619 14.514-7.465 22.123-1.79 7.366-4.872 14.182-10.006 19.833-2.924 3.198-6.333 5.961-9.548 8.875-.735.672-1.626 1.166-2.909 2.086 1.529.555 2.463.928 3.426 1.221 7.778 2.358 13.977 6.92 19.439 12.88 7.565 8.245 12.231 17.904 15.218 28.535 2.296 8.172 4.587 16.377 8.078 24.155 1.428 3.205 2.756 6.51 3.582 9.886 1.538 6.428-.805 11.526-6.068 15.503-6.939 5.237-14.159 5.838-21.903 1.95-4.74-2.365-8.804-5.648-11.975-9.746-5.22-6.713-10.128-13.678-14.921-20.725-1.781-2.605-2.82-5.711-4.479-9.156-.247 1.191-.498 1.892-.546 2.593-.629 9.024-2.92 17.59-7.038 25.669-2.671 5.247-4.102 10.85-4.827 16.669-.616 4.961-1.161 9.899-1.909 14.838-1.541 10.055-6.025 18.715-12.963 26.095-1.394 1.492-3.182 2.716-4.938 3.744-2.98 1.703-6.258.81-8.535-2.162-2.707-3.533-4.083-7.673-5.14-11.897-.634-2.499-1.131-5.011-1.77-7.883-1.318 1.032-2.357 1.806-3.341 2.657-2.906 2.576-6.269 3.018-9.93 2.197-5.255-1.184-9.601-4.092-13.091-7.989-15.779-17.678-22.105-38.34-19.052-61.846.22-1.635.452-3.25.728-5.33l.014.019zm55.018-100.454c-1.182-6.741-.209-13.144 1.258-19.584.832-3.609 1.24-7.406 1.278-11.111.192-15.17-2.068-30.001-7.166-44.303-2.997-8.422-6.437-16.614-13.11-23.008-5.74-5.499-12.165-9.002-20.405-7.842-4.11.572-8.224 1.06-12.301 1.841-4.934.961-9.492.262-13.794-2.301-1.967-1.167-3.896-2.362-5.863-3.529-5.768-3.394-8.881-2.32-13.557 2.192-.741.705-1.279 1.612-1.877 2.476-3.384 4.859-5.469 10.236-6.251 16.097-.873 6.622-.975 13.27.13 19.863 2.518 14.906 6.772 29.204 14.632 42.307 4.806 7.994 10.7 14.919 17.583 21.162 6.338 5.766 13.686 8.375 22.087 8.49.993.012 2-.363 2.958-.644 3.37-.998 6.661-2.634 10.106-2.961 5.953-.591 11.981-.511 17.995-.45 2.006.009 4.019.795 6.251 1.28l.046.025zm-9.527 167.928c.402 1.652.664 2.623.893 3.589.697 3.033 1.304 6.103 2.13 9.073.939 3.41 2.343 6.661 4.677 9.39 1.755 2.043 3.699 2.532 6.098 1.391 1.099-.528 2.281-1.144 3.087-2.041a182.53 182.53 0 007.387-8.773c1.642-2.076 2.257-4.573 2.611-7.231a39.129 39.129 0 00-1.34-16.62c-.79-2.677-1.651-5.333-2.493-8.002-2.498-7.969-3.105-16.049-1.541-24.296 1.382-7.247 4.44-13.813 7.895-20.23 2.262-4.201 4.604-8.371 6.834-12.577 2.162-4.099 3.326-8.496 3.601-13.125.165-2.841-.034-5.624-1.401-8.177-4.791-8.902-10.243-17.273-18.181-23.774-.874-.735-1.729-1.483-2.502-2.318-1.308-1.379-2.52-2.827-3.56-3.994-2.345 4.086-4.391 8.305-7.026 12.107-4.129 6.002-9.915 10.383-16.235 13.815-5.929 3.209-12.307 5.147-19.059 1.996-.14-.074-.397.053-.605.086-4.116 3.879-7.449 8.325-9.589 13.625-4.815 11.998-7.538 24.406-7.197 37.369.455 17.487 6.988 32.699 18.013 46.052 3.374 4.098 7.665 7.334 12.986 8.732 4.22 1.115 8.013.625 10.966-3.057.847-1.042 2.05-1.789 3.524-3.048l.027.038zm-34.015-140.381c-3.567.966-6.747 1.827-10.139 2.754-2.294 2.137-4.254 5.425-8.487 4.696l-2.098-2.927c-6.469.034-12.867.77-19.155 2.065-10.741 2.199-20.506 6.567-29.046 13.531-5.634 4.591-11.296 9.144-16.856 13.798-5.661 4.755-10.816 10.015-14.934 16.154-9.082 13.523-8.441 33.251 1.595 45.546 5.167 6.316 11.861 9.104 19.929 6.533 4.416-1.4 8.702-3.344 12.868-5.376 5.593-2.708 11.134-4.075 17.408-2.318 8.161 2.286 15.582-.459 21.783-5.513 4.19-3.411 7.553-7.937 10.869-12.285 3.466-4.542 5.938-9.703 7.706-15.2 2.329-7.26 5.329-14.19 10.846-19.711.708-.711 1.356-1.465 2.031-2.181-.346-.563-.541-.915-.769-1.273-1.97-2.99-2.087-4.528.298-7.223 1.309-1.489 3.1-2.831 4.952-3.522 3.291-1.231 4.979-3.686 6.411-6.336-2.356-1.467-4.526-2.836-7.003-4.391-3.148.259-5.351-1.723-6.454-4.756-.871-2.387-1.286-4.986-1.693-7.533-.24-1.507-.051-3.062-.07-4.583l.008.051zm55.075-58.265c-1.558 1.668-3.244 3.196-4.635 4.975-6.129 7.9-6.778 16.938-5.191 26.344.124.779.64 1.539 1.125 2.176 4.622 6.04 5.651 12.891 4.064 20.054-.875 3.871-1.162 7.755-1.618 11.645-.246 2.204.283 4.113 1.531 5.853 3.608 5.031 8.504 8.181 14.495 9.503 13.905 3.062 25.554-.861 35.192-11.306 5.552-6.039 9.086-13.033 11.291-20.871a345.664 345.664 0 015.079-16.357c1.109-3.344 2.812-6.506 3.789-9.872.926-3.154 1.558-6.475 1.761-9.749.285-4.694-1.755-8.589-5.733-11.065-3.691-2.277-7.545-4.379-11.536-6.064-5.667-2.366-11.682-3.034-17.732-1.65-7.295 1.669-14.629 2.961-22.142 3.194-3.46.106-6.738 1.153-9.754 3.171l.014.019zm-51.891 35.708c-1.041-.238-1.69-.497-2.363-.507-2.491-.038-4.996-.095-7.473.088-9.308.68-17.874-1.403-25.934-6.136-8.294-4.856-15.06-11.299-20.927-18.793-3.066-3.912-5.854-8.083-8.786-12.091-3.536-4.85-8.134-7.866-14.316-8.241-4.544-.275-8.732-1.79-12.565-4.226-3.146-2.001-6.212-4.176-9.451-6.024-2.312-1.325-4.772-2.573-7.338-3.282-4.926-1.333-8.249.5-10.193 5.225-1.358 3.32-1.971 6.83-1.596 10.384.336 3.177.798 6.408 1.641 9.482 3.859 13.828 11.422 25.464 21.473 35.519 12.282 12.277 27.041 20.49 43.544 25.599 2.536.788 5.361 1.252 7.967 1.006 7.628-.72 15.222-1.851 22.997-2.851 3.863-11.546 13.123-18.477 23.295-25.105l.025-.047zm58.057 46.038c1.92 2.677 3.843 5.237 5.651 7.88 2.516 3.67 5.212 7.268 7.356 11.147 3.459 6.237 5.058 13.114 5.832 20.175.792 7.166 2.169 14.259 6.178 20.334 4.862 7.346 10.077 14.496 15.475 21.457 2.973 3.864 6.827 6.893 11.224 9.185 8.654 4.51 16.178 2.474 22.749-3.802 1.899-1.797 2.501-3.908 1.577-6.49-1.061-2.975-2.358-5.753-4.833-7.83-3.793-3.188-7.562-6.423-11.413-9.57-6.721-5.491-11.828-12.168-14.816-20.336-2.04-5.633-2.274-11.577-2.429-17.491-.107-3.948-.13-7.9-.582-11.804-.597-5.076-2.755-9.379-7.517-11.815-3.391-1.738-6.64-3.116-10.858-1.481-3.553 1.39-7.708 1.618-11.601 1.687-3.873.055-7.769-.771-11.961-1.241l-.032-.005zm1.009 119.939c.282.029.563.059.826.102.58-2.182 1.337-4.319 1.706-6.553.727-4.402 1.374-8.834 1.819-13.266.8-7.815 2.718-15.244 6.128-22.41 7.413-15.569 7.967-31.81 4.002-48.372-.229-.966-.652-1.879-1.188-3.435-.305 1.03-.482 1.389-.49 1.742-.177 5.977-2.328 11.343-5.153 16.497-2.554 4.642-5.109 9.283-7.551 13.96-6.935 13.286-8.26 27.038-3.373 41.288 2.269 6.599 4.187 13.275 3.293 20.433l-.019.014zm39.977-115.648c.127.662.122 1.1.284 1.447 2.45 4.992 2.625 10.369 2.743 15.787.092 4.25.178 8.533.667 12.73 1.021 8.739 4.739 16.267 11.012 22.428 3.021 2.96 6.321 5.662 9.569 8.372 3.665 3.049 7.455 5.95 9.969 10.142.727 1.216 1.364 2.468 2.072 3.698.208-.033.403-.085.611-.119-.195-1.685-.118-3.478-.649-5.067-1.262-3.7-2.984-7.273-4.247-10.973-2.499-7.244-5.07-14.466-7.162-21.828-3.218-11.277-8.254-21.451-16.518-29.862-2.456-2.496-4.932-4.978-8.37-6.741l.019-.014zm-56.086-51.332c-4.053 4.21-7.789 7.932-11.336 11.836-5.915 6.502-9.139 13.97-7.997 22.998.153 1.223-.48 2.604-.903 3.834-.594 1.758-1.445 3.44-1.973 5.209-.4 1.301-.475 2.773.824 3.696 1.346.946 2.785.609 4.133-.097.629-.335 1.242-.775 1.816-1.186 7.254-5.202 12.545-12.009 16.112-20.129 3.331-7.601 4.06-15.394.853-23.261-.371-.921-.909-1.752-1.496-2.895l-.033-.005zm-1.159-.849c-4.527-3.038-8.817-3.524-13.349-2.852-3.147.461-5.836 1.926-8.581 3.432-6.775 3.728-11.688 9.163-15.156 15.966-.841 1.616-1.325 3.528-1.472 5.343-.317 3.963 1.749 5.349 5.357 3.833.471-.193.988-.361 1.395-.682 1.979-1.564 4.24-1.969 6.692-2.106 3.607-.183 6.772-1.873 8.834-4.655 3.461-4.712 7.451-8.848 11.668-12.828 1.615-1.506 2.904-3.386 4.631-5.464l-.019.013zm-5.29 49.122c-.189-.183-.378-.366-.587-.535-.511.338-1.036.656-1.547.994-4.927 3.476-10.317 5.053-16.401 4.289-2.973-.388-5.992-.395-8.992-.415-2.426-.028-4.738.588-6.616 2.253-2.785 2.461-2.63 5.304.327 7.528 2.568 1.924 5.437 2.328 8.541 1.927 7.411-.942 13.408-4.663 18.817-9.527 2.277-2.038 4.31-4.336 6.444-6.533l.014.019zm-45.656-48.993c-.732-.576-.801-.672-.894-.721-.594-.182-1.207-.35-1.788-.513-8.068-2.237-15.718-5.469-22.337-10.657-7.175-5.6-14.213-11.413-21.257-17.194-2.837-2.339-5.543-4.859-8.311-7.305-.192.137-.356.313-.533.469.631.88 1.223 1.787 1.893 2.639 2.726 3.519 5.524 7.016 8.231 10.549a66.264 66.264 0 0016.338 15.103c7.618 4.964 15.783 8.348 25.105 7.89.985-.041 1.968-.166 3.525-.298l.028.038zm21.084-.87c-.014-.222-.048-.43-.075-.671-.868.246-1.757.42-2.583.723-8.935 3.424-16.689 8.696-23.42 15.435-2.914 2.929-5.408 6.281-6.888 10.239-.659 1.748-1.135 3.508-.35 5.291 2.697.123 3.542.009 4.979-1.949a160.979 160.979 0 007.28-10.782c1.772-2.864 3.657-5.489 6.616-7.264a29.46 29.46 0 004.467-3.348c3.133-2.826 5.843-6.16 10.012-7.702l-.038.028zm-9.199 26.9c-2.539-6.289 1.244-11.117 4.264-16.323-.537.182-.791.191-.931.32-6.389 6.609-9.41 14.278-7.221 23.513.311 1.283.934 2.515 1.568 3.683 2.136 3.826 6.252 3.221 8.384-.394.47-.8.649-1.884 1.296-2.436 2.827-2.403 1.867-5.075.989-8.037-2.845.68-5.525 2.399-8.354-.293l.005-.033zm-38.567 92.074c-5.569 2.458-11.302 3.355-17.231 1.756-4.781-1.292-9.236-.472-13.629 1.404-4.927 2.143-9.867 4.266-14.799 6.442-.076.055-.081.29-.149.6.862-.01 1.661.053 2.469-.033 9.39-.97 18.783-1.856 28.156-2.93 5.865-.673 10.656-3.732 15.183-7.239zm79.799-88.451c-.794 1.236-1.417 2.146-1.974 3.066-3.35 5.676-7.527 10.641-12.864 14.555-1.321.947-2.792 1.887-4.324 2.377-2.903.923-4.846-.493-5.266-3.464-.095-.657-.241-1.305-.368-1.967-6.043 1.959-6.081 1.987-9.237 7.609 2.869.202 5.639.185 8.358.581 12.904 1.868 25.662-8.671 25.675-22.757zm-36.593 11.413c3.547 3.249 7.463 3.859 11.212 1.691 3.12-1.832 4.179-5.488 3.131-10.587-1.441-.473-2.777-.962-4.111-1.367-2.185-.663-3.534-.159-4.563 1.477-1.854 2.951-3.768 5.859-5.674 8.819l.005-.033zm-4.37-30.463c-3.115.466-6.039 1.318-8.108 3.526-2.965 3.14-4.42 7.254-6.689 10.879.156.178.318.322.474.5l7.842-2.322c2.325-4.476 4.336-8.381 6.494-12.564l-.013-.019zm1.889-1.529c.013-.183.04-.348.054-.531 5.534-3.679 11.082-7.34 16.616-11.019-8.642 1.043-15.075 5.772-21.085 12.225 1.801-.278 3.12-.5 4.434-.689l-.019.014z"/><path d="M398.883 138.601c-.311.455-.576.934-.942 1.313-4.348 4.768-9.941 7.679-15.643 10.436a54.91 54.91 0 00-4.888 2.723c-9.486 5.847-18.827 11.938-28.453 17.509-12.293 7.107-25.465 11.977-39.619 13.902-10.323 1.408-20.736 1.316-30.957-.449-12.239-2.113-24.386-4.784-36.502-7.535-11.854-2.708-23.03-7.582-34.435-11.684-13.667-4.913-27.483-9.225-41.857-11.487-1.859-.289-3.678-.723-5.485-1.222-.89-.231-1.712-.771-2.561-1.147.564-1.881 1.979-1.969 3.152-2.232 11.151-2.435 22.309-5.021 33.529-7.159 16.044-3.048 32.254-4.45 48.578-3.47 19.264 1.159 38.141 4.768 56.615 10.403 6.411 1.948 12.82 4.014 19.364 5.461 15.972 3.52 32.014 4.065 48.078.075 7.161-1.776 13.714-4.883 20.161-8.26 3.216-1.699 6.182-3.826 9.253-5.768.812-.524 1.57-1.125 2.354-1.688.102.101.19.183.291.284l-.033-.005zm-27.915 16.804c-.072-.18-.157-.38-.228-.56-.184-.013-.37-.112-.545-.073-.397.053-.78.125-1.155.249-12.022 3.524-24.26 3.959-36.628 2.836-10.973-.993-21.502-3.956-31.945-7.242-19.472-6.136-39.383-10.017-59.769-10.922-26.348-1.176-52.008 3.7-77.452 9.927-.616.152-1.193.479-1.805.716 1.32.791 2.626 1.157 3.946 1.34 14.774 2.294 28.966 6.685 43.01 11.761 11.386 4.116 22.581 8.976 34.421 11.665 11.451 2.591 22.897 5.215 34.457 7.149 14.005 2.353 28.064 2.234 41.988-1.264 10.102-2.524 19.577-6.567 28.668-11.552 2.374-1.297 4.625-2.766 7.154-4.29-.485-.232-.605-.319-.676-.297a43.79 43.79 0 00-1.653.606c-9.938 4.085-20.361 5.999-31.054 6.688-11.274.728-22.533.548-33.633-1.311-13.892-2.317-27.821-4.725-41.523-7.99-22.939-5.475-45.938-10.588-69.557-12.041-.301-.016-.594-.182-.885-.264 14.103.226 28.038 1.471 41.756 4.435 13.311 2.88 26.529 6.115 39.806 8.99 15.918 3.443 31.886 6.473 48.229 7.034 19.077.655 37.563-1.654 54.868-10.299 3.419-1.699 6.775-3.526 10.153-5.282l.052-.009zM197.566 335.892c-21.95 7.342-40.575 20.41-58.937 33.926 16.489-15.562 50.103-34.686 58.937-33.926zm-27.389 41.424c14.902-13.815 31.238-25.994 48.698-36.604.17.197.327.374.497.571-.506.507-.976 1.105-1.55 1.517-5.9 4.057-11.883 8.001-17.729 12.135a1054.264 1054.264 0 00-20.96 15.147c-3.092 2.276-5.96 4.824-8.923 7.239l-.033-.005zm48.722-125.077c5.129 16.973 10.217 33.888 19.152 49.378-.268.192-.545.332-.826.505-.626-.71-1.366-1.338-1.862-2.111-6.704-10.601-14.96-34.6-16.464-47.772zm-32.996-1.999c-3.456-4.82-5.937-10.137-8.198-15.554-2.709-6.485-5.47-12.962-6.628-19.952-.578-3.554-.735-7.207-.883-10.808-.071-1.918.375-3.802 1.781-6.085.278 1.075.574 1.529.49 1.937-1.4 7.868-.044 15.498 2.339 22.942 3.012 9.454 6.856 18.572 11.099 27.52zm45.841 182.008c-1.74-19.52-.247-53.406 6.706-63.432-1.218 5.131-2.666 10.224-3.64 15.413-.977 5.305-1.645 10.679-2.124 16.033-.462 5.256-.596 10.565-.744 15.855-.144 5.376-.139 10.759-.218 16.145l.02-.014zm17.373-17.036c.205-19.436.042-38.899 4.578-57.995.578.078.701.048.794.097.079.03.181.131.203.202.036.292.105.591.089.892-.032.399-.136.821-.22 1.229-.81 5.013-1.974 10.018-2.385 15.063-.948 11.57-1.534 23.199-2.266 34.788-.117 1.938-.122 3.911-.174 5.86-.211-.052-.408-.084-.619-.136zM137.178 281.998c18.778 15.353 39.462 26.818 63.672 31.034-24.761-3.126-45.446-14.591-63.672-31.034zm-10.63 150.386c1.714-.883 3.539-1.612 5.136-2.699 5.288-3.619 10.59-7.218 15.653-11.11 3.675-2.838 7.014-6.102 10.436-9.251 3.942-3.638 7.828-7.352 11.728-11.047.678-.631 1.342-1.281 2.338-1.589-3.29 3.373-6.46 6.834-9.851 10.106-4.614 4.438-9.274 8.852-14.099 13.036-5.472 4.736-11.065 9.384-17.835 12.27-.999.426-2.047.743-3.086 1.112l-.42-.828zm51.792-30.511c12.705-16.555 26.131-32.468 41.138-47.025-13.708 15.681-27.43 31.344-41.138 47.025zm66.463-110.602c-5.702-19.429-6.073-39.467-6.321-59.534 1.353 19.912 2.368 39.835 6.321 59.534zm65.867 11.704c-11.212 8.736-38.088 17.815-43.899 14.684.755-.281 1.261-.586 1.795-.65 13.177-1.63 25.617-5.743 37.671-11.202 1.589-.735 2.962-1.892 4.452-2.845l-.019.013zm-29.501 55.856c4.543 1.405 28.916 25.489 34.104 33.208-11.366-11.08-22.738-22.128-34.104-33.208zm-58.162-56.853c-9.176-5.642-16.253-12.963-22.637-20.897-6.372-7.914-11.901-16.432-16.484-25.571l1.948 2.716c.639.932 1.235 1.924 1.874 2.856 4.947 7.14 9.576 14.565 14.949 21.371 5.639 7.136 12.211 13.429 19.777 18.604.134.107.2.32.54.916l.033.005z"/><path d="M244.121 390.382c1.297-8.779 2.575-17.545 3.934-26.804-5.1 2.992-10.174 1.938-15.294.861 5.929-.139 12.196 1.245 16.888-3.771.219.104.318.12.392.183.074.063.175.164.165.229-.119.926-.219 1.837-.404 2.752-1.68 8.851-3.374 17.684-5.055 26.535-.202 0-.424.015-.64-.004l.014.019zm39.477-108.425c4.67-4.885 9.573-9.444 15.629-12.599 3.377-1.756 6.648-3.783 10.089-5.411 2.508-1.19 3.778-1.116 6.037-.593-3.788 1.587-7.627 2.863-11.157 4.729-3.641 1.915-7.042 4.326-10.479 6.646-3.437 2.32-6.751 4.812-10.119 7.228zm-128.258-1.833c-9.396-4.615-25.695-18.936-28.146-24.941 4.551 4.325 8.981 8.766 13.677 12.929 4.695 4.163 9.629 8.011 14.469 12.012zm-30.598 11.488c-9.049-4.778-24.223-21.208-26.713-28.923 1.464.949 2.263 2.548 3.25 3.925 1.084 1.511 2.143 3.069 3.265 4.553 1.122 1.483 2.282 2.939 3.538 4.327 1.31 1.464 2.761 2.799 4.115 4.202 1.3 1.328 2.536 2.729 3.86 4.009 1.338 1.3 2.72 2.54 4.101 3.779 1.349 1.234 2.736 2.441 4.603 4.114l-.019.014zm46.24 132.25c10.063-8.115 17.289-18.771 25.693-28.39-3.316 5.681-7.384 10.799-11.559 15.849-4.087 4.93-8.045 9.999-13.347 13.598-.26-.363-.526-.694-.806-1.044l.019-.013zm34.859-105.287c-.887.26-1.806.716-2.72.734-3.088.1-6.235.359-9.279-.007-8.044-.951-15.878-2.863-23.577-5.394a7.268 7.268 0 01-2.134-1.076c12.418 2.564 24.586 6.842 37.621 4.851.036.293.072.586.089.892zm120.997 7.794c-.955.568-1.838 1.317-2.858 1.673-9.033 3.205-18.263 5.45-27.845 6.153-.189.019-.383-.131-.991-.332 5.642-1.266 10.926-2.304 16.147-3.672 5.116-1.353 10.169-3.036 15.253-4.596.093.251.2.522.313.76l-.019.014zM224.176 469.101c-2.48-3.783-3.281-23.57-1.545-33.475.519 11.069 1.02 22.034 1.545 33.475zm44.012 22.251c.123-12.398-2.067-24.585-3.176-36.881 2.367 11.625 4.564 23.257 4.485 35.189-.013.589-.464 1.173-.712 1.756l-.591-.097-.006.033zm-81.67-133.2c12.778-10.553 27.442-20.172 31.759-20.458-11.236 7.247-22.333 14.365-31.759 20.458zm-54.7 26.861l-22.453 19.491c-.153-.092-.287-.199-.455-.311.142-.449.136-1.023.453-1.309 6.876-6.698 14.358-12.672 22.488-17.865l-.033-.006zm194.791 36.897c6.527 6.152 13.951 13.108 21.41 20.155-.321.926-.915.744-1.562.165-2.473-2.195-5.014-4.283-7.404-6.565-4.8-4.552-9.385-9.287-12.444-13.755zm-53.935-46.676c5.417 6.948 11.351 24.154 9.931 29.488-1.558-1.808-.964-3.972-1.537-5.82-.657-2.049-1.063-4.191-1.663-6.28-.57-1.966-1.224-3.93-1.898-5.88-.69-2.054-1.348-4.102-2.18-6.112-.803-1.886-1.786-3.701-2.634-5.41l-.019.014zm6.643-.072c-5.323-9.564-9.844-19.587-17.028-28.512 4.449 2.081 14.042 18.286 17.028 28.512zm-79.846-179.313l5.655 24.01c-.143.044-.304.102-.446.146-.886-2.609-1.843-5.195-2.657-7.826-.842-2.669-1.684-5.339-2.246-8.063-.582-2.711-2.084-5.37-1.084-8.26.255-.009.528-.031.783-.04l-.005.033zm20.996 82.26c4.598 8.027 8.627 16.231 14.447 23.498-1.54.641-1.953-.54-2.526-1.259-4.468-5.745-7.974-12.007-10.62-18.769-.451-1.154-.869-2.303-1.287-3.451l-.014-.019zm13.351-56.148c-1.866-8.017-1.289-22.247 1.337-25.375-.296 3.225-.582 5.776-.751 8.329-.173 2.79-.229 5.581-.318 8.367-.1 2.65-.167 5.304-.268 8.679zm44.198 130.21c7.757 4.835 14.533 10.808 20.65 17.6-7.046-5.663-14.093-11.326-21.153-17.008.169-.208.339-.417.503-.592zm-35.247-8.291c5.421-5.655 10.578-11.033 16.038-16.716-3.701 6.681-8.7 11.713-14.17 16.331-.355.313-1.031.219-1.868.385zm23.072-28.972c7.669-2.198 14.95-4.291 21.965-6.31-3.168 2.736-18.632 7.482-21.965 6.31zm38.371 46.108c5.713 1.783 15.583 8.636 16.974 12.07-5.497-3.907-11.008-7.833-16.974-12.07zm-17.901-87.521c4.579-5.051 13.899-10.808 17.857-10.663-6.271 3.744-12.465 7.433-17.857 10.663zm-107.873 46.92c8.243.866 16.406 2.63 24.805 1.733-1.747 1.484-3.819 1.464-5.842 1.351-6.422-.347-12.771-1.239-18.963-3.084zm75.472-19.195c-6.914 3.655-11.514 9.648-16.221 15.572 2.032-6.178 11.811-15.74 16.221-15.572zm-36.074 139.843c.397 7.304.75 14.06 1.134 21.344-2.156-2.885-2.64-14.674-1.134-21.344zM198.945 211.2c-3.712-6.751-6.368-15.911-5.751-18.728.104-.017.194-.053.293-.036.098.016.263.043.271.095 1.74 6.225 3.447 12.444 5.167 18.683l.02-.014zm18.906 98.299c-5.022 3.949-7.401 9.159-10.442 13.89 1.216-5.942 6.619-13.523 10.442-13.89zm-109.197-38.906c-4.175-4.246-8.198-8.602-10.451-14.169l.612-.439c3.282 4.858 6.558 9.75 9.839 14.608zm243.847 170.286c-4.096-2.276-7.495-5.399-10.279-9.282 3.612 2.855 7.238 5.728 10.85 8.583-.188.222-.377.444-.552.685l-.019.014zm-24.576-119.258c-3.74 2.422-7.927 3.455-12.289 3.919 3.983-1.64 7.927-3.455 12.289-3.919zm-84.814 19.059c1.558-1.668 3.101-3.354 4.659-5.022 1.615-1.708 3.258-3.378 5.05-5.243-1.612 3.733-7.027 9.761-9.709 10.265zm-134.576 58.221c2.69-3.927 6.535-6.569 11.065-9.586-3.886 3.714-7.215 6.912-10.563 10.124-.156-.177-.332-.341-.488-.519l-.014-.019zm131.447-89.662c2.51-3.451 4.811-7.071 9.291-8.14l-9.291 8.14zm-17.57 28.241c3.146.669 5.95 1.265 8.59 1.834-1.799 1.492-4.501.998-8.59-1.834zm13.203 5.679c-1.378-4.022-.897-6.424 1.345-7.742-.426 2.477-.912 5.114-1.345 7.742zm-1.882.974c-1.157-3.109-1.632-5.752.121-8.399a786.385 786.385 0 00-.121 8.399z"/></g><defs><clipPath id="clip0_2_803"><path fill="#fff" transform="rotate(-125.646 242.658 221.48)" d="M0 0h350.204v450.146H0z"/></clipPath></defs></svg>