<svg width="326" height="548" fill="none" xmlns="http://www.w3.org/2000/svg"><g opacity=".4" clip-path="url(#clip0_2_996)" fill="#C89663"><path d="M205.823 486.983c.339-.908.55-1.859 1.015-2.704 1.859-3.423 3.867-6.74 5.705-10.183 6.847-12.846 11.285-26.705 16.673-40.142 3.656-9.106 6.889-18.381 10.566-27.466 10.249-25.373 25.485-47.43 44.673-66.867 12.806-12.972 25.569-25.987 37.319-39.952.993-1.183 1.923-2.62 4.226-2.366-.085.739 0 1.5-.254 2.155-1.035 2.831-2.028 5.662-3.254 8.408-8.875 20.092-16.018 40.797-23.245 61.502-2.155 6.169-4.543 12.275-6.847 18.381-6.212 16.627-16.102 30.803-28.739 43.163-5.959 5.831-12.277 11.218-18.934 16.225-3.529 2.662-7.016 5.388-10.524 8.071-10.734 8.239-19.462 18.254-26.414 29.832-.444.739-.951 1.457-1.416 2.176-.169-.085-.359-.148-.528-.233h-.022zM310.891 316.55c-.36.803-.677 1.605-1.078 2.366-4.903 8.916-9.89 17.768-14.729 26.726-5.79 10.733-11.432 21.571-17.201 32.325-10.312 19.225-23.118 36.867-35.586 54.698-7.755 11.092-15.68 22.057-23.52 33.106-.528.74-.93 1.543-1.394 2.324.655.064.972-.084 1.183-.316 6.995-7.965 15.447-14.261 23.731-20.747 6.192-4.86 12.32-9.803 18.089-15.17 9.086-8.472 17.18-17.852 23.224-28.817 5.135-9.339 8.981-19.226 12.488-29.24 8.517-24.36 16.99-48.762 27.535-72.361.211-.444.338-.93.486-1.416-.908.359-1.542.909-2.05 1.564-3.169 4.267-6.297 8.535-9.445 12.803-.571.76-1.184 1.5-1.797 2.239.402-.993.803-1.986 1.416-3.528-.761.697-1.035.908-1.268 1.162-8.769 9.106-17.476 18.296-26.33 27.318-19.906 20.282-35.163 43.564-45.391 70.1-6.107 15.824-12.256 31.648-18.364 47.494-.147.38-.169.781-.253 1.183.169.106.359.211.528.317.254-.465.465-.951.761-1.395 7.776-10.965 15.637-21.866 23.308-32.916 9.256-13.373 18.934-26.515 26.88-40.754 9.044-16.226 17.603-32.705 26.499-48.994 3.445-6.275 7.269-12.339 10.946-18.487.36-.591.909-1.056 1.353-1.563l-.021-.021zM60.035 255.238c.825-.063 1.649-.19 2.473-.148 4.332.169 8.664.423 12.996.55 7.692.232 15.405.126 23.076.654 11.707.803 23.477 1.712 34.804 5.008 23.012 6.718 41.27 19.902 53.59 40.691 3.909 6.591 7.354 13.5 10.798 20.366 2.578 5.134 4.734 10.458 7.164 15.677 2.98 6.38 4.459 13.183 5.938 20.007 1.036 4.733 2.367 9.402 3.55 14.113.719 2.916 1.437 5.81 2.113 8.747.148.613 0 1.31-.317 2.007-.253-.718-.549-1.415-.76-2.155-8.411-28.965-24.26-52.586-49.639-69.466-17.56-11.663-35.966-21.846-54.457-31.902-15.87-8.641-32.162-16.29-49.258-22.163-.782-.275-1.5-.676-2.26-1.014.063-.317.105-.634.168-.951l.021-.021zm11.919 3.486c-.042.127-.085.254-.106.402.444.232.845.507 1.31.676 15.405 5.641 29.838 13.352 44.229 21.148 16.567 8.979 32.966 18.233 48.688 28.67 17.919 11.915 32.035 27.19 41.418 46.67.296.612.676 1.183 1.078 1.88.169-.38.296-.528.274-.676a6.959 6.959 0 00-.19-1.31c-3.233-13.162-8.769-25.162-17.708-35.451-11.327-13.036-24.175-24.339-38.608-33.825-13.884-9.127-28.486-16.839-44.673-21.001-9.467-2.429-19.124-4.119-28.718-6.105-2.303-.465-4.649-.719-6.973-1.078h-.021zm125.797 68.643c.127-.085.275-.169.402-.233-.254-.634-.486-1.289-.74-1.922-3.466-8.156-7.628-15.93-12.32-23.452-13.207-21.233-32.31-34.205-56.4-40.078-4.185-1.014-8.495-1.669-12.785-2.155-6.657-.782-13.355-1.458-20.033-1.859-6.974-.402-13.968-.402-20.942-.634-2.197-.063-4.374-.254-6.572-.401 6.509 1.542 13.08 2.662 19.632 3.781 11.41 1.965 22.716 4.416 33.451 8.853 30.007 12.444 55.344 31.141 75.335 56.874.317.402.655.803.993 1.204l-.021.022zM148.937 194.9c-11.792.57-22.78-2.282-33.198-7.754-11.792-6.19-22.654-13.733-32.818-22.332-8.326-7.056-16.314-14.514-23.71-22.563-2.219-2.43-4.268-5.008-6.381-7.543l.443-.38c.719.866 1.395 1.775 2.156 2.599 17.497 18.908 36.558 35.895 59.338 48.296 6.825 3.719 13.947 6.761 21.681 8.029 4.142.697 8.347 1.119 12.489 1.669v-.021zm21.618-7.205c-.508.296-.994.592-2.008 1.183.719-1.753 1.395-2.936 1.691-4.204.95-4.014 2.176-8.028 2.493-12.106.38-4.923.127-9.909-.19-14.852-.951-15.36-5.748-29.917-9.319-44.769 1.394 4.289 3.001 8.514 4.099 12.888 2.114 8.26 4.311 16.521 5.748 24.93 1.226 7.077 1.691 14.261 1.015 21.528-.508 5.346-1.564 10.48-3.551 15.444l.043-.042h-.021zm-5.854-41.029c-6.53-25.374-17.074-49.036-29.289-72.023 13.419 22.522 24.365 46.079 29.289 72.023zm28.105 21c.254-.634.444-1.289.761-1.88 2.937-5.662 4.48-11.726 5.389-18.001.824-5.619 1.289-11.281 1.014-16.965-.38-7.901-.972-15.803-1.458-23.704-.042-.719 0-1.437.422-2.177.508 4.902 1.184 9.782 1.459 14.684.359 6.655.57 13.331.549 19.986 0 7.416-1.289 14.684-3.888 21.656-.888 2.387-1.796 4.838-3.656 6.676l-.592-.296v.021z"/><path d="M158.763 190.821c-10.334 1.395-19.695-1.373-28.38-6.634-9.826-5.979-18.533-13.394-26.478-21.676-.211-.233-.402-.507-.444-.845 3.698 3.232 7.269 6.655 11.158 9.676 5.05 3.909 10.227 7.669 15.553 11.197 6.064 4.015 12.805 6.508 20.011 7.627 2.832.444 5.727.465 8.601.655h-.021zM47.018 97.799s.17-.064.254-.064c.084 0 .19 0 .253.021.148.085.317.17.444.296.19.19.338.423.486.634 5.452 8.852 12.066 16.838 18.85 24.676 3.867 4.458 7.86 8.832 11.981 13.459-9.086-6.36-31.866-33.994-32.247-39.044l-.02.022zm77.533 32.958c9.868 16.458 18.067 34.015 31.592 48.086-.169.148-.339.274-.508.422-2.176-2.324-4.458-4.563-6.55-6.993-6.868-7.965-11.982-17.092-17.033-26.24-2.726-4.944-5.304-9.993-7.945-14.979l.444-.317v.021zm78.441-46.649c-4.86-16.923-9.742-33.867-14.602-50.79 6.445 16.48 11.707 33.297 15.236 50.621l-.634.169zm-33.98-74.516c.549 3.909 1.014 7.817 1.627 11.684.655 3.993 1.352 7.986 2.219 11.915.866 3.867 1.944 7.67 3.001 11.472 1.056 3.867 2.197 7.733 3.381 11.853-5.326-8.831-12.743-41.769-10.228-46.945v.021zM109.97 110.834c8.917 17.958 17.349 36.149 29.162 52.501l-.613.549c-.36-.549-.698-1.14-1.099-1.669-6.466-8.472-11.897-17.577-16.546-27.148-3.846-7.902-7.587-15.888-11.369-23.832.148-.126.317-.274.465-.401zm-19.463 22.902c6.065 6.275 11.94 12.74 18.237 18.761 6.297 6 13.017 11.578 19.948 17.684-15.109-10.184-27.407-22.564-38.206-36.445h.021zm9.636-69.805c.317 1.838.592 3.698.972 5.515 1.48 6.908 4.311 13.33 6.995 19.817 2.113 5.113 4.353 10.162 6.234 15.423-.676-1.226-1.395-2.43-2.029-3.676-4.86-9.465-9.15-19.163-12.108-29.41-.719-2.45-1.395-4.985-.676-7.563.21-.042.422-.085.634-.106h-.022zM66.692 179.666c14.243 1.458 28.338 3.761 41.608 9.402-.063.254-.127.507-.19.739-4.438-1.352-8.833-2.809-13.313-4.014-4.67-1.246-9.425-2.239-14.158-3.274-4.628-1.015-9.298-1.923-13.947-2.874v.021zm103.82 8.05c4.649-3.887 6.319-9.211 7.291-14.916 1.247-7.288 2.05-14.598 1.733-22.014 1.141 9.761.507 18.782-1.86 28.015-.803 3.126-2.261 5.852-4.522 8.176-.782.803-1.543 1.162-2.599.697l-.043.042zm-53.78 7.141c-9.509.549-35.353-4.057-38.439-7.183 12.933 3.76 25.929 5.112 38.439 7.183zm15.447-164.729c6.699 9.042 10.587 19.458 14.454 29.895-4.987-9.909-9.065-20.282-15.553-29.43l1.099-.465zm72.525 96.784c0 3.105.19 6.232-.043 9.317-.38 5.176-.887 10.352-1.606 15.507-.507 3.507-1.838 5.979-3.55 7.585 1.902-5.219 3.339-10.522 3.762-16.057.401-5.451.697-10.902 1.035-16.352h.423-.021zm-38.249-110.01c.592 9.697 3.783 18.74 6.192 27.972-2.283-4.352-3.55-9.042-4.924-13.711-2.155-7.374-2.684-12.339-1.289-14.282l.021.02zM51.815 97.608c4.374 5.937 8.77 11.853 13.144 17.789-3.487-2.281-13.165-14.979-13.672-17.45.169-.106.338-.233.528-.339zm-14.623 15.064c-4.184-4.479-7.227-9.634-9.932-15-.148-.296.042-.782.084-1.163.19-.063.36-.127.55-.19 3.106 5.451 6.192 10.902 9.298 16.353zm-9.53 64.015c2.113-2.07 10.27-3.042 20.75-2.493-6.951.845-13.777 1.669-20.75 2.493zm64.155 5.557l-19.737-4.817c6.89.232 13.44 1.88 19.843 4.225-.042.211-.084.401-.106.613v-.021zm10.376-93.488c-2.705-4.67-4.712-9.529-5.283-14.832.212-.063.402-.127.613-.19 1.564 5.007 3.106 10.014 4.67 15.022z"/><path d="M207.852 548.463c-1.352.148-1.331-.697-1.416-1.373-.317-2.873-.739-5.726-.93-8.599-1.162-17.747-1.373-35.536-.486-53.304.592-11.704 1.522-23.388 2.684-35.05 1.12-11.197 2.747-22.353 4.1-33.529 1.204-9.93 2.282-19.881 3.465-29.81 2.24-18.74 3.191-37.565 2.938-56.431-.127-10.458-.655-20.916-1.501-31.353-1.648-20.261-5.177-40.184-12.32-59.347-4.458-11.979-10.523-23.134-16.99-34.099-4.839-8.197-12.362-12.064-21.638-12.845-.888-.085-1.818-.085-2.705.105-5.368 1.12-10.862 1.733-16.018 3.867-8.601 3.57-17.645 4.394-26.838 3.866-10.587-.613-20.857-3.106-31.211-5.219-13.271-2.704-26.584-5.239-40.235-4.711-11.686.444-22.801 3.38-33.494 8.071-2.303 1.014-4.586 2.155-6.952 3-1.585.549-3.318.908-5.009.929-2.895.043-4.141-1.69-2.81-4.225 1.542-2.916 3.296-5.852 5.515-8.282 5.748-6.317 12.996-10.564 20.773-13.902 4.649-2.007 9.361-3.845 14.01-5.81 7.671-3.274 15.659-4.056 23.88-3.253.654.063 1.33 0 2.62 0-1.057-.972-1.649-1.585-2.325-2.113-14.2-11.24-25.253-25.184-34.825-40.416-2.853-4.564-4.945-9.465-5.833-14.768-.443-2.726-.55-5.599-.211-8.324.57-4.627 3.36-6.93 8.03-7.247 3.93-.275 7.734.528 11.454 1.648 3.507 1.056 6.994 1.69 10.671 1.204 6.255-.824 11.982 1.12 17.518 3.676 10.038 4.648 18.047 11.853 25.084 20.24.465.549.908 1.12 1.373 1.669.106.106.317.127.719.275-.106-.697-.127-1.289-.317-1.817-5.41-15.36-5.262-30.994-2.388-46.776 1.564-8.64 3.761-17.113 7.945-24.909 5.431-10.099 13.652-16.67 24.957-19.057 4.882-1.035 9.509-.042 13.778 2.536 3.762 2.26 6.995 5.176 9.425 8.81 3.36 5.028 6.466 10.204 9.678 15.317.507.824.972 1.669 1.479 2.514.212-.042.423-.105.634-.148-.148-.866-.295-1.753-.443-2.62-.719-3.908-1.628-7.774-2.156-11.704-1.162-8.683.423-17.07 2.959-25.332.866-2.852 1.521-5.767 2.472-8.577.803-2.388 1.585-4.838 2.874-6.972 2.789-4.627 6.804-5.514 11.263-2.514 1.987 1.352 3.783 3.084 5.368 4.901 7.206 8.388 10.988 18.36 12.763 29.135.676 4.077.993 8.26 1.015 12.401.126 17.43 2.134 34.564 6.783 51.382 2.789 10.077 3.149 20.303 1.521 30.592-.866 5.43-1.711 10.88-3.064 16.205-2.683 10.605-8.558 19.479-16.102 27.19-6.868 7.036-7.756 14.916-4.438 23.642.93 2.429 2.261 4.711 3.55 6.993 6.276 11.155 12.616 22.289 17.075 34.374 4.67 12.634 7.924 25.627 10.016 38.916 3.149 20.198 4.353 40.522 4.142 60.91-.106 10.458-.634 20.916-1.458 31.353-1.035 12.845-2.472 25.648-3.931 38.451-1.246 11.008-2.852 21.973-4.12 32.98-1.543 13.521-2.853 27.064-3.508 40.67-.74 15.338-.803 30.677-.296 45.994.211 6.127.93 12.233 1.395 18.338.063.761 0 1.543 0 2.282h.042zm-17.899-400.53c.127-10.775-1.859-21.317-6.149-31.437-1.521-3.571-3.001-7.163-4.353-10.796-4.311-11.578-8.558-23.177-12.848-34.776-3.529-9.55-8.601-18.254-14.349-26.62-2.578-3.74-5.621-7.035-9.446-9.55-4.564-3-9.488-3.803-14.75-2.45-4.881 1.246-9.234 3.507-13.165 6.676-5.578 4.479-9.255 10.289-11.812 16.86-4.142 10.605-6.065 21.655-6.91 32.958-.825 11.07.612 21.782 4.247 32.219 4.417 12.697 10.608 24.465 18.511 35.346 6.742 9.275 14.729 17.282 24.133 23.852 4.078 2.853 8.432 5.198 13.207 6.719 7.354 2.345 14.159 1.394 20.54-3.127 4.459-3.169 7.312-7.373 9.256-12.359 2.937-7.501 3.994-15.318 3.888-23.536v.021zm-27.577 42.93l-.084-.802c-.486-.148-.972-.317-1.458-.444-2.261-.57-4.607-.972-6.805-1.732-5.769-2.008-10.84-5.282-15.658-8.98-14.243-10.965-24.661-24.993-32.607-40.944-5.261-10.585-12.256-19.733-21.385-27.233-4.628-3.803-9.636-7.014-15.173-9.317-4.437-1.838-9.023-3.402-13.925-2.726-4.607.634-8.96-.19-13.313-1.542-3.276-1.014-6.678-1.585-10.144-1.225-3.465.359-5.6 2.049-6.086 5.472-.359 2.535-.359 5.239.043 7.774.845 5.303 2.958 10.205 5.79 14.79 13.714 22.183 31.275 40.437 53.991 53.578 11.898 6.888 24.386 12.106 37.869 14.874 10.988 2.26 22.019 2.725 33.029.19 1.986-.465 3.93-1.12 5.895-1.669l.021-.064zm25.76-19.584c.148.105.296.211.444.338.486-.338 1.078-.613 1.458-1.057 5.262-6.021 9.721-12.528 12.531-20.092 2.536-6.824 3.635-13.944 4.607-21.106 1.31-9.761.972-19.416-1.501-29.008-1.479-5.767-2.852-11.556-3.951-17.408-2.134-11.198-2.768-22.543-2.938-33.93-.126-7.776-.908-15.466-3.465-22.903-2.303-6.718-5.262-13.077-10.059-18.402-1.775-1.985-3.867-3.802-6.128-5.218-2.642-1.627-5.029-1.056-6.952 1.416-1.142 1.457-2.135 3.169-2.705 4.943-1.818 5.662-3.424 11.388-5.03 17.113-.401 1.458-.549 3.022-.634 4.543-.422 7.732 1.015 15.106 4.544 21.993 2.176 4.247 4.543 8.409 6.952 12.55 6.149 10.584 11.031 21.698 13.947 33.634 2.071 8.451 3.339 16.966 2.684 25.712-.571 7.564-.719 15.106-.381 22.691.339 7.521-.634 14.937-2.979 22.141-.211.655-.296 1.373-.444 2.05zM1.246 200.498c2.642 1.267 4.375 1.119 7.016-.381 5.664-3.211 11.306-6.422 16.948-9.613 5.917-3.359 12.108-6 18.638-7.901 8.981-2.62 17.793-2.493 26.436 1.31 3.297 1.457 6.678 2.746 9.869 4.436 12.911 6.803 26.668 10.395 41.207 11.092 6.698.317 13.355-.148 19.864-1.944.866-.232 1.69-.612 2.535-.929-.063-.19-.105-.402-.169-.592-.866-.063-1.733-.148-2.599-.148-10.207-.021-20.075-1.943-29.775-5.028-13.101-4.162-25.146-10.458-36.346-18.359-3.043-2.155-6.319-3.465-9.975-3.867-7.543-.866-14.96-.253-22.082 2.578a773.832 773.832 0 00-16.272 6.718 63.397 63.397 0 00-14.412 8.493c-3.93 3.085-7.48 6.55-9.741 11.092-.465.93-.761 1.944-1.184 3.043h.043zM163.73 41.79c-.233 0-.465.02-.719.042.085 1.416.022 2.852.254 4.246.486 3.106.972 6.254 1.733 9.296 4.712 19.12 11.094 37.691 18.406 55.988 2.197 5.514 4.015 11.197 6.022 16.796.148.422.402.824.676 1.373.275-.38.444-.528.444-.676.528-6.845.634-13.669-.486-20.493-2.536-15.423-8.072-29.705-15.954-43.142-4.332-7.395-8.622-14.831-10.376-23.41v-.02zM21.85 194.138c.317.106.507.233.634.19 1.48-.401 2.958-.802 4.417-1.246 11.622-3.55 23.498-4.627 35.543-3.233 7.608.888 15.13 2.261 22.717 3.381.655.105 1.31.105 1.965.148.085-.148.17-.317.233-.465a7.76 7.76 0 00-.74-.359c-6.762-2.979-13.44-6.127-20.287-8.853-5.113-2.028-10.523-2.239-15.975-1.31-10.038 1.691-19.103 5.768-27.725 10.987-.275.169-.507.443-.803.739l.021.021z"/></g><defs><clipPath id="clip0_2_996"><path fill="#fff" d="M0 0h326v548H0z"/></clipPath></defs></svg>