<svg width="212" height="343" fill="none" xmlns="http://www.w3.org/2000/svg"><g opacity=".4" clip-path="url(#clip0_2_882)" fill="#C89663"><path d="M124.93 342.54c-.06-1.76-.15-3.51-.17-5.27-.04-4.57-.49-9.11-1.1-13.62-.84-6.18-2.1-12.27-3.92-18.24-1.33-4.37-3.08-8.58-4.98-12.72-2.66-5.78-5.39-11.52-7.92-17.35-3.58-8.24-6.04-16.83-7.51-25.69-.8-4.82-1.61-9.65-2.16-14.5-.53-4.69-.73-9.42-1.07-14.14-.02-.25 0-.5.23-.83.16.32.39.63.45.97.11.66.13 1.33.18 2 .34 4.25.62 8.51 1.04 12.75.65 6.53 1.78 13 3.17 19.41 1.95 9 5.14 17.56 9.01 25.89 2.52 5.42 5.07 10.84 7.46 16.32 2.79 6.39 4.53 13.11 5.73 19.96.72 4.15 1.31 8.34 1.71 12.54.36 3.7.38 7.44.55 11.16.02.46.05.92.07 1.38h-.75l-.02-.02zM49.97 36.57c-.68-2.4-1.39-4.49-1.86-6.62-.74-3.33-1.09-6.72-.4-10.09.28-1.35.85-2.69 1.5-3.91 1.6-2.99 3.28-5.95 5.02-8.86.79-1.31 1.69-2.6 2.75-3.7 2.74-2.83 6.08-3.93 10-3.11 5.35 1.12 9.68 3.7 12.49 8.52 1.42 2.44 2.12 5.13 2.56 7.88.85 5.32 1.21 10.7 1.01 16.08-.08 2.22-.72 4.42-1.12 6.62-.07.38-.19.74-.34 1.31.31-.2.46-.27.58-.37 6.14-5.19 13.22-8.46 21.11-9.71 6.24-.98 12.49-.69 18.47 1.74 1.86.75 3.59 1.7 4.98 3.17.45.48.89.99 1.24 1.54 1.42 2.18 1.15 4.2-.91 5.82-.96.75-2.09 1.3-3.2 1.82-1.36.62-2.79 1.09-4.18 1.66-1.53.63-2.94 1.49-3.97 2.79-1.74 2.19-4.07 3.35-6.67 4.03-3.28.85-6.6 1.55-9.88 2.4-2.43.64-4.86 1.29-7.2 2.19-2.08.8-4.03 1.95-6.04 2.96-.22.11-.4.32-.54.65.35-.08.71-.13 1.06-.23 4.8-1.51 9.71-1.59 14.66-1.06 5.82.62 11.23 2.57 16.46 5.07 2.73 1.3 5.16 3.05 7.37 5.1 2.01 1.87 3.46 4.1 4.33 6.71.17.5.33 1.01.41 1.53.42 2.86-.44 4.39-3.1 5.57-.89.39-1.78.76-2.68 1.14-1.75.74-2.98 1.98-3.77 3.71-.66 1.44-1.4 2.85-2.09 4.27-2.16 4.48-6.07 6.02-10.69 6.32-3.58.23-7.01-.65-10.37-1.72-6.36-2.03-12.21-5.04-17.41-9.27-.29-.24-.63-.42-1.04-.68.25 1.06.47 1.98.68 2.9.39 1.76.02 3.42-.76 5-.29.59-.6 1.19-1.01 1.7-1.38 1.72-1.66 3.74-1.75 5.84-.45 11.24 2.15 21.86 6.51 32.12 2.25 5.27 4.59 10.5 6.85 15.77 2.04 4.76 3.38 9.74 4.29 14.82.37 2.07.43 4.2.62 6.31.25 2.72.5 5.44.71 8.16.05.59.38 1.28-.4 1.88-.42-1.03-.43-2.01-.52-2.99-.49-4.91-.86-9.83-1.52-14.72-.63-4.6-2.11-9-3.93-13.27-2.32-5.48-4.79-10.9-7.08-16.39-2.38-5.7-4.31-11.55-5.31-17.68-.71-4.36-1.11-8.74-.95-13.17.02-.52 0-1.04-.24-1.62-.21.46-.44.92-.62 1.39-2.15 5.47-6.54 8.23-11.88 9.82-1.56.46-3.12 0-4.38-.96-1.18-.9-2.2-2.02-3.22-3.1-.45-.47-.76-1.08-1.1-1.65-1.72-2.84-3.62-5.53-5.79-8.05-2.1-2.44-3.69-5.19-4.37-8.36-.38-1.8-.49-3.66-.7-5.49-.05-.42 0-.85 0-1.52-.57.39-.93.62-1.27.88-2.74 2.1-5.85 3.11-9.26 3.52-4.72.57-9.21-.21-13.62-1.81-3.39-1.23-6.79-2.47-10.34-3.19-1.46-.3-2.93-.66-4.3-1.21C1.25 81.71.07 79.64 0 76.84c-.09-3.69 1.49-6.33 4.75-8.04 1.99-1.05 4.13-1.64 6.33-1.72 3.61-.14 7.23-.11 10.85-.02 1.34.03 2.67.44 4.27.72-.35-.38-.53-.64-.76-.83-2.96-2.45-5.35-5.36-7.12-8.78-1.15-2.22-2.73-4.1-4.56-5.79-1.56-1.44-3.13-2.85-4.65-4.33-3.09-3.02-4.97-6.71-5.8-10.93-.17-.85-.15-1.77-.07-2.63.15-1.45 1.27-2.36 2.86-2.41 1.89-.06 3.66.49 5.38 1.17 1.02.4 2.01.85 3.16 1.34-.03-.71-.04-1.26-.09-1.81-.17-1.64.51-2.91 1.7-3.97 1.71-1.52 3.79-2.3 6-2.54C32.26 25.2 40.96 28.13 48.32 35c.51.48 1.01.96 1.66 1.57h-.01zm21.06 43.84c2.62 1.26 4.59 3.18 6.45 5.28 1.04 1.18 2.25 2.26 3.52 3.19 5.19 3.82 10.87 6.71 17.07 8.49 3.65 1.05 7.33 1.89 11.19 1.17 3.32-.62 6.12-1.97 7.76-5.1.82-1.56 1.67-3.1 2.41-4.7.89-1.94 2.26-3.34 4.21-4.19.89-.39 1.78-.76 2.67-1.15 2.6-1.15 3-2.49 2.6-5.22-.06-.43-.24-.84-.39-1.26-.84-2.37-2.18-4.42-4.01-6.14-2.07-1.94-4.34-3.62-6.89-4.87-5.77-2.82-11.76-4.89-18.23-5.42-3.95-.32-7.8 0-11.66.83-3.56.76-6.28 2.65-8.4 5.52-.25.34-.37.78-.51 1.18-.49 1.41-.74 2.95-1.48 4.22-1.27 2.2-2.79 4.26-4.3 6.32-.5.69-1.27 1.19-1.99 1.84l-.02.01zM15.41 35.57c-.67-.27-1.07-.42-1.46-.58-1.22-.51-2.43-1.06-3.66-1.51-1.41-.52-2.88-.84-4.4-.71-1.14.1-1.79.65-1.99 1.76-.09.51-.17 1.07-.06 1.57.35 1.58.75 3.16 1.2 4.72.31 1.08 1.02 1.91 1.85 2.69 1.77 1.66 3.79 2.87 6.07 3.65 1.12.39 2.25.75 3.38 1.12 3.37 1.11 6.31 2.9 8.77 5.48 2.16 2.27 3.67 4.95 5.03 7.73.89 1.82 1.75 3.66 2.65 5.47.88 1.76 2.11 3.25 3.64 4.49.94.76 1.95 1.38 3.17 1.54 4.26.55 8.5.74 12.71-.39.47-.12.94-.23 1.42-.29.8-.11 1.6-.17 2.26-.24-.83-1.82-1.78-3.57-2.44-5.42-1.05-2.91-1.13-5.99-.75-9.02.36-2.84 1.27-5.52 4.03-7.07.06-.03.08-.15.12-.23-.32-2.38-1.03-4.63-2.33-6.68-2.95-4.63-6.56-8.64-11.12-11.73-6.15-4.17-13.02-5.68-20.36-5.18-2.25.15-4.43.83-6.23 2.32-1.43 1.18-2.2 2.61-1.66 4.54.15.55.11 1.15.18 1.97h-.02zm56.89 23c.55-1.47 1.04-2.78 1.56-4.18-.17-1.32-.82-2.81.48-4.09h1.53c1.59-2.24 2.92-4.63 4.03-7.12 1.9-4.25 2.81-8.7 2.52-13.37-.19-3.08-.36-6.16-.59-9.23-.24-3.13-.78-6.21-1.88-9.15C77.53 4.95 70.56.29 63.83.71c-3.46.22-6.08 1.84-7.19 5.26-.61 1.87-1 3.83-1.33 5.77-.45 2.6-1.35 4.85-3.51 6.58-2.81 2.25-3.7 5.49-3.49 8.88.14 2.29.87 4.57 1.55 6.79.71 2.32 1.88 4.45 3.34 6.42 1.93 2.6 3.58 5.35 4.12 8.62.07.42.17.83.25 1.24.28.02.45.04.63.05 1.52.06 2.08.4 2.42 1.89.19.82.21 1.77-.01 2.58-.39 1.44.04 2.63.6 3.78 1.09-.45 2.1-.86 3.25-1.33.69-1.15 1.92-1.42 3.24-1.05 1.04.29 2.04.79 3.02 1.28.58.29 1.07.74 1.6 1.11l-.02-.01zm6.48 33.42c-.19-.95-.3-1.91-.57-2.83-1.21-4.07-4.17-6.53-7.81-8.31-.3-.15-.69-.16-1.03-.15-3.23.1-5.85-1.24-7.93-3.56-1.12-1.26-2.39-2.32-3.62-3.44-.7-.63-1.49-.92-2.4-.92-2.63 0-4.93.91-6.87 2.65-4.5 4.04-6.03 9.03-4.81 14.94.71 3.41 2.25 6.36 4.41 9.06 1.51 1.89 2.97 3.83 4.39 5.8.88 1.21 1.55 2.58 2.47 3.75.86 1.1 1.85 2.14 2.93 3.02 1.55 1.26 3.4 1.52 5.24.76 1.7-.71 3.38-1.52 4.95-2.48 2.22-1.37 3.94-3.28 4.96-5.71 1.23-2.93 2.6-5.78 4.38-8.43.82-1.22 1.27-2.61 1.32-4.15h-.01zm.52-26.74c.34-.3.59-.46.76-.69.63-.85 1.27-1.7 1.82-2.6 2.07-3.38 4.91-5.82 8.54-7.43 3.73-1.66 7.63-2.4 11.67-2.57 2.11-.09 4.24-.02 6.35-.04 2.55-.02 4.73-.86 6.39-2.9 1.22-1.5 2.78-2.57 4.57-3.29 1.47-.59 2.98-1.11 4.42-1.77 1.03-.47 2.07-1.01 2.95-1.72 1.68-1.37 1.87-2.97.72-4.81-.81-1.29-1.87-2.37-3.19-3.12-1.18-.67-2.41-1.31-3.68-1.78-5.73-2.09-11.62-2.36-17.58-1.38-7.28 1.2-13.77 4.26-19.62 8.69-.9.68-1.76 1.54-2.32 2.5-1.64 2.81-3.13 5.71-4.71 8.64 3.03 4.19 3.13 9.1 2.9 14.25l.01.02zm-30.27 8.64c-1.4 0-2.76.03-4.12 0-1.89-.04-3.8 0-5.67-.22-3.01-.35-5.78-1.5-8.41-2.98-2.67-1.5-5.46-2.78-8.55-2.9-3.74-.14-7.5-.11-11.24.03-2.07.07-4.07.65-5.95 1.6-3.7 1.87-4.86 4.97-4.32 8.79.15 1.1.73 1.83 1.85 2.15 1.29.37 2.57.61 3.9.27 2.04-.52 4.09-1.02 6.13-1.57 3.56-.96 7.13-1.07 10.69-.08 2.45.69 4.56 2.08 6.64 3.49 1.39.94 2.76 1.91 4.22 2.72 1.9 1.05 3.92 1.37 5.94.33 1.44-.74 2.72-1.52 3.2-3.38.4-1.57 1.35-3.06 2.29-4.42.94-1.35 2.19-2.49 3.39-3.82l.01-.01zM7.37 44.56c-.08.09-.16.18-.24.26.61.74 1.16 1.53 1.84 2.21 1.34 1.34 2.71 2.66 4.13 3.91 2.5 2.21 4.59 4.71 6.22 7.66 3.54 6.41 9.01 10.62 15.71 13.35.39.16.81.24 1.48.44-.28-.36-.36-.51-.48-.6-2.02-1.54-3.34-3.61-4.42-5.86-.97-2.03-1.94-4.06-2.95-6.06-2.87-5.68-7.29-9.54-13.42-11.38-2.84-.85-5.62-1.84-7.87-3.92v-.01zM37.4 86.97c-.26-.12-.41-.23-.57-.26-2.33-.39-4.23-1.66-6.13-2.96-1.49-1.02-2.99-2.05-4.56-2.92-3.27-1.81-6.79-2.39-10.47-1.75-1.77.31-3.52.78-5.26 1.23-1.96.51-3.9 1.1-5.97.93-.6-.05-1.19-.14-1.79-.2-.04.08-.07.16-.11.24.63.35 1.23.82 1.91 1.03 1.59.48 3.25.77 4.84 1.25 3.12.93 6.25 1.83 9.31 2.93 4.69 1.68 9.45 2.46 14.4 1.69 1.47-.23 2.94-.47 4.4-1.22v.01zm31.61-6.65c-.45-2.44-.81-4.65-1.28-6.84-.78-3.65-2.56-6.61-5.96-8.45-.46-.25-.78-.81-1.1-1.26-.46-.64-.83-1.35-1.31-1.97-.35-.46-.84-.85-1.48-.63-.66.23-.9.81-.99 1.45-.04.3-.04.62-.04.92 0 3.79 1.04 7.3 2.96 10.54 1.8 3.03 4.31 5.21 7.82 6.05.41.1.83.12 1.37.2l.01-.01zm.58-.19c2.17-.81 3.4-2.17 4.29-3.9.62-1.2.78-2.49.94-3.81.39-3.26-.27-6.3-1.76-9.18-.35-.69-.89-1.33-1.48-1.83-1.29-1.09-2.28-.72-2.65.9-.05.21-.12.43-.11.65.05 1.07-.37 1.95-.93 2.83-.83 1.29-1.03 2.8-.58 4.2.77 2.36 1.21 4.76 1.54 7.2.12.93.45 1.84.74 2.95v-.01zM53.94 66.15c.11-.02.22-.04.33-.07.01-.26.03-.52.04-.78.02-2.56.81-4.81 2.58-6.72.87-.93 1.62-1.97 2.37-3 .61-.83.97-1.78.86-2.84-.16-1.57-1.18-2.22-2.68-1.75-1.3.41-2.15 1.3-2.78 2.47-1.51 2.79-1.71 5.78-1.37 8.85.14 1.29.43 2.56.66 3.84h-.01zm28.22-3.63c.38-.11.43-.11.47-.13.21-.16.42-.33.62-.49 2.77-2.23 5.78-4.07 9.21-5.07 3.71-1.09 7.46-2.08 11.2-3.08 1.51-.4 3.05-.71 4.58-1.06 0-.1-.02-.2-.03-.3-.46 0-.92-.02-1.38 0-1.89.07-3.79.17-5.68.23-3.2.11-6.29.75-9.26 1.9-3.6 1.4-6.79 3.38-8.94 6.71-.23.35-.43.72-.77 1.29h-.02zm-4.92 7.49c.08.05.16.09.25.14.13-.36.29-.71.39-1.07 1.03-3.93 1.13-7.91.47-11.9-.29-1.73-.83-3.42-1.83-4.91-.44-.66-.93-1.26-1.74-1.43-.71.9-.88 1.22-.56 2.2.57 1.75 1.21 3.48 1.92 5.18.55 1.32.99 2.62.87 4.08-.06.79-.04 1.59.05 2.37.2 1.78.68 3.54.18 5.36v-.02zm-7.01-9.83c2.8.68 3.53 3.18 4.58 5.51.07-.23.13-.32.12-.4-.7-3.84-2.6-6.78-6.33-8.31-.52-.21-1.1-.3-1.66-.37-1.85-.21-2.66 1.36-1.94 2.99.16.36.49.69.52 1.05.13 1.57 1.29 1.9 2.53 2.33.47-1.15.54-2.5 2.17-2.81l.01.01zM47.99 24.09c.53-2.53 1.64-4.73 3.66-6.38 1.63-1.33 2.45-3.07 2.89-5.05.48-2.23.97-4.46 1.44-6.7 0-.04-.08-.1-.17-.2-.21.3-.43.56-.6.86-1.99 3.48-4.01 6.94-5.96 10.44-1.22 2.19-1.35 4.6-1.26 7.03zm10.78 49.42c-.23-.58-.39-1.02-.57-1.44-1.13-2.56-1.81-5.23-1.84-8.04 0-.69.04-1.43.25-2.08.4-1.23 1.37-1.55 2.5-.96.25.13.51.24.77.36.82-2.57.82-2.59-.34-5.07-.78.94-1.46 1.9-2.27 2.74-3.84 3.99-3.36 11 1.5 14.49zm5.12-15.45c-2 .42-3.18 1.62-3.36 3.45-.14 1.53.86 2.8 2.88 3.7.52-.38 1.02-.72 1.49-1.08.77-.59.93-1.18.62-1.94-.56-1.37-1.09-2.75-1.64-4.14l.01.01zm11.6 6.03c.61-1.19 1.04-2.41.79-3.67-.35-1.8-1.41-3.32-2.1-5-.1.01-.19.03-.29.04l-1.14 3.28c.97 1.91 1.82 3.57 2.73 5.35h.01zm.06 1.03c.06.05.11.1.17.15-.1 2.82-.21 5.64-.31 8.46 1.78-3.24 1.74-6.63 1-10.3-.35.69-.6 1.2-.86 1.7v-.01z"/><path d="M13.63 202.25c.26-.07.52-.19.79-.2 3.94-.13 7.8-.88 11.7-1.41 3.64-.5 7.32-.75 10.98-1.12 3.34-.33 6.69-.32 10.03.02 9.38.96 18.27 3.36 25.89 9.22 3.52 2.71 6.42 6.02 8.55 9.93 1.67 3.06 3.6 5.94 5.73 8.69 4.08 5.25 6.9 11.15 9.18 17.35 1.67 4.55 3.47 9.06 5.2 13.59.1.25.15.53.02.88-.34-.5-.71-.99-1.03-1.5-2.96-4.76-5.86-9.57-8.88-14.29-3.33-5.19-7.19-9.98-11.37-14.52-6.35-6.92-13.95-11.74-23.01-14.38-8.59-2.5-17.22-4.81-25.89-7.01-4.82-1.22-9.6-2.57-14.41-3.86-.89-.24-1.79-.43-2.67-.68-.29-.08-.56-.25-.84-.38.02-.11.03-.23.05-.34l-.02.01zm6.68 1.32l-.03.15c.38.13.76.29 1.15.4 3.35.91 6.68 1.86 10.05 2.7 8.96 2.25 17.89 4.59 26.74 7.26 7.73 2.34 14.55 6.15 20.26 11.88 1.68 1.69 3.28 3.47 4.91 5.21.29.31.58.62.86.93l.2-.17c-.24-.38-.44-.78-.71-1.13-2.89-3.74-5.71-7.55-8.72-11.2-3.56-4.31-7.94-7.65-12.84-10.35-6.21-3.42-13-4.46-19.91-5.02-2.04-.17-4.09-.26-6.14-.32-5.27-.14-10.54-.25-15.81-.36l-.01.02zm76.58 45.1c.07-.29.1-.33.09-.36l-1.23-3.42c-2.18-6.11-5.01-11.87-9-17.02a70.907 70.907 0 01-5.75-8.68c-3.52-6.24-8.54-10.9-15.03-13.96-7.3-3.45-15.04-5.04-23.07-5.23-2.05-.05-4.1.07-6.15.23-3.04.24-6.08.54-9.11.9-2.65.32-5.29.75-7.94 1.12-1.03.14-2.07.24-3.1.36 2.14.26 4.27.37 6.4.42 4.52.1 9.04.16 13.56.26 4.1.09 8.19.35 12.24 1.02 3.84.64 7.63 1.46 11.19 3.12 10.91 5.1 19.78 12.62 26.69 22.46 3.36 4.78 5.99 9.97 8.52 15.2.55 1.13 1.07 2.26 1.68 3.56l.01.02zm-.57.67c-5.31-12.78-12.14-24.49-23.29-33.14.07.28.23.51.41.7 3.7 3.89 7.08 8.06 10.06 12.52 4.14 6.19 8.08 12.52 12.11 18.78.24.38.47.76.71 1.13v.01zm-3.29-80.89c-.08-.22-.18-.43-.22-.65-.57-2.68-.19-5.33.27-7.98.13-.78.22-1.57.27-2.36.33-4.72.54-9.45 1-14.15.59-6 2.17-11.75 5.01-17.11 2.07-3.91 4.68-7.48 7.82-10.57 3.76-3.7 7.69-7.23 11.64-10.73 3.87-3.42 8.32-6.07 12.56-8.99 5.08-3.5 9.99-7.2 14.33-11.6.56-.57 1.16-1.09 1.78-1.59.3-.25.69-.4 1.03-.6.51.66.19 1.17-.01 1.64-1.92 4.45-3.79 8.94-5.83 13.34-2.92 6.29-6.45 12.23-10.83 17.62-5.17 6.36-11.09 11.98-17.61 16.96-2.26 1.73-4.56 3.43-6.68 5.33-5.17 4.64-9.33 10.04-11.93 16.57-1.16 2.91-1.71 5.94-2.14 9-.21 1.53-.21 3.08-.3 4.62-.02.41 0 .82 0 1.23l-.17.03.01-.01zm1.11-13.79l.25.06c.05-.06.13-.1.16-.17.08-.15.15-.3.2-.46 1.76-5.02 4.64-9.35 8.09-13.34 3.06-3.54 6.69-6.44 10.41-9.23 6.94-5.2 13.21-11.11 18.57-17.92 6.93-8.8 11.6-18.86 15.75-29.18.1-.25.13-.53.2-.8-.6.26-1.05.62-1.44 1.03-4.45 4.53-9.48 8.34-14.71 11.93-4.24 2.91-8.69 5.57-12.55 8.99-3.73 3.31-7.47 6.61-11 10.12-4.28 4.25-7.72 9.13-9.96 14.8-1.63 4.11-2.58 8.38-3.11 12.75-.14 1.14-.19 2.28-.29 3.53.2-.11.26-.13.27-.16.07-.24.14-.48.2-.72 1.05-4.44 2.97-8.51 5.38-12.37 2.54-4.07 5.39-7.91 8.78-11.28 4.24-4.22 8.52-8.43 13.04-12.35 7.57-6.56 15.03-13.23 21.38-21.02.08-.1.21-.16.31-.24-3.57 4.81-7.45 9.31-11.87 13.31-4.29 3.88-8.68 7.64-12.96 11.51-5.13 4.64-10.13 9.4-14.37 14.9-4.95 6.42-8.73 13.37-10.03 21.48-.26 1.6-.46 3.21-.69 4.81l-.01.02zM74.76 50.17c2.9-9.39 3-19.05 2.88-28.73 1.29 9.54-.43 25.87-2.88 28.73zm-7.52-19.7c1.08 8.56 1.24 17.21.58 25.86l-.32.03c-.05-.3-.14-.61-.14-.91.06-3.04.18-6.08.2-9.12.03-3.66.02-7.32-.04-10.98-.02-1.63-.19-3.25-.29-4.87l.01-.01zm31.12 47.76c-7.13-2.43-14.23-4.86-21.79-5.61 0-.14.02-.27.03-.41.4-.04.8-.14 1.19-.12 5.32.31 15.65 3.4 20.57 6.14zm8.86-10.89c2.52 0 4.97.46 7.4 1.02 2.91.67 5.83 1.32 8.53 2.65 1.37.68 2.67 1.53 3.95 2.37.68.45 1.22 1.07 1.66 2.12-.44-.17-.67-.18-.79-.31-2.37-2.43-5.34-3.85-8.5-4.87-4.01-1.3-8.11-2.23-12.25-2.98zM33.03 38.12c7.17 4.23 18.5 13.13 20.24 18.01-1.47-1.69-2.87-3.45-4.42-5.07-1.59-1.65-3.28-3.21-5.01-4.7-1.7-1.46-3.5-2.82-5.29-4.18-1.82-1.38-3.68-2.71-5.52-4.07v.01zm1.58 10.21c6.66 4.88 13.42 9.64 18.89 15.93-.17.18-.19.23-.23.25-.03.02-.09.03-.12.02-.11-.06-.23-.11-.33-.19-.13-.11-.25-.25-.37-.38-1.53-1.52-2.97-3.16-4.61-4.55-3.76-3.19-7.63-6.27-11.45-9.39-.64-.52-1.32-1.01-1.98-1.51.07-.06.13-.12.2-.18zm73.71-5.66c-9.95 2.68-19.03 6.98-26.48 14.29 7.21-7.77 16.29-12.07 26.48-14.29zM59.03 1.79c-.12.81-.32 1.62-.34 2.44-.06 2.72-.13 5.44-.04 8.15.07 1.97.37 3.93.61 5.89.28 2.26.6 4.52.91 6.78.05.39.11.78-.03 1.2-.35-1.97-.76-3.92-1.05-5.9-.39-2.69-.76-5.39-1.01-8.09-.28-3.06-.5-6.14.18-9.19.1-.45.25-.89.38-1.34l.39.06zm-2.29 25.42c2.57 8.48 4.74 17.05 6.05 25.83-2.02-8.61-4.03-17.22-6.05-25.83zm21.73 50.3c8.12 2.84 15.13 7.67 22.12 12.55-7.21-4.46-14.34-9.04-22.12-12.55zM58.12 97.34c-.24-6.03 3.28-17.55 5.8-18.78-.09.33-.11.58-.22.78-2.7 4.95-4.36 10.26-5.46 15.77-.14.73-.08 1.49-.12 2.24v-.01zm-11.98-24c-1.61 1.22-15.96 3.67-19.91 3.55 6.64-1.18 13.27-2.37 19.91-3.55zm34.03-6c4.22-1.77 8.5-2.4 12.82-2.64 4.31-.24 8.62-.04 12.91.64h-1.42c-.48-.01-.97-.05-1.45-.06-3.69-.06-7.4-.3-11.08-.13-3.86.18-7.66.89-11.32 2.22-.07.02-.16-.01-.45-.04l-.01.01z"/><path d="M44.42 52.75c2.71 2.62 5.42 5.23 8.28 7.99.23-2.5 1.85-3.99 3.49-5.49-1.42 2.08-3.45 3.9-2.88 6.76-.09.05-.12.08-.16.09-.04.01-.1.02-.12 0-.29-.27-.58-.53-.85-.82-2.64-2.77-5.27-5.54-7.91-8.31.05-.07.1-.15.16-.22h-.01zM72.08 93.2c.53 2.82.89 5.64.48 8.51-.23 1.6-.34 3.23-.63 4.82-.21 1.16-.55 1.58-1.29 2.23.39-1.7.9-3.34 1.13-5.02.24-1.73.25-3.5.3-5.26.05-1.76.01-3.52.01-5.28zm32.39-43.8c3.92-2.1 12.9-4.18 15.58-3.54-2.62.5-5.25.93-7.85 1.52-2.6.59-5.15 1.34-7.73 2.02zm3.61-13.4c3.89-1.94 13.32-3.11 16.6-2.06-.69.27-1.44.15-2.16.15-.79 0-1.59-.02-2.38 0-.79.02-1.58.06-2.37.15-.83.09-1.65.26-2.47.38-.78.12-1.57.2-2.34.34-.78.14-1.55.31-2.32.48-.76.16-1.52.34-2.56.57V36zM50.97 19.23c.31 5.48 2.2 10.61 3.44 15.89-1.14-2.55-1.9-5.22-2.61-7.91-.69-2.63-1.46-5.25-1.39-7.97.19 0 .37-.01.56-.02v.01zm27.72 38.08c.13-.37.2-.8.42-1.12.73-1.09 1.42-2.24 2.3-3.2 2.32-2.54 4.92-4.77 7.7-6.8.27-.2.56-.36.9-.47-3.96 3.65-8.45 6.79-10.99 11.78-.11-.06-.22-.12-.33-.19zM46.04 97.13c.04-.47 0-.96.13-1.4 1.13-3.91 2.64-7.65 4.77-11.13.04-.07.14-.1.36-.26-.96 2.26-1.91 4.34-2.73 6.48-.8 2.1-1.47 4.26-2.19 6.4a4.18 4.18 0 00-.34-.08v-.01zM22.18 26.39c1.92.08 8.95 4.7 11.94 7.75-3.95-2.56-7.86-5.1-11.94-7.75zM3.6 36.07c4.25 3.11 9 5.37 13.52 8.03-4.6-2.06-9.16-4.18-13.26-7.16-.2-.15-.29-.45-.43-.68l.18-.18-.01-.01zm66.21 4.78c.48 7.02.17 14.46-.8 16.02.28-5.67.57-11.26.8-16.02zm4.27-25.52L72.91 2.76c.07-.03.14-.05.22-.08.12.16.32.3.34.48.61 4.03.82 8.09.6 12.18l.01-.01zM13.11 73.41c-3.74.73-7.98 1.57-12.26 2.4-.24-.34-.03-.5.33-.58 1.37-.31 2.72-.67 4.1-.93 2.76-.53 5.53-.94 7.83-.89zm29.47-7.06c-3.74.15-11.15-2.06-12.64-3.87 1.01-.09 1.61.65 2.39.91.87.28 1.71.67 2.58.98.82.29 1.66.55 2.5.8.88.27 1.75.55 2.65.76.85.19 1.72.3 2.52.43v-.01zm-1.62 2.31c4.62.53 9.2 1.45 14.06 1.18-1.82 1.02-9.79.32-14.06-1.18zm81.68 16.82l-9.69-3.99c.02-.06.04-.13.06-.19 1.12.34 2.25.65 3.36 1.02 1.13.37 2.26.74 3.34 1.22 1.08.47 2.37.61 3.12 1.67-.06.09-.12.19-.18.28l-.01-.01zm-33.6-13.11c-3.91-.4-7.74-1.04-11.69-.83.16-.69.67-.54 1.06-.56 3.09-.12 6.12.22 9.11.98.51.13 1.01.27 1.51.41h.01zm16.08 18.5c3.23 1.34 8 5.06 8.43 6.74-1.04-.9-1.85-1.63-2.69-2.32-.92-.75-1.87-1.46-2.81-2.18-.89-.69-1.79-1.37-2.93-2.24zM49.22 73.9c-3.59 1.48-7.33 2.34-11.19 2.77 3.7-1.03 7.4-2.06 11.11-3.09.03.11.06.22.08.32zm11.59-10.11c.61 3.27 1.19 6.38 1.8 9.67-1.39-2.93-1.89-5.9-2.13-8.93-.02-.2.18-.41.33-.74zm4.29 15.13c-1.14 3.19-2.22 6.22-3.26 9.14-.16-1.77 2.03-8.28 3.26-9.14zm-25.42 1.83c-2.03 1.53-6.84 3.24-8.37 2.87 2.71-.93 5.43-1.86 8.37-2.87zm34.65 15.48c.61 2.83.29 7.47-.74 8.8.26-3.09.52-6.14.74-8.8zM84.84 47.4c-2.34 2.63-4.97 5.01-6.74 8.13-.08-.97.44-1.68.98-2.35 1.71-2.13 3.59-4.1 5.76-5.78zM72.78 78.19c.45-3.29-.48-6.36-1.36-9.45 1.63 2.23 2.51 7.97 1.36 9.45zM33.43 31.14c-2.62-1.67-5.04-3.22-7.65-4.89 1.53-.03 5.72 2.72 7.65 4.89zm84.04 50.36c3.25.39 7.07 1.74 7.89 2.65-.02.04-.03.08-.06.11s-.08.08-.1.07c-2.58-.94-5.15-1.89-7.73-2.84v.01zM78.85 63.7c-.12-2.71-1.33-4.82-2.21-7.04 1.75 1.89 3.03 5.63 2.21 7.04zm40.47-28.05c2.5-.39 5-.7 7.48-.1v.32c-2.49-.07-4.99-.15-7.48-.22zM.15 77.65c1.8-.85 3.72-1.25 5.75-1.25L.25 78.02c-.03-.12-.06-.24-.1-.36v-.01zm47.26 21.03c.09-1.89.77-3.59 1.69-5.21-.42 1.78-.77 3.59-1.69 5.21zM61.83 64.7c.19.95.39 1.9.58 2.85.19.98.36 1.96.56 3.04-.89-1.48-1.63-4.84-1.14-5.89zM75.05 3.86c.69 1.9.65 3.88.57 6.19-.32-2.26-.6-4.2-.88-6.15.1-.01.2-.03.3-.04h.01zM73.46 71.4c.57 1.72 1.25 3.41.51 5.22l-.51-5.22zm-5.4-13.05c-1.01.92-1.91 1.74-2.76 2.51-.07-.99.77-1.8 2.76-2.51zm-5.23 3.15c1.73.52 2.44 1.28 2.34 2.38-.75-.76-1.54-1.58-2.34-2.38zm.13-.89c1.36.37 2.39.86 2.87 2.12-.9-.67-1.8-1.34-2.87-2.12zm95.88 147.77c-.16.28-.3.52-.48.82.26.14.46.28.69.36 3.06 1.12 6.19 2.05 9.41 2.52 3.83.56 7.69.96 11.55 1.31 2.82.25 5.67.29 8.5.45-8.63.54-17.15-.29-25.54-2.36-1.73-.43-3.47-.9-5.16-1.97 1.36-2.68 1.14-5.48.65-8.3.71 2.1 1.14 4.22.63 6.57 6.19 1.64 12.51 2.3 18.82 2.95-6.41.07-12.72-.7-19.06-2.32l-.01-.03z"/><path d="M160.84 204.62h1.17c2.09-.02 4.2.13 6.27-.1 3.68-.41 7.37-.89 11.01-1.62 6.63-1.33 13.09-3.31 19.47-5.54.07-.02.16 0 .29.12-.97.41-1.92.86-2.91 1.21-7.04 2.54-14.21 4.59-21.61 5.75-3.96.62-7.96.98-11.99.8-.58-.03-1.15-.18-1.73-.28 0-.12.01-.24.02-.36l.01.02zm-25.41-62.65c-.09 1.5-.14 3-.27 4.49-.41 4.5-.57 9.02-.48 13.54.05 2.25.33 4.49.49 6.74.1 1.41.2 2.82.26 4.23.14 2.88.25 5.76.25 8.64-.3-2.92-.63-5.83-.89-8.75-.22-2.53-.4-5.07-.54-7.6-.11-1.96-.28-3.93-.2-5.89.17-3.96.46-7.92.76-11.88.09-1.18.35-2.35.54-3.52h.08zm28.96 100.38c1.97 3.5 3.18 7.27 4.22 11.1.79 2.9 1.44 5.83 1.72 8.83.19 2.06-.07 4.09-.5 6.1-.02.12-.11.23-.19.32-.05.05-.14.07-.34.16-.03-.33-.13-.65-.06-.93.87-3.72.4-7.39-.42-11.04-1.11-4.96-2.54-9.83-4.43-14.54zm-24.32-13.1c-3.39 9.14-4.46 18.61-4.2 28.28-.89-9.76.05-19.26 4.2-28.28zm-11.27 17.89c1.34-7.88 4.18-15.15 8.89-21.65.26-.36.5-.89 1.37-.74-.85 1.2-1.67 2.28-2.39 3.41-.74 1.16-1.44 2.36-2.08 3.58-.64 1.22-1.21 2.48-1.76 3.74-.55 1.26-1.07 2.54-1.56 3.83s-.94 2.59-1.36 3.9c-.41 1.3-.75 2.62-1.12 3.93h.01zm31.25-18.24c6.18 5.15 10.22 11.68 12.56 19.3.99 3.21 1.4 6.97.94 8.36-.16-5.51-1.87-10.42-4.18-15.18-2.31-4.76-5.72-8.7-9.31-12.48h-.01zm-15.71-80.36c-1.65 8.18-2.33 16.47-3.33 24.75.08-1.62.14-3.24.23-4.86.08-1.46.17-2.92.31-4.37.49-4.89.88-9.8 1.99-14.61.08-.34.22-.67.34-1 .15.03.3.06.45.1l.01-.01zM133.9 204.1c1.19-2.28 7.66-8.23 10.71-9.83l-2.55 2.31c.34.79-.09 1.36-.59 1.86-1.58 1.56-3.16 3.1-4.79 4.61-.91.85-1.9 1.62-2.9 2.39 2.34-2.86 5.32-5.12 7.69-7.94-.08-.09-.16-.18-.25-.26-1.25 1.13-2.52 2.24-3.75 3.39-1.21 1.14-2.39 2.32-3.58 3.48l.01-.01zm31.71 15.49c7.67 3.67 15.76 5.01 23.62 6.74-5.2.3-22.1-4.35-23.62-6.74zm37.75 2.59c-3.75.12-7.5.38-11.25.34-5.05-.06-10.06-.57-14.9-2.17-.15-.05-.3-.11-.42-.28 2.88.52 5.75 1.2 8.65 1.52 2.94.32 5.91.34 8.87.4 3.01.06 6.01.01 9.02.01 0 .06.02.12.02.18h.01zm-8.35-55.64c-1.88 2.32-14.91 9.73-18.96 10.77 6.47-3.38 12.62-6.91 18.5-10.89.06-.04.22.06.46.12zm-48.32 58.94c3.22 7.65 3.13 15.78 3.45 23.85-.76-8-.9-16.1-3.45-23.85zm7.24-43.02c.17-.35.3-.73.52-1.05.54-.74 1.08-1.49 1.7-2.17 3.46-3.75 7.18-7.23 11.3-10.26.12-.09.25-.17.43-.2-4.71 4.45-9.69 8.62-13.63 13.83-.11-.05-.21-.1-.32-.16v.01zm-28.03-11.15c-.24-.51-.55-1-.7-1.53-.85-3.09-1.75-6.18-2.45-9.31-.63-2.8-1.02-5.66-1.5-8.49-.05-.32 0-.66 0-1.16 1.49 6.94 2.71 13.78 4.99 20.37l-.33.12h-.01zm-44.82 22.86c3.05-1.3 14.72-1.19 20.21-.05-3.35-.13-6.76-.36-10.17-.36-3.35 0-6.7.26-10.04.41zm124.53-4.81c-.2.18-.26.28-.32.27-3.54-.19-6.82 1.01-10.14 1.97-2.27.66-4.53 1.37-6.85 1.91.78-.33 1.55-.69 2.34-.98 3.79-1.43 7.64-2.66 11.63-3.41.89-.17 1.83-.09 2.75-.09.17 0 .34.18.6.33h-.01zm-56.71-5.9c-.32-1.41-.63-2.83-.98-4.38.65-5.18 2.04-10.34 3.88-15.4-.36 1.56-.71 3.12-1.07 4.68-.79 3.49-1.58 6.98-2.35 10.47-.06.25.08.54.12.81.21 1.26.43 2.51.64 3.77-.08.01-.16.03-.25.04l.01.01zm20.51-40.62c-3.59 2.37-5.69 5.92-8.09 9.21-.78 1.07-1.5 2.2-2.38 3.24.08-.24.14-.49.26-.72 1.89-3.56 4.21-6.82 6.85-9.85.63-.71 1.4-1.31 2.16-1.89.28-.21.68-.55 1.19 0l.01.01zm-66.09 12.29c2.01 5.29 4.78 9.9 7.76 14.3-2.73-1.96-8.32-11.92-7.76-14.3zm10.35 68.76c5.17-1.98 8.99-5.81 13.03-9.33.06.06.12.13.18.19-1.26 1.25-2.45 2.58-3.78 3.75-2.29 2.02-4.63 4-7.48 5.23-.98.42-.98.42-1.95.16zm-8.66-14.39c5.58-.93 11.78-1.96 17.98-2.99-1.88 1.31-14.4 3.29-17.98 2.99zm45.4-4.57c-.59 3.52-1.37 6.97-4.18 9.55l1.49 2.16c-.07.06-.14.13-.21.19-.58-.63-1.17-1.27-1.75-1.91-.113.36.143 1.354.77 2.98-.28-.39-.59-.76-.85-1.16-.27-.42-.5-.86-.75-1.3-.42.04-.81.07-1.35.12.84-.57 1.6-1 2.25-1.55 1.6-1.36 2.6-3.13 3.27-5.1.45-1.32.87-2.65 1.3-3.98h.01zm11.1-4.28c5.2-1.6 10.14-3.84 15.19-5.83-2.18 1.82-13.34 6.19-15.19 5.83zm-7.32 43.59c1.28 6.95 2.32 13.9 1.06 20.96 0-3.5.14-7.02-.04-10.51-.18-3.49-.67-6.97-1.02-10.45zm-8.84-19.15c1.54 2.36 2.81 11.93 2.61 17.85-.27-2.34-.55-5.44-1-8.52-.44-3.05-1.04-6.07-1.61-9.33zm-10.78 40.18c-1.28-1.63-1.43-9.22-.41-14.07.01 4.76-.29 9.43.41 14.07zm-7.14-66.87c.27-4.52 5.02-10.48 8.67-12.07a30.945 30.945 0 00-5.36 5.44c-1.54 2-2.25 4.4-3.31 6.63zM162 219.08c-4.66-.92-11.62-4.21-13-6.25 2.24 1.2 4.22 2.36 6.28 3.35 2.11 1.01 4.29 1.86 6.72 2.9zm-21.85-79.5c-.58 4.72-1.16 9.44-1.77 14.35-.24-4.39.75-13.35 1.77-14.35zm8.21 53.11c1.98 2.33 1.79 9.04-.2 12.55.71-4.19 1.73-8.34.2-12.55zm10.03-39.5c.99-4.18 4.96-9.98 7.22-10.61-.23.94-1.12 1.22-1.59 1.84-.5.67-1.08 1.28-1.57 1.95-.52.71-.98 1.46-1.45 2.2-.44.71-.88 1.42-1.29 2.15-.41.72-.79 1.47-1.33 2.48l.01-.01zm-23.79 35.82c.67-.59 1.3-1.24 2.02-1.77 1.94-1.42 4.04-2.5 6.43-2.93.88-.16 1.7-.05 2.53.74-.37.06-.58.16-.73.1-1.32-.48-2.57-.1-3.77.37-2.29.9-4.44 2.06-6.48 3.49zm41.97 38.29c-3-.31-11.35-3.88-12.02-5.13 4.01 1.71 8.05 3.43 12.02 5.13z"/><path d="M166.97 256.35c1.15 4.63 1.31 12.02.15 13.29.1-1.42.26-2.83.27-4.25 0-1.5-.13-3.01-.2-4.51l-.22-4.53zm-39.12-56.45c-1.02.04-1.64-.32-2.16-.76-1.95-1.65-3.86-3.33-5.75-5.05-.61-.56-1.09-1.27-1.54-1.99 1.48 1.35 2.92 2.76 4.46 4.04 1.54 1.27 3.18 2.41 4.98 3.76h.01zm28.83-2c.34 1.23.73 2.45 1 3.69.57 2.6.67 5.2-.33 7.75-.27.68-.56 1.34-1.39 1.72 2.6-5.55 1.67-7.57.72-13.16zm-37 7.56c-4.49 1.1-9.06.79-13.55.78 4.46-.36 8.97-.73 13.49-1.08 0 0 .03.13.06.31v-.01zm12.17-31.57c1.14 3.48 1.34 6.92 1.56 10.35.01.19-.19.39-.53.57-.34-3.56-.67-7.12-1.03-10.92zm-.94 37.77c.21 2.03-3.4 7-6.07 8.53 2.23-2.69 4.75-5.17 6.07-8.53zm-9.94-50.86c1.38 4.28 2.76 8.55 4.16 12.88-1.13-1.09-3.43-8.27-4.16-12.88zm30.58 64.63c.2.12.44.19.55.35.34.52.67 1.05.94 1.61a42.23 42.23 0 012.95 7.93c.04.15.02.32.03.33-1.44-3.31-2.94-6.73-4.47-10.23v.01zm1.48-43.59c.24-1.78 3.76-6.71 6.11-8.47-2.12 2.94-4.1 5.68-6.11 8.47zm44.65 34.42c3.23-.47 6.57-.96 10.17-1.48-1.13 1.07-6.47 1.73-10.17 1.48zM91.46 190.77c-2.58.22-5.86.51-9.22.8 1.22-1.1 5.4-1.37 9.22-.8zm29.46 6.44c2.4 1.36 4.8 2.72 7.42 4.2-.45.05-.69.15-.87.08-2.47-1.01-4.73-2.36-6.55-4.29v.01zm72.27-33.32c-.42.96-4.13 3.77-6.6 5 2.07-2.1 5.79-4.91 6.6-5zm-87.21 2.39c-2.15-2.5-4.11-6.31-4.05-7.85 1.42 2.75 2.74 5.3 4.05 7.85zm39.43-15.77c.07 3.04-.6 6.01-.97 9.01-.23-1.94.34-7.78.97-9.01zm2.54 35.92c-.17-1.07-.34-2.39-.6-3.69-.26-1.29-.6-2.56-.9-3.81 1.18.7 1.79 3.84 1.49 7.5h.01zm-6.27 29.78c.42 2.01.83 4.02 1.25 6.04-.82-1.2-1.7-4.75-1.25-6.04zm15.91 38.02c.67 1.99.86 4.02.66 6.07-.09 0-.18.01-.27.02-.13-2.03-.26-4.06-.4-6.1l.01.01zm-6.06-66.03c.55-1.48 2.46-2.12 5.46-1.9-1.97.4-3.82.67-5.46 1.9zm51.55 25.53c1.49-.38 2.87-.89 4.56-.93-.96.8-2.31 1.04-4.56.93zm-62.37 5.99c-.22-1.14-.43-2.28-.65-3.42.12-.02.24-.05.35-.07.47 1.09.28 2.32.61 3.44-.11.02-.21.03-.32.05h.01z"/><path d="M30.17 342.54c.38-.64.71-1.32 1.14-1.93 2.8-3.93 6.35-7.12 10.14-10.05 4.69-3.62 9.82-6.55 15-9.39 10.21-5.59 20.43-11.16 30.62-16.78 2.35-1.29 4.62-2.71 6.93-4.08 9.75-5.81 16.36-14.16 20.2-24.81 2.39-6.63 4.16-13.42 5.48-20.32.86-4.47 1.5-8.99 2.23-13.48.44-2.68.83-5.36 1.32-8.03.19-1.01.59-1.98.95-3.12-.73.16-1.34.26-1.93.41-3.97 1.05-7.95.96-11.92.06-2.44-.55-4.65-1.7-6.57-3.3-1.77-1.47-3.46-3.04-5.12-4.63-2.39-2.29-4.7-4.65-7.09-6.95a29.948 29.948 0 00-7.16-5.06c-.67-.34-1.33-.71-1.99-1.07-3.9-2.12-5.39-6.58-4.29-10.44 1.19-4.17 3.04-8.07 5.54-11.62 2.5-3.55 6.12-5.36 10.26-6.24 3.75-.8 7.55-.89 11.37-.61.12 0 .24-.02.51-.04-.19-.38-.33-.7-.5-1-2.79-4.67-4.16-9.74-4.21-15.17-.02-2.01.07-4 .44-6 .49-2.66 1.75-4.85 3.63-6.74 2.22-2.23 4.37-4.52 6.62-6.7 1.44-1.4 2.95-2.74 4.55-3.95 3.23-2.43 6.74-4.39 10.7-5.38 3.13-.79 6.24-.5 9.26.58 2.94 1.05 5.12 3.01 6.44 5.83.7 1.51 1.22 3.11 1.79 4.68.92 2.5 1.82 5.01 2.8 7.7.36-.49.57-.79.79-1.08 3.75-4.98 8.48-8.66 14.43-10.64 2.7-.9 5.53-1.09 8.31-.52 5.25 1.09 8.54 5.93 7.75 11.21-.19 1.28-.37 2.57-.51 3.85-.04.38.07.77.12 1.27.6-.04 1.05-.06 1.49-.1 3.75-.31 7.38.1 10.7 1.98 2.98 1.7 5.29 4.04 5.83 7.6.5 3.29-.1 6.42-1.82 9.3-1.84 3.09-4.3 5.58-7.47 7.28-2.25 1.2-4.6 2.21-6.91 3.3-.41.19-.83.36-1.24.74.25.03.51.06.76.08 1.12.09 2.25.13 3.37.27 1.28.15 2.49-.05 3.72-.38 3.36-.91 6.76-1.56 10.25-1.67 2.4-.07 4.77.13 7.08.79 4.77 1.37 7.43 4.74 7.68 9.68.13 2.62-.19 5.19-.93 7.69-.65 2.2-1.33 4.41-2.18 6.54-.67 1.66-.65 3.16.3 4.66.25.39.44.81.67 1.21 1.2 2.01 1.15 4.07.16 6.12-1.27 2.65-3.1 4.87-5.38 6.71-3.5 2.82-7.53 4.46-11.91 5.35-3.72.75-7.48.91-11.25.73-1.54-.08-3.06-.37-4.64-.58 0 .12-.03.26.03.33 1.72 2.35 2.33 5.09 2.63 7.89.63 6.05-.52 11.83-3.01 17.35-.22.5-.48.98-.73 1.46-2.27 4.45-6.03 6.64-10.89 7.28-3.56.47-7.02.04-10.43-.9-4.69-1.29-9.46-2.1-14.29-2.67-2.13-.25-4.19-.78-6.17-1.63-2.83-1.22-4.95-3.25-6.62-5.78-2.36-3.58-3.76-7.55-4.58-11.73-.03-.16-.03-.33-.07-.5-.09-.41-.18-.81-.42-1.24-.2 1.18-.39 2.36-.59 3.55-1.69 9.91-3.87 19.69-7.74 29.02-3.64 8.76-9.35 15.86-17.39 20.91-5.24 3.29-10.63 6.38-16.04 9.39-9.22 5.13-18.54 10.08-27.76 15.19-5.73 3.18-11.13 6.84-15.86 11.43-2.14 2.08-4.14 4.26-5.66 6.86h-.75l.03.03zm94.88-112.25c-.15.36-.31.7-.43 1.06-1.67 5.12-2.31 10.36-1.51 15.71.68 4.52 2.24 8.74 4.82 12.54 1.72 2.53 3.92 4.5 6.85 5.46 1.82.6 3.7 1.07 5.59 1.32 4.48.6 8.94 1.25 13.3 2.48 3.33.94 6.71 1.41 10.17 1.08 4.77-.45 8.56-2.43 10.83-6.84 3.17-6.16 4.52-12.65 3.55-19.55-.26-1.87-.72-3.7-1.68-5.36-.8-1.37-1.83-2.37-3.48-2.83-2.05-.57-4.04-1.36-6.01-2.17-3.68-1.51-6.89-3.76-9.5-6.34-2-.35-3.73-.63-5.44-.96-2.35-.45-4.69-.78-7.09-.34-.86.16-1.75.13-2.63.15-2.25.04-4.29-.57-6.04-2.05-.21-.18-.47-.3-.69-.43-3.85 3.61-2.45 3.35-10.61 7.05v.02zm33.28-3.53c.94.73 1.92 1.43 2.82 2.21 2.7 2.31 5.88 3.02 9.33 3.02 2.94 0 5.85-.35 8.72-.88 4.37-.8 8.73-.8 13.1 0 2.23.4 4.51.82 6.71.05 1.97-.68 3.93-1.48 5.72-2.52 2.1-1.22 3.58-3.12 4.48-5.42.62-1.58.61-3.1-.27-4.58-.32-.54-.59-1.11-.91-1.65-.98-1.63-1-3.25-.3-5.03.89-2.25 1.61-4.57 2.29-6.9.66-2.26 1.02-4.58.88-6.94-.28-4.83-2.67-7.75-6.72-8.99-1.74-.53-3.6-.82-5.42-.92-4.05-.23-7.99.58-11.89 1.6-1.48.39-2.95.55-4.47.31-2.72-.42-5.42-.27-8.07.52-1.56.47-3.13.95-4.64 1.54-1.79.7-3.55 1.48-5.27 2.33-1.11.55-2.04 1.44-2.33 2.67-.37 1.57-.6 3.19-.74 4.81-.29 3.32-1.5 6.15-4.06 8.34-.24.2-.54.34-.89.56 1.23.93 2.35 1.22 3.49 1.5.97.24 1.96.46 2.89.82 1.3.49 2.31 1.39 2.8 2.72 1.26 3.39.69 6.65-2.65 8.62-1.39.82-2.92 1.41-4.61 2.21h.01zm19.23-67.16c-.08-.79-.23-1.32-.18-1.83.13-1.46.34-2.91.52-4.36.56-4.51-2.51-9.02-6.97-9.96-3.71-.78-7.35-.26-10.76 1.38-4.24 2.03-7.91 4.85-10.92 8.49-1.08 1.31-1.83 2.58-1.56 4.52.43 3.12-.09 6.27-.82 9.33-.62 2.6-1.46 5.14-2.17 7.72-.33 1.2-.64 2.42-.33 3.67 3.85-.42 7.29.21 9.94 3.39 2.25.39 4.22 1.36 5.49 3.45 1.12 1.85 1.85 3.83 2.07 5.99.05.46.16.92.3 1.67.43-.76.7-1.23.97-1.7 3.08-5.28 7.36-8.98 13.55-10.03 2.8-.47 5.64-.72 8.45-1.13 2.44-.36 4.87-.79 7.09-1.97 1.17-.61 2.05-1.46 2.44-2.73.33-1.08.7-2.16.85-3.27.44-3.23-.24-6.14-2.67-8.52-1.47-1.43-3.13-2.51-5.05-3.18-2.69-.94-5.46-1.18-8.29-.94-.56.05-1.13 0-1.93 0l-.02.01zm-55.1-16.97c-.16.41-.29.66-.36.94-.31 1.21-.55 2.45-.93 3.64-1.04 3.26-3.16 4.8-6.56 5.05-2.25.16-4.49.46-6.73.75-2.87.37-4.76 1.88-5.38 4.8-.07.33-.18.64-.25.97-.66 3.1-.63 6.23-.28 9.36.61 5.37 2.56 10.19 5.87 14.46.32.42.71.79 1.24 1.39.12-.78.21-1.31.27-1.83.29-2.45.93-4.77 2.45-6.76 1.43-1.87 3.29-2.03 4.93-.35.77.79 1.42 1.78 1.87 2.79.63 1.45 1.09 2.99 1.49 4.52.59 2.23 1.56 4.23 3.12 5.94.17.19.39.32.68.56 0-.46.04-.75 0-1.03-.8-4.32-.47-8.58.71-12.79.69-2.47 1.55-4.86 3.13-6.93.91-1.19 1.99-2.15 3.4-2.69 1.6-.61 2.77-.2 3.54 1.35.41.82.6 1.74.98 2.57.32.71.68 1.44 1.2 2 1.32 1.45 2.39 3.03 2.87 4.94.28 1.12.48 2.26.72 3.41h2.19l.91-.7c-.16-2.47.43-4.69 1.16-6.88 1.03-3.1 1.88-6.24 2.22-9.5.36-3.46.23-6.83-1.24-10.08-.77-1.71-1.3-3.53-1.95-5.29-.54-1.45-1.03-2.92-1.68-4.32-1.04-2.23-2.71-3.88-4.89-5.05-2.75-1.47-5.31-1.17-7.73.67-.87.66-1.65 1.42-2.48 2.13-1.3 1.11-2.51 2.45-4.5 1.95l.01.01zm-16.11 39.26c-.4-.07-.89-.21-1.38-.22-3.6-.06-7.2-.02-10.74.73-4.48.95-8.22 3.07-10.68 7.06-1.87 3.04-3.4 6.25-4.56 9.62a8.85 8.85 0 00-.12 5.55c.27.9.75 1.53 1.57 2 2.12 1.19 4.4 1.81 6.8 1.97 2.63.18 5.26.3 7.89.49 3.3.23 6.26 1.43 8.9 3.4 2.19 1.64 4.19 3.48 5.82 5.68 1.32 1.78 2.61 3.59 3.83 5.44 1.44 2.18 3.28 3.89 5.57 5.15 1.81 1 3.73 1.36 5.67.59 1.86-.74 3.7-1.58 5.44-2.55 1.87-1.05 3.35-2.6 4.67-4.21-.05-.19-.06-.28-.1-.35-2.19-3.04-3.4-6.5-4.24-10.11-.09-.4-.19-.83-.4-1.17-.76-1.23-1.57-2.43-2.42-3.74-.6.06-1.39.24-2.17.19-4.71-.36-8.59-2.32-11.49-6.1-1.65-2.15-2.72-4.59-3.56-7.15-1-3.05-1.36-6.19-1.52-9.27-.92-.99-1.77-1.91-2.78-3zM80.5 207.5c.2.25.36.56.62.74 1.07.72 2.13 1.5 3.27 2.08 3.08 1.58 5.86 3.56 8.35 5.96 1.87 1.8 3.71 3.64 5.57 5.44 1.47 1.43 2.95 2.85 4.46 4.24 3.94 3.63 8.63 5.17 13.93 4.94 1.34-.06 2.71-.08 4.04-.56-.12-.14-.16-.21-.23-.25-.1-.07-.22-.12-.33-.17-2.79-1.13-5.05-2.93-6.76-5.42-.64-.93-1.25-1.88-1.89-2.82-2.11-3.1-4.5-5.94-7.48-8.25-2.25-1.75-4.72-3.04-7.57-3.45-1.69-.24-3.41-.35-5.11-.46-3.67-.23-7.38-.27-10.89-2.03l.02.01zm60.82-9.49c.14-.83.63-1.42 1.18-1.98.61-.63 1.25-1.24 1.8-1.92 1.15-1.44 1.03-2.75-.47-4.24-.72.18-1.56.38-2.4.59-5.3 1.34-9.11 4.64-11.84 9.23-1.92 3.21-1.48 6.48.31 9.64.75 1.32 1.89 1.75 3.37 1.63 2.26-.19 4.27-1.12 6.31-1.96 5.42-2.23 7.64-8.98 7.27-13.24-.05-.62-.27-1.14-1.05-1.27-1.71.86-2.94 2.37-4.48 3.54v-.02zm14.86 13.51c-1.67.63-3.11 1.42-4.64 1.68-1.77.3-3.29.94-4.88 1.73-4.45 2.21-8.13 1.86-11.54-1.11-.68-.6-1.23-1.35-1.92-2.12-.56-.04-1.22-.08-1.84-.12-.06.19-.12.28-.1.35.81 3.13 1.77 6.21 3.61 8.91a11.95 11.95 0 002.66 2.79c1.96 1.48 4.15 1.24 5.88-.53.58-.59 1.03-1.32 1.5-2.01.84-1.25 1.63-2.53 2.49-3.77 1.11-1.6 4.01-2.39 5.86-.54.8.8 1.54 1.65 2.32 2.46.51.53 1.05 1.03 1.57 1.52 1.37-.71 2.64-.7 3.94-.4.49.11.98.2 1.48.27 1.37.2 2.15-.4 2.66-1.69.64-1.62-.62-4.12-1.98-4.72-1.06-.46-2.18-.85-3.31-1.11-1.4-.33-2.75-.71-3.74-1.58l-.02-.01zm-28.42-5.06v-4c0-.12-.04-.25-.08-.36-.49-1.32-.45-2.7-.48-4.08-.02-.74-.14-1.49-.34-2.2-.71-2.46-2.09-4.57-3.76-6.46-1.97-2.22-3.23-4.73-3.93-7.6-.37-1.49-.9-2.97-1.58-4.34-.45-.9-1.2-1.73-2.01-2.34-1.18-.9-1.99-.55-2.43.84-.77 2.43-.6 4.8.6 7.04.57 1.06 1.32 2.03 1.96 3.06.62.99 1.27 1.97 1.82 3 .97 1.84.97 3.67-.15 5.48-.31.5-.51 1.08-.78 1.68.31.04.43.08.55.08 1.74 0 2.31.41 2.76 2.08.19.72.34 1.46.49 2.2.3 1.49.75 2.91 1.71 4.12 1.55 1.96 3.28 2.5 5.67 1.8h-.02zm6.48 5.21c1.45 2.42 4.8 4.23 7.5 3.94 4.64-.49 8.08-2.74 9.96-7.14 1.44-3.37 1.75-6.87 1.11-10.45-.25-1.39-.65-2.78-1.62-3.89-.68-.78-1.43-1.43-2.81-1.02-.17.5-.49 1.09-.58 1.72-.23 1.57-.24 3.17-.55 4.72-1.02 5.04-3.6 8.86-8.69 10.59-1.42.48-2.82 1-4.32 1.53zm10.18-22.46c.68-.66.91-1.48.92-2.39.01-.92 0-1.84.1-2.75.26-2.31-.8-3.57-3.12-3.7-2.09-.12-3.98.5-5.7 1.6-4.23 2.72-7.03 6.51-8.17 11.43-.38 1.62-.58 3.29-.73 4.95-.08.87.11 1.77.18 2.65 4.41-8.39 11.2-11.22 16.52-11.78v-.01zm-4.6-9.4c-.1-.52-.2-.96-.28-1.42-.39-2.41-1.26-4.61-3.02-6.34-.84-.83-1.36-1.77-1.7-2.86-.25-.79-.5-1.61-.92-2.32-.7-1.22-1.72-1.28-2.42-.09-.58.99-1.09 2.11-1.26 3.23-.27 1.85-.27 3.74-.31 5.62-.05 2.65-.4 5.24-1.33 7.74-.49 1.33-.9 2.69-1.34 4.04-.55 1.69-.73 3.42-.61 5.19.05.78.29 1.47.77 2.29 1.53-7.32 5.36-12.52 12.41-15.08h.01zm22.26 15.33l.27.12c1-1.21 2.36-1.87 3.74-2.46 1.54-.65 3.1-1.27 4.68-1.79 5.05-1.66 10-3.56 14.73-5.99 2.49-1.28 4.67-2.93 6.45-5.1.19-.23.33-.51.49-.76-2.66 1.06-5.39 1.48-8.1 1.88-2.27.34-4.56.52-6.83.86-4.19.63-7.79 2.41-10.67 5.58a27.02 27.02 0 00-4.5 6.76c-.13.28-.17.6-.25.9h-.01zm-12.15 17.61c.19.05.32.12.43.11.41-.06.83-.11 1.23-.23 4.78-1.43 8.08-4.31 8.97-9.42.37-2.15.32-4.33-.11-6.49-.37-1.88-1.16-3.58-2.28-5.12-.77-1.07-1.73-1.95-3.04-2.32-1.56-.44-2.56.16-2.85 1.74-.28 1.48.09 2.9.47 4.31.35 1.29.77 2.58.92 3.89.53 4.75-.33 9.17-3.4 12.99-.12.15-.21.34-.34.54zm-34.12-15.74c.16-.58.23-.97.38-1.33.32-.77.67-1.53 1.04-2.28.49-1 .58-2.02.11-3.02a40.04 40.04 0 00-1.81-3.43c-.53-.9-1.2-1.71-1.76-2.59-1.2-1.89-1.83-3.94-1.6-6.19.08-.76.27-1.51.42-2.38-1.09 1.16-1.87 2.91-2.27 4.94-.59 2.99-.49 5.99.01 8.97.6 3.58 1.73 6.97 3.7 10.04 1.75 2.71 4.06 4.75 7.11 5.91.33.13.68.21 1.02.32-1.5-1.83-2.07-3.95-2.49-6.14-.12-.61-.26-1.23-.47-1.81-.4-1.13-1.09-1.49-2.24-1.25-.31.06-.61.13-1.16.24h.01zm6.26-54.92c1.96.52 3.11-.57 4.28-1.61.63-.56 1.21-1.16 1.88-1.66.87-.65 1.8-1.21 2.71-1.8.23-.15.47-.27.9-.52-2.59-.3-4.82.16-6.98 1.01-4.95 1.95-9.2 4.93-12.91 8.72-1.93 1.98-3.87 3.95-5.8 5.92-.28.29-.54.6-.85.94.19.05.28.11.34.09 2.84-.98 5.81-1.11 8.76-1.41 3.52-.36 5.38-1.69 6.39-5.05.26-.88.43-1.79.66-2.67.16-.59.36-1.17.61-1.96h.01zm20.04 82.6c.04.08.09.15.13.23.31.02.62.08.92.06 1.12-.08 2.25-.19 3.37-.28 2.45-.21 4.81.36 7.19.85 1.56.32 3.12.55 4.72.16 1.94-.48 3.72-1.27 5.22-2.6.69-.61 1.38-1.29 1.48-2.46-1.33.76-2.59.63-3.88.36-1.15-.24-2.31-.4-3.45.06-.57.23-1.08.08-1.5-.34-.44-.44-.86-.91-1.29-1.36-.72-.75-1.44-1.51-2.19-2.24-1.49-1.45-3.86-.83-4.8.42-.52.7-1.01 1.44-1.5 2.16-1.25 1.85-2.16 3.99-4.42 4.99v-.01zm25.85 7.74c0 .07 0 .13-.01.2.09.08.18.18.29.22 4.71 1.96 9.58 3.28 14.7 3.34 2.58.03 5.19-.16 7.75-.5 4.19-.56 8.12-1.94 11.64-4.36.4-.27.77-.57 1.16-.86-.2-.12-.32-.12-.43-.08-.23.09-.47.18-.69.29-3.3 1.79-6.78 1.85-10.36 1.11-4.19-.86-8.38-.79-12.58-.04-2.92.53-5.87.92-8.85.86-.87-.02-1.73-.13-2.6-.19l-.02.01zm-37.21-65.71a5.78 5.78 0 00-.25-.24c-.47.38-1.05.68-1.4 1.16-.88 1.21-1.85 2.41-2.45 3.77-2.48 5.58-3.12 11.42-1.95 17.42.18.94.33 1.96 1.21 2.82.16-2.77.91-5.25 1.81-7.67 1.12-3.02 1.65-6.12 1.54-9.34-.09-2.73.12-5.43 1.48-7.92h.01zm30.65 30.13c0-1.25.06-2.5-.01-3.75-.14-2.53-.71-4.95-2.01-7.16-1.36-2.32-3.46-3.31-6.03-3.43-.55-.03-1.17.17-1.67.42-1.17.58-1.57 1.99-.88 3.11.59.95 1.29 1.83 1.95 2.77 1.28-.55 2.49-.36 3.64.27 1.12.62 1.97 1.55 2.66 2.61 1.03 1.59 1.71 3.32 2.36 5.16h-.01zm-8.23-15.11c-1.61-2.39-7.07-3.51-9.48-1.84 2.32.74 2.42 2.57 2.31 4.5-.09 1.7.09 3.43-.74 5.03.36.24.62.45.91.61 1.32.77 2.05.73 3.16-.31.66-.62 1.22-1.35 1.81-2.01-2.59-3.32-.97-5.45 2.03-5.98z"/></g><defs><clipPath id="clip0_2_882"><path fill="#fff" d="M0 0h211.68v342.54H0z"/></clipPath></defs></svg>