<?xml version="1.0" encoding="UTF-8"?><!DOCTYPE svg PUBLIC "-//W3C//DTD SVG 1.1//EN" "http://www.w3.org/Graphics/SVG/1.1/DTD/svg11.dtd"><svg xmlns="http://www.w3.org/2000/svg" xmlns:xlink="http://www.w3.org/1999/xlink"><symbol id="arrow-next" viewBox="0 0 12 5"><g fill="none">
<path d="M9.21927 4.4C9.37927 4.05867 9.53394 3.76 9.68327 3.504C9.84327 3.248 9.99794 3.03467 10.1473 2.864H0.819274V2.192H10.1473C9.99794 2.01067 9.84327 1.792 9.68327 1.536C9.53394 1.28 9.37927 0.986666 9.21927 0.656H9.77927C10.4513 1.43467 11.1553 2.01067 11.8913 2.384V2.672C11.1553 3.03467 10.4513 3.61067 9.77927 4.4H9.21927Z" fill="#513C27"/>
</g></symbol><symbol id="arrow-prev" viewBox="0 0 12 5"><g fill="none">
<path d="M3.49166 4.4C3.33166 4.05867 3.177 3.76 3.02766 3.504C2.86766 3.248 2.713 3.03467 2.56366 2.864H11.8917V2.192H2.56366C2.713 2.01067 2.86766 1.792 3.02766 1.536C3.177 1.28 3.33166 0.986666 3.49166 0.656H2.93166C2.25966 1.43467 1.55566 2.01067 0.819663 2.384V2.672C1.55566 3.03467 2.25966 3.61067 2.93166 4.4H3.49166Z" fill="#513C27"/>
</g></symbol><symbol id="arrow-slider-next" viewBox="0 0 10 18"><g fill="none">
<path opacity="0.8" d="M0.317318 17.7079C0.740411 18.0974 1.42638 18.0974 1.84947 17.7079L9.04804 11.0809C10.317 9.91271 10.3174 8.01884 9.04893 6.85022L1.93067 0.292122C1.50758 -0.097374 0.821609 -0.097374 0.398517 0.292122C-0.0245743 0.68162 -0.0245743 1.31312 0.398517 1.70262L7.51863 8.25738C7.94172 8.64687 7.94172 9.27837 7.51863 9.66787L0.317318 16.2974C-0.105774 16.6869 -0.105774 17.3184 0.317318 17.7079Z" fill="#513C27"/>
</g></symbol><symbol id="arrow-slider-prev" viewBox="0 0 10 18"><g fill="none">
<path d="M9.68268 0.292123C9.25959 -0.0973741 8.57362 -0.0973745 8.15053 0.292123L0.951957 6.91911C-0.316973 8.08729 -0.31737 9.98116 0.951072 11.1498L8.06933 17.7079C8.49242 18.0974 9.17839 18.0974 9.60148 17.7079C10.0246 17.3184 10.0246 16.6869 9.60148 16.2974L2.48137 9.74262C2.05828 9.35313 2.05828 8.72163 2.48137 8.33213L9.68268 1.70262C10.1058 1.31312 10.1058 0.68162 9.68268 0.292123Z" fill="#513C27"/>
</g></symbol><symbol id="env" viewBox="0 0 15 11"><g fill="none">
<path d="M13.7878 11H1.53528C0.847636 11 0.347534 10.4107 0.347534 9.75595V1.24405C0.347534 0.52381 0.910149 0 1.53528 0H13.7878C14.4754 0 14.9755 0.589286 14.9755 1.24405V9.75595C14.9755 10.4762 14.4129 11 13.7878 11ZM1.53528 0.458334C1.1602 0.458334 0.785123 0.785714 0.785123 1.24405V9.75595C0.785123 10.2143 1.09769 10.5417 1.53528 10.5417H13.7878C14.2254 10.5417 14.5379 10.2143 14.5379 9.75595V1.24405C14.5379 0.785714 14.2254 0.458334 13.7878 0.458334H1.53528Z" fill="#94897C"/>
<path d="M7.6614 5.76197C7.59889 5.76197 7.47386 5.69649 7.47386 5.63102C7.41135 5.50006 7.47386 5.36911 7.59889 5.30363L14.6628 1.70244C14.7879 1.63697 14.9129 1.70244 14.9754 1.8334C15.0379 1.96435 14.9754 2.0953 14.8504 2.16078L7.78643 5.76197C7.72392 5.76197 7.72392 5.76197 7.6614 5.76197Z" fill="#94897C"/>
<path d="M7.66155 5.76173C7.59904 5.76173 7.59904 5.76173 7.53652 5.76173L0.535093 1.7022C0.410068 1.63673 0.410068 1.50578 0.47258 1.37482C0.535093 1.30935 0.660119 1.24387 0.785144 1.30935L7.78657 5.3034C7.9116 5.36887 7.9116 5.49982 7.9116 5.63078C7.84909 5.69625 7.72406 5.76173 7.66155 5.76173Z" fill="#94897C"/>
</g></symbol><symbol id="facebook" viewBox="0 0 26 26"><g fill="none">
<path d="M13 25C6.42609 25 1 19.5739 1 13C1 6.42609 6.42609 1 13 1C19.5739 1 25 6.42609 25 13C25 19.5739 19.5739 25 13 25Z" stroke="#94897C" stroke-width="0.6875" stroke-miterlimit="10" stroke-linecap="round" stroke-linejoin="round"/>
<path d="M15.5044 7.05176C13.5218 7.05176 11.9565 8.61697 11.9565 10.5996V19.3648" stroke="#94897C" stroke-width="0.6875" stroke-miterlimit="10" stroke-linecap="round" stroke-linejoin="round"/>
<path d="M10.2861 13.208H15.0861" stroke="#94897C" stroke-width="0.6875" stroke-miterlimit="10" stroke-linecap="round" stroke-linejoin="round"/>
</g></symbol><symbol id="heart" viewBox="0 0 24 21"><g fill="none">
<path d="M10.5844 20.4285L10.4672 20.3181L2.25469 12.5045C0.815625 11.1358 0 9.21483 0 7.20261V7.04413C0 3.66322 2.34375 0.762546 5.5875 0.128625C7.43437 -0.23636 9.32344 0.200662 10.8281 1.28601C11.25 1.59337 11.6438 1.94875 12 2.35695C12.1969 2.12644 12.4078 1.91513 12.6328 1.71823C12.8062 1.56455 12.9844 1.42048 13.1719 1.28601C14.6766 0.200662 16.5656 -0.23636 18.4125 0.123823C21.6562 0.757744 24 3.66322 24 7.04413V7.20261C24 9.21483 23.1844 11.1358 21.7453 12.5045L13.5328 20.3181L13.4156 20.4285C13.0313 20.7935 12.525 21 12 21C11.475 21 10.9688 20.7983 10.5844 20.4285ZM11.2078 4.90705C11.1891 4.89264 11.175 4.87343 11.1609 4.85422L10.3266 3.89373L10.3219 3.88893C9.23906 2.6451 7.60312 2.07841 6.00937 2.39057C3.825 2.81799 2.25 4.76778 2.25 7.04413V7.20261C2.25 8.5713 2.80781 9.88237 3.7875 10.814L12 18.6276L20.2125 10.814C20.6973 10.3526 21.084 9.79382 21.3485 9.17245C21.6131 8.55108 21.7497 7.88051 21.75 7.20261V7.04413C21.75 4.77258 20.175 2.81799 17.9953 2.39057C16.4016 2.07841 14.7609 2.6499 13.6828 3.88893L13.6781 3.89373L13.6734 3.89854L12.8391 4.85902C12.825 4.87823 12.8062 4.89264 12.7922 4.91185C12.5812 5.12796 12.2953 5.24802 12 5.24802C11.7047 5.24802 11.4188 5.12796 11.2078 4.91185V4.90705Z" fill="#E9E1D7"/>
</g></symbol><symbol id="icon-size" viewBox="0 0 17 16"><g fill="none">
<path fill-rule="evenodd" clip-rule="evenodd" d="M6.37516 5.87468H14.8752C15.6576 5.87468 16.2918 5.24041 16.2918 4.45801V1.62467C16.2918 0.842271 15.6576 0.208008 14.8752 0.208008H2.12516C1.34276 0.208008 0.708496 0.842271 0.708496 1.62467V14.3747C0.708496 15.1571 1.34276 15.7913 2.12516 15.7913H4.9585C5.7409 15.7913 6.37516 15.1571 6.37516 14.3747V5.87468ZM4.9585 11.5413V9.41634H4.25016C3.85896 9.41634 3.54183 9.09921 3.54183 8.70801C3.54183 8.31681 3.85896 7.99968 4.25016 7.99968H4.9585V5.87468H4.25016C3.85896 5.87468 3.54183 5.55754 3.54183 5.16634C3.54183 4.77514 3.85896 4.45801 4.25016 4.45801H4.9585V3.74968C4.9585 3.35847 5.27563 3.04134 5.66683 3.04134C6.05803 3.04134 6.37516 3.35847 6.37516 3.74968V4.45801H8.50016V3.74968C8.50016 3.35847 8.8173 3.04134 9.2085 3.04134C9.5997 3.04134 9.91683 3.35847 9.91683 3.74968V4.45801H12.0418V3.74968C12.0418 3.35847 12.359 3.04134 12.7502 3.04134C13.1414 3.04134 13.4585 3.35847 13.4585 3.74968V4.45801H14.1668C14.558 4.45801 14.8752 4.14088 14.8752 3.74968V2.33301C14.8752 1.94181 14.558 1.62467 14.1668 1.62467H2.8335C2.44229 1.62467 2.12516 1.94181 2.12516 2.33301V13.6663C2.12516 14.0575 2.44229 14.3747 2.8335 14.3747H4.25016C4.64137 14.3747 4.9585 14.0575 4.9585 13.6663V12.958H4.25016C3.85896 12.958 3.54183 12.6409 3.54183 12.2497C3.54183 11.8585 3.85896 11.5413 4.25016 11.5413H4.9585Z" fill="#94897C"/>
</g></symbol><symbol id="instagram" viewBox="0 0 26 26"><g fill="none">
<path d="M13 25C6.42609 25 1 19.5739 1 13C1 6.42609 6.42609 1 13 1C19.5739 1 25 6.42609 25 13C25 19.5739 19.5739 25 13 25Z" stroke="#94897C" stroke-width="0.6875" stroke-miterlimit="10" stroke-linecap="round" stroke-linejoin="round"/>
<path d="M16.3083 6.95833C16.8145 6.95833 17.2249 6.54793 17.2249 6.04167C17.2249 5.53541 16.8145 5.125 16.3083 5.125C15.802 5.125 15.3916 5.53541 15.3916 6.04167C15.3916 6.54793 15.802 6.95833 16.3083 6.95833Z" stroke="#94897C" stroke-width="0.6875" stroke-miterlimit="10" stroke-linecap="round" stroke-linejoin="round"/>
<path d="M10.4417 15.3914H12.6417C14.1083 15.3914 15.3917 14.1081 15.3917 12.6414V10.4414C15.3917 8.97474 14.1083 7.69141 12.6417 7.69141H10.4417C8.97498 7.69141 7.69165 8.97474 7.69165 10.4414V12.6414C7.69165 14.1997 8.88332 15.3914 10.4417 15.3914Z" stroke="#94897C" stroke-width="0.6875" stroke-miterlimit="10" stroke-linecap="round" stroke-linejoin="round"/>
</g></symbol><symbol id="shopping-bag" viewBox="0 0 24 24"><g fill="none">
<path fill-rule="evenodd" clip-rule="evenodd" d="M16.5284 5.99961C16.5097 5.91891 16.4902 5.83803 16.47 5.75708C16.2059 4.70099 15.7902 3.55344 15.1123 2.64961C14.4133 1.71763 13.3927 0.999611 11.9998 0.999611C10.607 0.999611 9.5863 1.71763 8.88731 2.64961C8.20944 3.55344 7.79369 4.70099 7.52967 5.75708C7.50943 5.83803 7.48997 5.91891 7.47126 5.99961H5.87092C4.29153 5.99961 2.98262 7.22416 2.87756 8.80005L2.14423 19.8001C2.02879 21.5316 3.40219 22.9996 5.13759 22.9996H18.862C20.5974 22.9996 21.9708 21.5316 21.8554 19.8001L21.1221 8.80005C21.017 7.22416 19.7081 5.99961 18.1287 5.99961H16.5284ZM7.99982 10.9996C8.5728 10.9996 8.99787 10.568 8.99983 9.99778C8.99997 9.974 9.00026 9.95021 9.00066 9.92643C9.00153 9.87374 9.00333 9.79416 9.00699 9.69155C9.01433 9.48613 9.02912 9.1896 9.05886 8.83266C9.07997 8.57937 9.1084 8.29823 9.14656 7.99961H14.8531C14.8912 8.29823 14.9197 8.57937 14.9408 8.83266C14.9705 9.1896 14.9853 9.48613 14.9926 9.69155C14.9963 9.79416 14.9981 9.87374 14.999 9.92643C14.9994 9.95095 14.9997 9.97548 14.9998 10C14.9998 10 14.9998 10.9996 15.9998 10.9996C16.9998 10.9996 16.9998 9.99827 16.9998 9.99827C16.9997 9.96321 16.9993 9.92815 16.9987 9.8931C16.9976 9.82861 16.9955 9.73631 16.9914 9.62017C16.9831 9.38809 16.9666 9.05962 16.9339 8.66657C16.9168 8.46163 16.8952 8.23773 16.8677 7.99961H18.1287C18.6552 7.99961 19.0915 8.40779 19.1265 8.93309L19.8598 19.9331C19.8983 20.5103 19.4405 20.9996 18.862 20.9996H5.13759C4.55912 20.9996 4.10132 20.5103 4.1398 19.9331L4.87313 8.93309C4.90815 8.40779 5.34446 7.99961 5.87092 7.99961H7.13189C7.10447 8.23773 7.08285 8.46163 7.06577 8.66657C7.03302 9.05962 7.01655 9.38809 7.00827 9.62017C7.00412 9.73631 7.00201 9.82861 7.00093 9.8931C7.00036 9.92746 6.99992 9.96182 6.99982 9.99619C6.99906 10.5668 7.42815 10.9996 7.99982 10.9996ZM9.53334 5.99961H14.4663C14.2351 5.15283 13.9208 4.39427 13.5123 3.84961C13.0863 3.28159 12.607 2.99961 11.9998 2.99961C11.3927 2.99961 10.9133 3.28159 10.4873 3.84961C10.0788 4.39427 9.76454 5.15283 9.53334 5.99961Z" fill="#513C27"/>
</g></symbol><symbol id="user" viewBox="0 0 24 24"><g fill="none">
<path fill-rule="evenodd" clip-rule="evenodd" d="M12 11.9996C14.7614 11.9996 17 9.53717 17 6.49961C17 3.46204 14.7614 0.999611 12 0.999611C9.23858 0.999611 7 3.46204 7 6.49961C7 9.53717 9.23858 11.9996 12 11.9996ZM12 9.79961C10.3431 9.79961 9 8.32215 9 6.49961C9 4.67707 10.3431 3.19961 12 3.19961C13.6569 3.19961 15 4.67707 15 6.49961C15 8.32215 13.6569 9.79961 12 9.79961Z" fill="#513C27"/>
<path fill-rule="evenodd" clip-rule="evenodd" d="M19.1029 14.1083C18.2604 13.263 16.957 13.0807 15.9161 13.6983C15.7257 13.8113 15.5581 13.9147 15.4036 14.0101C14.9937 14.2631 14.6755 14.4594 14.2654 14.6279C13.75 14.8397 13.0835 14.9996 12 14.9996C10.9268 14.9996 10.2493 14.8487 9.72609 14.6443C9.26355 14.4636 8.89822 14.2366 8.41685 13.9375C8.32296 13.8791 8.22448 13.8179 8.12019 13.7539C7.07587 13.1128 5.73464 13.2618 4.86415 14.1415C4.48443 14.5252 4.04036 15.0215 3.6849 15.5622C3.34603 16.0777 3 16.7634 3 17.4996V19.9999C3 21.657 4.34334 22.9996 6 22.9996H18C19.6567 22.9996 21 21.657 21 19.9999V17.4996C21 16.7537 20.6447 16.0588 20.2996 15.5387C19.937 14.9924 19.4852 14.4919 19.1029 14.1083ZM16.9367 15.4183C17.1759 15.2764 17.478 15.3112 17.6863 15.5201C18.0214 15.8564 18.3724 16.2517 18.6331 16.6446C18.9113 17.0638 19 17.3516 19 17.4996V19.9999C19 20.552 18.5525 20.9996 18 20.9996H6C5.44752 20.9996 5 20.552 5 19.9999V17.4996C5 17.3545 5.08549 17.0726 5.35613 16.6609C5.61017 16.2744 5.95358 15.884 6.28579 15.5483C6.49412 15.3377 6.81106 15.297 7.07389 15.4584C7.15661 15.5092 7.24087 15.5617 7.32694 15.6155C7.80938 15.9167 8.34918 16.2536 8.99836 16.5072C9.79304 16.8177 10.7242 16.9996 12 16.9996C13.3002 16.9996 14.2313 16.8042 15.0254 16.4779C15.6006 16.2416 16.1079 15.9278 16.5558 15.6508C16.6879 15.5691 16.8148 15.4906 16.9367 15.4183Z" fill="#513C27"/>
</g></symbol><symbol id="wishlist" viewBox="0 0 24 22"><g fill="none">
<path d="M10.5844 20.9285L10.4672 20.8181L2.25469 13.0045C0.815625 11.6358 0 9.71483 0 7.70261V7.54413C0 4.16322 2.34375 1.26255 5.5875 0.628625C7.43437 0.26364 9.32344 0.700662 10.8281 1.78601C11.25 2.09337 11.6438 2.44875 12 2.85695C12.1969 2.62644 12.4078 2.41513 12.6328 2.21823C12.8062 2.06455 12.9844 1.92048 13.1719 1.78601C14.6766 0.700662 16.5656 0.26364 18.4125 0.623823C21.6562 1.25774 24 4.16322 24 7.54413V7.70261C24 9.71483 23.1844 11.6358 21.7453 13.0045L13.5328 20.8181L13.4156 20.9285C13.0313 21.2935 12.525 21.5 12 21.5C11.475 21.5 10.9688 21.2983 10.5844 20.9285ZM11.2078 5.40705C11.1891 5.39264 11.175 5.37343 11.1609 5.35422L10.3266 4.39373L10.3219 4.38893C9.23906 3.1451 7.60312 2.57841 6.00937 2.89057C3.825 3.31799 2.25 5.26778 2.25 7.54413V7.70261C2.25 9.0713 2.80781 10.3824 3.7875 11.314L12 19.1276L20.2125 11.314C20.6973 10.8526 21.084 10.2938 21.3485 9.67245C21.6131 9.05108 21.7497 8.38051 21.75 7.70261V7.54413C21.75 5.27258 20.175 3.31799 17.9953 2.89057C16.4016 2.57841 14.7609 3.1499 13.6828 4.38893L13.6781 4.39373L13.6734 4.39854L12.8391 5.35902C12.825 5.37823 12.8062 5.39264 12.7922 5.41185C12.5812 5.62796 12.2953 5.74802 12 5.74802C11.7047 5.74802 11.4188 5.62796 11.2078 5.41185V5.40705Z" fill="#513C27"/>
</g></symbol></svg>