<svg width="359" height="365" viewBox="0 0 359 365" fill="none" xmlns="http://www.w3.org/2000/svg">
<g opacity="0.4" clip-path="url(#clip0_2_5724)">
<path d="M157.218 218.18C154.266 221.096 151.956 224.44 150.503 228.277C147.786 235.537 146.739 243.15 146.161 250.84C146.122 251.255 146.044 251.659 145.985 252.069C145.816 252.061 145.627 252.047 145.459 252.039C145.639 249.016 145.632 245.98 146.034 243.003C146.563 239.037 147.201 235.062 148.179 231.168C149.838 224.509 153.852 219.198 158.581 214.359C159.819 213.086 161.217 212.352 163.278 212.971C157.057 218.644 154.807 226.344 151.872 233.689C153.072 228.344 154.782 223.153 157.212 218.2L157.218 218.18Z" fill="#C89663"/>
<path d="M156.242 176.069C141.008 158.755 135.898 138.373 138.114 115.834C137.75 126.515 138.641 137.082 141.58 147.453C144.57 158.01 149.971 167.24 156.261 176.075L156.242 176.069Z" fill="#C89663"/>
<path d="M125.516 193.929C106.112 193.482 86.9533 191.507 68.9219 183.502C77.9681 186.798 87.348 188.912 96.8359 190.31C106.357 191.74 115.943 192.741 125.516 193.929Z" fill="#C89663"/>
<path d="M132.514 206.032C111.971 209.516 94.5133 219.825 77.0713 230.438C77.3108 230.21 77.511 229.971 77.7642 229.77C78.0233 229.548 78.3295 229.384 78.622 229.194C90.2775 221.458 102.153 214.129 115.465 209.498C120.982 207.587 126.621 206.269 132.52 206.012L132.514 206.032Z" fill="#C89663"/>
<path d="M139.777 182.295C139.777 182.295 139.637 182.403 139.547 182.418C139.476 182.44 139.386 182.455 139.308 182.432C139.229 182.408 139.119 182.418 139.072 182.361C138.927 182.275 138.787 182.169 138.674 182.049C127.869 171.216 115.371 162.46 103.784 152.525C108.011 155.547 112.307 158.484 116.466 161.593C120.639 164.727 124.706 168.001 128.766 171.294C137.757 178.547 139.215 180.032 139.783 182.275L139.777 182.295Z" fill="#C89663"/>
<path d="M142.244 313.507C134.196 294.999 134.028 275.761 137.392 256.237C136.05 275.513 133.745 288.026 142.244 313.507Z" fill="#C89663"/>
<path d="M121.836 104.705C119.54 126.729 127.446 145.708 139.803 163.695C135.687 160.3 127.974 146.016 124.586 135.788C120.928 124.817 119.69 111.561 121.836 104.705Z" fill="#C89663"/>
<path d="M109.01 228.84C120.508 218.706 139.097 208.694 146.015 208.957C142.832 210.223 139.579 211.361 136.472 212.798C133.218 214.299 130.042 216.037 126.905 217.786C123.845 219.495 120.834 221.325 117.843 223.161C114.871 225.003 111.954 226.947 109.01 228.84Z" fill="#C89663"/>
<path d="M220.987 134.311C211.137 146.222 201.001 157.877 191.934 170.387C200.043 157.076 210.252 145.465 220.987 134.311Z" fill="#C89663"/>
<path d="M177.87 205.007C184.782 217.041 195.088 224.904 205.19 233.089C203.504 232.006 201.749 231.008 200.126 229.858C192.173 224.135 184.735 217.839 179.208 209.597C177.817 207.534 177.805 207.359 177.851 205.001L177.87 205.007Z" fill="#C89663"/>
<path d="M86.1683 218.684C79.5043 223.625 72.6519 228.34 66.2097 233.54C59.7361 238.774 54.6912 245.378 50.0625 252.234C58.2995 236.932 71.5214 226.974 86.1742 218.664L86.1683 218.684Z" fill="#C89663"/>
<path d="M48.0433 186.181L82.9995 196.687C70.6224 194.719 58.8931 191.878 48.0236 186.175L48.0433 186.181Z" fill="#C89663"/>
<path d="M223.335 214.224C219.308 210.962 214.809 208.627 209.932 207.055C205.108 205.519 200.256 204.146 195.455 202.533C204.052 203.621 212.264 205.918 219.879 210.13C221.053 210.781 222.099 211.715 223.137 212.604C223.443 212.867 223.524 213.383 223.724 213.785C223.598 213.918 223.492 214.057 223.361 214.21L223.335 214.224Z" fill="#C89663"/>
<path d="M135.657 143.452C139.017 155.487 144.678 166.27 153.153 175.527C146.735 171.888 137.868 156.104 135.657 143.452Z" fill="#C89663"/>
<path d="M188.641 158.629C186.694 162.403 184.615 166.116 182.813 169.976C180.695 174.532 178.722 179.174 176.853 183.826C176.25 185.333 176.179 187.063 175.651 188.678C175.09 187.27 175.165 185.882 175.642 184.509C176.753 181.381 177.627 178.118 179.099 175.142C181.708 169.879 184.672 164.787 187.499 159.653C187.738 159.213 188.123 158.858 188.435 158.46C188.502 158.523 188.594 158.572 188.661 158.635L188.641 158.629Z" fill="#C89663"/>
<path d="M57.3669 156.014C60.4309 155.076 68.794 158.294 84.3465 166.002C75.3513 162.679 66.3621 159.337 57.3669 156.014Z" fill="#C89663"/>
<path d="M229.47 95.1943C224.672 102.47 219.849 109.76 214.959 117.201C216.006 113.007 226.681 96.4287 229.47 95.1943Z" fill="#C89663"/>
<path d="M90.6541 257.875C83.0673 266.171 74.3384 272.501 70.6562 272.078C78.2486 268.035 84.1903 262.577 90.6541 257.875Z" fill="#C89663"/>
<path d="M142.963 185.008C146.673 178.644 158.35 175.465 167.247 179.827C162.509 179.429 158.389 178.255 154.173 179.253C149.957 180.251 146.111 181.937 142.957 185.027L142.963 185.008Z" fill="#C89663"/>
<path d="M144.526 73.211C144.74 73.8522 144.931 74.1445 144.872 74.3405C142.977 80.7155 141.038 87.0984 139.247 93.056C139.239 88.9512 142.165 77.2235 144.507 73.2051L144.526 73.211Z" fill="#C89663"/>
<path d="M193.319 118.281C187.49 124.435 185.073 131.978 181.506 138.577C183.21 130.2 189.572 118.715 193.319 118.281Z" fill="#C89663"/>
<path d="M155.492 110.138C155.822 102.631 158.123 95.5443 160.705 88.521C159.226 95.7904 157.753 103.04 156.275 110.309C156.014 110.252 155.753 110.195 155.492 110.138Z" fill="#C89663"/>
<path d="M194.097 219.797C188.013 215.832 179.721 206.609 179.699 203.761C184.49 209.111 189.287 214.441 194.097 219.797Z" fill="#C89663"/>
<path d="M128.081 220.426C134.403 216.193 140.877 212.028 148.34 209.912C148.422 210.065 148.485 210.212 148.567 210.365C141.739 213.718 134.91 217.072 128.081 220.426Z" fill="#C89663"/>
<path d="M192.657 255.987C189.146 255.423 181.916 246.583 179.302 239.9C183.376 245.569 187.171 251.453 192.657 255.987Z" fill="#C89663"/>
<path d="M149.6 201.658C156.539 205.132 164.176 205.141 171.622 206.14C163.979 206.15 156.362 206.147 149.6 201.658Z" fill="#C89663"/>
<path d="M174.423 209.997C174.275 216.47 177.976 221.599 180.433 227.594C176.076 223.293 172.679 213.448 174.423 209.997Z" fill="#C89663"/>
<path d="M237.749 239.178C233.025 236.241 228.295 233.324 223.406 230.294C226.813 230.848 236.56 236.513 238.026 238.684C237.934 238.849 237.841 239.013 237.749 239.178Z" fill="#C89663"/>
<path d="M123.126 173.894C130.337 177.386 137.067 182.336 137.949 184.887C132.769 181.044 127.961 177.462 123.126 173.894Z" fill="#C89663"/>
<path d="M56.8384 134.914C59.9298 134.668 68.0358 138.173 75.1524 142.833C69.1093 140.226 63.0857 137.625 56.8384 134.914Z" fill="#C89663"/>
<path d="M153.242 181.492C159.107 179.28 164.725 180.029 170.175 182.97C164.626 181.495 159.04 180.286 153.242 181.492Z" fill="#C89663"/>
<path d="M151.409 189.019C154.269 187.977 162.261 191.148 166.972 195.128C161.533 193.215 156.934 189.932 151.409 189.019Z" fill="#C89663"/>
<path d="M173.655 185.919C173.548 179.583 176.728 174.342 179.305 168.899C177.658 174.665 174.399 179.882 173.655 185.919Z" fill="#C89663"/>
<path d="M205.924 201.45C212.749 202.881 219.171 206.008 219.828 208.021C215.198 205.839 210.548 203.651 205.924 201.45Z" fill="#C89663"/>
<path d="M160.424 265.403C158.469 263.576 157.245 254.832 158.064 250.613C158.859 255.659 159.641 260.531 160.424 265.403Z" fill="#C89663"/>
<path d="M181.186 132.305C182.767 126.049 185.227 120.784 187.639 119.522C185.425 123.899 183.204 128.296 181.186 132.305Z" fill="#C89663"/>
<path d="M55.5323 151.723C58.5079 151.506 60.5294 153.182 62.7924 153.84C65.0751 154.505 67.2321 155.517 70.0074 156.607C65.0338 155.711 57.3458 153.165 55.5323 151.723Z" fill="#C89663"/>
<path d="M84.8515 266.429C82.282 269.781 79.1904 272.591 75.5061 274.667C75.3373 274.446 75.1626 274.244 74.9939 274.022C78.2817 271.484 81.5637 268.966 84.8711 266.435L84.8515 266.429Z" fill="#C89663"/>
<path d="M219.945 102.457C221.268 99.0513 222.988 95.8929 225.874 92.9139C225.968 93.6687 226.142 94.0845 225.999 94.2764C224.001 97.0092 221.963 99.7302 219.945 102.457Z" fill="#C89663"/>
<path d="M188.774 247.621C192.085 249.706 195.61 253.073 196.363 255.051C193.164 253.021 190.999 250.683 188.774 247.621Z" fill="#C89663"/>
<path d="M137.128 86.4371C137.018 83.2418 137.293 80.1193 138.685 77.2684C138.842 77.3156 139.025 77.3491 139.188 77.3766C138.495 80.3948 137.801 83.413 137.114 86.4116L137.128 86.4371Z" fill="#C89663"/>
<path d="M136.554 198.145C138.293 194.778 140.162 193.545 142.226 194.294C140.397 195.539 138.625 196.737 136.554 198.145Z" fill="#C89663"/>
<path d="M154.732 186.576C157.308 186.838 159.722 187.563 162.228 189.406L154.534 187.094C154.587 186.917 154.66 186.747 154.732 186.576Z" fill="#C89663"/>
<path d="M357.488 83.8587C356.715 84.2246 355.92 84.5198 355.193 84.9426C341.862 92.7735 331.309 103.534 322.436 116.038C315.391 125.951 308.617 136.03 301.611 145.954C299.149 149.445 296.417 152.769 293.71 156.08C284.894 166.828 273.8 174.263 260.771 179.022C247.985 183.684 234.785 185.807 221.23 186.263C215.758 186.456 210.321 187.172 204.865 187.669C204.05 187.745 203.235 188.034 202.205 188.259C206.772 190.721 211.076 193.062 215.392 195.363C221.475 198.623 227.345 202.16 231.535 207.8C236.848 214.974 240.355 222.887 240.403 231.982C240.483 243.822 231.428 253.088 222.405 255.697C216.801 257.325 211.246 259.074 205.713 260.894C199.436 262.982 193.167 263.619 186.825 261.222C183.12 259.809 179.74 257.81 176.594 255.39C175.93 254.892 175.286 254.399 174.358 253.714C174.136 255.378 174.048 256.741 173.783 258.05C173.082 261.664 171.229 264.697 168.936 267.555C166.099 271.083 163.184 274.587 160.752 278.407C155.633 286.399 153.648 295.353 153.427 304.774C153.354 307.509 153.093 310.229 152.767 312.952C152.355 316.247 151.104 319.268 149.063 321.86C146.142 325.598 142.575 326 138.729 323.135C136.108 321.172 134.307 318.622 133.114 315.614C131.618 311.831 130.883 307.87 130.663 303.83C130.473 300.547 129.743 297.421 128.779 294.29C125.703 284.305 124.4 274.042 124.791 263.625C124.878 261.344 125.367 259.076 125.681 256.606C125.332 256.843 124.998 256.957 124.817 257.201C118.226 265.819 109.295 271.041 99.2981 274.682C94.9249 276.273 90.4477 277.428 85.7567 277.514C81.7526 277.592 77.8429 276.93 74.4553 274.673C68.6595 270.815 62.1393 268.728 55.678 266.444C50.7437 264.704 46.7517 261.753 43.7195 257.529C40.8365 253.522 40.1734 249.177 41.4476 244.368C43.6191 236.217 48.6128 230.282 55.4495 225.691C57.2985 224.452 59.283 223.403 61.1182 222.139C64.1607 220.061 67.2503 218.041 70.1239 215.743C73.9535 212.684 77.791 209.671 82.2388 207.546C82.5901 207.374 82.8924 207.08 83.4381 206.688C82.7041 206.425 82.2546 206.14 81.7934 206.109C76.541 205.641 71.8639 203.402 67.332 201.036C58.5058 196.439 50.8259 190.306 44.3101 182.792C41.3681 179.408 38.7756 175.787 37.029 171.63C34.2541 164.984 37.0338 159.58 44.0528 158.014C48.2258 157.089 52.3948 156.248 56.8268 155.315C56.0908 154.132 55.3372 153.222 54.8642 152.161C50.8118 142.93 53.6017 132.935 62.7642 128.509C69.9266 125.042 77.3754 124.183 85.242 126.632C95.6151 129.857 104.539 135.338 112.5 142.602C113.927 143.907 115.371 145.153 116.824 146.444C116.988 146.323 117.134 146.196 117.293 146.094C116.918 145.276 116.518 144.472 116.162 143.66C114.257 139.177 112.094 134.766 110.528 130.15C108.466 124.125 108.401 117.93 109.858 111.659C112.741 99.3624 120.002 90.1557 129.763 82.5979C132.829 80.2288 135.991 78.0381 139.638 76.6556C141.528 75.9202 142.961 74.6415 144.249 73.0627C145.98 70.9334 147.678 68.7728 149.637 66.8829C152.446 64.1587 155.818 62.6935 159.879 62.9952C162.18 63.1737 163.958 64.3065 165.575 65.6899C172.115 71.2023 175.573 78.3527 175.635 86.8329C175.681 92.0179 175.212 97.2828 174.277 102.386C173.197 108.258 171.362 114.01 169.819 119.786C167.364 128.877 164.63 137.906 163.579 147.312C163.463 148.41 163.321 149.521 163.264 150.637C163.243 151.207 163.39 151.785 163.527 152.681C166.168 143.112 170.273 134.58 175.806 126.778C181.073 119.365 187.506 113.2 195.322 108.412C198.052 106.733 200.372 104.353 202.763 102.166C205.154 99.9781 207.295 97.4807 209.767 95.3815C213.212 92.4638 217.283 90.9522 221.889 91.2897C228.113 91.7286 238.142 97.7343 237.445 107.461C237.172 111.289 236.73 115.109 236.457 118.937C236.003 125.574 235.835 132.255 235.193 138.878C234.221 149.163 230.789 158.516 224.076 166.541C220.497 170.829 216.242 174.165 211.288 176.693C205.548 179.627 199.87 182.642 195.063 187.031C194.558 187.499 194.06 187.947 193.569 188.441C193.475 188.541 193.48 188.735 193.422 189.144C194.903 188.842 196.338 188.696 197.667 188.262C205.43 185.788 213.399 184.977 221.503 184.785C234.454 184.489 247.069 182.319 259.321 178.009C273.368 173.065 285.236 165.05 294.238 153.183C301.264 143.906 307.991 134.41 314.598 124.815C320.97 115.576 327.389 106.394 335.421 98.4662C341.546 92.4008 348.312 87.1906 355.82 82.93C356.546 82.5072 357.374 82.2433 358.136 81.9167L357.541 83.896L357.488 83.8587ZM142.736 179.21C135.445 168.579 127.331 158.833 118.352 149.831C109.982 141.439 101.211 133.525 89.8328 129.23C83.8386 126.958 77.7718 125.071 71.2985 126.672C68.5702 127.348 65.8007 128.161 63.2705 129.388C52.4533 134.62 52.1873 147.895 57.3863 154.094C57.7827 154.555 57.9887 155.151 58.291 155.712C55.6981 156.364 53.4016 156.956 51.0973 157.503C48.6771 158.079 46.2413 158.565 43.8408 159.147C37.8758 160.623 35.3199 165.283 37.8161 170.862C39.235 174.045 41.0719 177.118 43.1974 179.872C49.513 188.052 57.4146 194.444 66.441 199.443C71.1751 202.063 76.1525 204.157 81.5363 205.113C83.9152 205.528 86.2293 205.732 88.6239 204.956C101.482 200.765 114.612 198.023 128.196 197.683C129.531 197.656 130.869 197.546 131.743 197.488C132.828 195.229 133.694 193.416 134.858 190.967C134.896 186.641 136.072 184.793 142.775 179.222L142.736 179.21ZM132.2 198.672C131.964 198.602 131.807 198.554 131.639 198.546C121.358 199.003 111.163 200.17 101.045 202.151C89.4189 204.447 79.0845 209.141 70.2318 217.164C67.4052 219.733 63.982 221.653 60.7864 223.812C58.3093 225.504 55.6967 227.005 53.3 228.785C47.7981 232.922 43.9997 238.297 42.1659 244.968C40.9507 249.368 41.5549 253.481 44.3045 257.149C47.2307 261.084 50.9676 263.96 55.6781 265.589C62.3082 267.881 69.0227 269.963 74.9951 273.873C76.7811 275.051 79.0736 275.612 81.2208 276.086C85.5997 277.039 89.9336 276.29 94.1635 275.104C104.59 272.169 113.949 267.375 121.508 259.455C124.443 256.384 126.718 252.944 127.868 248.759C128.422 246.704 129.315 244.728 130.275 242.816C136.145 231.119 144.854 222.005 155.83 214.962C156.282 214.671 156.673 214.297 157.153 213.907C155.046 213.017 153.173 212.198 151.258 211.451C150.378 211.101 149.475 210.83 148.537 210.676C141.11 209.47 135.489 205.815 132.212 198.633L132.2 198.672ZM182.808 198.113C184.163 196.383 185.105 194.957 186.286 193.731C187.468 192.505 188.897 191.524 190.193 190.418C190.389 190.263 190.538 190.051 190.707 189.846C194.982 184.806 200.29 181.102 206.055 177.941C208.669 176.505 211.16 174.839 213.631 173.167C219.595 169.062 222.337 163.07 223.698 156.192C224.719 150.944 224.747 145.653 224.781 140.342C224.818 132.597 226.315 125.269 229.766 118.272C232.002 113.752 233.619 108.939 234.269 103.857C234.574 101.491 234.199 99.391 232.252 97.823C230.929 96.7417 229.581 95.674 228.152 94.7318C224.39 92.2976 220.729 92.159 216.99 94.9882C213.409 97.7156 210.269 100.832 207.603 104.432C205.666 107.034 203.742 109.661 201.732 112.219C199.272 115.347 196.1 117.428 192.249 118.493C190.192 119.071 188.137 119.714 186.102 120.363C182.307 121.595 179.349 123.89 177.017 127.163C172.224 133.927 168.549 141.242 165.789 149.002C164.731 151.953 164.224 155.134 163.845 158.247C162.985 165.382 165.491 171.925 167.969 178.418C168.279 179.238 169.121 179.854 169.751 180.535C171.164 182.028 172.774 183.366 173.951 185.002C175.466 187.081 176.979 189.096 178.779 190.94C180.051 192.263 180.838 194.059 181.788 195.669C182.151 196.313 182.386 197.024 182.82 198.074L182.808 198.113ZM161.299 109.255C161.466 108.13 161.705 107.048 161.77 105.978C161.922 102.412 162.76 99.0533 164.474 95.9145C165.948 93.2165 167.389 90.4872 168.969 87.8638C170.84 84.7722 171.821 81.4347 171.694 77.8708C171.647 76.3182 171.314 74.5086 170.466 73.2709C168.743 70.7445 166.776 68.3158 164.529 66.2516C161.709 63.6732 158.174 63.1877 154.692 64.8763C152.884 65.7646 151.158 67.0196 149.71 68.4218C148.01 70.0904 146.771 72.2181 145.138 73.9495C143.813 75.3675 142.382 76.9247 140.661 77.668C134.652 80.2854 129.659 84.2974 124.936 88.69C118.335 94.8471 113.714 102.176 111.348 110.974C109.666 117.284 109.769 123.491 111.578 129.718C113.576 136.601 116.828 142.941 120.411 149.104C121.444 150.867 122.7 152.526 124.056 154.067C130.252 161.078 136.365 168.151 141.688 175.861C142.4 176.909 143.277 177.835 144.133 178.904C149.945 176.228 155.886 175.684 162.055 176.876C162.014 176.372 162.053 176.17 161.959 176.056C161.573 175.491 161.16 174.94 160.748 174.389C155.202 166.782 150.722 158.619 147.817 149.627C144.611 139.646 144.115 129.689 147.714 119.638C150.099 112.983 153.862 109.862 161.273 109.269L161.299 109.255ZM238.281 238.545C238.391 237.895 238.568 236.879 238.764 235.87C239.775 230.511 238.194 226.019 234.062 222.534C232.233 221.001 230.204 219.707 228.194 218.42C225.634 216.753 223.46 214.732 221.921 212.09C220.977 210.46 219.912 208.879 219.14 207.173C216.65 201.788 212.996 197.356 208.535 193.473C202.629 188.343 194.273 188.161 188.461 193.402C186.883 194.808 185.568 196.549 184.323 198.269C180.317 203.838 176.205 209.333 170.905 213.723C167.856 216.247 165.33 219.099 163.771 222.648C160.927 229.122 160.602 235.755 164.887 241.722C169.049 247.525 174.223 252.456 180.26 256.364C181.695 257.287 183.567 257.679 185.3 257.964C188.056 258.408 190.531 257.293 192.898 256.039C199.45 252.538 206.367 251.24 213.777 252.292C216.303 252.645 218.925 252.749 221.451 252.462C229.385 251.555 235.723 246.772 238.32 238.557L238.281 238.545ZM170.932 212.492C170.844 212.359 170.762 212.206 170.673 212.073C168.6 212.561 166.543 213.353 164.428 213.486C160.086 213.763 156.588 215.788 153.232 218.198C147.788 222.139 142.962 226.736 138.737 231.962C130.95 241.566 126.565 252.598 126.049 264.922C125.639 274.906 127.141 284.716 130.038 294.305C130.895 297.148 131.439 300.11 131.788 303.078C132.268 307.176 132.716 311.242 134.266 315.127C135.494 318.231 137.337 320.857 140.187 322.697C142.78 324.395 144.856 324.25 147.133 322.156C149.29 320.176 150.203 317.566 150.086 314.753C149.984 312.03 149.493 309.319 148.972 306.64C148.002 301.605 146.458 296.633 145.928 291.559C145.04 283.194 147.598 275.821 153.958 270.041C156.368 267.859 158.959 265.86 161.417 263.735C163.496 261.945 165.641 260.218 167.486 258.209C169.394 256.133 170.758 253.658 171.071 250.696C169.302 248.819 167.569 247.037 165.919 245.195C163.699 242.754 161.99 240.04 161.101 236.803C158.958 228.979 162.61 218.965 169.081 214.094C169.741 213.609 170.332 212.996 170.944 212.453L170.932 212.492ZM166.35 178.252C166.356 178.019 166.415 177.823 166.371 177.681C166.122 176.944 165.867 176.226 165.592 175.503C161.989 165.916 161.044 156.102 162.364 145.943C163.542 136.895 165.994 128.166 168.59 119.459C170.744 112.222 172.852 104.992 173.779 97.4932C174.411 92.4695 174.869 87.4575 173.925 82.4089C173.794 81.707 173.527 81.0285 173.245 80.0462C172.905 80.6065 172.717 80.8063 172.671 81.0278C171.843 85.1377 169.89 88.7174 167.701 92.2262C164.746 97.0007 162.487 102.027 162.781 107.884C162.824 108.667 162.349 109.464 162.084 110.346C161.263 110.441 160.594 110.603 159.933 110.597C156.062 110.587 153.049 112.353 151.149 115.542C149.594 118.152 148.255 121.04 147.541 123.988C145.776 131.427 146.068 138.93 148.1 146.336C150.388 154.673 154.109 162.372 158.802 169.616C160.338 171.979 162.003 174.274 163.698 176.536C164.326 177.366 164.98 178.396 166.33 178.246L166.35 178.252ZM181.634 200.239C180.808 195.866 178.926 192.587 175.753 190.116C170.481 186.011 164.463 185.099 158.025 186.156C157.283 186.275 156.555 186.633 155.878 186.964C153.599 188.138 151.32 189.312 149.069 190.537C147.96 191.165 146.819 191.827 145.879 192.677C139.739 198.224 141.76 205.669 147.552 208.329C149.11 209.054 150.704 209.661 152.219 210.458C158.557 213.794 164.926 213.251 171.278 210.63C172.353 210.184 173.502 209.568 174.273 208.71C176.815 205.948 179.204 203.055 181.64 200.219L181.634 200.239ZM172.246 251.627C172.038 251.607 171.83 251.587 171.622 251.567C170.77 257.892 166.336 261.538 161.796 265.11C161.124 265.634 160.42 266.128 159.776 266.704C157.654 268.566 155.451 270.34 153.457 272.347C150.367 275.436 148.328 279.16 147.421 283.461C146.622 287.259 146.576 291.113 147.379 294.922C148.577 300.689 149.867 306.439 151.13 312.204C151.152 312.274 151.354 312.314 151.676 312.453C151.829 310.234 152.031 308.137 152.11 306.024C152.344 300.902 152.519 295.762 153.905 290.794C156.079 282.922 159.926 275.958 165.236 269.755C167.014 267.682 168.746 265.553 170.298 263.306C172.193 260.564 172.972 257.4 172.898 254.087C172.886 253.272 172.446 252.456 172.195 251.654L172.246 251.627ZM221.467 167.103C221.677 166.974 221.927 166.857 222.084 166.69C222.555 166.191 222.992 165.66 223.424 165.149C230.206 157.037 233.334 147.486 234.161 137.115C234.676 130.56 234.918 123.987 235.322 117.442C235.535 113.959 235.837 110.46 236.049 106.977C236.077 106.387 235.871 105.791 235.769 105.205C235.166 105.857 234.972 106.504 234.777 107.15C233.971 109.835 233.295 112.581 232.357 115.205C231.153 118.497 229.589 121.638 228.366 124.924C226.263 130.639 226.029 136.615 226.023 142.618C226.018 151.035 225.446 159.346 221.481 167.129L221.467 167.103ZM172.903 185.927C171.771 182.787 166.782 179.664 163.384 178.579C155.947 176.194 148.848 177.244 142.143 181.041C139.536 182.522 137.805 184.865 136.458 187.495C135.736 188.902 135.516 190.417 136.63 192.119C137.27 192.269 138.128 192.762 138.862 192.598C141.202 192.147 143.586 191.688 145.763 190.783C148.733 189.517 151.583 187.938 154.386 186.302C156.928 184.822 159.678 184.217 162.518 184.451C165.982 184.744 169.399 185.408 172.903 185.927ZM237.997 224.892C236.488 218.306 233.902 212.315 229.455 207.175C225.479 202.604 216.605 196.454 213.271 196.157C216.432 199.308 218.42 203.089 220.357 206.898C221.282 208.735 222.22 210.599 223.448 212.207C224.718 213.892 226.174 215.526 227.852 216.779C231.315 219.358 235.175 221.394 238.003 224.872L237.997 224.892ZM186.211 259.563C186.454 259.679 186.751 259.832 187.059 259.946C192.368 262.076 197.734 262.022 203.136 260.355C209.668 258.343 216.22 256.338 222.739 254.302C223.657 254.022 224.513 253.595 225.39 253.24C221.294 253.91 217.308 253.93 213.311 253.413C206.1 252.485 199.409 253.957 192.967 257.234C190.873 258.293 188.515 258.802 186.185 259.577L186.211 259.563ZM217.186 93.1242C214.246 93.8644 212.042 95.1464 210.13 96.8795C207.921 98.8868 205.821 101.033 203.807 103.249C201.247 106.069 198.417 108.509 195.082 110.349C190.848 112.687 187.27 115.907 183.845 119.258C183.542 119.551 183.393 119.977 183.085 120.504C186.512 119.354 189.656 118.291 192.854 117.264C195.794 116.31 198.259 114.658 200.258 112.353C201.498 110.931 202.706 109.477 203.787 107.943C207.505 102.693 211.496 97.6747 216.821 93.9119C216.929 93.8375 216.962 93.6552 217.212 93.1105L217.186 93.1242ZM141.659 195.041C140.984 193.299 139.706 193.92 138.664 193.756C137.523 193.563 136.407 193.291 135.284 193.039C133.229 195.605 133.056 198.246 134.775 201.07C136.133 203.316 138.007 205.054 140.264 206.374C141.446 207.071 142.478 208.193 144.421 208.136C140.404 204.129 140.679 199.511 141.678 195.047L141.659 195.041Z" fill="#C89663"/>
</g>
<defs>
<clipPath id="clip0_2_5724">
<rect width="294.877" height="284.485" fill="white" transform="translate(0.764648 282.398) rotate(-73.2724)"/>
</clipPath>
</defs>
</svg>
