<svg width="387" height="362" viewBox="0 0 387 362" fill="none" xmlns="http://www.w3.org/2000/svg">
<g opacity="0.4">
<g clip-path="url(#clip0_2_5806)">
<path d="M178.37 212.879C175.552 217.544 173.687 222.548 173.072 227.903C171.948 238.026 173.062 248.06 174.798 258.041C174.882 258.583 174.911 259.123 174.968 259.664C174.751 259.708 174.507 259.751 174.289 259.795C173.548 255.887 172.563 252.021 172.119 248.099C171.517 242.878 171.052 237.609 171.045 232.334C171.015 223.317 174.415 215.26 178.875 207.573C180.042 205.553 181.584 204.168 184.404 204.294C178.314 213.523 177.926 224.055 176.552 234.355C176.361 227.161 176.869 219.998 178.369 212.906L178.37 212.879Z" fill="#C89663"/>
<path d="M163.601 159.553C138.663 142.403 125.617 118.085 121.194 88.6602C124.163 102.383 128.69 115.557 135.76 127.821C142.955 140.306 152.79 150.325 163.628 159.554L163.601 159.553Z" fill="#C89663"/>
<path d="M130.256 192.194C105.432 197.871 80.4288 201.521 54.9226 197.129C67.4875 198.415 80.0972 198.089 92.6146 196.816C105.184 195.572 117.699 193.761 130.256 192.194Z" fill="#C89663"/>
<path d="M143.045 205.359C118.036 216.41 99.1422 235.162 80.3662 254.295C80.5978 253.928 80.7757 253.56 81.033 253.221C81.2915 252.856 81.6282 252.548 81.9392 252.212C94.2791 238.605 107.03 225.447 122.474 215.262C128.878 211.053 135.627 207.559 143.047 205.332L143.045 205.359Z" fill="#C89663"/>
<path d="M144.657 172.785C144.657 172.785 144.515 172.967 144.405 173.016C144.322 173.066 144.212 173.115 144.104 173.11C143.997 173.105 143.86 173.153 143.782 173.096C143.57 173.033 143.358 172.942 143.175 172.827C125.953 162.506 107.243 155.375 89.3128 146.449C95.6611 148.938 102.069 151.296 108.358 153.918C114.672 156.567 120.896 159.428 127.119 162.315C140.885 168.661 143.217 170.083 144.658 172.758L144.657 172.785Z" fill="#C89663"/>
<path d="M189.945 339.132C173.763 318.147 167.37 293.694 165.377 267.742C169.862 292.729 170.95 309.409 189.945 339.132Z" fill="#C89663"/>
<path d="M96.913 79.721C101.067 108.514 117.221 130.145 138.715 149.08C132.39 146.08 117.991 130.368 110.395 118.43C102.218 105.632 96.3857 89.144 96.913 79.721Z" fill="#C89663"/>
<path d="M120.477 241.979C131.847 225.368 152.274 206.631 161.158 204.739C157.515 207.376 153.744 209.873 150.254 212.704C146.597 215.664 143.115 218.9 139.688 222.138C136.344 225.299 133.102 228.6 129.887 231.902C126.699 235.204 123.613 238.62 120.477 241.979Z" fill="#C89663"/>
<path d="M232.538 85.5173C223.836 103.861 214.687 121.97 207.173 140.824C213.211 121.258 222.467 103.181 232.538 85.5173Z" fill="#C89663"/>
<path d="M200.406 189.45C213.063 202.555 228.698 209.253 244.176 216.428C241.683 215.591 239.131 214.885 236.697 213.942C224.743 209.212 213.26 203.587 203.583 194.867C201.15 192.686 201.079 192.468 200.379 189.449L200.406 189.45Z" fill="#C89663"/>
<path d="M88.1603 236.395C81.2715 244.835 74.0701 253.046 67.5466 261.744C60.9939 270.495 56.6985 280.531 53.0137 290.755C58.5749 268.611 72.1936 251.67 88.1615 236.368L88.1603 236.395Z" fill="#C89663"/>
<path d="M29.2267 207.261L77.0637 209.391C60.6887 210.869 44.8569 211.025 29.1998 207.26L29.2267 207.261Z" fill="#C89663"/>
<path d="M261.196 186.56C255.026 183.702 248.554 182.176 241.845 181.742C235.215 181.339 228.603 181.153 221.978 180.642C233.263 179.261 244.446 179.544 255.485 182.457C257.187 182.91 258.818 183.763 260.424 184.561C260.898 184.798 261.166 185.428 261.549 185.876C261.432 186.086 261.342 186.298 261.224 186.535L261.196 186.56Z" fill="#C89663"/>
<path d="M126.939 124.63C135.079 138.879 145.744 150.792 159.497 159.855C150.164 157.287 133.816 140.034 126.939 124.63Z" fill="#C89663"/>
<path d="M199.207 126.905C197.942 132.339 196.491 137.738 195.438 143.235C194.208 149.72 193.19 156.268 192.307 162.796C192.024 164.909 192.49 167.137 192.337 169.364C191.171 167.751 190.82 165.959 190.986 164.056C191.394 159.714 191.457 155.276 192.374 151.011C194.002 143.467 196.136 136.027 198.083 128.578C198.246 127.939 198.621 127.364 198.89 126.757C198.995 126.815 199.129 126.848 199.234 126.906L199.207 126.905Z" fill="#C89663"/>
<path d="M31.3943 165.832C34.9901 163.65 46.6615 165.058 68.9194 169.871C56.4107 168.533 43.9031 167.169 31.3943 165.832Z" fill="#C89663"/>
<path d="M230.761 32.958C226.996 43.7708 223.203 54.6093 219.374 65.6615C219.357 59.9821 227.61 35.4282 230.761 32.958Z" fill="#C89663"/>
<path d="M106.455 284.872C99.4707 297.883 90.4013 308.756 85.582 309.402C93.9402 301.808 99.7445 292.943 106.455 284.872Z" fill="#C89663"/>
<path d="M149.582 175.211C152.257 165.911 166.088 158.103 178.806 160.796C172.651 161.813 167.034 161.644 161.992 164.272C156.95 166.9 152.601 170.286 149.581 175.238L149.582 175.211Z" fill="#C89663"/>
<path d="M115.656 32.3007C116.134 33.0486 116.47 33.3596 116.458 33.6282C116.097 42.3588 115.68 51.1139 115.316 59.2792C113.988 54.0528 113.942 38.1721 115.629 32.2995L115.656 32.3007Z" fill="#C89663"/>
<path d="M192.197 74.0059C186.759 83.7216 186.108 94.1079 183.691 103.662C183.168 92.4429 187.571 75.7646 192.197 74.0059Z" fill="#C89663"/>
<path d="M141.467 75.8107C139.475 66.141 140.125 56.3736 141.153 46.5962C141.607 56.332 142.063 66.0409 142.518 75.7767C142.167 75.788 141.817 75.7994 141.467 75.8107Z" fill="#C89663"/>
<path d="M225.797 203.069C216.784 199.977 203.274 190.897 202.332 187.276C210.144 192.549 217.958 197.795 225.797 203.069Z" fill="#C89663"/>
<path d="M142.03 225.122C148.712 217.696 155.608 210.306 164.42 205.208C164.574 205.376 164.702 205.543 164.856 205.712C157.247 212.182 149.639 218.652 142.03 225.122Z" fill="#C89663"/>
<path d="M235.592 249.634C230.945 250.046 218.909 241.113 213.437 233.441C220.44 239.351 227.158 245.625 235.592 249.634Z" fill="#C89663"/>
<path d="M163.373 194.288C173.314 196.479 183.03 194.032 192.823 192.908C183.105 195.381 173.415 197.83 163.373 194.288Z" fill="#C89663"/>
<path d="M197.623 196.916C199.515 205.209 205.871 210.552 210.922 217.397C203.998 213.321 196.515 201.873 197.623 196.916Z" fill="#C89663"/>
<path d="M287.546 213.704C280.593 211.483 273.64 209.29 266.448 207.005C270.96 206.614 285.177 210.692 287.739 212.986C287.675 213.225 287.61 213.464 287.546 213.704Z" fill="#C89663"/>
<path d="M120.781 167.443C131.075 169.57 141.225 173.709 143.165 176.675C135.343 173.447 128.076 170.432 120.781 167.443Z" fill="#C89663"/>
<path d="M23.9447 139.125C27.7977 137.816 39.2338 139.671 49.7829 143.317C41.2589 141.941 32.7618 140.567 23.9447 139.125Z" fill="#C89663"/>
<path d="M161.528 167.428C168.278 162.722 175.663 161.867 183.54 163.86C176.009 163.766 168.516 164.025 161.528 167.428Z" fill="#C89663"/>
<path d="M161.613 177.604C164.916 175.356 176.1 176.822 183.37 180.376C175.838 179.69 168.934 176.988 161.613 177.604Z" fill="#C89663"/>
<path d="M188.913 166.493C186.741 158.457 189.103 150.758 190.633 142.994C190.39 150.869 187.921 158.564 188.913 166.493Z" fill="#C89663"/>
<path d="M234.946 175.891C244.087 175.518 253.259 177.433 254.742 179.787C248.152 178.498 241.535 177.207 234.946 175.891Z" fill="#C89663"/>
<path d="M197.618 272.003C194.544 270.306 190.178 259.561 189.864 253.923C192.496 260.095 195.057 266.049 197.618 272.003Z" fill="#C89663"/>
<path d="M181.27 95.7757C181.271 87.2981 182.708 79.7996 185.371 77.4153C183.961 83.7039 182.549 90.0194 181.27 95.7757Z" fill="#C89663"/>
<path d="M27.6822 160.956C31.3973 159.722 34.5069 161.206 37.597 161.317C40.7139 161.429 43.7824 162.023 47.6627 162.518C41.0486 162.978 30.4522 162.21 27.6822 160.956Z" fill="#C89663"/>
<path d="M101.823 297.638C99.6314 302.734 96.6018 307.309 92.5827 311.14C92.2968 310.912 92.0097 310.711 91.7238 310.483C95.0906 306.192 98.4562 301.928 101.85 297.639L101.823 297.638Z" fill="#C89663"/>
<path d="M220.981 45.2793C221.57 40.515 222.743 35.9382 225.456 31.2147C225.818 32.1459 226.174 32.6192 226.054 32.9099C224.39 37.0342 222.672 41.1562 220.981 45.2793Z" fill="#C89663"/>
<path d="M227.964 240.224C232.845 241.814 238.41 244.968 240.004 247.246C235.283 245.69 231.778 243.408 227.964 240.224Z" fill="#C89663"/>
<path d="M110.494 51.5287C109.328 47.4937 108.675 43.4277 109.53 39.348C109.745 39.3576 109.987 39.3415 110.204 39.3242C110.292 43.392 110.38 47.4597 110.469 51.5007L110.494 51.5287Z" fill="#C89663"/>
<path d="M145.649 194.01C146.781 189.161 148.762 186.988 151.629 187.277C149.702 189.453 147.832 191.55 145.649 194.01Z" fill="#C89663"/>
<path d="M165.056 173.425C168.415 172.928 171.719 173.075 175.499 174.616L164.97 174.147C164.98 173.906 165.018 173.665 165.056 173.425Z" fill="#C89663"/>
<path d="M389.952 -22.6875C389.086 -21.9725 388.17 -21.3405 387.382 -20.5682C372.941 -6.30147 362.975 10.8019 355.706 29.5865C349.929 44.4812 344.551 59.5013 338.828 74.3985C336.818 79.6378 334.411 84.7516 332.031 89.8399C324.271 106.369 312.548 119.411 297.505 129.668C282.739 139.722 266.632 146.674 249.537 151.619C242.639 153.626 235.954 156.289 229.173 158.678C228.161 159.037 227.218 159.668 225.979 160.285C232.58 161.952 238.806 163.548 245.035 165.09C253.819 167.284 262.422 169.901 269.563 175.736C278.625 183.164 285.628 192.115 288.611 203.686C292.516 218.743 283.975 233.46 273.336 239.688C266.731 243.565 260.228 247.582 253.775 251.681C246.461 256.361 238.692 259.191 229.856 258.179C224.689 257.572 219.748 256.114 214.969 254.044C213.965 253.623 212.988 253.202 211.587 252.629C211.839 254.82 212.164 256.584 212.248 258.337C212.517 263.166 211.134 267.626 209.136 272.004C206.662 277.411 204.08 282.814 202.213 288.463C198.269 300.29 198.621 312.336 201.366 324.408C202.152 327.915 202.694 331.464 203.154 335.037C203.688 339.367 203.068 343.619 201.304 347.577C198.789 353.278 194.382 354.939 188.569 352.527C184.606 350.87 181.495 348.202 179.011 344.754C175.894 340.417 173.686 335.609 172.109 330.533C170.812 326.411 168.879 322.665 166.648 318.986C159.527 307.258 154.573 294.604 151.725 281.209C151.102 278.275 150.995 275.229 150.602 271.982C150.233 272.396 149.845 272.648 149.694 273.018C144.078 286.117 134.396 295.643 122.851 303.499C117.799 306.934 112.476 309.846 106.537 311.465C101.469 312.855 96.2831 313.27 91.2491 311.485C82.6382 308.437 73.6742 307.876 64.7222 307.047C57.8874 306.42 51.8614 303.944 46.648 299.541C41.6936 295.364 39.4546 290.043 39.5303 283.507C39.6739 272.425 44.119 263.257 51.3402 255.209C53.294 253.035 55.4811 251.06 57.4093 248.858C60.6118 245.233 63.8926 241.665 66.8093 237.812C70.6978 232.683 74.6108 227.61 79.5856 223.471C79.9772 223.139 80.2673 222.667 80.8356 221.993C79.8173 221.894 79.1542 221.676 78.5573 221.784C71.7265 222.879 65.0582 221.533 58.5338 219.977C45.8306 216.962 34.0921 211.622 23.3906 204.148C18.5615 200.785 14.1007 197.007 10.5437 192.273C4.87929 184.7 6.67894 176.922 15.1037 172.668C20.1142 170.146 25.1467 167.733 30.4842 165.118C29.1682 163.848 27.9172 162.931 26.9748 161.732C18.8551 151.278 19.1929 137.648 29.4254 129.061C37.4218 122.339 46.62 118.846 57.4128 119.434C71.6425 120.203 84.7545 124.312 97.2133 131.003C99.4473 132.206 101.685 133.328 103.947 134.505C104.118 134.298 104.262 134.089 104.431 133.908C103.692 132.987 102.924 132.092 102.212 131.172C98.3477 126.075 94.1801 121.152 90.7055 115.777C86.1465 108.765 84.0748 100.894 83.9131 92.4366C83.6292 75.8456 89.9072 61.7806 99.8953 49.0111C103.034 45.0063 106.352 41.1979 110.547 38.2627C112.715 36.7176 114.127 34.6274 115.257 32.2018C116.776 28.9322 118.241 25.6333 120.126 22.5953C122.824 18.221 126.642 15.2691 131.904 14.3462C134.887 13.8331 137.513 14.7036 140.015 15.9453C150.103 20.8621 156.798 28.8573 159.602 39.6396C161.327 46.2293 162.421 53.087 162.872 59.8892C163.384 67.7167 162.897 75.6344 162.79 83.4882C162.589 95.8591 162.01 108.24 163.696 120.561C163.901 121.996 164.078 123.457 164.364 124.896C164.519 125.63 164.892 126.319 165.355 127.417C165.64 114.376 168.12 102.188 172.652 90.4671C176.97 79.329 183.171 69.4052 191.574 60.7904C194.508 57.7722 196.694 53.9941 199.033 50.4381C201.371 46.8821 203.293 43.0115 205.762 39.542C209.206 34.7165 213.898 31.4805 219.866 30.4275C227.924 28.9831 242.61 33.4049 244.847 46.019C245.729 50.9834 246.394 55.9919 247.277 60.9562C248.831 69.5568 250.765 78.1205 252.075 86.7641C254.142 100.178 252.782 113.197 246.821 125.581C243.647 132.195 239.306 137.814 233.817 142.63C227.459 148.214 221.205 153.883 216.5 161.021C216.009 161.779 215.519 162.511 215.053 163.298C214.965 163.455 215.035 163.7 215.092 164.241C216.88 163.379 218.658 162.731 220.209 161.751C229.288 156.1 239.163 152.503 249.41 149.648C265.787 145.103 281.135 138.278 295.335 128.844C311.614 118.024 324.134 103.994 331.772 85.9798C337.728 71.9004 343.234 57.6395 348.556 43.2897C353.693 29.4699 358.908 15.7074 366.578 3.0231C372.419 -6.67456 379.351 -15.4894 387.532 -23.3335C388.32 -24.1058 389.289 -24.7086 390.153 -25.3699L390.032 -22.6571L389.952 -22.6875ZM147.431 167.903C134.743 156.707 121.292 146.904 106.979 138.328C93.6368 130.332 79.9383 123.075 64.0864 121.266C55.7325 120.302 47.4096 119.85 39.6904 123.974C36.4372 125.713 33.1757 127.64 30.3516 130.017C18.2735 140.164 22.1995 157.159 30.8037 163.383C31.4561 163.842 31.9096 164.535 32.4742 165.152C29.3858 166.818 26.655 168.311 23.8996 169.75C21.0064 171.262 18.0642 172.665 15.1979 174.179C8.08511 177.98 6.33091 184.738 11.2982 191.042C14.1254 194.639 17.4492 197.963 21.0374 200.787C31.6982 209.174 43.8019 214.773 56.8889 218.235C63.7517 220.048 70.7555 221.113 77.9104 220.598C81.0697 220.362 84.0786 219.877 86.8752 218.117C101.884 208.639 117.703 200.92 134.872 196.114C136.561 195.651 138.228 195.079 139.32 194.724C139.976 191.496 140.494 188.909 141.188 185.414C139.846 179.891 140.748 177.159 147.485 167.905L147.431 167.903ZM140.283 196.085C139.96 196.071 139.745 196.061 139.528 196.106C126.598 199.997 114.006 204.765 101.772 210.545C87.7228 217.213 76.0858 226.518 67.403 239.588C64.6332 243.771 60.8958 247.318 57.5249 251.097C54.9174 254.049 52.0766 256.803 49.5999 259.841C43.9307 266.882 40.8263 274.952 40.6369 284.04C40.5045 290.036 42.5944 295.081 47.27 298.869C52.2561 302.939 57.9328 305.399 64.4477 305.958C73.617 306.743 82.8263 307.234 91.679 310.293C94.3291 311.218 97.4251 311.194 100.309 311.107C106.184 310.912 111.456 308.563 116.455 305.69C128.774 298.596 139.138 289.476 146.209 276.953C148.955 272.097 150.744 266.982 150.863 261.282C150.907 258.485 151.408 255.681 152.015 252.936C155.723 236.146 163.873 221.734 175.572 209.229C176.053 208.712 176.429 208.11 176.916 207.459C173.949 207.004 171.304 206.563 168.628 206.229C167.397 206.066 166.161 206.011 164.919 206.117C155.084 206.971 146.76 204.125 140.285 196.032L140.283 196.085ZM204.473 179.082C205.641 176.443 206.381 174.322 207.49 172.38C208.599 170.438 210.102 168.729 211.394 166.902C211.594 166.642 211.716 166.325 211.864 166.008C215.683 158.212 221.244 151.785 227.562 145.904C230.426 143.232 233.059 140.308 235.665 137.383C241.931 130.234 243.495 121.719 243.016 112.52C242.629 105.505 240.965 98.7569 239.302 91.9816C236.862 82.1035 236.411 72.2871 238.553 62.2633C239.944 55.7854 240.456 49.1338 239.65 42.4504C239.277 39.3388 238.126 36.7847 235.146 35.414C233.116 34.4624 231.058 33.5364 228.938 32.7961C223.37 30.9065 218.67 31.9083 214.823 36.7159C211.145 41.3426 208.151 46.3228 205.917 51.7674C204.288 55.7049 202.685 59.6704 200.951 63.5763C198.827 68.353 195.461 72.0247 190.905 74.6208C188.474 76.0197 186.067 77.5003 183.686 78.9822C179.256 81.7722 176.231 85.6476 174.316 90.5681C170.392 100.728 168.067 111.228 167.049 122.002C166.651 126.102 167.029 130.317 167.547 134.404C168.744 143.769 174.034 151.298 179.272 158.771C179.93 159.715 181.199 160.229 182.219 160.894C184.496 162.341 186.973 163.527 188.996 165.232C191.591 167.393 194.163 169.472 197.045 171.242C199.087 172.518 200.665 174.552 202.39 176.298C203.059 177 203.587 177.831 204.476 179.028L204.473 179.082ZM148.57 72.8165C148.421 71.3296 148.378 69.8744 148.117 68.4902C147.164 63.8995 147.151 59.3507 148.323 54.8007C149.331 50.8894 150.287 46.9489 151.455 43.0985C152.841 38.5581 153.017 33.9908 151.711 29.4919C151.152 27.5293 150.146 25.3316 148.67 24.0278C145.667 21.3643 142.386 18.9037 138.864 16.9975C134.449 14.6209 129.797 15.1405 125.91 18.4123C123.896 20.1258 122.105 22.2797 120.712 24.5323C119.086 27.205 118.194 30.3141 116.673 33.0453C115.443 35.2781 114.124 37.7222 112.173 39.2232C105.371 44.4914 100.309 51.2095 95.7127 58.3251C89.2942 68.2932 85.7711 79.1167 85.5881 91.0848C85.4751 99.665 87.6006 107.537 91.9023 114.888C96.654 123.012 102.827 130.042 109.365 136.738C111.244 138.652 113.375 140.362 115.595 141.887C125.728 148.824 135.776 155.865 145.023 163.974C146.265 165.079 147.679 165.976 149.11 167.063C155.643 161.783 163.026 159.178 171.255 158.71C171.041 158.081 171.026 157.812 170.869 157.697C170.196 157.102 169.495 156.532 168.794 155.963C159.295 148.058 150.974 139.102 144.392 128.582C137.107 116.901 133.278 104.377 134.626 90.4156C135.522 81.1706 139.306 75.9834 148.542 72.8421L148.57 72.8165ZM288.02 212.729C287.951 211.865 287.849 210.515 287.775 209.166C287.34 202.014 283.885 196.801 277.51 193.691C274.691 192.328 271.695 191.333 268.725 190.34C264.934 189.041 261.519 187.166 258.713 184.296C256.989 182.524 255.125 180.853 253.596 178.928C248.699 172.87 242.627 168.401 235.705 164.89C226.546 160.257 215.86 162.714 210.15 171.261C208.595 173.56 207.481 176.202 206.451 178.793C203.144 187.177 199.678 195.501 194.348 202.799C191.281 206.995 188.984 211.441 188.141 216.463C186.603 225.626 188.321 234.18 195.688 240.402C202.846 246.453 211.01 251.069 219.945 254.104C222.066 254.818 224.574 254.714 226.87 254.52C230.518 254.198 233.308 251.981 235.916 249.621C243.125 243.052 251.506 239.173 261.268 238.128C264.594 237.765 267.963 237.053 271.084 235.874C280.884 232.165 287.409 224.032 288.074 212.732L288.02 212.729ZM193.987 201.222C193.832 201.08 193.678 200.912 193.523 200.771C191.043 202.06 188.681 203.731 186.033 204.582C180.599 206.331 176.801 210.038 173.306 214.188C167.649 220.96 162.986 228.369 159.292 236.386C152.472 251.127 150.438 266.592 153.742 282.456C156.426 295.305 161.489 307.319 168.253 318.6C170.257 321.946 171.9 325.545 173.298 329.213C175.225 334.278 177.1 339.314 180.32 343.763C182.88 347.322 186.067 350.074 190.283 351.5C194.126 352.828 196.721 351.975 198.945 348.575C201.053 345.359 201.375 341.74 200.322 338.195C199.318 334.759 197.823 331.463 196.299 328.219C193.448 322.118 189.887 316.28 187.583 309.988C183.766 299.618 184.651 289.403 190.884 279.992C193.249 276.437 195.902 273.057 198.345 269.559C200.414 266.61 202.589 263.72 204.29 260.566C206.05 257.307 206.99 253.716 206.436 249.843C203.584 248.02 200.807 246.309 198.116 244.493C194.509 242.099 191.462 239.191 189.292 235.354C184.053 226.078 185.481 212.146 192.147 203.858C192.83 203.027 193.385 202.056 193.99 201.168L193.987 201.222ZM177.159 159.08C177.092 158.781 177.104 158.513 177.004 158.347C176.45 157.488 175.895 156.656 175.313 155.822C167.65 144.77 163.295 132.573 161.71 119.207C160.303 107.303 160.618 95.3946 161.122 83.4677C161.536 73.5553 161.896 63.6673 160.666 53.8163C159.857 47.2135 158.829 40.6817 156.006 34.5545C155.614 33.7027 155.056 32.9243 154.381 31.7639C154.129 32.587 153.954 32.9022 153.968 33.1988C154.234 38.7009 152.9 43.8895 151.243 49.0637C149.019 56.0966 147.759 63.2263 150.015 70.5932C150.321 71.5757 149.973 72.7444 149.919 73.953C148.906 74.3385 148.107 74.7605 147.264 74.9651C142.337 76.1991 139.072 79.4178 137.68 84.0925C136.541 87.9172 135.766 92.0273 135.803 96.0121C135.948 106.057 138.73 115.52 143.694 124.299C149.283 134.183 156.489 142.793 164.784 150.509C167.498 153.025 170.352 155.413 173.235 157.748C174.301 158.603 175.463 159.705 177.132 159.079L177.159 159.08ZM203.663 182.168C201.208 176.864 197.761 173.293 192.93 171.167C184.906 167.634 176.959 168.41 169.11 171.829C168.204 172.219 167.393 172.909 166.638 173.549C164.117 175.778 161.595 178.007 159.125 180.292C157.916 181.449 156.678 182.659 155.755 184.044C149.728 193.088 154.69 201.921 162.912 203.444C165.127 203.866 167.349 204.126 169.532 204.654C178.665 206.864 186.592 204.122 193.829 198.739C195.054 197.824 196.316 196.67 197.022 195.328C199.368 190.992 201.477 186.538 203.664 182.141L203.663 182.168ZM208.23 250.649C207.959 250.691 207.688 250.733 207.417 250.774C208.365 259.106 203.896 265.177 199.269 271.188C198.583 272.073 197.846 272.928 197.212 273.869C195.111 276.924 192.88 279.893 190.988 283.092C188.05 288.021 186.652 293.422 186.88 299.191C187.084 304.287 188.264 309.211 190.508 313.805C193.885 320.764 197.372 327.675 200.831 334.611C200.882 334.694 201.151 334.679 201.606 334.753C201.088 331.877 200.671 329.14 200.093 326.423C198.745 319.824 197.316 313.22 197.483 306.445C197.719 295.718 200.376 285.609 205.137 275.998C206.733 272.786 208.251 269.516 209.504 266.154C211.033 262.05 211.008 257.77 209.849 253.574C209.572 252.539 208.751 251.641 208.174 250.7L208.23 250.649ZM243.684 127.137C243.91 126.904 244.189 126.675 244.335 126.412C244.774 125.624 245.16 124.807 245.545 124.017C251.566 111.501 252.475 98.3276 250.196 84.8503C248.745 76.3351 246.941 67.8848 245.354 59.4173C244.505 54.9119 243.766 50.3577 242.917 45.8523C242.762 45.0919 242.308 44.3988 241.99 43.6849C241.433 44.7097 241.394 45.5962 241.354 46.4825C241.191 50.1623 241.214 53.8773 240.863 57.5218C240.39 62.1029 239.409 66.6074 238.909 71.1873C238.07 79.1431 239.692 86.8317 241.613 94.4797C244.311 105.204 246.253 115.974 243.71 127.165L243.684 127.137ZM187.96 166.747C185.511 163.112 178.162 160.74 173.492 160.451C163.267 159.807 154.574 163.43 147.265 170.425C144.426 173.152 142.976 176.693 142.108 180.476C141.641 182.501 141.848 184.502 143.813 186.312C144.675 186.296 145.924 186.648 146.805 186.203C149.636 184.875 152.522 183.524 155 181.669C158.371 179.101 161.488 176.172 164.528 173.186C167.286 170.482 170.589 168.826 174.277 168.21C178.777 167.469 183.337 167.214 187.96 166.747ZM283.273 195.428C279.238 187.524 274.024 180.725 266.716 175.61C260.19 171.067 246.928 166.089 242.591 166.784C247.625 169.781 251.369 173.957 255.056 178.185C256.822 180.229 258.613 182.3 260.693 183.954C262.849 185.691 265.226 187.304 267.763 188.359C272.995 190.53 278.56 191.881 283.274 195.401L283.273 195.428ZM228.542 256.263C228.888 256.333 229.315 256.432 229.743 256.478C237.18 257.482 243.988 255.686 250.324 251.824C257.986 247.159 265.676 242.496 273.312 237.803C274.391 237.151 275.343 236.332 276.344 235.597C271.349 237.769 266.285 239.078 261.036 239.705C251.566 240.845 243.528 244.874 236.387 251.122C234.063 253.145 231.228 254.553 228.514 256.289L228.542 256.263ZM214.474 34.2782C210.972 36.1676 208.58 38.5102 206.705 41.3333C204.541 44.6011 202.559 48.0115 200.709 51.4816C198.359 55.8984 195.543 59.9175 191.892 63.3344C187.258 67.6763 183.74 72.9292 180.46 78.3003C180.17 78.7718 180.117 79.3615 179.894 80.1321C183.884 77.5646 187.542 75.1977 191.279 72.8612C194.713 70.6996 197.318 67.8013 199.119 64.2214C200.24 62.0106 201.308 59.7706 202.191 57.4685C205.234 49.5839 208.698 41.9065 214.262 35.3991C214.376 35.2696 214.36 35.0267 214.502 34.2525L214.474 34.2782ZM151.147 188.414C149.729 186.414 148.303 187.615 146.925 187.742C145.412 187.863 143.905 187.877 142.396 187.917C140.606 191.847 141.234 195.266 144.328 198.311C146.777 200.734 149.719 202.346 153.014 203.3C154.741 203.807 156.414 204.904 158.868 204.206C152.471 200.396 151.337 194.425 151.174 188.416L151.147 188.414Z" fill="#C89663"/>
</g>
<g clip-path="url(#clip1_2_5806)">
<path d="M178.37 212.879C175.552 217.544 173.687 222.548 173.072 227.903C171.948 238.026 173.062 248.06 174.798 258.041C174.882 258.583 174.911 259.123 174.968 259.664C174.751 259.708 174.507 259.751 174.289 259.795C173.548 255.887 172.563 252.021 172.119 248.099C171.517 242.878 171.052 237.609 171.045 232.334C171.015 223.317 174.415 215.26 178.875 207.573C180.042 205.553 181.584 204.168 184.404 204.294C178.314 213.523 177.926 224.055 176.552 234.355C176.361 227.161 176.869 219.998 178.369 212.906L178.37 212.879Z" fill="#C89663"/>
<path d="M163.601 159.553C138.663 142.403 125.617 118.085 121.194 88.6602C124.163 102.383 128.69 115.557 135.76 127.821C142.955 140.306 152.79 150.325 163.628 159.554L163.601 159.553Z" fill="#C89663"/>
<path d="M130.256 192.194C105.432 197.871 80.4288 201.521 54.9226 197.129C67.4875 198.415 80.0972 198.089 92.6146 196.816C105.184 195.572 117.699 193.761 130.256 192.194Z" fill="#C89663"/>
<path d="M143.045 205.359C118.036 216.41 99.1422 235.162 80.3662 254.295C80.5978 253.928 80.7757 253.56 81.033 253.221C81.2915 252.856 81.6282 252.548 81.9392 252.212C94.2791 238.605 107.03 225.447 122.474 215.262C128.878 211.053 135.627 207.559 143.047 205.332L143.045 205.359Z" fill="#C89663"/>
<path d="M144.657 172.785C144.657 172.785 144.515 172.967 144.405 173.016C144.322 173.066 144.212 173.115 144.104 173.11C143.997 173.105 143.86 173.153 143.782 173.096C143.57 173.033 143.358 172.942 143.175 172.827C125.953 162.506 107.243 155.375 89.3128 146.449C95.6611 148.938 102.069 151.296 108.358 153.918C114.672 156.567 120.896 159.428 127.119 162.315C140.885 168.661 143.217 170.083 144.658 172.758L144.657 172.785Z" fill="#C89663"/>
<path d="M189.945 339.132C173.763 318.147 167.37 293.694 165.377 267.742C169.862 292.729 170.95 309.409 189.945 339.132Z" fill="#C89663"/>
<path d="M96.913 79.721C101.067 108.514 117.221 130.145 138.715 149.08C132.39 146.08 117.991 130.368 110.395 118.43C102.218 105.632 96.3857 89.144 96.913 79.721Z" fill="#C89663"/>
<path d="M120.477 241.979C131.847 225.368 152.274 206.631 161.158 204.739C157.515 207.376 153.744 209.873 150.254 212.704C146.597 215.664 143.115 218.9 139.688 222.138C136.344 225.299 133.102 228.6 129.887 231.902C126.699 235.204 123.613 238.62 120.477 241.979Z" fill="#C89663"/>
<path d="M232.538 85.5173C223.836 103.861 214.687 121.97 207.173 140.824C213.211 121.258 222.467 103.181 232.538 85.5173Z" fill="#C89663"/>
<path d="M200.406 189.45C213.063 202.555 228.698 209.253 244.176 216.428C241.683 215.591 239.131 214.885 236.697 213.942C224.743 209.212 213.26 203.587 203.583 194.867C201.15 192.686 201.079 192.468 200.379 189.449L200.406 189.45Z" fill="#C89663"/>
<path d="M88.1603 236.395C81.2715 244.835 74.0701 253.046 67.5466 261.744C60.9939 270.495 56.6985 280.531 53.0137 290.755C58.5749 268.611 72.1936 251.67 88.1615 236.368L88.1603 236.395Z" fill="#C89663"/>
<path d="M29.2267 207.261L77.0637 209.391C60.6887 210.869 44.8569 211.025 29.1998 207.26L29.2267 207.261Z" fill="#C89663"/>
<path d="M261.196 186.56C255.026 183.702 248.554 182.176 241.845 181.742C235.215 181.339 228.603 181.153 221.978 180.642C233.263 179.261 244.446 179.544 255.485 182.457C257.187 182.91 258.818 183.763 260.424 184.561C260.898 184.798 261.166 185.428 261.549 185.876C261.432 186.086 261.342 186.298 261.224 186.535L261.196 186.56Z" fill="#C89663"/>
<path d="M126.939 124.63C135.079 138.879 145.744 150.792 159.497 159.855C150.164 157.287 133.816 140.034 126.939 124.63Z" fill="#C89663"/>
<path d="M199.207 126.905C197.942 132.339 196.491 137.738 195.438 143.235C194.208 149.72 193.19 156.268 192.307 162.796C192.024 164.909 192.49 167.137 192.337 169.364C191.171 167.751 190.82 165.959 190.986 164.056C191.394 159.714 191.457 155.276 192.374 151.011C194.002 143.467 196.136 136.027 198.083 128.578C198.246 127.939 198.621 127.364 198.89 126.757C198.995 126.815 199.129 126.848 199.234 126.906L199.207 126.905Z" fill="#C89663"/>
<path d="M31.3943 165.832C34.9901 163.65 46.6615 165.058 68.9194 169.871C56.4107 168.533 43.9031 167.169 31.3943 165.832Z" fill="#C89663"/>
<path d="M230.761 32.958C226.996 43.7708 223.203 54.6093 219.374 65.6615C219.357 59.9821 227.61 35.4282 230.761 32.958Z" fill="#C89663"/>
<path d="M106.455 284.872C99.4707 297.883 90.4013 308.756 85.582 309.402C93.9402 301.808 99.7445 292.943 106.455 284.872Z" fill="#C89663"/>
<path d="M149.582 175.211C152.257 165.911 166.088 158.103 178.806 160.796C172.651 161.813 167.034 161.644 161.992 164.272C156.95 166.9 152.601 170.286 149.581 175.238L149.582 175.211Z" fill="#C89663"/>
<path d="M115.656 32.3007C116.134 33.0486 116.47 33.3596 116.458 33.6282C116.097 42.3588 115.68 51.1139 115.316 59.2792C113.988 54.0528 113.942 38.1721 115.629 32.2995L115.656 32.3007Z" fill="#C89663"/>
<path d="M192.197 74.0059C186.759 83.7216 186.108 94.1079 183.691 103.662C183.168 92.4429 187.571 75.7646 192.197 74.0059Z" fill="#C89663"/>
<path d="M141.467 75.8107C139.475 66.141 140.125 56.3736 141.153 46.5962C141.607 56.332 142.063 66.0409 142.518 75.7767C142.167 75.788 141.817 75.7994 141.467 75.8107Z" fill="#C89663"/>
<path d="M225.797 203.069C216.784 199.977 203.274 190.897 202.332 187.276C210.144 192.549 217.958 197.795 225.797 203.069Z" fill="#C89663"/>
<path d="M142.03 225.122C148.712 217.696 155.608 210.306 164.42 205.208C164.574 205.376 164.702 205.543 164.856 205.712C157.247 212.182 149.639 218.652 142.03 225.122Z" fill="#C89663"/>
<path d="M235.592 249.634C230.945 250.046 218.909 241.113 213.437 233.441C220.44 239.351 227.158 245.625 235.592 249.634Z" fill="#C89663"/>
<path d="M163.373 194.288C173.314 196.479 183.03 194.032 192.823 192.908C183.105 195.381 173.415 197.83 163.373 194.288Z" fill="#C89663"/>
<path d="M197.623 196.916C199.515 205.209 205.871 210.552 210.922 217.397C203.998 213.321 196.515 201.873 197.623 196.916Z" fill="#C89663"/>
<path d="M287.546 213.704C280.593 211.483 273.64 209.29 266.448 207.005C270.96 206.614 285.177 210.692 287.739 212.986C287.675 213.225 287.61 213.464 287.546 213.704Z" fill="#C89663"/>
<path d="M120.781 167.443C131.075 169.57 141.225 173.709 143.165 176.675C135.343 173.447 128.076 170.432 120.781 167.443Z" fill="#C89663"/>
<path d="M23.9447 139.125C27.7977 137.816 39.2338 139.671 49.7829 143.317C41.2589 141.941 32.7618 140.567 23.9447 139.125Z" fill="#C89663"/>
<path d="M161.528 167.428C168.278 162.722 175.663 161.867 183.54 163.86C176.009 163.766 168.516 164.025 161.528 167.428Z" fill="#C89663"/>
<path d="M161.613 177.604C164.916 175.356 176.1 176.822 183.37 180.376C175.838 179.69 168.934 176.988 161.613 177.604Z" fill="#C89663"/>
<path d="M188.913 166.493C186.741 158.457 189.103 150.758 190.633 142.994C190.39 150.869 187.921 158.564 188.913 166.493Z" fill="#C89663"/>
<path d="M234.946 175.891C244.087 175.518 253.259 177.433 254.742 179.787C248.152 178.498 241.535 177.207 234.946 175.891Z" fill="#C89663"/>
<path d="M197.618 272.003C194.544 270.306 190.178 259.561 189.864 253.923C192.496 260.095 195.057 266.049 197.618 272.003Z" fill="#C89663"/>
<path d="M181.27 95.7757C181.271 87.2981 182.708 79.7996 185.371 77.4153C183.961 83.7039 182.549 90.0194 181.27 95.7757Z" fill="#C89663"/>
<path d="M27.6822 160.956C31.3973 159.722 34.5069 161.206 37.597 161.317C40.7139 161.429 43.7824 162.023 47.6627 162.518C41.0486 162.978 30.4522 162.21 27.6822 160.956Z" fill="#C89663"/>
<path d="M101.823 297.638C99.6314 302.734 96.6018 307.309 92.5827 311.14C92.2968 310.912 92.0097 310.711 91.7238 310.483C95.0906 306.192 98.4562 301.928 101.85 297.639L101.823 297.638Z" fill="#C89663"/>
<path d="M220.981 45.2793C221.57 40.515 222.743 35.9382 225.456 31.2147C225.818 32.1459 226.174 32.6192 226.054 32.9099C224.39 37.0342 222.672 41.1562 220.981 45.2793Z" fill="#C89663"/>
<path d="M227.964 240.224C232.845 241.814 238.41 244.968 240.004 247.246C235.283 245.69 231.778 243.408 227.964 240.224Z" fill="#C89663"/>
<path d="M110.494 51.5287C109.328 47.4937 108.675 43.4277 109.53 39.348C109.745 39.3576 109.987 39.3415 110.204 39.3242C110.292 43.392 110.38 47.4597 110.469 51.5007L110.494 51.5287Z" fill="#C89663"/>
<path d="M145.649 194.01C146.781 189.161 148.762 186.988 151.629 187.277C149.702 189.453 147.832 191.55 145.649 194.01Z" fill="#C89663"/>
<path d="M165.056 173.425C168.415 172.928 171.719 173.075 175.499 174.616L164.97 174.147C164.98 173.906 165.018 173.665 165.056 173.425Z" fill="#C89663"/>
<path d="M389.952 -22.6875C389.086 -21.9725 388.17 -21.3405 387.382 -20.5682C372.941 -6.30147 362.975 10.8019 355.706 29.5865C349.929 44.4812 344.551 59.5013 338.828 74.3985C336.818 79.6378 334.411 84.7516 332.031 89.8399C324.271 106.369 312.548 119.411 297.505 129.668C282.739 139.722 266.632 146.674 249.537 151.619C242.639 153.626 235.954 156.289 229.173 158.678C228.161 159.037 227.218 159.668 225.979 160.285C232.58 161.952 238.806 163.548 245.035 165.09C253.819 167.284 262.422 169.901 269.563 175.736C278.625 183.164 285.628 192.115 288.611 203.686C292.516 218.743 283.975 233.46 273.336 239.688C266.731 243.565 260.228 247.582 253.775 251.681C246.461 256.361 238.692 259.191 229.856 258.179C224.689 257.572 219.748 256.114 214.969 254.044C213.965 253.623 212.988 253.202 211.587 252.629C211.839 254.82 212.164 256.584 212.248 258.337C212.517 263.166 211.134 267.626 209.136 272.004C206.662 277.411 204.08 282.814 202.213 288.463C198.269 300.29 198.621 312.336 201.366 324.408C202.152 327.915 202.694 331.464 203.154 335.037C203.688 339.367 203.068 343.619 201.304 347.577C198.789 353.278 194.382 354.939 188.569 352.527C184.606 350.87 181.495 348.202 179.011 344.754C175.894 340.417 173.686 335.609 172.109 330.533C170.812 326.411 168.879 322.665 166.648 318.986C159.527 307.258 154.573 294.604 151.725 281.209C151.102 278.275 150.995 275.229 150.602 271.982C150.233 272.396 149.845 272.648 149.694 273.018C144.078 286.117 134.396 295.643 122.851 303.499C117.799 306.934 112.476 309.846 106.537 311.465C101.469 312.855 96.2831 313.27 91.2491 311.485C82.6382 308.437 73.6742 307.876 64.7222 307.047C57.8874 306.42 51.8614 303.944 46.648 299.541C41.6936 295.364 39.4546 290.043 39.5303 283.507C39.6739 272.425 44.119 263.257 51.3402 255.209C53.294 253.035 55.4811 251.06 57.4093 248.858C60.6118 245.233 63.8926 241.665 66.8093 237.812C70.6978 232.683 74.6108 227.61 79.5856 223.471C79.9772 223.139 80.2673 222.667 80.8356 221.993C79.8173 221.894 79.1542 221.676 78.5573 221.784C71.7265 222.879 65.0582 221.533 58.5338 219.977C45.8306 216.962 34.0921 211.622 23.3906 204.148C18.5615 200.785 14.1007 197.007 10.5437 192.273C4.87929 184.7 6.67894 176.922 15.1037 172.668C20.1142 170.146 25.1467 167.733 30.4842 165.118C29.1682 163.848 27.9172 162.931 26.9748 161.732C18.8551 151.278 19.1929 137.648 29.4254 129.061C37.4218 122.339 46.62 118.846 57.4128 119.434C71.6425 120.203 84.7545 124.312 97.2133 131.003C99.4473 132.206 101.685 133.328 103.947 134.505C104.118 134.298 104.262 134.089 104.431 133.908C103.692 132.987 102.924 132.092 102.212 131.172C98.3477 126.075 94.1801 121.152 90.7055 115.777C86.1465 108.765 84.0748 100.894 83.9131 92.4366C83.6292 75.8456 89.9072 61.7806 99.8953 49.0111C103.034 45.0063 106.352 41.1979 110.547 38.2627C112.715 36.7176 114.127 34.6274 115.257 32.2018C116.776 28.9322 118.241 25.6333 120.126 22.5953C122.824 18.221 126.642 15.2691 131.904 14.3462C134.887 13.8331 137.513 14.7036 140.015 15.9453C150.103 20.8621 156.798 28.8573 159.602 39.6396C161.327 46.2293 162.421 53.087 162.872 59.8892C163.384 67.7167 162.897 75.6344 162.79 83.4882C162.589 95.8591 162.01 108.24 163.696 120.561C163.901 121.996 164.078 123.457 164.364 124.896C164.519 125.63 164.892 126.319 165.355 127.417C165.64 114.376 168.12 102.188 172.652 90.4671C176.97 79.329 183.171 69.4052 191.574 60.7904C194.508 57.7722 196.694 53.9941 199.033 50.4381C201.371 46.8821 203.293 43.0115 205.762 39.542C209.206 34.7165 213.898 31.4805 219.866 30.4275C227.924 28.9831 242.61 33.4049 244.847 46.019C245.729 50.9834 246.394 55.9919 247.277 60.9562C248.831 69.5568 250.765 78.1205 252.075 86.7641C254.142 100.178 252.782 113.197 246.821 125.581C243.647 132.195 239.306 137.814 233.817 142.63C227.459 148.214 221.205 153.883 216.5 161.021C216.009 161.779 215.519 162.511 215.053 163.298C214.965 163.455 215.035 163.7 215.092 164.241C216.88 163.379 218.658 162.731 220.209 161.751C229.288 156.1 239.163 152.503 249.41 149.648C265.787 145.103 281.135 138.278 295.335 128.844C311.614 118.024 324.134 103.994 331.772 85.9798C337.728 71.9004 343.234 57.6395 348.556 43.2897C353.693 29.4699 358.908 15.7074 366.578 3.0231C372.419 -6.67456 379.351 -15.4894 387.532 -23.3335C388.32 -24.1058 389.289 -24.7086 390.153 -25.3699L390.032 -22.6571L389.952 -22.6875ZM147.431 167.903C134.743 156.707 121.292 146.904 106.979 138.328C93.6368 130.332 79.9383 123.075 64.0864 121.266C55.7325 120.302 47.4096 119.85 39.6904 123.974C36.4372 125.713 33.1757 127.64 30.3516 130.017C18.2735 140.164 22.1995 157.159 30.8037 163.383C31.4561 163.842 31.9096 164.535 32.4742 165.152C29.3858 166.818 26.655 168.311 23.8996 169.75C21.0064 171.262 18.0642 172.665 15.1979 174.179C8.08511 177.98 6.33091 184.738 11.2982 191.042C14.1254 194.639 17.4492 197.963 21.0374 200.787C31.6982 209.174 43.8019 214.773 56.8889 218.235C63.7517 220.048 70.7555 221.113 77.9104 220.598C81.0697 220.362 84.0786 219.877 86.8752 218.117C101.884 208.639 117.703 200.92 134.872 196.114C136.561 195.651 138.228 195.079 139.32 194.724C139.976 191.496 140.494 188.909 141.188 185.414C139.846 179.891 140.748 177.159 147.485 167.905L147.431 167.903ZM140.283 196.085C139.96 196.071 139.745 196.061 139.528 196.106C126.598 199.997 114.006 204.765 101.772 210.545C87.7228 217.213 76.0858 226.518 67.403 239.588C64.6332 243.771 60.8958 247.318 57.5249 251.097C54.9174 254.049 52.0766 256.803 49.5999 259.841C43.9307 266.882 40.8263 274.952 40.6369 284.04C40.5045 290.036 42.5944 295.081 47.27 298.869C52.2561 302.939 57.9328 305.399 64.4477 305.958C73.617 306.743 82.8263 307.234 91.679 310.293C94.3291 311.218 97.4251 311.194 100.309 311.107C106.184 310.912 111.456 308.563 116.455 305.69C128.774 298.596 139.138 289.476 146.209 276.953C148.955 272.097 150.744 266.982 150.863 261.282C150.907 258.485 151.408 255.681 152.015 252.936C155.723 236.146 163.873 221.734 175.572 209.229C176.053 208.712 176.429 208.11 176.916 207.459C173.949 207.004 171.304 206.563 168.628 206.229C167.397 206.066 166.161 206.011 164.919 206.117C155.084 206.971 146.76 204.125 140.285 196.032L140.283 196.085ZM204.473 179.082C205.641 176.443 206.381 174.322 207.49 172.38C208.599 170.438 210.102 168.729 211.394 166.902C211.594 166.642 211.716 166.325 211.864 166.008C215.683 158.212 221.244 151.785 227.562 145.904C230.426 143.232 233.059 140.308 235.665 137.383C241.931 130.234 243.495 121.719 243.016 112.52C242.629 105.505 240.965 98.7569 239.302 91.9816C236.862 82.1035 236.411 72.2871 238.553 62.2633C239.944 55.7854 240.456 49.1338 239.65 42.4504C239.277 39.3388 238.126 36.7847 235.146 35.414C233.116 34.4624 231.058 33.5364 228.938 32.7961C223.37 30.9065 218.67 31.9083 214.823 36.7159C211.145 41.3426 208.151 46.3228 205.917 51.7674C204.288 55.7049 202.685 59.6704 200.951 63.5763C198.827 68.353 195.461 72.0247 190.905 74.6208C188.474 76.0197 186.067 77.5003 183.686 78.9822C179.256 81.7722 176.231 85.6476 174.316 90.5681C170.392 100.728 168.067 111.228 167.049 122.002C166.651 126.102 167.029 130.317 167.547 134.404C168.744 143.769 174.034 151.298 179.272 158.771C179.93 159.715 181.199 160.229 182.219 160.894C184.496 162.341 186.973 163.527 188.996 165.232C191.591 167.393 194.163 169.472 197.045 171.242C199.087 172.518 200.665 174.552 202.39 176.298C203.059 177 203.587 177.831 204.476 179.028L204.473 179.082ZM148.57 72.8165C148.421 71.3296 148.378 69.8744 148.117 68.4902C147.164 63.8995 147.151 59.3507 148.323 54.8007C149.331 50.8894 150.287 46.9489 151.455 43.0985C152.841 38.5581 153.017 33.9908 151.711 29.4919C151.152 27.5293 150.146 25.3316 148.67 24.0278C145.667 21.3643 142.386 18.9037 138.864 16.9975C134.449 14.6209 129.797 15.1405 125.91 18.4123C123.896 20.1258 122.105 22.2797 120.712 24.5323C119.086 27.205 118.194 30.3141 116.673 33.0453C115.443 35.2781 114.124 37.7222 112.173 39.2232C105.371 44.4914 100.309 51.2095 95.7127 58.3251C89.2942 68.2932 85.7711 79.1167 85.5881 91.0848C85.4751 99.665 87.6006 107.537 91.9023 114.888C96.654 123.012 102.827 130.042 109.365 136.738C111.244 138.652 113.375 140.362 115.595 141.887C125.728 148.824 135.776 155.865 145.023 163.974C146.265 165.079 147.679 165.976 149.11 167.063C155.643 161.783 163.026 159.178 171.255 158.71C171.041 158.081 171.026 157.812 170.869 157.697C170.196 157.102 169.495 156.532 168.794 155.963C159.295 148.058 150.974 139.102 144.392 128.582C137.107 116.901 133.278 104.377 134.626 90.4156C135.522 81.1706 139.306 75.9834 148.542 72.8421L148.57 72.8165ZM288.02 212.729C287.951 211.865 287.849 210.515 287.775 209.166C287.34 202.014 283.885 196.801 277.51 193.691C274.691 192.328 271.695 191.333 268.725 190.34C264.934 189.041 261.519 187.166 258.713 184.296C256.989 182.524 255.125 180.853 253.596 178.928C248.699 172.87 242.627 168.401 235.705 164.89C226.546 160.257 215.86 162.714 210.15 171.261C208.595 173.56 207.481 176.202 206.451 178.793C203.144 187.177 199.678 195.501 194.348 202.799C191.281 206.995 188.984 211.441 188.141 216.463C186.603 225.626 188.321 234.18 195.688 240.402C202.846 246.453 211.01 251.069 219.945 254.104C222.066 254.818 224.574 254.714 226.87 254.52C230.518 254.198 233.308 251.981 235.916 249.621C243.125 243.052 251.506 239.173 261.268 238.128C264.594 237.765 267.963 237.053 271.084 235.874C280.884 232.165 287.409 224.032 288.074 212.732L288.02 212.729ZM193.987 201.222C193.832 201.08 193.678 200.912 193.523 200.771C191.043 202.06 188.681 203.731 186.033 204.582C180.599 206.331 176.801 210.038 173.306 214.188C167.649 220.96 162.986 228.369 159.292 236.386C152.472 251.127 150.438 266.592 153.742 282.456C156.426 295.305 161.489 307.319 168.253 318.6C170.257 321.946 171.9 325.545 173.298 329.213C175.225 334.278 177.1 339.314 180.32 343.763C182.88 347.322 186.067 350.074 190.283 351.5C194.126 352.828 196.721 351.975 198.945 348.575C201.053 345.359 201.375 341.74 200.322 338.195C199.318 334.759 197.823 331.463 196.299 328.219C193.448 322.118 189.887 316.28 187.583 309.988C183.766 299.618 184.651 289.403 190.884 279.992C193.249 276.437 195.902 273.057 198.345 269.559C200.414 266.61 202.589 263.72 204.29 260.566C206.05 257.307 206.99 253.716 206.436 249.843C203.584 248.02 200.807 246.309 198.116 244.493C194.509 242.099 191.462 239.191 189.292 235.354C184.053 226.078 185.481 212.146 192.147 203.858C192.83 203.027 193.385 202.056 193.99 201.168L193.987 201.222ZM177.159 159.08C177.092 158.781 177.104 158.513 177.004 158.347C176.45 157.488 175.895 156.656 175.313 155.822C167.65 144.77 163.295 132.573 161.71 119.207C160.303 107.303 160.618 95.3946 161.122 83.4677C161.536 73.5553 161.896 63.6673 160.666 53.8163C159.857 47.2135 158.829 40.6817 156.006 34.5545C155.614 33.7027 155.056 32.9243 154.381 31.7639C154.129 32.587 153.954 32.9022 153.968 33.1988C154.234 38.7009 152.9 43.8895 151.243 49.0637C149.019 56.0966 147.759 63.2263 150.015 70.5932C150.321 71.5757 149.973 72.7444 149.919 73.953C148.906 74.3385 148.107 74.7605 147.264 74.9651C142.337 76.1991 139.072 79.4178 137.68 84.0925C136.541 87.9172 135.766 92.0273 135.803 96.0121C135.948 106.057 138.73 115.52 143.694 124.299C149.283 134.183 156.489 142.793 164.784 150.509C167.498 153.025 170.352 155.413 173.235 157.748C174.301 158.603 175.463 159.705 177.132 159.079L177.159 159.08ZM203.663 182.168C201.208 176.864 197.761 173.293 192.93 171.167C184.906 167.634 176.959 168.41 169.11 171.829C168.204 172.219 167.393 172.909 166.638 173.549C164.117 175.778 161.595 178.007 159.125 180.292C157.916 181.449 156.678 182.659 155.755 184.044C149.728 193.088 154.69 201.921 162.912 203.444C165.127 203.866 167.349 204.126 169.532 204.654C178.665 206.864 186.592 204.122 193.829 198.739C195.054 197.824 196.316 196.67 197.022 195.328C199.368 190.992 201.477 186.538 203.664 182.141L203.663 182.168ZM208.23 250.649C207.959 250.691 207.688 250.733 207.417 250.774C208.365 259.106 203.896 265.177 199.269 271.188C198.583 272.073 197.846 272.928 197.212 273.869C195.111 276.924 192.88 279.893 190.988 283.092C188.05 288.021 186.652 293.422 186.88 299.191C187.084 304.287 188.264 309.211 190.508 313.805C193.885 320.764 197.372 327.675 200.831 334.611C200.882 334.694 201.151 334.679 201.606 334.753C201.088 331.877 200.671 329.14 200.093 326.423C198.745 319.824 197.316 313.22 197.483 306.445C197.719 295.718 200.376 285.609 205.137 275.998C206.733 272.786 208.251 269.516 209.504 266.154C211.033 262.05 211.008 257.77 209.849 253.574C209.572 252.539 208.751 251.641 208.174 250.7L208.23 250.649ZM243.684 127.137C243.91 126.904 244.189 126.675 244.335 126.412C244.774 125.624 245.16 124.807 245.545 124.017C251.566 111.501 252.475 98.3276 250.196 84.8503C248.745 76.3351 246.941 67.8848 245.354 59.4173C244.505 54.9119 243.766 50.3577 242.917 45.8523C242.762 45.0919 242.308 44.3988 241.99 43.6849C241.433 44.7097 241.394 45.5962 241.354 46.4825C241.191 50.1623 241.214 53.8773 240.863 57.5218C240.39 62.1029 239.409 66.6074 238.909 71.1873C238.07 79.1431 239.692 86.8317 241.613 94.4797C244.311 105.204 246.253 115.974 243.71 127.165L243.684 127.137ZM187.96 166.747C185.511 163.112 178.162 160.74 173.492 160.451C163.267 159.807 154.574 163.43 147.265 170.425C144.426 173.152 142.976 176.693 142.108 180.476C141.641 182.501 141.848 184.502 143.813 186.312C144.675 186.296 145.924 186.648 146.805 186.203C149.636 184.875 152.522 183.524 155 181.669C158.371 179.101 161.488 176.172 164.528 173.186C167.286 170.482 170.589 168.826 174.277 168.21C178.777 167.469 183.337 167.214 187.96 166.747ZM283.273 195.428C279.238 187.524 274.024 180.725 266.716 175.61C260.19 171.067 246.928 166.089 242.591 166.784C247.625 169.781 251.369 173.957 255.056 178.185C256.822 180.229 258.613 182.3 260.693 183.954C262.849 185.691 265.226 187.304 267.763 188.359C272.995 190.53 278.56 191.881 283.274 195.401L283.273 195.428ZM228.542 256.263C228.888 256.333 229.315 256.432 229.743 256.478C237.18 257.482 243.988 255.686 250.324 251.824C257.986 247.159 265.676 242.496 273.312 237.803C274.391 237.151 275.343 236.332 276.344 235.597C271.349 237.769 266.285 239.078 261.036 239.705C251.566 240.845 243.528 244.874 236.387 251.122C234.063 253.145 231.228 254.553 228.514 256.289L228.542 256.263ZM214.474 34.2782C210.972 36.1676 208.58 38.5102 206.705 41.3333C204.541 44.6011 202.559 48.0115 200.709 51.4816C198.359 55.8984 195.543 59.9175 191.892 63.3344C187.258 67.6763 183.74 72.9292 180.46 78.3003C180.17 78.7718 180.117 79.3615 179.894 80.1321C183.884 77.5646 187.542 75.1977 191.279 72.8612C194.713 70.6996 197.318 67.8013 199.119 64.2214C200.24 62.0106 201.308 59.7706 202.191 57.4685C205.234 49.5839 208.698 41.9065 214.262 35.3991C214.376 35.2696 214.36 35.0267 214.502 34.2525L214.474 34.2782ZM151.147 188.414C149.729 186.414 148.303 187.615 146.925 187.742C145.412 187.863 143.905 187.877 142.396 187.917C140.606 191.847 141.234 195.266 144.328 198.311C146.777 200.734 149.719 202.346 153.014 203.3C154.741 203.807 156.414 204.904 158.868 204.206C152.471 200.396 151.337 194.425 151.174 188.416L151.147 188.414Z" fill="#C89663"/>
</g>
</g>
<defs>
<clipPath id="clip0_2_5806">
<rect width="300.499" height="373.208" fill="white" transform="translate(0 345.046) rotate(-87.4504)"/>
</clipPath>
<clipPath id="clip1_2_5806">
<rect width="344.844" height="299.988" fill="white" transform="translate(0 345.046) rotate(-87.4504)"/>
</clipPath>
</defs>
</svg>
