<svg width="241" height="619" viewBox="0 0 241 619" fill="none" xmlns="http://www.w3.org/2000/svg">
<g opacity="0.4" clip-path="url(#clip0_2_723)">
<path d="M152.158 359.739C152.408 359.068 152.564 358.366 152.908 357.741C154.283 355.213 155.767 352.763 157.126 350.219C162.187 340.73 165.468 330.492 169.451 320.566C172.154 313.839 174.544 306.988 177.262 300.277C184.839 281.533 196.103 265.239 210.287 250.881C219.754 241.298 229.19 231.684 237.876 221.368C238.61 220.494 239.297 219.433 241 219.62C240.938 220.167 241 220.728 240.813 221.212C240.047 223.304 239.313 225.395 238.407 227.424C231.846 242.266 226.565 257.561 221.223 272.855C219.629 277.413 217.864 281.923 216.161 286.433C211.568 298.716 204.257 309.188 194.915 318.318C190.51 322.626 185.839 326.606 180.918 330.304C178.309 332.271 175.731 334.284 173.138 336.266C165.202 342.353 158.75 349.751 153.611 358.303C153.283 358.849 152.908 359.38 152.564 359.911C152.439 359.848 152.299 359.801 152.174 359.739H152.158ZM229.83 233.838C229.565 234.431 229.33 235.024 229.034 235.586C225.409 242.172 221.723 248.712 218.145 255.329C213.865 263.257 209.694 271.264 205.429 279.207C197.805 293.41 188.338 306.442 179.121 319.614C173.388 327.807 167.53 335.907 161.734 344.07C161.344 344.616 161.047 345.209 160.703 345.786C161.187 345.833 161.422 345.724 161.578 345.552C166.749 339.669 172.998 335.018 179.121 330.226C183.699 326.637 188.229 322.985 192.494 319.021C199.211 312.762 205.195 305.833 209.662 297.733C213.459 290.835 216.302 283.531 218.895 276.133C225.191 258.138 231.455 240.112 239.25 222.679C239.407 222.352 239.5 221.993 239.61 221.634C238.938 221.899 238.469 222.305 238.094 222.789C235.751 225.941 233.439 229.094 231.111 232.246C230.69 232.808 230.237 233.354 229.783 233.901C230.08 233.167 230.377 232.434 230.83 231.294C230.268 231.809 230.065 231.965 229.893 232.153C223.41 238.879 216.973 245.668 210.428 252.332C195.712 267.315 184.433 284.514 176.872 304.116C172.357 315.806 167.811 327.495 163.296 339.2C163.187 339.481 163.171 339.778 163.109 340.074C163.234 340.152 163.375 340.23 163.5 340.308C163.687 339.965 163.843 339.606 164.062 339.278C169.811 331.178 175.622 323.125 181.293 314.963C188.135 305.084 195.29 295.376 201.164 284.857C207.85 272.871 214.177 260.698 220.754 248.665C223.3 244.03 226.128 239.55 228.846 235.009C229.112 234.572 229.518 234.228 229.846 233.854L229.83 233.838Z" fill="#C89663"/>
<path d="M44.3818 188.546C44.9911 188.499 45.6003 188.406 46.2096 188.437C49.4121 188.562 52.6146 188.749 55.8171 188.843C61.5035 189.014 67.2055 188.936 72.8763 189.326C81.5308 189.92 90.2323 190.591 98.6056 193.025C115.618 197.988 129.115 207.727 138.223 223.084C141.113 227.954 143.659 233.057 146.206 238.129C148.112 241.922 149.705 245.855 151.502 249.71C153.704 254.423 154.798 259.448 155.891 264.489C156.657 267.985 157.641 271.434 158.516 274.915C159.047 277.068 159.578 279.207 160.078 281.376C160.187 281.829 160.078 282.344 159.844 282.859C159.656 282.328 159.438 281.813 159.281 281.267C153.064 259.87 141.347 242.421 122.585 229.951C109.604 221.336 95.9968 213.814 82.3276 206.385C70.5955 200.002 58.5509 194.352 45.9128 190.013C45.3347 189.81 44.8036 189.514 44.2412 189.264C44.2881 189.03 44.3193 188.796 44.3662 188.562L44.3818 188.546ZM53.1926 191.121C53.1614 191.215 53.1301 191.309 53.1145 191.418C53.4425 191.59 53.7394 191.792 54.083 191.917C65.4715 196.084 76.1413 201.781 86.7798 207.54C99.0274 214.173 111.15 221.009 122.773 228.718C136.02 237.521 146.456 248.804 153.392 263.194C153.611 263.647 153.892 264.068 154.189 264.583C154.314 264.302 154.407 264.193 154.392 264.084C154.376 263.756 154.329 263.444 154.251 263.116C151.861 253.393 147.768 244.528 141.16 236.928C132.786 227.298 123.288 218.948 112.619 211.941C102.355 205.199 91.5601 199.502 79.5937 196.428C72.5951 194.633 65.4558 193.384 58.3635 191.917C56.6607 191.574 54.9266 191.387 53.2082 191.121H53.1926ZM146.19 241.828C146.284 241.766 146.393 241.703 146.487 241.656C146.299 241.188 146.128 240.704 145.94 240.236C143.378 234.212 140.301 228.469 136.833 222.913C127.069 207.228 112.947 197.645 95.1376 193.306C92.0444 192.557 88.8575 192.073 85.6863 191.714C80.7654 191.137 75.8132 190.637 70.8767 190.341C65.7214 190.044 60.5505 190.044 55.3953 189.873C53.7706 189.826 52.1615 189.685 50.5369 189.576C55.3484 190.716 60.2069 191.543 65.0497 192.37C73.4855 193.821 81.8433 195.632 89.7792 198.909C111.962 208.102 130.693 221.914 145.472 240.923C145.706 241.219 145.956 241.516 146.206 241.812L146.19 241.828Z" fill="#C89663"/>
<path d="M110.104 143.973C101.387 144.395 93.2631 142.288 85.5615 138.246C76.8445 133.673 68.8148 128.101 61.3006 121.749C55.1456 116.537 49.2405 111.027 43.7728 105.081C42.1325 103.286 40.6171 101.382 39.0549 99.5094C39.1643 99.4158 39.2736 99.3222 39.383 99.2285C39.9141 99.8684 40.414 100.539 40.9764 101.148C53.9114 115.116 68.0024 127.664 84.8429 136.826C89.8888 139.572 95.1534 141.82 100.871 142.756C103.933 143.271 107.042 143.583 110.104 143.989V143.973Z" fill="#C89663"/>
<path d="M126.085 138.651C125.71 138.869 125.351 139.088 124.601 139.525C125.132 138.229 125.632 137.355 125.851 136.419C126.554 133.454 127.46 130.488 127.694 127.476C127.975 123.84 127.788 120.157 127.553 116.505C126.85 105.158 123.304 94.4052 120.664 83.4336C121.695 86.6018 122.882 89.7232 123.695 92.9538C125.257 99.0561 126.882 105.158 127.944 111.37C128.85 116.598 129.194 121.905 128.694 127.273C128.319 131.222 127.538 135.014 126.069 138.682L126.101 138.651H126.085Z" fill="#C89663"/>
<path d="M121.758 108.343C116.93 89.5987 109.135 72.119 100.105 55.1387C110.025 71.7756 118.118 89.1773 121.758 108.343Z" fill="#C89663"/>
<path d="M142.535 123.855C142.722 123.387 142.863 122.903 143.097 122.466C145.269 118.284 146.409 113.805 147.081 109.169C147.69 105.018 148.034 100.835 147.831 96.637C147.549 90.8 147.112 84.963 146.753 79.1261C146.721 78.5954 146.753 78.0648 147.065 77.5186C147.44 81.1394 147.94 84.7445 148.143 88.3653C148.409 93.2815 148.565 98.2133 148.549 103.129C148.549 108.607 147.596 113.976 145.675 119.127C145.019 120.89 144.347 122.701 142.972 124.058L142.535 123.84V123.855Z" fill="#C89663"/>
<path d="M117.368 140.961C109.729 141.991 102.808 139.947 96.3875 136.061C89.1233 131.644 82.687 126.166 76.8132 120.048C76.6569 119.876 76.5164 119.674 76.4851 119.424C79.219 121.812 81.8591 124.34 84.7335 126.572C88.4672 129.459 92.2945 132.237 96.2313 134.843C100.715 137.809 105.698 139.65 111.025 140.478C113.119 140.805 115.259 140.821 117.383 140.961H117.368Z" fill="#C89663"/>
<path d="M34.7588 72.2441C34.7588 72.2441 34.8838 72.1973 34.9463 72.1973C35.0087 72.1973 35.0868 72.1973 35.1337 72.2129C35.2431 72.2753 35.368 72.3377 35.4618 72.4314C35.6024 72.5718 35.7117 72.7435 35.8211 72.8996C39.8515 79.4389 44.7412 85.3383 49.7559 91.1284C52.6147 94.4215 55.5672 97.6521 58.6135 101.07C51.8961 96.3724 35.0556 75.9585 34.7744 72.2285L34.7588 72.2441Z" fill="#C89663"/>
<path d="M92.0759 96.5908C99.3713 108.749 105.433 121.718 115.431 132.112C115.306 132.221 115.181 132.315 115.056 132.424C113.447 130.707 111.76 129.053 110.213 127.258C105.136 121.375 101.355 114.632 97.6217 107.875C95.6064 104.223 93.7005 100.493 91.7478 96.8093C91.8572 96.7313 91.9665 96.6532 92.0759 96.5752V96.5908Z" fill="#C89663"/>
<path d="M150.065 62.1303C146.471 49.6292 142.863 37.1125 139.27 24.6113C144.034 36.7847 147.924 49.2078 150.533 62.0055L150.065 62.1303Z" fill="#C89663"/>
<path d="M124.944 7.08494C125.351 9.97222 125.694 12.8595 126.147 15.7156C126.632 18.6653 127.147 21.615 127.788 24.5178C128.428 27.3739 129.225 30.1831 130.006 32.9924C130.787 35.8485 131.631 38.7045 132.505 41.7479C128.569 35.2242 123.085 10.893 124.944 7.06934V7.08494Z" fill="#C89663"/>
<path d="M81.2967 81.873C87.8892 95.1389 94.1223 108.576 102.855 120.656C102.699 120.797 102.558 120.922 102.402 121.062C102.136 120.656 101.886 120.219 101.59 119.829C96.8093 113.571 92.7945 106.844 89.3576 99.7742C86.5144 93.9372 83.7493 88.0378 80.953 82.1696C81.0624 82.0759 81.1873 81.9667 81.2967 81.873Z" fill="#C89663"/>
<path d="M66.9088 98.791C71.3923 103.426 75.7352 108.202 80.3906 112.65C85.0459 117.082 90.0137 121.203 95.1377 125.713C83.968 118.19 74.876 109.045 66.8932 98.791H66.9088Z" fill="#C89663"/>
<path d="M74.0325 47.2256C74.2668 48.5834 74.4699 49.9568 74.7511 51.299C75.8446 56.4024 77.938 61.1469 79.922 65.9383C81.4841 69.7151 83.1401 73.4452 84.5304 77.3313C84.0305 76.4261 83.4994 75.5365 83.0307 74.6157C79.4377 67.6238 76.2664 60.4602 74.0793 52.8909C73.5482 51.0805 73.0483 49.2077 73.5794 47.3036C73.7357 47.2724 73.8919 47.2412 74.0481 47.2256H74.0325Z" fill="#C89663"/>
<path d="M49.3029 132.721C59.8321 133.798 70.2519 135.499 80.0625 139.666C80.0156 139.853 79.9688 140.04 79.9219 140.212C76.6413 139.213 73.3919 138.136 70.0801 137.247C66.6276 136.326 63.1127 135.592 59.6134 134.828C56.1921 134.078 52.7397 133.407 49.3029 132.705V132.721Z" fill="#C89663"/>
<path d="M126.054 138.667C129.49 135.795 130.725 131.862 131.443 127.648C132.365 122.264 132.958 116.864 132.724 111.386C133.568 118.596 133.099 125.26 131.349 132.08C130.756 134.39 129.678 136.404 128.006 138.12C127.428 138.713 126.866 138.979 126.085 138.635L126.054 138.667Z" fill="#C89663"/>
<path d="M86.2957 143.942C79.2659 144.348 60.1602 140.946 57.8794 138.636C67.44 141.414 77.0475 142.413 86.2957 143.942Z" fill="#C89663"/>
<path d="M97.7153 22.2549C102.667 28.9346 105.542 36.6288 108.401 44.3386C104.714 37.019 101.699 29.356 96.903 22.5982L97.7153 22.2549Z" fill="#C89663"/>
<path d="M151.33 93.75C151.33 96.0442 151.471 98.354 151.299 100.633C151.017 104.456 150.643 108.28 150.111 112.088C149.736 114.679 148.752 116.505 147.487 117.691C148.893 113.836 149.955 109.919 150.268 105.83C150.564 101.803 150.783 97.7766 151.033 93.75C151.142 93.75 151.236 93.75 151.346 93.75H151.33Z" fill="#C89663"/>
<path d="M123.054 12.4853C123.492 19.6489 125.85 26.3287 127.631 33.1489C125.944 29.9338 125.007 26.4691 123.991 23.02C122.398 17.5732 122.007 13.9056 123.039 12.4697L123.054 12.4853Z" fill="#C89663"/>
<path d="M38.305 72.1035C41.5387 76.4891 44.7881 80.859 48.0218 85.2445C45.4442 83.559 38.2894 74.1792 37.9144 72.3532C38.0394 72.2752 38.1644 72.1816 38.305 72.1035Z" fill="#C89663"/>
<path d="M27.4946 83.2311C24.4015 79.9224 22.1519 76.1144 20.1523 72.1502C20.043 71.9317 20.1836 71.5728 20.2148 71.2918C20.3554 71.245 20.4804 71.1982 20.621 71.1514C22.9174 75.1779 25.1982 79.2045 27.4946 83.2311Z" fill="#C89663"/>
<path d="M20.4491 130.52C22.0113 128.99 28.0414 128.272 35.7899 128.678C30.6502 129.302 25.6043 129.911 20.4491 130.52Z" fill="#C89663"/>
<path d="M67.8773 134.625L53.2864 131.066C58.3791 131.238 63.2219 132.455 67.9554 134.188C67.9242 134.344 67.8929 134.484 67.8773 134.64V134.625Z" fill="#C89663"/>
<path d="M75.5478 65.5643C73.5482 62.1151 72.0641 58.5256 71.6423 54.6082C71.7986 54.5614 71.9392 54.5146 72.0954 54.4678C73.2514 58.1666 74.3918 61.8654 75.5478 65.5643Z" fill="#C89663"/>
<path d="M153.986 687C153.845 683.675 153.783 680.335 153.533 677.011C153.095 671.221 152.673 665.415 152.033 659.641C151.33 653.351 150.424 647.093 149.58 640.819C148.721 634.482 147.643 628.177 146.987 621.825C146.237 614.49 145.612 607.124 145.394 599.757C145.19 592.968 145.487 586.163 145.722 579.374C145.893 574.084 146.19 568.809 146.643 563.533C147.128 557.821 147.721 552.094 148.455 546.413C149.455 538.578 150.627 530.775 151.783 522.971C151.924 521.972 151.83 520.817 152.533 519.975C152.72 519.99 152.892 520.006 153.08 520.037C153.08 520.63 153.189 521.239 153.111 521.816C152.158 528.402 151.111 534.973 150.205 541.559C149.533 546.475 148.94 551.391 148.471 556.323C147.893 562.3 147.253 568.294 147.05 574.287C146.721 584.54 146.362 594.81 146.659 605.048C146.956 615.286 148.362 625.462 149.924 635.59C151.189 643.784 152.33 651.993 153.158 660.234C154.064 669.13 154.548 678.072 155.204 686.984H154.033L153.986 687Z" fill="#C89663"/>
<path d="M153.658 405.155C152.658 405.264 152.673 404.64 152.611 404.14C152.377 402.018 152.064 399.911 151.924 397.788C151.064 384.678 150.908 371.537 151.564 358.412C152.002 349.766 152.689 341.135 153.548 332.52C154.376 324.248 155.579 316.008 156.579 307.752C157.469 300.417 158.266 293.066 159.141 285.731C160.797 271.887 161.5 257.982 161.312 244.045C161.219 236.319 160.828 228.594 160.203 220.884C158.985 205.917 156.376 191.2 151.096 177.044C147.799 168.195 143.316 159.955 138.535 151.855C134.958 145.799 129.397 142.943 122.539 142.366C121.882 142.303 121.195 142.303 120.539 142.444C116.571 143.271 112.509 143.723 108.698 145.3C102.339 147.937 95.6532 148.546 88.8577 148.156C81.0311 147.703 73.4388 145.862 65.784 144.301C55.9734 142.303 46.1316 140.43 36.0398 140.821C27.4009 141.148 19.1837 143.318 11.279 146.782C9.5762 147.532 7.88903 148.374 6.13937 148.999C4.96772 149.404 3.68672 149.67 2.43697 149.685C0.296758 149.717 -0.624938 148.437 0.359246 146.564C1.49965 144.41 2.79627 142.241 4.43658 140.446C8.68575 135.78 14.0441 132.643 19.793 130.177C23.2298 128.694 26.7135 127.336 30.1503 125.885C35.8211 123.466 41.7262 122.888 47.8031 123.481C48.2874 123.528 48.7873 123.481 49.7403 123.481C48.9592 122.763 48.5218 122.311 48.0219 121.921C37.5239 113.618 29.3536 103.317 22.2769 92.0647C20.1679 88.6936 18.6213 85.0728 17.9652 81.1554C17.6371 79.1421 17.559 77.0196 17.809 75.0063C18.2308 71.5884 20.2929 69.8873 23.7453 69.6532C26.651 69.4503 29.463 70.0433 32.2124 70.8705C34.8057 71.6508 37.3833 72.119 40.1015 71.7601C44.7256 71.1514 48.9592 72.5872 53.0521 74.4757C60.4725 77.9092 66.3933 83.2311 71.5954 89.4271C71.9391 89.8329 72.2671 90.2542 72.6108 90.66C72.6889 90.7381 72.8451 90.7537 73.142 90.8629C73.0639 90.3479 73.0482 89.9109 72.9076 89.5207C68.9084 78.1745 69.0178 66.6254 71.1423 54.9671C72.2984 48.5838 73.9231 42.3255 77.0162 36.5665C81.0311 29.1064 87.108 24.2527 95.4657 22.4891C99.0744 21.7244 102.496 22.4579 105.651 24.3619C108.432 26.0319 110.822 28.1856 112.619 30.87C115.103 34.5845 117.399 38.4081 119.774 42.185C120.148 42.7937 120.492 43.418 120.867 44.0422C121.023 44.011 121.179 43.9642 121.336 43.933C121.226 43.2931 121.117 42.6376 121.008 41.9977C120.477 39.1105 119.805 36.2544 119.414 33.3515C118.555 26.9371 119.727 20.7411 121.601 14.6388C122.242 12.5319 122.726 10.3782 123.429 8.30244C124.023 6.53886 124.601 4.72846 125.554 3.15216C127.616 -0.265749 130.584 -0.921239 133.88 1.29494C135.349 2.29378 136.676 3.57355 137.848 4.91574C143.175 11.1117 145.972 18.4781 147.284 26.4377C147.784 29.4498 148.018 32.5399 148.034 35.5989C148.127 48.4746 149.611 61.1318 153.048 73.5549C155.11 80.9994 155.376 88.5531 154.173 96.1537C153.533 100.165 152.908 104.191 151.908 108.124C149.924 115.959 145.581 122.514 140.004 128.21C134.927 133.407 134.271 139.229 136.723 145.674C137.411 147.469 138.395 149.155 139.348 150.84C143.988 159.081 148.674 167.306 151.97 176.233C155.423 185.566 157.829 195.164 159.375 204.981C161.703 219.901 162.593 234.915 162.437 249.975C162.359 257.701 161.968 265.426 161.359 273.136C160.594 282.625 159.531 292.083 158.453 301.54C157.532 309.672 156.345 317.772 155.407 325.903C154.267 335.891 153.298 345.895 152.814 355.946C152.267 367.277 152.22 378.607 152.595 389.922C152.751 394.448 153.283 398.959 153.626 403.469C153.673 404.031 153.626 404.608 153.626 405.155H153.658ZM140.426 109.279C140.519 101.32 139.051 93.5317 135.88 86.056C134.755 83.4184 133.661 80.7653 132.662 78.0809C129.475 69.5283 126.335 60.9601 123.163 52.3919C120.555 45.3376 116.805 38.9076 112.556 32.7272C110.65 29.9648 108.401 27.5301 105.573 25.6729C102.199 23.4567 98.5589 22.8637 94.669 23.8625C91.0603 24.7833 87.8422 26.4533 84.9365 28.7943C80.8123 32.103 78.0941 36.3949 76.2039 41.2486C73.142 49.0833 71.7204 57.2457 71.0955 65.5954C70.4862 73.7734 71.5485 81.6861 74.2355 89.3959C77.5005 98.7756 82.0777 107.469 87.9203 115.506C92.9037 122.358 98.8088 128.273 105.761 133.126C108.776 135.233 111.994 136.966 115.524 138.089C120.961 139.822 125.991 139.119 130.709 135.78C134.005 133.439 136.114 130.333 137.551 126.65C139.723 121.109 140.504 115.335 140.426 109.263V109.279ZM120.039 140.992L119.977 140.399C119.617 140.29 119.258 140.165 118.899 140.071C117.227 139.65 115.493 139.354 113.868 138.792C109.604 137.309 105.854 134.89 102.293 132.159C91.7634 124.059 84.0617 113.696 78.1879 101.913C74.298 94.0936 69.1271 87.3358 62.3784 81.7953C58.9572 78.9861 55.2548 76.6138 51.1619 74.9127C47.8812 73.5549 44.4913 72.4 40.867 72.8994C37.4614 73.3676 34.2433 72.7589 31.0252 71.7601C28.6038 71.0109 26.0886 70.5896 23.5266 70.8549C20.9646 71.1202 19.3868 72.3688 19.0275 74.8971C18.7619 76.7699 18.7619 78.7676 19.0587 80.6404C19.6836 84.5577 21.2458 88.1785 23.3391 91.5652C33.4778 107.952 46.4597 121.437 63.2533 131.144C72.0484 136.232 81.281 140.087 91.2478 142.132C99.3712 143.802 107.526 144.145 115.665 142.272C117.133 141.929 118.571 141.445 120.023 141.039L120.039 140.992ZM139.082 126.525C139.192 126.603 139.301 126.681 139.41 126.774C139.77 126.525 140.207 126.322 140.488 125.994C144.378 121.546 147.674 116.739 149.752 111.152C151.627 106.111 152.439 100.851 153.158 95.5606C154.126 88.3502 153.876 81.2179 152.048 74.1323C150.955 69.8716 149.94 65.5954 149.127 61.2722C147.549 53.0006 147.081 44.6197 146.956 36.2076C146.862 30.4642 146.284 24.7833 144.394 19.2897C142.691 14.3267 140.504 9.62902 136.958 5.69609C135.645 4.22904 134.099 2.88684 132.427 1.84118C130.475 0.639451 128.709 1.06084 127.288 2.88684C126.444 3.96372 125.71 5.22788 125.288 6.53886C123.945 10.7215 122.757 14.951 121.57 19.1804C121.273 20.2573 121.164 21.4122 121.101 22.5359C120.789 28.2481 121.851 33.6949 124.46 38.7827C126.069 41.9197 127.819 44.9943 129.6 48.0532C134.146 55.8723 137.754 64.0815 139.91 72.8994C141.441 79.1421 142.379 85.4317 141.894 91.893C141.472 97.4802 141.363 103.052 141.613 108.655C141.863 114.211 141.144 119.689 139.41 125.011C139.254 125.495 139.192 126.025 139.082 126.525ZM0.921636 148.109C2.87438 149.045 4.15538 148.936 6.10813 147.828C10.2948 145.456 14.4659 143.084 18.6369 140.727C23.0111 138.245 27.5883 136.295 32.4155 134.89C39.0548 132.955 45.5692 133.048 51.9586 135.858C54.3956 136.934 56.8951 137.887 59.254 139.135C68.7991 144.16 78.969 146.814 89.7169 147.329C94.669 147.563 99.59 147.219 104.402 145.893C105.042 145.721 105.651 145.44 106.276 145.206C106.229 145.066 106.198 144.91 106.151 144.769C105.511 144.722 104.87 144.66 104.23 144.66C96.6843 144.644 89.3888 143.224 82.2183 140.945C72.5327 137.871 63.6282 133.22 55.3485 127.383C53.099 125.791 50.6776 124.824 47.975 124.527C42.3979 123.887 36.9146 124.34 31.65 126.431C27.6196 128.039 23.6203 129.693 19.6211 131.394C15.7937 133.017 12.2319 135.108 8.96695 137.668C6.06126 139.947 3.43677 142.506 1.76522 145.862C1.42154 146.548 1.20283 147.297 0.890392 148.109H0.921636ZM121.039 30.87C120.867 30.87 120.695 30.8856 120.508 30.9012C120.57 31.9469 120.523 33.0082 120.695 34.0382C121.055 36.3324 121.414 38.6579 121.976 40.9052C125.46 55.0295 130.178 68.7479 135.583 82.2635C137.208 86.3369 138.551 90.5352 140.035 94.671C140.145 94.9831 140.332 95.2797 140.535 95.6855C140.738 95.4045 140.863 95.2953 140.863 95.186C141.254 90.1294 141.332 85.0884 140.504 80.0473C138.629 68.6543 134.536 58.104 128.709 48.1781C125.507 42.7156 122.336 37.222 121.039 30.8856V30.87ZM16.153 143.411C16.3874 143.489 16.528 143.583 16.6217 143.552C17.7152 143.255 18.8088 142.959 19.8867 142.631C28.4788 140.009 37.2583 139.213 46.1628 140.243C51.7867 140.899 57.3482 141.913 62.9564 142.74C63.4407 142.818 63.925 142.818 64.4093 142.85C64.4718 142.74 64.5343 142.615 64.5811 142.506C64.4093 142.413 64.2218 142.319 64.0344 142.241C59.0353 140.04 54.0988 137.715 49.0373 135.702C45.2568 134.203 41.2575 134.047 37.2271 134.734C29.8066 135.982 23.1048 138.995 16.7311 142.85C16.528 142.974 16.3561 143.177 16.1374 143.396L16.153 143.411Z" fill="#C89663"/>
<path d="M156.579 446.03C156.126 445.296 154.845 435.339 154.845 432.436C154.845 431.983 155.001 431.546 155.36 431.094C156.454 435.464 156.766 439.896 157.063 444.313C157.094 444.89 157.391 445.639 156.579 446.03Z" fill="#C89663"/>
</g>
<defs>
<clipPath id="clip0_2_723">
<rect width="241" height="619" fill="white"/>
</clipPath>
</defs>
</svg>
