<svg width="570" height="548" viewBox="0 0 570 548" fill="none" xmlns="http://www.w3.org/2000/svg">
<g opacity="0.4" clip-path="url(#clip0_2_803)">
<path d="M205.541 401.974C201.88 406.569 198.854 410.795 195.422 414.618C190.064 420.604 184.056 425.926 176.659 429.232C173.692 430.549 170.345 431.299 167.119 431.73C159.201 432.774 151.232 433.623 143.276 434.289C139.685 434.576 135.981 434.625 132.422 434.108C123.247 432.751 116.56 427.873 112.753 419.25C107.558 407.48 106.557 395.657 111.927 383.666C114.649 377.601 118.838 372.57 123.497 367.954C132.513 359.026 142.316 350.953 152.888 343.951C157.246 341.057 162.335 339.262 167.094 337.007C167.917 336.619 168.771 336.355 170.068 335.859C169.26 335.541 168.92 335.35 168.564 335.258C150.209 330.638 134.239 321.584 121.024 308.209C110.589 297.619 102.571 285.267 99.0191 270.494C97.9032 265.907 97.3484 261.294 98.2552 256.618C98.5566 255.098 98.9292 253.557 99.5018 252.132C101.726 246.424 105.963 244.168 111.889 245.884C114.641 246.691 117.244 248.097 119.762 249.507C122.814 251.257 125.675 253.347 128.672 255.223C131.977 257.285 135.557 258.801 139.458 258.987C146.036 259.309 151.452 262.174 156.32 266.213C162.446 271.32 168.339 276.709 174.465 281.816C179.023 285.586 183.601 289.341 188.533 292.582C192.917 295.462 197.793 297.613 202.483 300.071C202.995 300.341 203.644 300.397 204.468 300.212C203.835 299.652 203.245 299.032 202.574 298.5C193.1 291.392 186.212 282.111 180.436 271.915C173.64 259.933 169.951 246.909 167.562 233.474C166.305 226.468 166.321 219.418 167.214 212.377C168.035 205.966 170.315 200.132 174.117 194.886C174.84 193.874 175.597 192.868 176.482 192.002C181.38 187.273 185.488 186.818 191.395 190.286C193.362 191.453 195.291 192.647 197.253 193.847C201.07 196.178 205.13 196.829 209.525 195.965C213.186 195.251 216.9 194.731 220.564 194.102C232.101 192.084 240.412 197.449 247.323 205.874C252.674 212.405 255.695 220.174 258.256 228.069C263.094 243.02 265.358 258.34 264.394 274.092C264.333 274.976 264.455 275.874 264.52 277.015C266.205 275.082 267.664 273.398 269.137 271.734C271.971 268.572 275.655 267.001 279.749 266.325C281.276 266.069 282.85 265.839 284.388 265.923C289.573 266.202 293.823 263.965 297.966 261.254C320.096 246.687 336.855 227.138 350.511 204.716C357.511 193.179 364.311 181.525 371.298 169.969C377.61 159.534 385.303 150.135 393.777 141.422C397.231 137.873 401.226 134.835 405.004 131.575C409.866 127.364 414.729 123.152 419.647 119.017C420.708 118.112 421.576 116.534 423.794 117.202C422.399 119.419 420.537 120.783 418.785 122.3C410.059 129.977 401.151 137.438 392.697 145.412C384.757 152.931 378.366 161.801 372.69 171.143C365.384 183.102 358.399 195.265 351.032 207.181C343.388 219.556 334.839 231.277 324.478 241.604C317.107 248.946 309.273 255.723 300.575 261.498C299.552 262.173 298.584 262.925 297.804 264.18C298.972 263.951 300.168 263.759 301.314 263.458C314.733 260.063 326.037 264.671 336.404 272.702C339.425 275.055 340.684 278.67 340.575 282.397C340.471 285.89 339.727 289.378 339.059 292.811C338.776 294.317 338.034 295.747 337.41 297.18C334.333 304.368 331.791 311.694 329.945 319.303C328.155 326.669 325.073 333.485 319.939 339.136C317.015 342.334 313.606 345.097 310.391 348.011C309.656 348.683 308.765 349.177 307.482 350.097C309.011 350.652 309.945 351.025 310.908 351.318C318.686 353.676 324.885 358.238 330.347 364.198C337.912 372.443 342.578 382.102 345.565 392.733C347.861 400.905 350.152 409.11 353.643 416.888C355.071 420.093 356.399 423.398 357.225 426.774C358.763 433.202 356.42 438.3 351.157 442.277C344.218 447.514 336.998 448.115 329.254 444.227C324.514 441.862 320.45 438.579 317.279 434.481C312.059 427.768 307.151 420.803 302.358 413.756C300.577 411.151 299.538 408.045 297.879 404.6C297.632 405.791 297.381 406.492 297.333 407.193C296.704 416.217 294.413 424.783 290.295 432.862C287.624 438.109 286.193 443.712 285.468 449.531C284.852 454.492 284.307 459.43 283.559 464.369C282.018 474.424 277.534 483.084 270.596 490.464C269.202 491.956 267.414 493.18 265.658 494.208C262.678 495.911 259.4 495.018 257.123 492.046C254.416 488.513 253.04 484.373 251.983 480.149C251.349 477.65 250.852 475.138 250.213 472.266C248.895 473.298 247.856 474.072 246.872 474.923C243.966 477.499 240.603 477.941 236.942 477.12C231.687 475.936 227.341 473.028 223.851 469.131C208.072 451.453 201.746 430.791 204.799 407.285C205.019 405.65 205.251 404.035 205.527 401.955L205.541 401.974ZM260.559 301.52C259.377 294.779 260.35 288.376 261.817 281.936C262.649 278.327 263.057 274.53 263.095 270.825C263.287 255.655 261.027 240.824 255.929 226.522C252.932 218.1 249.492 209.908 242.819 203.514C237.079 198.015 230.654 194.512 222.414 195.672C218.304 196.244 214.19 196.732 210.113 197.513C205.179 198.474 200.621 197.775 196.319 195.212C194.352 194.045 192.423 192.85 190.456 191.683C184.688 188.289 181.575 189.363 176.899 193.875C176.158 194.58 175.62 195.487 175.022 196.351C171.638 201.21 169.553 206.587 168.771 212.448C167.898 219.07 167.796 225.718 168.901 232.311C171.419 247.217 175.673 261.515 183.533 274.618C188.339 282.612 194.233 289.537 201.116 295.78C207.454 301.546 214.802 304.155 223.203 304.27C224.196 304.282 225.203 303.907 226.161 303.626C229.531 302.628 232.822 300.992 236.267 300.665C242.22 300.074 248.248 300.154 254.262 300.215C256.268 300.224 258.281 301.01 260.513 301.495L260.559 301.52ZM251.032 469.448C251.434 471.1 251.696 472.071 251.925 473.037C252.622 476.07 253.229 479.14 254.055 482.11C254.994 485.52 256.398 488.771 258.732 491.5C260.487 493.543 262.431 494.032 264.83 492.891C265.929 492.363 267.111 491.747 267.917 490.85C270.461 488.012 272.936 485.079 275.304 482.077C276.946 480.001 277.561 477.504 277.915 474.846C278.665 469.182 278.21 463.658 276.575 458.226C275.785 455.549 274.924 452.893 274.082 450.224C271.584 442.255 270.977 434.175 272.541 425.928C273.923 418.681 276.981 412.115 280.436 405.698C282.698 401.497 285.04 397.327 287.27 393.121C289.432 389.022 290.596 384.625 290.871 379.996C291.036 377.155 290.837 374.372 289.47 371.819C284.679 362.917 279.227 354.546 271.289 348.045C270.415 347.31 269.56 346.562 268.787 345.727C267.479 344.348 266.267 342.9 265.227 341.733C262.882 345.819 260.836 350.038 258.201 353.84C254.072 359.842 248.286 364.223 241.966 367.655C236.037 370.864 229.659 372.802 222.907 369.651C222.767 369.577 222.51 369.704 222.302 369.737C218.186 373.616 214.853 378.062 212.713 383.362C207.898 395.36 205.175 407.768 205.516 420.731C205.971 438.218 212.504 453.43 223.529 466.783C226.903 470.881 231.194 474.117 236.515 475.515C240.735 476.63 244.528 476.14 247.481 472.458C248.328 471.416 249.531 470.669 251.005 469.41L251.032 469.448ZM217.017 329.067C213.45 330.033 210.27 330.894 206.878 331.821C204.584 333.958 202.624 337.246 198.391 336.517L196.293 333.59C189.824 333.624 183.426 334.36 177.138 335.655C166.397 337.854 156.632 342.222 148.092 349.186C142.458 353.777 136.796 358.33 131.236 362.984C125.575 367.739 120.42 372.999 116.302 379.138C107.22 392.661 107.861 412.389 117.897 424.684C123.064 431 129.758 433.788 137.826 431.217C142.242 429.817 146.528 427.873 150.694 425.841C156.287 423.133 161.828 421.766 168.102 423.523C176.263 425.809 183.684 423.064 189.885 418.01C194.075 414.599 197.438 410.073 200.754 405.725C204.22 401.183 206.692 396.022 208.46 390.525C210.789 383.265 213.789 376.335 219.306 370.814C220.014 370.103 220.662 369.349 221.337 368.633C220.991 368.07 220.796 367.718 220.568 367.36C218.598 364.37 218.481 362.832 220.866 360.137C222.175 358.648 223.966 357.306 225.818 356.615C229.109 355.384 230.797 352.929 232.229 350.279C229.873 348.812 227.703 347.443 225.226 345.888C222.078 346.147 219.875 344.165 218.772 341.132C217.901 338.745 217.486 336.146 217.079 333.599C216.839 332.092 217.028 330.537 217.009 329.016L217.017 329.067ZM272.092 270.802C270.534 272.47 268.848 273.998 267.457 275.777C261.328 283.677 260.679 292.715 262.266 302.121C262.39 302.9 262.906 303.66 263.391 304.297C268.013 310.337 269.042 317.188 267.455 324.351C266.58 328.222 266.293 332.106 265.837 335.996C265.591 338.2 266.12 340.109 267.368 341.849C270.976 346.88 275.872 350.03 281.863 351.352C295.768 354.414 307.417 350.491 317.055 340.046C322.607 334.007 326.141 327.013 328.346 319.175C329.892 313.693 331.602 308.238 333.425 302.818C334.534 299.474 336.237 296.312 337.214 292.946C338.14 289.792 338.772 286.471 338.975 283.197C339.26 278.503 337.22 274.608 333.242 272.132C329.551 269.855 325.697 267.753 321.706 266.068C316.039 263.702 310.024 263.034 303.974 264.418C296.679 266.087 289.345 267.379 281.832 267.612C278.372 267.718 275.094 268.765 272.078 270.783L272.092 270.802ZM220.201 306.51C219.16 306.272 218.511 306.013 217.838 306.003C215.347 305.965 212.842 305.908 210.365 306.091C201.057 306.771 192.491 304.688 184.431 299.955C176.137 295.099 169.371 288.656 163.504 281.162C160.438 277.25 157.65 273.079 154.718 269.071C151.182 264.221 146.584 261.205 140.402 260.83C135.858 260.555 131.67 259.04 127.837 256.604C124.691 254.603 121.625 252.428 118.386 250.58C116.074 249.255 113.614 248.007 111.048 247.298C106.122 245.965 102.799 247.798 100.855 252.523C99.4967 255.843 98.8837 259.353 99.2588 262.907C99.5951 266.084 100.057 269.315 100.9 272.389C104.759 286.217 112.322 297.853 122.373 307.908C134.655 320.185 149.414 328.398 165.917 333.507C168.453 334.295 171.278 334.759 173.884 334.513C181.512 333.793 189.106 332.662 196.881 331.662C200.744 320.116 210.004 313.185 220.176 306.557L220.201 306.51ZM278.258 352.548C280.178 355.225 282.101 357.785 283.909 360.428C286.425 364.098 289.121 367.696 291.265 371.575C294.724 377.812 296.323 384.689 297.097 391.75C297.889 398.916 299.266 406.009 303.275 412.084C308.137 419.43 313.352 426.58 318.75 433.541C321.723 437.405 325.577 440.434 329.974 442.726C338.628 447.236 346.152 445.2 352.723 438.924C354.622 437.127 355.224 435.016 354.3 432.434C353.239 429.459 351.942 426.681 349.467 424.604C345.674 421.416 341.905 418.181 338.054 415.034C331.333 409.543 326.226 402.866 323.238 394.698C321.198 389.065 320.964 383.121 320.809 377.207C320.702 373.259 320.679 369.307 320.227 365.403C319.63 360.327 317.472 356.024 312.71 353.588C309.319 351.85 306.07 350.472 301.852 352.107C298.299 353.497 294.144 353.725 290.251 353.794C286.378 353.849 282.482 353.023 278.29 352.553L278.258 352.548ZM279.267 472.487C279.549 472.516 279.83 472.546 280.093 472.589C280.673 470.407 281.43 468.27 281.799 466.036C282.526 461.634 283.173 457.202 283.618 452.77C284.418 444.955 286.336 437.526 289.746 430.36C297.159 414.791 297.713 398.55 293.748 381.988C293.519 381.022 293.096 380.109 292.56 378.553C292.255 379.583 292.078 379.942 292.07 380.295C291.893 386.272 289.742 391.638 286.917 396.792C284.363 401.434 281.808 406.075 279.366 410.752C272.431 424.038 271.106 437.79 275.993 452.04C278.262 458.639 280.18 465.315 279.286 472.473L279.267 472.487ZM319.244 356.839C319.371 357.501 319.366 357.939 319.528 358.286C321.978 363.278 322.153 368.655 322.271 374.073C322.363 378.323 322.449 382.606 322.938 386.803C323.959 395.542 327.677 403.07 333.95 409.231C336.971 412.191 340.271 414.893 343.519 417.603C347.184 420.652 350.974 423.553 353.488 427.745C354.215 428.961 354.852 430.213 355.56 431.443C355.768 431.41 355.963 431.358 356.171 431.324C355.976 429.639 356.053 427.846 355.522 426.257C354.26 422.557 352.538 418.984 351.275 415.284C348.776 408.04 346.205 400.818 344.113 393.456C340.895 382.179 335.859 372.005 327.595 363.594C325.139 361.098 322.663 358.616 319.225 356.853L319.244 356.839ZM263.158 305.507C259.105 309.717 255.369 313.439 251.822 317.343C245.907 323.845 242.683 331.313 243.825 340.341C243.978 341.564 243.345 342.945 242.922 344.175C242.328 345.933 241.477 347.615 240.949 349.384C240.549 350.685 240.474 352.157 241.773 353.08C243.119 354.026 244.558 353.689 245.906 352.983C246.535 352.648 247.148 352.208 247.722 351.797C254.976 346.595 260.267 339.788 263.834 331.668C267.165 324.067 267.894 316.274 264.687 308.407C264.316 307.486 263.778 306.655 263.191 305.512L263.158 305.507ZM261.999 304.658C257.472 301.62 253.182 301.134 248.65 301.806C245.503 302.267 242.814 303.732 240.069 305.238C233.294 308.966 228.381 314.401 224.913 321.204C224.072 322.82 223.588 324.732 223.441 326.547C223.124 330.51 225.19 331.896 228.798 330.38C229.269 330.187 229.786 330.019 230.193 329.698C232.172 328.134 234.433 327.729 236.885 327.592C240.492 327.409 243.657 325.719 245.719 322.937C249.18 318.225 253.17 314.089 257.387 310.109C259.002 308.603 260.291 306.723 262.018 304.645L261.999 304.658ZM256.709 353.78C256.52 353.597 256.331 353.414 256.122 353.245C255.611 353.583 255.086 353.901 254.575 354.239C249.648 357.715 244.258 359.292 238.174 358.528C235.201 358.14 232.182 358.133 229.182 358.113C226.756 358.085 224.444 358.701 222.566 360.366C219.781 362.827 219.936 365.67 222.893 367.894C225.461 369.818 228.33 370.222 231.434 369.821C238.845 368.879 244.842 365.158 250.251 360.294C252.528 358.256 254.561 355.958 256.695 353.761L256.709 353.78ZM211.053 304.787C210.321 304.211 210.252 304.115 210.159 304.066C209.565 303.884 208.952 303.716 208.371 303.553C200.303 301.316 192.653 298.084 186.034 292.896C178.859 287.296 171.821 281.483 164.777 275.702C161.94 273.363 159.234 270.843 156.466 268.397C156.274 268.534 156.11 268.71 155.933 268.866C156.564 269.746 157.156 270.653 157.826 271.505C160.552 275.024 163.35 278.521 166.057 282.054C170.657 288.023 176.12 293.055 182.395 297.157C190.013 302.121 198.178 305.505 207.5 305.047C208.485 305.006 209.468 304.881 211.025 304.749L211.053 304.787ZM232.137 303.917C232.123 303.695 232.089 303.487 232.062 303.246C231.194 303.492 230.305 303.666 229.479 303.969C220.544 307.393 212.79 312.665 206.059 319.404C203.145 322.333 200.651 325.685 199.171 329.643C198.512 331.391 198.036 333.151 198.821 334.934C201.518 335.057 202.363 334.943 203.8 332.985C206.367 329.493 208.801 325.895 211.08 322.203C212.852 319.339 214.737 316.714 217.696 314.939C219.29 313.97 220.794 312.833 222.163 311.591C225.296 308.765 228.006 305.431 232.175 303.889L232.137 303.917ZM222.938 330.817C220.399 324.528 224.182 319.7 227.202 314.494C226.665 314.676 226.411 314.685 226.271 314.814C219.882 321.423 216.861 329.092 219.05 338.327C219.361 339.61 219.984 340.842 220.618 342.01C222.754 345.836 226.87 345.231 229.002 341.616C229.472 340.816 229.651 339.732 230.298 339.18C233.125 336.777 232.165 334.105 231.287 331.143C228.442 331.823 225.762 333.542 222.933 330.85L222.938 330.817ZM184.371 422.891C178.802 425.349 173.069 426.246 167.14 424.647C162.359 423.355 157.904 424.175 153.511 426.051C148.584 428.194 143.644 430.317 138.712 432.493C138.636 432.548 138.631 432.783 138.563 433.093C139.425 433.083 140.224 433.146 141.032 433.06C150.422 432.09 159.815 431.204 169.188 430.13C175.053 429.457 179.844 426.398 184.371 422.891ZM264.17 334.44C263.376 335.676 262.753 336.586 262.196 337.506C258.846 343.182 254.669 348.147 249.332 352.061C248.011 353.008 246.54 353.948 245.008 354.438C242.105 355.361 240.162 353.945 239.742 350.974C239.647 350.317 239.501 349.669 239.374 349.007C233.331 350.966 233.293 350.994 230.137 356.616C233.006 356.818 235.776 356.801 238.495 357.197C251.399 359.065 264.157 348.526 264.17 334.44ZM227.577 345.853C231.124 349.102 235.04 349.712 238.789 347.544C241.909 345.712 242.968 342.056 241.92 336.957C240.479 336.484 239.143 335.995 237.809 335.59C235.624 334.927 234.275 335.431 233.246 337.067C231.392 340.018 229.478 342.926 227.572 345.886L227.577 345.853ZM223.207 315.39C220.092 315.856 217.168 316.708 215.099 318.916C212.134 322.056 210.679 326.17 208.41 329.795C208.566 329.973 208.728 330.117 208.884 330.295C211.705 329.46 214.526 328.624 216.726 327.973C219.051 323.497 221.062 319.592 223.22 315.409L223.207 315.39ZM225.096 313.861C225.109 313.678 225.136 313.513 225.15 313.33C230.684 309.651 236.232 305.99 241.766 302.311C233.124 303.354 226.691 308.083 220.681 314.536C222.482 314.258 223.801 314.036 225.115 313.847L225.096 313.861Z" fill="#C89663"/>
<path d="M398.883 138.601C398.572 139.056 398.307 139.535 397.941 139.914C393.593 144.682 388 147.593 382.298 150.35C380.626 151.172 378.991 152.084 377.41 153.073C367.924 158.92 358.583 165.011 348.957 170.582C336.664 177.689 323.492 182.559 309.338 184.484C299.015 185.892 288.602 185.8 278.381 184.035C266.142 181.922 253.995 179.251 241.879 176.5C230.025 173.792 218.849 168.918 207.444 164.816C193.777 159.903 179.961 155.591 165.587 153.329C163.728 153.04 161.909 152.606 160.102 152.107C159.212 151.876 158.39 151.336 157.541 150.96C158.105 149.079 159.52 148.991 160.693 148.728C171.844 146.293 183.002 143.707 194.222 141.569C210.266 138.521 226.476 137.119 242.8 138.099C262.064 139.258 280.941 142.867 299.415 148.502C305.826 150.45 312.235 152.516 318.779 153.963C334.751 157.483 350.793 158.028 366.857 154.038C374.018 152.262 380.571 149.155 387.018 145.778C390.234 144.079 393.2 141.952 396.271 140.01C397.083 139.486 397.841 138.885 398.625 138.322C398.727 138.423 398.815 138.505 398.916 138.606L398.883 138.601ZM370.968 155.405C370.896 155.225 370.811 155.025 370.74 154.845C370.556 154.832 370.37 154.733 370.195 154.772C369.798 154.825 369.415 154.897 369.04 155.021C357.018 158.545 344.78 158.98 332.412 157.857C321.439 156.864 310.91 153.901 300.467 150.615C280.995 144.479 261.084 140.598 240.698 139.693C214.35 138.517 188.69 143.393 163.246 149.62C162.63 149.772 162.053 150.099 161.441 150.336C162.761 151.127 164.067 151.493 165.387 151.676C180.161 153.97 194.353 158.361 208.397 163.437C219.783 167.553 230.978 172.413 242.818 175.102C254.269 177.693 265.715 180.317 277.275 182.251C291.28 184.604 305.339 184.485 319.263 180.987C329.365 178.463 338.84 174.42 347.931 169.435C350.305 168.138 352.556 166.669 355.085 165.145C354.6 164.913 354.48 164.826 354.409 164.848C353.853 165.043 353.298 165.239 352.756 165.454C342.818 169.539 332.395 171.453 321.702 172.142C310.428 172.87 299.169 172.69 288.069 170.831C274.177 168.514 260.248 166.106 246.546 162.841C223.607 157.366 200.608 152.253 176.989 150.8C176.688 150.784 176.395 150.618 176.104 150.536C190.207 150.762 204.142 152.007 217.86 154.971C231.171 157.851 244.389 161.086 257.666 163.961C273.584 167.404 289.552 170.434 305.895 170.995C324.972 171.65 343.458 169.341 360.763 160.696C364.182 158.997 367.538 157.17 370.916 155.414L370.968 155.405Z" fill="#C89663"/>
<path d="M197.566 335.892C175.616 343.234 156.991 356.302 138.629 369.818C155.118 354.256 188.732 335.132 197.566 335.892Z" fill="#C89663"/>
<path d="M170.177 377.316C185.079 363.501 201.415 351.322 218.875 340.712C219.045 340.909 219.202 341.086 219.372 341.283C218.866 341.79 218.396 342.388 217.822 342.8C211.922 346.857 205.939 350.801 200.093 354.935C193.047 359.901 186.056 364.944 179.133 370.082C176.041 372.358 173.173 374.906 170.21 377.321L170.177 377.316Z" fill="#C89663"/>
<path d="M218.899 252.239C224.028 269.212 229.116 286.127 238.051 301.617C237.783 301.809 237.506 301.949 237.225 302.122C236.599 301.412 235.859 300.784 235.363 300.011C228.659 289.41 220.403 265.411 218.899 252.239Z" fill="#C89663"/>
<path d="M185.903 250.24C182.447 245.42 179.966 240.103 177.705 234.686C174.996 228.201 172.235 221.724 171.077 214.734C170.499 211.18 170.342 207.527 170.194 203.926C170.123 202.008 170.569 200.124 171.975 197.841C172.253 198.916 172.549 199.37 172.465 199.778C171.065 207.646 172.421 215.276 174.804 222.72C177.816 232.174 181.66 241.292 185.903 250.24Z" fill="#C89663"/>
<path d="M231.744 432.248C230.004 412.728 231.497 378.842 238.45 368.816C237.232 373.947 235.784 379.04 234.81 384.229C233.833 389.534 233.165 394.908 232.686 400.262C232.224 405.518 232.09 410.827 231.942 416.117C231.798 421.493 231.803 426.876 231.724 432.262L231.744 432.248Z" fill="#C89663"/>
<path d="M249.117 415.212C249.322 395.776 249.159 376.313 253.695 357.217C254.273 357.295 254.396 357.265 254.489 357.314C254.568 357.344 254.67 357.445 254.692 357.516C254.728 357.808 254.797 358.107 254.781 358.408C254.749 358.807 254.645 359.229 254.561 359.637C253.751 364.65 252.587 369.655 252.176 374.7C251.228 386.27 250.642 397.899 249.91 409.488C249.793 411.426 249.788 413.399 249.736 415.348C249.525 415.296 249.328 415.264 249.117 415.212Z" fill="#C89663"/>
<path d="M137.178 281.998C155.956 297.351 176.64 308.816 200.85 313.032C176.089 309.906 155.404 298.441 137.178 281.998Z" fill="#C89663"/>
<path d="M126.548 432.384C128.262 431.501 130.087 430.772 131.684 429.685C136.972 426.066 142.274 422.467 147.337 418.575C151.012 415.737 154.351 412.473 157.773 409.324C161.715 405.686 165.601 401.972 169.501 398.277C170.179 397.646 170.843 396.996 171.839 396.688C168.549 400.061 165.379 403.522 161.988 406.794C157.374 411.232 152.714 415.646 147.889 419.83C142.417 424.566 136.824 429.214 130.054 432.1C129.055 432.526 128.007 432.843 126.968 433.212C126.828 432.936 126.688 432.66 126.548 432.384Z" fill="#C89663"/>
<path d="M178.34 401.873C191.045 385.318 204.471 369.405 219.478 354.848C205.77 370.529 192.048 386.192 178.34 401.873Z" fill="#C89663"/>
<path d="M244.803 291.271C239.101 271.842 238.73 251.804 238.482 231.737C239.835 251.649 240.85 271.572 244.803 291.271Z" fill="#C89663"/>
<path d="M310.67 302.975C299.458 311.711 272.582 320.79 266.771 317.659C267.526 317.378 268.032 317.073 268.566 317.009C281.743 315.379 294.183 311.266 306.237 305.807C307.826 305.072 309.199 303.915 310.689 302.962L310.67 302.975Z" fill="#C89663"/>
<path d="M281.169 358.831C285.712 360.236 310.085 384.32 315.273 392.039C303.907 380.959 292.535 369.911 281.169 358.831Z" fill="#C89663"/>
<path d="M223.007 301.978C213.831 296.336 206.754 289.015 200.37 281.081C193.998 273.167 188.469 264.649 183.886 255.51C184.531 256.409 185.189 257.327 185.834 258.226C186.473 259.158 187.069 260.15 187.708 261.082C192.655 268.222 197.284 275.647 202.657 282.453C208.296 289.589 214.868 295.882 222.434 301.057C222.568 301.164 222.634 301.377 222.974 301.973L223.007 301.978Z" fill="#C89663"/>
<path d="M244.121 390.382C245.418 381.603 246.696 372.837 248.055 363.578C242.955 366.57 237.881 365.516 232.761 364.439C238.69 364.3 244.957 365.684 249.649 360.668C249.868 360.772 249.967 360.788 250.041 360.851C250.115 360.914 250.216 361.015 250.206 361.08C250.087 362.006 249.987 362.917 249.802 363.832C248.122 372.683 246.428 381.516 244.747 390.367C244.545 390.367 244.323 390.382 244.107 390.363L244.121 390.382Z" fill="#C89663"/>
<path d="M283.598 281.957C288.268 277.072 293.171 272.513 299.227 269.358C302.604 267.602 305.875 265.575 309.316 263.947C311.824 262.757 313.094 262.831 315.353 263.354C311.565 264.941 307.726 266.217 304.196 268.083C300.555 269.998 297.154 272.409 293.717 274.729C290.28 277.049 286.966 279.541 283.598 281.957Z" fill="#C89663"/>
<path d="M155.34 280.124C145.944 275.509 129.645 261.188 127.194 255.183C131.745 259.508 136.175 263.949 140.871 268.112C145.566 272.275 150.5 276.123 155.34 280.124Z" fill="#C89663"/>
<path d="M124.742 291.612C115.693 286.834 100.519 270.404 98.0292 262.689C99.4925 263.638 100.292 265.237 101.279 266.614C102.363 268.125 103.422 269.683 104.544 271.167C105.666 272.65 106.826 274.106 108.082 275.494C109.392 276.958 110.843 278.293 112.197 279.696C113.497 281.024 114.733 282.425 116.057 283.705C117.395 285.005 118.777 286.245 120.158 287.484C121.507 288.718 122.894 289.925 124.761 291.598L124.742 291.612Z" fill="#C89663"/>
<path d="M170.982 423.862C181.045 415.747 188.271 405.091 196.675 395.472C193.359 401.153 189.291 406.271 185.116 411.321C181.029 416.251 177.071 421.32 171.769 424.919C171.509 424.556 171.243 424.225 170.963 423.875L170.982 423.862Z" fill="#C89663"/>
<path d="M205.841 318.575C204.954 318.835 204.035 319.291 203.121 319.309C200.033 319.409 196.886 319.668 193.842 319.302C185.798 318.351 177.964 316.439 170.265 313.908C169.512 313.666 168.808 313.331 168.131 312.832C180.549 315.396 192.717 319.674 205.752 317.683C205.788 317.976 205.824 318.269 205.841 318.575Z" fill="#C89663"/>
<path d="M326.838 326.369C325.883 326.937 325 327.686 323.98 328.042C314.947 331.247 305.717 333.492 296.135 334.195C295.946 334.214 295.752 334.064 295.144 333.863C300.786 332.597 306.07 331.559 311.291 330.191C316.407 328.838 321.46 327.155 326.544 325.595C326.637 325.846 326.744 326.117 326.857 326.355L326.838 326.369Z" fill="#C89663"/>
<path d="M224.176 469.101C221.696 465.318 220.895 445.531 222.631 435.626C223.15 446.695 223.651 457.66 224.176 469.101Z" fill="#C89663"/>
<path d="M268.188 491.352C268.311 478.954 266.121 466.767 265.012 454.471C267.379 466.096 269.576 477.728 269.497 489.66C269.484 490.249 269.033 490.833 268.785 491.416C268.588 491.384 268.391 491.351 268.194 491.319L268.188 491.352Z" fill="#C89663"/>
<path d="M186.518 358.152C199.296 347.599 213.96 337.98 218.277 337.694C207.041 344.941 195.944 352.059 186.518 358.152Z" fill="#C89663"/>
<path d="M131.818 385.013C124.334 391.51 116.85 398.007 109.365 404.504C109.212 404.412 109.078 404.305 108.91 404.193C109.052 403.744 109.046 403.17 109.363 402.884C116.239 396.186 123.721 390.212 131.851 385.019L131.818 385.013Z" fill="#C89663"/>
<path d="M326.609 421.91C333.136 428.062 340.56 435.018 348.019 442.065C347.698 442.991 347.104 442.809 346.457 442.23C343.984 440.035 341.443 437.947 339.053 435.665C334.253 431.113 329.668 426.378 326.609 421.91Z" fill="#C89663"/>
<path d="M272.674 375.234C278.091 382.182 284.025 399.388 282.605 404.722C281.047 402.914 281.641 400.75 281.068 398.902C280.411 396.853 280.005 394.711 279.405 392.622C278.835 390.656 278.181 388.692 277.507 386.742C276.817 384.688 276.159 382.64 275.327 380.63C274.524 378.744 273.541 376.929 272.693 375.22L272.674 375.234Z" fill="#C89663"/>
<path d="M279.317 375.162C273.994 365.598 269.473 355.575 262.289 346.65C266.738 348.731 276.331 364.936 279.317 375.162Z" fill="#C89663"/>
<path d="M199.471 195.849C201.356 203.852 203.241 211.856 205.126 219.859C204.983 219.903 204.822 219.961 204.68 220.005C203.794 217.396 202.837 214.81 202.023 212.179C201.181 209.51 200.339 206.84 199.777 204.116C199.195 201.405 197.693 198.746 198.693 195.856C198.948 195.847 199.221 195.825 199.476 195.816L199.471 195.849Z" fill="#C89663"/>
<path d="M220.467 278.109C225.065 286.136 229.094 294.34 234.914 301.607C233.374 302.248 232.961 301.067 232.388 300.348C227.92 294.603 224.414 288.341 221.768 281.579C221.317 280.425 220.899 279.276 220.481 278.128L220.467 278.109Z" fill="#C89663"/>
<path d="M233.818 221.961C231.952 213.944 232.529 199.714 235.155 196.586C234.859 199.811 234.573 202.362 234.404 204.915C234.231 207.705 234.175 210.496 234.086 213.282C233.986 215.932 233.919 218.586 233.818 221.961Z" fill="#C89663"/>
<path d="M278.016 352.171C285.773 357.006 292.549 362.979 298.666 369.771C291.62 364.108 284.573 358.445 277.513 352.763C277.682 352.555 277.852 352.346 278.016 352.171Z" fill="#C89663"/>
<path d="M242.769 343.88C248.19 338.225 253.347 332.847 258.807 327.164C255.106 333.845 250.107 338.877 244.637 343.495C244.282 343.808 243.606 343.714 242.769 343.88Z" fill="#C89663"/>
<path d="M265.841 314.908C273.51 312.71 280.791 310.617 287.806 308.598C284.638 311.334 269.174 316.08 265.841 314.908Z" fill="#C89663"/>
<path d="M304.212 361.016C309.925 362.799 319.795 369.652 321.186 373.086C315.689 369.179 310.178 365.253 304.212 361.016Z" fill="#C89663"/>
<path d="M286.311 273.495C290.89 268.444 300.21 262.687 304.168 262.832C297.897 266.576 291.703 270.265 286.311 273.495Z" fill="#C89663"/>
<path d="M178.438 320.415C186.681 321.281 194.844 323.045 203.243 322.148C201.496 323.632 199.424 323.612 197.401 323.499C190.979 323.152 184.63 322.26 178.438 320.415Z" fill="#C89663"/>
<path d="M253.91 301.22C246.996 304.875 242.396 310.868 237.689 316.792C239.721 310.614 249.5 301.052 253.91 301.22Z" fill="#C89663"/>
<path d="M217.836 441.063C218.233 448.367 218.586 455.123 218.97 462.407C216.814 459.522 216.33 447.733 217.836 441.063Z" fill="#C89663"/>
<path d="M198.945 211.2C195.233 204.449 192.577 195.289 193.194 192.472C193.298 192.455 193.388 192.419 193.487 192.436C193.585 192.452 193.75 192.479 193.758 192.531C195.498 198.756 197.205 204.975 198.925 211.214L198.945 211.2Z" fill="#C89663"/>
<path d="M217.851 309.499C212.829 313.448 210.45 318.658 207.409 323.389C208.625 317.447 214.028 309.866 217.851 309.499Z" fill="#C89663"/>
<path d="M108.654 270.593C104.479 266.347 100.456 261.991 98.2026 256.424C98.4132 256.273 98.6046 256.136 98.8151 255.985C102.097 260.843 105.373 265.735 108.654 270.593Z" fill="#C89663"/>
<path d="M352.501 440.879C348.405 438.603 345.006 435.48 342.222 431.597C345.834 434.452 349.46 437.325 353.072 440.18C352.884 440.402 352.695 440.624 352.52 440.865L352.501 440.879Z" fill="#C89663"/>
<path d="M327.925 321.621C324.185 324.043 319.998 325.076 315.636 325.54C319.619 323.9 323.563 322.085 327.925 321.621Z" fill="#C89663"/>
<path d="M243.111 340.68C244.669 339.012 246.212 337.326 247.77 335.658C249.385 333.95 251.028 332.28 252.82 330.415C251.208 334.148 245.793 340.176 243.111 340.68Z" fill="#C89663"/>
<path d="M108.535 398.901C111.225 394.974 115.07 392.332 119.6 389.315C115.714 393.029 112.385 396.227 109.037 399.439C108.881 399.262 108.705 399.098 108.549 398.92L108.535 398.901Z" fill="#C89663"/>
<path d="M239.982 309.239C242.492 305.788 244.793 302.168 249.273 301.099C246.176 303.812 243.079 306.526 239.982 309.239Z" fill="#C89663"/>
<path d="M222.412 337.48C225.558 338.149 228.362 338.745 231.002 339.314C229.203 340.806 226.501 340.312 222.412 337.48Z" fill="#C89663"/>
<path d="M235.615 343.159C234.237 339.137 234.718 336.735 236.96 335.417C236.534 337.894 236.048 340.531 235.615 343.159Z" fill="#C89663"/>
<path d="M233.733 344.133C232.576 341.024 232.101 338.381 233.854 335.734C233.806 338.375 233.758 341.016 233.733 344.133Z" fill="#C89663"/>
</g>
<defs>
<clipPath id="clip0_2_803">
<rect width="350.204" height="450.146" fill="white" transform="translate(204.092 547.745) rotate(-125.646)"/>
</clipPath>
</defs>
</svg>
