<svg width="90" height="90" viewBox="0 0 90 90" fill="none" xmlns="http://www.w3.org/2000/svg">
<circle cx="45" cy="45" r="44.5" stroke="#3B2317"/>
<path d="M31.5236 58.8337C31.8538 59.1556 32.2991 59.3321 32.7602 59.3237C33.22 59.3246 33.6625 59.1492 33.9969 58.8337L55.7669 37.0432V55.847C55.7669 56.8135 56.5504 57.597 57.5169 57.597C57.9869 57.6098 58.4419 57.4303 58.7765 57.1C59.1112 56.7697 59.2968 56.3172 59.2902 55.847V33.1385C59.3508 32.8723 59.3494 32.591 59.2795 32.317C59.1211 31.697 58.6369 31.2128 58.0169 31.0545C57.7429 30.9845 57.4616 30.9831 57.1954 31.0437H34.4869C33.5204 31.0437 32.7369 31.8272 32.7369 32.7937C32.7369 33.7602 33.5204 34.5437 34.4869 34.5437H53.3169L31.5236 56.337C31.1887 56.6661 31 57.1159 31 57.5854C31 58.0549 31.1887 58.5047 31.5236 58.8337Z" fill="#3B2317"/>
</svg>
