<svg width="154" height="120" viewBox="0 0 154 120" fill="none" xmlns="http://www.w3.org/2000/svg">
<path d="M115.605 17.1632L67.3742 16.7038C66.0636 16.7098 64.869 17.4147 64.2405 18.5531C63.612 19.6914 63.645 21.0902 64.3271 22.2226C65.0092 23.3549 66.2368 24.0488 67.5474 24.0428L106.855 24.3827L34.652 96.586C33.2386 97.9994 33.2606 100.313 34.7012 101.754C36.1418 103.194 38.4554 103.216 39.8688 101.803L112.038 29.6337L112.412 68.9074C112.409 69.8796 112.798 70.8194 113.492 71.5135C114.187 72.2077 115.126 72.5973 116.099 72.5939C117.072 72.6266 118.006 72.2479 118.672 71.5506C119.355 70.8746 119.731 69.9469 119.716 68.977L119.256 20.746C119.236 18.7297 117.586 17.0799 115.57 17.0595L115.605 17.1632Z" fill="#3B2317"/>
</svg>
