<svg width="245" height="26" viewBox="0 0 245 26" fill="none" xmlns="http://www.w3.org/2000/svg">
<path d="M20.07 25.82C19.91 25.84 19.74 25.85 19.56 25.85C19.4 25.85 19.24 25.85 19.08 25.85C18 25.85 16.87 25.74 15.69 25.52C14.51 25.32 13.34 25.05 12.18 24.71C11.04 24.37 9.97 24 8.97 23.6L6.45 22.58C6.25 22.68 6.05 22.77 5.85 22.85C5.67 22.93 5.47 23.01 5.25 23.09C4.59 23.31 3.82 23.42 2.94 23.42C2.62 23.42 2.31 23.39 2.01 23.33C1.71 23.29 1.46 23.22 1.26 23.12C1.04 23 0.86 22.83 0.72 22.61C0.6 22.37 0.54 22.14 0.54 21.92C0.54 21.7 0.6 21.52 0.72 21.38C0.8 21.3 0.88 21.26 0.96 21.26C1.04 21.24 1.06 21.28 1.02 21.38C0.96 21.7 1.09 21.99 1.41 22.25C1.75 22.49 2.06 22.65 2.34 22.73C2.6 22.81 2.92 22.85 3.3 22.85C3.86 22.85 4.39 22.75 4.89 22.55L5.58 22.25C5.12 22.05 4.65 21.87 4.17 21.71C3.69 21.53 3.25 21.37 2.85 21.23C2.55 21.13 2.16 21.03 1.68 20.93C1.22 20.81 0.85 20.78 0.57 20.84H0.54C0.48 20.84 0.44 20.81 0.42 20.75C0.4 20.69 0.43 20.63 0.51 20.57C0.61 20.49 0.81 20.45 1.11 20.45C1.43 20.45 1.78 20.5 2.16 20.6C2.54 20.68 2.82 20.74 3 20.78L6.36 21.71C6.84 21.31 7.31 20.84 7.77 20.3C8.23 19.76 8.66 19.18 9.06 18.56C9.78 17.46 10.48 16.2 11.16 14.78C11.86 13.34 12.58 11.88 13.32 10.4C14.08 8.9 14.91 7.54 15.81 6.32C16.27 5.68 16.81 5.05 17.43 4.43C18.05 3.81 18.73 3.31 19.47 2.93C19.91 2.71 20.36 2.53 20.82 2.39C21.28 2.25 21.76 2.18 22.26 2.18C23.3 2.18 24.09 2.45 24.63 2.99C25.17 3.53 25.44 4.21 25.44 5.03C25.44 5.23 25.42 5.44 25.38 5.66C25.36 5.88 25.31 6.1 25.23 6.32C24.93 7.3 24.38 8.14 23.58 8.84C22.78 9.52 21.9 10.03 20.94 10.37C20.82 10.41 20.75 10.43 20.73 10.43C20.63 10.43 20.58 10.39 20.58 10.31C20.58 10.19 20.66 10.1 20.82 10.04C21.72 9.7 22.53 9.17 23.25 8.45C23.99 7.73 24.45 6.88 24.63 5.9C24.65 5.78 24.66 5.67 24.66 5.57C24.68 5.45 24.69 5.35 24.69 5.27C24.69 4.45 24.4 3.85 23.82 3.47C23.26 3.07 22.61 2.87 21.87 2.87C21.11 2.87 20.41 3.05 19.77 3.41C19.07 3.81 18.38 4.48 17.7 5.42C17.04 6.34 16.39 7.41 15.75 8.63C15.13 9.83 14.52 11.07 13.92 12.35C13.34 13.61 12.77 14.8 12.21 15.92C11.67 17.04 11.14 17.97 10.62 18.71C10.18 19.35 9.69 19.95 9.15 20.51C8.61 21.07 8.03 21.57 7.41 22.01L9.3 22.55C10.7 22.95 12.22 23.33 13.86 23.69C15.5 24.07 17.06 24.26 18.54 24.26C19.22 24.26 19.87 24.21 20.49 24.11C21.11 24.01 21.67 23.84 22.17 23.6C22.99 23.22 23.65 22.7 24.15 22.04C24.65 21.38 24.9 20.68 24.9 19.94C24.9 19.42 24.76 18.91 24.48 18.41C24.22 17.91 23.8 17.44 23.22 17C22.9 16.76 22.57 16.55 22.23 16.37C21.89 16.17 21.58 16.02 21.3 15.92C21.16 15.86 21.09 15.8 21.09 15.74C21.09 15.7 21.12 15.67 21.18 15.65C21.26 15.63 21.31 15.62 21.33 15.62C22.01 15.78 22.69 16.09 23.37 16.55C24.41 17.29 25.11 18.15 25.47 19.13C25.67 19.65 25.77 20.19 25.77 20.75C25.77 21.55 25.57 22.31 25.17 23.03C24.77 23.75 24.22 24.33 23.52 24.77C22.52 25.37 21.37 25.72 20.07 25.82ZM29.1949 23.18C28.5749 23.18 28.1249 23 27.8449 22.64C27.5849 22.28 27.4549 21.84 27.4549 21.32C27.4549 20.66 27.5849 19.94 27.8449 19.16C28.1249 18.38 28.4449 17.64 28.8049 16.94C29.1649 16.22 29.4549 15.66 29.6749 15.26C30.1149 14.52 30.5549 14.06 30.9949 13.88C31.4549 13.7 32.0149 13.61 32.6749 13.61C32.4749 13.67 32.2149 13.91 31.8949 14.33C31.5749 14.73 31.2349 15.23 30.8749 15.83C30.5349 16.43 30.2049 17.08 29.8849 17.78C29.5849 18.46 29.3349 19.13 29.1349 19.79C28.9549 20.43 28.8649 20.98 28.8649 21.44C28.8649 21.78 28.9249 22.06 29.0449 22.28C29.1849 22.5 29.3949 22.61 29.6749 22.61C29.9149 22.61 30.1949 22.52 30.5149 22.34C30.8349 22.14 31.1249 21.9 31.3849 21.62C32.2649 20.64 32.9749 19.57 33.5149 18.41C34.0749 17.23 34.6949 16.06 35.3749 14.9C35.8149 14.16 36.2549 13.7 36.6949 13.52C37.1549 13.34 37.7149 13.25 38.3749 13.25C38.1749 13.31 37.9049 13.56 37.5649 14C37.2249 14.42 36.8649 14.95 36.4849 15.59C36.1249 16.23 35.7849 16.92 35.4649 17.66C35.1449 18.38 34.8749 19.08 34.6549 19.76C34.4549 20.44 34.3549 21.02 34.3549 21.5C34.3549 21.82 34.4149 22.09 34.5349 22.31C34.6749 22.51 34.8749 22.61 35.1349 22.61C35.3749 22.61 35.6549 22.51 35.9749 22.31C36.2949 22.11 36.5849 21.88 36.8449 21.62C37.3049 21.12 37.7249 20.57 38.1049 19.97C38.4849 19.37 38.8649 18.73 39.2449 18.05C39.3049 17.97 39.3549 17.93 39.3949 17.93C39.4749 17.93 39.5149 17.99 39.5149 18.11C39.5149 18.21 39.4949 18.29 39.4549 18.35C39.0949 19.01 38.7149 19.67 38.3149 20.33C37.9149 20.99 37.4249 21.61 36.8449 22.19C36.5249 22.51 36.1449 22.78 35.7049 23C35.2849 23.2 34.8649 23.26 34.4449 23.18C33.8849 23.08 33.4849 22.86 33.2449 22.52C33.0049 22.16 32.8849 21.73 32.8849 21.23C32.8849 20.83 32.9449 20.41 33.0649 19.97C32.8249 20.35 32.5649 20.73 32.2849 21.11C32.0249 21.49 31.7249 21.85 31.3849 22.19C31.1049 22.47 30.7649 22.71 30.3649 22.91C29.9849 23.09 29.5949 23.18 29.1949 23.18ZM45.4655 23.21C44.8255 23.21 44.3255 23.06 43.9655 22.76C43.6255 22.44 43.3755 22.05 43.2155 21.59C43.0555 21.13 42.9555 20.66 42.9155 20.18C42.8955 19.7 42.8855 19.29 42.8855 18.95C42.5455 19.35 42.1655 19.81 41.7455 20.33C41.3455 20.85 40.9655 21.35 40.6055 21.83C40.2655 22.29 39.9955 22.68 39.7955 23H38.3255C38.6055 22.8 38.9955 22.45 39.4955 21.95C40.0155 21.43 40.5755 20.86 41.1755 20.24C41.7755 19.6 42.3455 19 42.8855 18.44L43.0655 16.13C43.0855 16.03 43.0955 15.88 43.0955 15.68C43.1155 15.46 43.1255 15.23 43.1255 14.99C43.1255 14.85 43.1255 14.71 43.1255 14.57C43.1255 14.43 43.1055 14.3 43.0655 14.18C43.0055 13.82 42.8355 13.64 42.5555 13.64C42.3555 13.64 42.1855 13.74 42.0455 13.94C41.8255 14.22 41.5955 14.55 41.3555 14.93C41.1355 15.31 40.9855 15.57 40.9055 15.71L39.2255 18.86C39.1455 19.04 39.0655 19.13 38.9855 19.13C38.9255 19.13 38.8955 19.07 38.8955 18.95C38.8955 18.81 38.9455 18.64 39.0455 18.44C39.3255 17.92 39.5655 17.45 39.7655 17.03C39.9655 16.61 40.2055 16.14 40.4855 15.62C40.7455 15.16 40.9855 14.73 41.2055 14.33C41.4455 13.91 41.7255 13.58 42.0455 13.34C42.3855 13.08 42.8055 12.95 43.3055 12.95C43.8655 12.95 44.2455 13.15 44.4455 13.55C44.6455 13.93 44.7455 14.39 44.7455 14.93C44.7455 15.31 44.7355 15.71 44.7155 16.13C44.7155 16.53 44.6955 16.87 44.6555 17.15C45.1755 16.55 45.7155 15.88 46.2755 15.14C46.8355 14.4 47.2655 13.81 47.5655 13.37H49.0055C48.7655 13.55 48.3955 13.89 47.8955 14.39C47.3955 14.89 46.8555 15.45 46.2755 16.07C45.6955 16.67 45.1355 17.25 44.5955 17.81C44.5755 18.07 44.5555 18.34 44.5355 18.62C44.5355 18.88 44.5355 19.15 44.5355 19.43C44.5355 19.99 44.5655 20.53 44.6255 21.05C44.6855 21.39 44.7955 21.75 44.9555 22.13C45.1355 22.49 45.4255 22.68 45.8255 22.7C46.1055 22.7 46.4055 22.58 46.7255 22.34C47.0655 22.08 47.3355 21.84 47.5355 21.62C47.9955 21.12 48.4155 20.58 48.7955 20C49.1755 19.4 49.5555 18.75 49.9355 18.05C49.9955 17.93 50.0655 17.87 50.1455 17.87C50.2255 17.87 50.2655 17.93 50.2655 18.05C50.2655 18.15 50.2255 18.28 50.1455 18.44C49.7855 19.1 49.4055 19.75 49.0055 20.39C48.6055 21.01 48.1155 21.61 47.5355 22.19C46.8955 22.87 46.2055 23.21 45.4655 23.21ZM50.6988 23.18C50.0788 23.18 49.6288 23 49.3488 22.64C49.0888 22.28 48.9588 21.84 48.9588 21.32C48.9588 20.66 49.0888 19.94 49.3488 19.16C49.6288 18.38 49.9488 17.64 50.3088 16.94C50.6688 16.22 50.9588 15.66 51.1788 15.26C51.6188 14.52 52.0588 14.06 52.4988 13.88C52.9588 13.7 53.5188 13.61 54.1788 13.61C53.9788 13.67 53.7188 13.91 53.3988 14.33C53.0788 14.73 52.7388 15.23 52.3788 15.83C52.0388 16.43 51.7088 17.08 51.3888 17.78C51.0888 18.46 50.8388 19.13 50.6388 19.79C50.4588 20.43 50.3688 20.98 50.3688 21.44C50.3688 21.78 50.4288 22.06 50.5488 22.28C50.6888 22.5 50.8988 22.61 51.1788 22.61C51.4188 22.61 51.6988 22.52 52.0188 22.34C52.3388 22.14 52.6288 21.9 52.8888 21.62C53.7688 20.64 54.4788 19.57 55.0188 18.41C55.5788 17.23 56.1988 16.06 56.8788 14.9C57.3188 14.16 57.7588 13.7 58.1988 13.52C58.6588 13.34 59.2188 13.25 59.8788 13.25C59.6788 13.31 59.4088 13.56 59.0688 14C58.7288 14.42 58.3688 14.95 57.9888 15.59C57.6288 16.23 57.2888 16.92 56.9688 17.66C56.6488 18.38 56.3788 19.08 56.1588 19.76C55.9588 20.44 55.8588 21.02 55.8588 21.5C55.8588 21.82 55.9188 22.09 56.0388 22.31C56.1788 22.51 56.3788 22.61 56.6388 22.61C56.8788 22.61 57.1588 22.51 57.4788 22.31C57.7988 22.11 58.0888 21.88 58.3488 21.62C58.8088 21.12 59.2288 20.57 59.6088 19.97C59.9888 19.37 60.3688 18.73 60.7488 18.05C60.8088 17.97 60.8588 17.93 60.8988 17.93C60.9788 17.93 61.0188 17.99 61.0188 18.11C61.0188 18.21 60.9988 18.29 60.9588 18.35C60.5988 19.01 60.2188 19.67 59.8188 20.33C59.4188 20.99 58.9288 21.61 58.3488 22.19C58.0288 22.51 57.6488 22.78 57.2088 23C56.7888 23.2 56.3688 23.26 55.9488 23.18C55.3888 23.08 54.9888 22.86 54.7488 22.52C54.5088 22.16 54.3888 21.73 54.3888 21.23C54.3888 20.83 54.4488 20.41 54.5688 19.97C54.3288 20.35 54.0688 20.73 53.7888 21.11C53.5288 21.49 53.2288 21.85 52.8888 22.19C52.6088 22.47 52.2688 22.71 51.8688 22.91C51.4888 23.09 51.0988 23.18 50.6988 23.18ZM66.3994 22.46C66.0594 22.74 65.7194 22.94 65.3794 23.06C65.0594 23.2 64.7594 23.27 64.4794 23.27C63.9794 23.27 63.5594 23.1 63.2194 22.76C62.8994 22.4 62.7394 21.93 62.7394 21.35C62.7394 21.01 62.8194 20.6 62.9794 20.12C63.2394 19.4 63.6294 18.71 64.1494 18.05C64.6694 17.39 65.1694 16.72 65.6494 16.04C65.9494 15.64 66.0994 15.25 66.0994 14.87C66.0994 14.67 66.0394 14.5 65.9194 14.36C65.8194 14.22 65.6294 14.14 65.3494 14.12C65.1894 14.08 65.0094 14.06 64.8094 14.06C64.6094 14.06 64.4094 14.06 64.2094 14.06H63.3694C63.2494 14.06 63.1394 14.06 63.0394 14.06C62.9394 14.06 62.8494 14.05 62.7694 14.03C62.6894 14.53 62.5194 15.09 62.2594 15.71C62.0194 16.33 61.7394 16.95 61.4194 17.57C61.0994 18.19 60.7894 18.75 60.4894 19.25C60.4094 19.37 60.3394 19.43 60.2794 19.43C60.2194 19.43 60.1894 19.37 60.1894 19.25C60.1894 19.11 60.2194 19 60.2794 18.92C60.6994 18.1 61.0994 17.3 61.4794 16.52C61.8794 15.72 62.1494 14.89 62.2894 14.03C61.8294 13.77 61.5194 13.32 61.3594 12.68C61.3394 12.58 61.3194 12.49 61.2994 12.41C61.2994 12.31 61.2994 12.22 61.2994 12.14C61.2994 11.78 61.3694 11.48 61.5094 11.24C61.6694 10.98 61.8494 10.85 62.0494 10.85C62.3294 10.85 62.5594 11.12 62.7394 11.66C62.7794 11.8 62.8094 11.96 62.8294 12.14C62.8494 12.3 62.8594 12.46 62.8594 12.62C62.8594 12.8 62.8494 12.97 62.8294 13.13C62.8294 13.27 62.8194 13.39 62.7994 13.49C62.9394 13.53 63.1194 13.56 63.3394 13.58C63.5794 13.6 63.8394 13.61 64.1194 13.61C64.5394 13.61 64.9794 13.6 65.4394 13.58C65.8994 13.54 66.2894 13.52 66.6094 13.52C66.9894 13.52 67.2494 13.6 67.3894 13.76C67.5294 13.92 67.5994 14.12 67.5994 14.36C67.5994 14.66 67.5194 14.99 67.3594 15.35C67.2194 15.69 67.0794 15.98 66.9394 16.22C66.6794 16.7 66.4294 17.13 66.1894 17.51C65.9694 17.87 65.7194 18.26 65.4394 18.68C65.0194 19.32 64.7094 19.91 64.5094 20.45C64.3294 20.97 64.2394 21.41 64.2394 21.77C64.2394 22.39 64.4694 22.7 64.9294 22.7C65.3094 22.7 65.7994 22.43 66.3994 21.89C66.7794 21.55 67.1294 21.15 67.4494 20.69C67.7894 20.21 68.0894 19.73 68.3494 19.25C68.6294 18.75 68.8594 18.34 69.0394 18.02C69.0794 17.96 69.1194 17.93 69.1594 17.93C69.2394 17.93 69.2794 18.01 69.2794 18.17C69.2794 18.29 69.2494 18.4 69.1894 18.5C68.8494 19.12 68.4594 19.8 68.0194 20.54C67.5794 21.28 67.0394 21.92 66.3994 22.46ZM69.7104 23.18C69.1504 23.18 68.7404 23 68.4804 22.64C68.2204 22.26 68.0904 21.8 68.0904 21.26C68.0904 21.1 68.1004 20.94 68.1204 20.78C68.1604 20.6 68.2004 20.42 68.2404 20.24C68.4604 19.44 68.8004 18.55 69.2604 17.57C69.7404 16.57 70.2004 15.68 70.6404 14.9C70.9004 14.46 71.1404 14.15 71.3604 13.97C71.5804 13.77 71.8204 13.63 72.0804 13.55C72.3404 13.45 72.6504 13.34 73.0104 13.22C73.1104 13.18 73.2104 13.15 73.3104 13.13C73.4104 13.11 73.5204 13.09 73.6404 13.07C73.2404 13.47 72.8304 13.95 72.4104 14.51C72.0104 15.07 71.5704 15.84 71.0904 16.82C70.8304 17.34 70.5704 17.92 70.3104 18.56C70.0704 19.2 69.8604 19.8 69.6804 20.36C69.5004 20.92 69.4004 21.36 69.3804 21.68C69.3604 22.06 69.4104 22.33 69.5304 22.49C69.6504 22.65 69.8104 22.73 70.0104 22.73C70.3504 22.73 70.6704 22.61 70.9704 22.37C71.2904 22.13 71.5704 21.88 71.8104 21.62C72.2504 21.12 72.6604 20.57 73.0404 19.97C73.4404 19.37 73.8304 18.73 74.2104 18.05C74.2704 17.97 74.3204 17.93 74.3604 17.93C74.4404 17.93 74.4804 17.99 74.4804 18.11C74.4804 18.21 74.4604 18.29 74.4204 18.35C74.0604 19.01 73.6804 19.67 73.2804 20.33C72.8804 20.99 72.3904 21.61 71.8104 22.19C71.5504 22.45 71.2404 22.68 70.8804 22.88C70.5404 23.08 70.1504 23.18 69.7104 23.18ZM73.3704 11.39C73.1504 11.39 72.9604 11.31 72.8004 11.15C72.6604 10.99 72.5904 10.8 72.5904 10.58C72.5904 10.3 72.7004 10.05 72.9204 9.83C73.1604 9.61 73.4204 9.48 73.7004 9.44C73.9204 9.44 74.1004 9.52 74.2404 9.68C74.4004 9.82 74.4804 10.01 74.4804 10.25C74.4804 10.51 74.3704 10.77 74.1504 11.03C73.9304 11.27 73.6704 11.39 73.3704 11.39ZM76.4566 23.6C75.6966 23.6 75.0366 23.36 74.4766 22.88C73.9366 22.38 73.6666 21.62 73.6666 20.6C73.6666 19.96 73.7766 19.3 73.9966 18.62C74.2366 17.92 74.4966 17.3 74.7766 16.76C75.2966 15.78 75.9466 14.93 76.7266 14.21C77.5266 13.47 78.4766 13.1 79.5766 13.1C80.6366 13.1 81.3766 13.39 81.7966 13.97C82.2166 14.55 82.4266 15.26 82.4266 16.1C82.4266 16.44 82.3966 16.79 82.3366 17.15C82.1766 18.13 81.8466 19.08 81.3466 20C81.4866 20.2 81.6666 20.37 81.8866 20.51C82.1266 20.63 82.3866 20.69 82.6666 20.69C83.1466 20.69 83.5566 20.56 83.8966 20.3C84.2366 20.04 84.5266 19.72 84.7666 19.34C85.0266 18.94 85.2466 18.57 85.4266 18.23C85.5466 18.01 85.6566 17.9 85.7566 17.9C85.8166 17.9 85.8466 17.94 85.8466 18.02C85.8466 18.1 85.7866 18.28 85.6666 18.56C85.3266 19.24 84.9266 19.83 84.4666 20.33C84.0066 20.83 83.4066 21.08 82.6666 21.08C81.9866 21.08 81.4666 20.84 81.1066 20.36C80.5466 21.28 79.8666 22.05 79.0666 22.67C78.2666 23.29 77.3966 23.6 76.4566 23.6ZM76.5166 23.24C77.4966 23.24 78.4666 22.76 79.4266 21.8C79.7066 21.52 79.9566 21.23 80.1766 20.93C80.4166 20.61 80.6266 20.29 80.8066 19.97C80.5466 19.67 80.3566 19.35 80.2366 19.01C80.1366 18.65 80.0866 18.31 80.0866 17.99C80.0866 17.49 80.1766 17.05 80.3566 16.67C80.5366 16.27 80.7866 16.07 81.1066 16.07C81.2666 16.07 81.4166 16.15 81.5566 16.31C81.7166 16.47 81.8166 16.72 81.8566 17.06C81.9166 16.78 81.9466 16.48 81.9466 16.16C81.9466 15.4 81.8066 14.8 81.5266 14.36C81.2466 13.9 80.7766 13.67 80.1166 13.67C79.7166 13.67 79.3066 13.83 78.8866 14.15C78.4666 14.45 78.0666 14.82 77.6866 15.26C77.3266 15.7 77.0066 16.15 76.7266 16.61C76.4466 17.07 76.2366 17.45 76.0966 17.75C75.7566 18.49 75.5066 19.15 75.3466 19.73C75.2066 20.31 75.1366 20.82 75.1366 21.26C75.1366 21.9 75.2666 22.39 75.5266 22.73C75.8066 23.07 76.1366 23.24 76.5166 23.24ZM86.2945 23.18C85.6745 23.18 85.2245 23 84.9445 22.64C84.6845 22.28 84.5545 21.84 84.5545 21.32C84.5545 20.66 84.6845 19.94 84.9445 19.16C85.2245 18.38 85.5445 17.64 85.9045 16.94C86.2645 16.22 86.5545 15.66 86.7745 15.26C87.2145 14.52 87.6545 14.06 88.0945 13.88C88.5545 13.7 89.1145 13.61 89.7745 13.61C89.5745 13.67 89.3145 13.91 88.9945 14.33C88.6745 14.73 88.3345 15.23 87.9745 15.83C87.6345 16.43 87.3045 17.08 86.9845 17.78C86.6845 18.46 86.4345 19.13 86.2345 19.79C86.0545 20.43 85.9645 20.98 85.9645 21.44C85.9645 21.78 86.0245 22.06 86.1445 22.28C86.2845 22.5 86.4945 22.61 86.7745 22.61C87.0145 22.61 87.2945 22.52 87.6145 22.34C87.9345 22.14 88.2245 21.9 88.4845 21.62C89.3645 20.64 90.0745 19.57 90.6145 18.41C91.1745 17.23 91.7945 16.06 92.4745 14.9C92.9145 14.16 93.3545 13.7 93.7945 13.52C94.2545 13.34 94.8145 13.25 95.4745 13.25C95.2745 13.31 95.0045 13.56 94.6645 14C94.3245 14.42 93.9645 14.95 93.5845 15.59C93.2245 16.23 92.8845 16.92 92.5645 17.66C92.2445 18.38 91.9745 19.08 91.7545 19.76C91.5545 20.44 91.4545 21.02 91.4545 21.5C91.4545 21.82 91.5145 22.09 91.6345 22.31C91.7745 22.51 91.9745 22.61 92.2345 22.61C92.4745 22.61 92.7545 22.51 93.0745 22.31C93.3945 22.11 93.6845 21.88 93.9445 21.62C94.4045 21.12 94.8245 20.57 95.2045 19.97C95.5845 19.37 95.9645 18.73 96.3445 18.05C96.4045 17.97 96.4545 17.93 96.4945 17.93C96.5745 17.93 96.6145 17.99 96.6145 18.11C96.6145 18.21 96.5945 18.29 96.5545 18.35C96.1945 19.01 95.8145 19.67 95.4145 20.33C95.0145 20.99 94.5245 21.61 93.9445 22.19C93.6245 22.51 93.2445 22.78 92.8045 23C92.3845 23.2 91.9645 23.26 91.5445 23.18C90.9845 23.08 90.5845 22.86 90.3445 22.52C90.1045 22.16 89.9845 21.73 89.9845 21.23C89.9845 20.83 90.0445 20.41 90.1645 19.97C89.9245 20.35 89.6645 20.73 89.3845 21.11C89.1245 21.49 88.8245 21.85 88.4845 22.19C88.2045 22.47 87.8645 22.71 87.4645 22.91C87.0845 23.09 86.6945 23.18 86.2945 23.18ZM96.9851 23.24C96.5651 23.24 96.1751 23.16 95.8151 23C95.4751 22.82 95.1951 22.52 94.9751 22.1C94.8151 21.74 94.7351 21.35 94.7351 20.93C94.7351 20.49 94.8151 20.08 94.9751 19.7C95.1351 19.36 95.3151 19.06 95.5151 18.8C95.7151 18.54 95.9351 18.39 96.1751 18.35C96.3551 17.95 96.6051 17.49 96.9251 16.97C97.2451 16.43 97.6051 15.89 98.0051 15.35C98.4251 14.81 98.8451 14.33 99.2651 13.91C99.8051 13.37 100.385 12.94 101.005 12.62C101.625 12.3 102.245 12.14 102.865 12.14C103.345 12.14 103.785 12.24 104.185 12.44C104.525 12.6 104.695 12.83 104.695 13.13C104.695 13.27 104.645 13.39 104.545 13.49C104.465 13.59 104.375 13.64 104.275 13.64C104.155 13.64 104.035 13.57 103.915 13.43C103.695 13.15 103.325 12.94 102.805 12.8C102.725 12.78 102.645 12.77 102.565 12.77C102.485 12.75 102.405 12.74 102.325 12.74C101.785 12.74 101.385 12.92 101.125 13.28C100.865 13.64 100.735 14.08 100.735 14.6C100.735 15.1 100.845 15.68 101.065 16.34C101.285 16.98 101.395 17.7 101.395 18.5C101.395 19.14 101.265 19.79 101.005 20.45C100.865 20.77 100.695 21.08 100.495 21.38C100.315 21.68 100.085 21.95 99.8051 22.19L99.3851 22.49C99.4451 22.51 99.5051 22.53 99.5651 22.55C99.6251 22.55 99.6851 22.55 99.7451 22.55C100.085 22.55 100.465 22.45 100.885 22.25C101.305 22.03 101.675 21.76 101.995 21.44C102.475 20.98 102.885 20.49 103.225 19.97C103.585 19.45 103.915 18.91 104.215 18.35C104.235 18.27 104.285 18.23 104.365 18.23C104.465 18.23 104.515 18.31 104.515 18.47C104.515 18.55 104.485 18.64 104.425 18.74C104.125 19.3 103.755 19.89 103.315 20.51C102.895 21.11 102.455 21.62 101.995 22.04C101.635 22.36 101.245 22.6 100.825 22.76C100.425 22.9 100.085 22.97 99.8051 22.97C99.6051 22.97 99.4451 22.95 99.3251 22.91C99.2051 22.87 99.0951 22.81 98.9951 22.73C98.7151 22.87 98.3951 22.99 98.0351 23.09C97.6951 23.19 97.3451 23.24 96.9851 23.24ZM98.1251 22.46C98.5251 22.18 98.8351 21.82 99.0551 21.38C99.2951 20.94 99.4751 20.47 99.5951 19.97C99.7551 19.37 99.8451 18.79 99.8651 18.23C99.9051 17.65 99.9251 17.14 99.9251 16.7V15.77C99.9251 15.35 99.9751 14.92 100.075 14.48C100.195 14.02 100.355 13.68 100.555 13.46C100.295 13.52 99.9751 13.75 99.5951 14.15C99.2151 14.53 98.8351 14.98 98.4551 15.5C98.0751 16.02 97.7251 16.54 97.4051 17.06C97.1051 17.58 96.8751 18.01 96.7151 18.35C97.0951 18.33 97.3551 18.44 97.4951 18.68C97.6351 18.9 97.6751 19.06 97.6151 19.16C97.4551 19.12 97.3451 19.1 97.2851 19.1C96.9851 19.1 96.7051 19.21 96.4451 19.43C96.1851 19.63 95.9651 19.93 95.7851 20.33C95.6051 20.71 95.5151 21.08 95.5151 21.44C95.5151 21.92 95.6551 22.27 95.9351 22.49C96.2151 22.71 96.5451 22.82 96.9251 22.82C97.3651 22.82 97.7651 22.7 98.1251 22.46ZM107.951 25.73C107.731 25.73 107.411 25.7 106.991 25.64C106.571 25.58 106.191 25.45 105.851 25.25C105.491 25.05 105.311 24.73 105.311 24.29C105.311 24.05 105.371 23.86 105.491 23.72C105.571 23.62 105.651 23.57 105.731 23.57C105.811 23.57 105.841 23.62 105.821 23.72C105.741 24.02 105.851 24.3 106.151 24.56C106.431 24.84 106.711 25.02 106.991 25.1C107.311 25.18 107.651 25.22 108.011 25.22C108.791 25.22 109.511 25.02 110.171 24.62C110.851 24.22 111.451 23.72 111.971 23.12C111.231 22.6 110.571 21.95 109.991 21.17C109.431 20.39 109.151 19.51 109.151 18.53C109.151 18.23 109.181 17.93 109.241 17.63C109.461 16.55 110.011 15.71 110.891 15.11C111.351 14.79 111.871 14.63 112.451 14.63C112.831 14.63 113.171 14.7 113.471 14.84C113.791 14.96 114.011 15.11 114.131 15.29V15.32C114.131 15.4 114.091 15.48 114.011 15.56C113.931 15.62 113.871 15.63 113.831 15.59C113.691 15.33 113.421 15.2 113.021 15.2C112.801 15.2 112.561 15.25 112.301 15.35C112.041 15.43 111.801 15.58 111.581 15.8C111.321 16.02 111.111 16.3 110.951 16.64C110.791 16.96 110.661 17.3 110.561 17.66C110.441 18.08 110.381 18.49 110.381 18.89C110.381 19.69 110.571 20.41 110.951 21.05C111.331 21.69 111.801 22.24 112.361 22.7C113.081 21.8 113.751 20.78 114.371 19.64C115.011 18.5 115.591 17.39 116.111 16.31C116.651 15.21 117.131 14.29 117.551 13.55C119.111 10.81 120.611 8.69 122.051 7.19C123.511 5.67 124.861 4.91 126.101 4.91C126.361 4.91 126.611 4.94 126.851 5C126.931 5.02 126.951 5.07 126.911 5.15C126.871 5.23 126.811 5.26 126.731 5.24C126.651 5.22 126.571 5.21 126.491 5.21C126.431 5.19 126.361 5.18 126.281 5.18C125.681 5.18 125.031 5.48 124.331 6.08C123.631 6.66 122.911 7.47 122.171 8.51C121.431 9.53 120.691 10.71 119.951 12.05C120.211 11.89 120.511 11.78 120.851 11.72C121.211 11.64 121.581 11.6 121.961 11.6C122.541 11.6 123.121 11.66 123.701 11.78C124.301 11.9 124.801 12.04 125.201 12.2C126.101 11.5 126.821 10.63 127.361 9.59C127.921 8.55 128.201 7.55 128.201 6.59C128.201 5.63 127.951 4.86 127.451 4.28C126.951 3.7 126.321 3.26 125.561 2.96C124.801 2.66 124.001 2.46 123.161 2.36C122.321 2.26 121.551 2.21 120.851 2.21C119.731 2.21 118.611 2.33 117.491 2.57C116.391 2.81 115.371 3.16 114.431 3.62C113.491 4.06 112.691 4.6 112.031 5.24C111.491 5.76 110.981 6.45 110.501 7.31C110.021 8.17 109.781 9.04 109.781 9.92C109.781 10.28 109.841 10.63 109.961 10.97C110.161 11.53 110.521 11.97 111.041 12.29C111.561 12.59 112.161 12.74 112.841 12.74C113.101 12.74 113.371 12.71 113.651 12.65C113.931 12.59 114.211 12.52 114.491 12.44H114.551C114.611 12.44 114.641 12.47 114.641 12.53C114.641 12.61 114.591 12.67 114.491 12.71C113.951 12.89 113.391 12.98 112.811 12.98C112.131 12.98 111.491 12.85 110.891 12.59C110.291 12.31 109.801 11.9 109.421 11.36C109.041 10.82 108.851 10.15 108.851 9.35C108.851 8.73 108.931 8.16 109.091 7.64C109.271 7.12 109.511 6.63 109.811 6.17C110.471 5.19 111.401 4.38 112.601 3.74C113.801 3.1 115.131 2.62 116.591 2.3C118.051 1.98 119.501 1.82 120.941 1.82C121.621 1.82 122.401 1.87 123.281 1.97C124.181 2.07 125.071 2.26 125.951 2.54C126.831 2.8 127.601 3.18 128.261 3.68C128.941 4.18 129.411 4.82 129.671 5.6C129.791 5.98 129.851 6.39 129.851 6.83C129.851 7.63 129.651 8.44 129.251 9.26C128.851 10.06 128.351 10.76 127.751 11.36C127.291 11.86 126.731 12.3 126.071 12.68C127.011 13.14 127.711 13.77 128.171 14.57C128.631 15.35 128.861 16.19 128.861 17.09C128.861 18.03 128.621 18.97 128.141 19.91C127.661 20.85 126.951 21.7 126.011 22.46C125.091 23.22 123.941 23.8 122.561 24.2C121.921 24.38 121.231 24.52 120.491 24.62C119.771 24.72 119.031 24.77 118.271 24.77C117.491 24.77 116.711 24.71 115.931 24.59C115.151 24.47 114.401 24.28 113.681 24.02C113.561 23.98 113.431 23.93 113.291 23.87C113.151 23.81 113.021 23.74 112.901 23.66C111.821 24.62 110.651 25.25 109.391 25.55C108.911 25.67 108.431 25.73 107.951 25.73ZM121.181 13.82C121.821 13.82 122.431 13.72 123.011 13.52C123.611 13.3 124.171 13 124.691 12.62C124.311 12.38 123.881 12.22 123.401 12.14C122.921 12.04 122.371 11.99 121.751 11.99C121.171 11.99 120.711 12.11 120.371 12.35C120.031 12.59 119.861 12.84 119.861 13.1C119.861 13.3 119.961 13.47 120.161 13.61C120.381 13.75 120.721 13.82 121.181 13.82ZM122.411 23.63C123.431 23.19 124.281 22.61 124.961 21.89C125.661 21.15 126.191 20.34 126.551 19.46C126.911 18.58 127.091 17.72 127.091 16.88C127.091 16.12 126.941 15.41 126.641 14.75C126.361 14.09 125.921 13.54 125.321 13.1C124.701 13.4 124.021 13.65 123.281 13.85C122.561 14.05 121.821 14.15 121.061 14.15C120.501 14.15 120.081 14.08 119.801 13.94C119.521 13.78 119.331 13.62 119.231 13.46C118.971 13.96 118.721 14.48 118.481 15.02C118.241 15.56 117.991 16.1 117.731 16.64C117.211 17.72 116.581 18.86 115.841 20.06C115.121 21.26 114.271 22.33 113.291 23.27C113.411 23.35 113.531 23.41 113.651 23.45C113.771 23.51 113.891 23.56 114.011 23.6C114.671 23.84 115.371 24.02 116.111 24.14C116.851 24.26 117.591 24.32 118.331 24.32C119.111 24.32 119.851 24.25 120.551 24.11C121.271 23.99 121.891 23.83 122.411 23.63ZM128.978 22.82C128.858 22.96 128.738 23.03 128.618 23.03C128.538 23.03 128.488 23 128.468 22.94C128.448 22.86 128.468 22.78 128.528 22.7C128.868 22.32 129.278 21.8 129.758 21.14C130.238 20.48 130.718 19.75 131.198 18.95C131.678 18.15 132.098 17.33 132.458 16.49C132.818 15.63 133.038 14.81 133.118 14.03C132.658 13.77 132.348 13.32 132.188 12.68C132.168 12.58 132.148 12.49 132.128 12.41C132.128 12.31 132.128 12.22 132.128 12.14C132.128 11.78 132.198 11.48 132.338 11.24C132.498 10.98 132.678 10.85 132.878 10.85C133.158 10.85 133.388 11.12 133.568 11.66C133.608 11.8 133.638 11.96 133.658 12.14C133.678 12.3 133.688 12.46 133.688 12.62C133.688 12.8 133.678 12.97 133.658 13.13C133.658 13.27 133.648 13.39 133.628 13.49C133.768 13.53 133.948 13.56 134.168 13.58C134.408 13.6 134.668 13.61 134.948 13.61C135.368 13.61 135.808 13.6 136.268 13.58C136.728 13.54 137.118 13.52 137.438 13.52C137.818 13.52 138.078 13.6 138.218 13.76C138.358 13.92 138.428 14.12 138.428 14.36C138.428 14.66 138.348 14.99 138.188 15.35C138.048 15.69 137.908 15.98 137.768 16.22C137.508 16.7 137.258 17.13 137.018 17.51C136.798 17.87 136.548 18.26 136.268 18.68C135.848 19.32 135.538 19.91 135.338 20.45C135.158 20.97 135.068 21.41 135.068 21.77C135.068 22.39 135.298 22.7 135.758 22.7C136.138 22.7 136.628 22.43 137.228 21.89C137.608 21.55 137.958 21.15 138.278 20.69C138.618 20.21 138.918 19.73 139.178 19.25C139.458 18.75 139.688 18.34 139.868 18.02C139.908 17.96 139.948 17.93 139.988 17.93C140.068 17.93 140.108 18.01 140.108 18.17C140.108 18.29 140.078 18.4 140.018 18.5C139.678 19.12 139.288 19.8 138.848 20.54C138.408 21.28 137.868 21.92 137.228 22.46C136.888 22.74 136.548 22.94 136.208 23.06C135.888 23.2 135.588 23.27 135.308 23.27C134.808 23.27 134.388 23.1 134.048 22.76C133.728 22.4 133.568 21.93 133.568 21.35C133.568 21.01 133.648 20.6 133.808 20.12C134.068 19.4 134.458 18.71 134.978 18.05C135.498 17.39 135.998 16.72 136.478 16.04C136.778 15.64 136.928 15.25 136.928 14.87C136.928 14.67 136.868 14.5 136.748 14.36C136.648 14.22 136.458 14.14 136.178 14.12C136.018 14.08 135.838 14.06 135.638 14.06C135.438 14.06 135.238 14.06 135.038 14.06H134.198C134.078 14.06 133.968 14.06 133.868 14.06C133.768 14.06 133.678 14.05 133.598 14.03C133.498 14.79 133.258 15.61 132.878 16.49C132.518 17.35 132.088 18.2 131.588 19.04C131.108 19.88 130.628 20.63 130.148 21.29C129.688 21.95 129.298 22.46 128.978 22.82ZM140.521 23.18C139.961 23.18 139.551 23 139.291 22.64C139.031 22.26 138.901 21.8 138.901 21.26C138.901 21.1 138.911 20.94 138.931 20.78C138.971 20.6 139.011 20.42 139.051 20.24C139.271 19.44 139.611 18.55 140.071 17.57C140.551 16.57 141.011 15.68 141.451 14.9C141.711 14.46 141.951 14.15 142.171 13.97C142.391 13.77 142.631 13.63 142.891 13.55C143.151 13.45 143.461 13.34 143.821 13.22C143.921 13.18 144.021 13.15 144.121 13.13C144.221 13.11 144.331 13.09 144.451 13.07C144.051 13.47 143.641 13.95 143.221 14.51C142.821 15.07 142.381 15.84 141.901 16.82C141.641 17.34 141.381 17.92 141.121 18.56C140.881 19.2 140.671 19.8 140.491 20.36C140.311 20.92 140.211 21.36 140.191 21.68C140.171 22.06 140.221 22.33 140.341 22.49C140.461 22.65 140.621 22.73 140.821 22.73C141.161 22.73 141.481 22.61 141.781 22.37C142.101 22.13 142.381 21.88 142.621 21.62C143.061 21.12 143.471 20.57 143.851 19.97C144.251 19.37 144.641 18.73 145.021 18.05C145.081 17.97 145.131 17.93 145.171 17.93C145.251 17.93 145.291 17.99 145.291 18.11C145.291 18.21 145.271 18.29 145.231 18.35C144.871 19.01 144.491 19.67 144.091 20.33C143.691 20.99 143.201 21.61 142.621 22.19C142.361 22.45 142.051 22.68 141.691 22.88C141.351 23.08 140.961 23.18 140.521 23.18ZM144.181 11.39C143.961 11.39 143.771 11.31 143.611 11.15C143.471 10.99 143.401 10.8 143.401 10.58C143.401 10.3 143.511 10.05 143.731 9.83C143.971 9.61 144.231 9.48 144.511 9.44C144.731 9.44 144.911 9.52 145.051 9.68C145.211 9.82 145.291 10.01 145.291 10.25C145.291 10.51 145.181 10.77 144.961 11.03C144.741 11.27 144.481 11.39 144.181 11.39ZM152.127 23.21C151.447 23.21 150.957 22.98 150.657 22.52C150.357 22.04 150.207 21.45 150.207 20.75C150.207 20.05 150.327 19.36 150.567 18.68L150.867 17.81L149.757 19.52C149.477 19.96 149.107 20.46 148.647 21.02C148.207 21.56 147.737 22.03 147.237 22.43C146.597 22.95 146.017 23.21 145.497 23.21C144.997 23.21 144.607 23 144.327 22.58C144.067 22.16 143.937 21.63 143.937 20.99C143.937 20.55 143.997 20.11 144.117 19.67C144.417 18.55 144.877 17.53 145.497 16.61C146.117 15.67 146.897 14.86 147.837 14.18C148.237 13.88 148.747 13.64 149.367 13.46C149.987 13.26 150.607 13.16 151.227 13.16C151.467 13.16 151.707 13.18 151.947 13.22C152.187 13.26 152.407 13.31 152.607 13.37C152.767 13.01 152.947 12.61 153.147 12.17C153.367 11.73 153.577 11.3 153.777 10.88C153.997 10.44 154.177 10.08 154.317 9.8C154.717 8.98 155.217 8 155.817 6.86C156.417 5.72 157.117 4.66 157.917 3.68C158.537 2.9 159.247 2.22 160.047 1.64C160.867 1.04 161.657 0.739999 162.417 0.739999C162.877 0.739999 163.217 0.879999 163.437 1.16C163.677 1.44 163.797 1.78 163.797 2.18C163.797 2.54 163.727 2.87 163.587 3.17C163.267 3.89 162.757 4.65 162.057 5.45C161.377 6.25 160.637 7.03 159.837 7.79C159.057 8.53 158.357 9.2 157.737 9.8C157.217 10.3 156.757 10.74 156.357 11.12C155.957 11.48 155.587 11.84 155.247 12.2C154.907 12.56 154.537 12.96 154.137 13.4C153.697 14.4 153.287 15.4 152.907 16.4C152.547 17.4 152.247 18.33 152.007 19.19C151.787 20.05 151.677 20.77 151.677 21.35C151.677 22.17 151.927 22.61 152.427 22.67C152.767 22.67 153.087 22.56 153.387 22.34C153.687 22.12 153.947 21.88 154.167 21.62C154.627 21.12 155.047 20.57 155.427 19.97C155.807 19.37 156.187 18.73 156.567 18.05C156.627 17.97 156.687 17.93 156.747 17.93C156.827 17.93 156.867 17.99 156.867 18.11C156.867 18.21 156.847 18.29 156.807 18.35C156.447 19.01 156.057 19.67 155.637 20.33C155.237 20.99 154.747 21.61 154.167 22.19C153.907 22.45 153.607 22.69 153.267 22.91C152.927 23.11 152.547 23.21 152.127 23.21ZM154.617 12.35C155.077 11.83 155.507 11.37 155.907 10.97C156.307 10.55 156.797 10.04 157.377 9.44C157.937 8.88 158.577 8.22 159.297 7.46C160.037 6.7 160.727 5.93 161.367 5.15C162.027 4.37 162.507 3.68 162.807 3.08C163.047 2.6 163.167 2.21 163.167 1.91C163.167 1.41 162.917 1.16 162.417 1.16C161.797 1.16 161.147 1.45 160.467 2.03C159.807 2.59 159.157 3.36 158.517 4.34C157.977 5.18 157.467 6.1 156.987 7.1C156.507 8.08 156.067 9.03 155.667 9.95C155.267 10.87 154.917 11.67 154.617 12.35ZM146.127 22.28C146.487 22.28 146.917 22.04 147.417 21.56C147.937 21.06 148.467 20.45 149.007 19.73C149.567 18.99 150.077 18.27 150.537 17.57C150.677 17.37 150.857 17.04 151.077 16.58C151.317 16.12 151.567 15.63 151.827 15.11C152.087 14.57 152.307 14.1 152.487 13.7C152.367 13.66 152.247 13.64 152.127 13.64C152.027 13.64 151.917 13.64 151.797 13.64C151.177 13.64 150.557 13.81 149.937 14.15C149.337 14.47 148.797 14.9 148.317 15.44C147.637 16.18 147.067 16.98 146.607 17.84C146.147 18.68 145.827 19.42 145.647 20.06C145.547 20.42 145.497 20.79 145.497 21.17C145.497 21.47 145.537 21.73 145.617 21.95C145.717 22.17 145.887 22.28 146.127 22.28ZM162.77 23.21C162.13 23.21 161.69 23.01 161.45 22.61C161.21 22.19 161.09 21.73 161.09 21.23C161.09 21.13 161.1 20.96 161.12 20.72C161.16 20.46 161.2 20.22 161.24 20C160.96 20.38 160.62 20.8 160.22 21.26C159.84 21.72 159.45 22.11 159.05 22.43C158.41 22.95 157.83 23.21 157.31 23.21C156.81 23.21 156.42 23 156.14 22.58C155.88 22.16 155.75 21.63 155.75 20.99C155.75 20.17 155.93 19.34 156.29 18.5C156.65 17.66 157.12 16.87 157.7 16.13C158.3 15.37 158.96 14.72 159.68 14.18C160.1 13.88 160.61 13.64 161.21 13.46C161.83 13.26 162.45 13.16 163.07 13.16C163.77 13.16 164.38 13.27 164.9 13.49C165.44 13.69 165.81 13.98 166.01 14.36C165.59 14.9 165.16 15.57 164.72 16.37C164.28 17.15 163.9 17.86 163.58 18.5C163.36 18.94 163.12 19.49 162.86 20.15C162.6 20.79 162.47 21.34 162.47 21.8C162.47 22 162.52 22.2 162.62 22.4C162.72 22.6 162.91 22.7 163.19 22.7C163.51 22.7 163.82 22.58 164.12 22.34C164.42 22.1 164.67 21.86 164.87 21.62C165.33 21.12 165.75 20.57 166.13 19.97C166.51 19.37 166.89 18.73 167.27 18.05C167.33 17.97 167.39 17.93 167.45 17.93C167.53 17.93 167.57 17.99 167.57 18.11C167.57 18.21 167.55 18.29 167.51 18.35C167.17 19.01 166.79 19.67 166.37 20.33C165.95 20.99 165.45 21.61 164.87 22.19C164.59 22.47 164.26 22.71 163.88 22.91C163.5 23.11 163.13 23.21 162.77 23.21ZM157.97 22.28C158.35 22.28 158.76 22.08 159.2 21.68C159.66 21.26 160.1 20.76 160.52 20.18C160.96 19.58 161.35 19.01 161.69 18.47C162.05 17.91 162.33 17.48 162.53 17.18C162.95 16.52 163.34 15.97 163.7 15.53C164.06 15.09 164.62 14.75 165.38 14.51C165.42 14.51 165.45 14.51 165.47 14.51C165.51 14.49 165.55 14.48 165.59 14.48C165.41 14.2 165.11 13.99 164.69 13.85C164.27 13.71 163.86 13.64 163.46 13.64C162.84 13.64 162.24 13.81 161.66 14.15C161.08 14.49 160.55 14.92 160.07 15.44C159.61 15.98 159.16 16.57 158.72 17.21C158.28 17.85 157.92 18.5 157.64 19.16C157.38 19.82 157.25 20.45 157.25 21.05C157.25 21.37 157.3 21.66 157.4 21.92C157.52 22.16 157.71 22.28 157.97 22.28ZM168.633 23.18C167.913 23.18 167.413 22.97 167.133 22.55C166.853 22.13 166.713 21.6 166.713 20.96C166.713 20.3 166.813 19.58 167.013 18.8C167.233 18.02 167.483 17.26 167.763 16.52C168.063 15.78 168.343 15.13 168.603 14.57C168.883 14.01 169.073 13.62 169.173 13.4C169.533 12.64 169.973 11.78 170.493 10.82C171.033 9.86 171.633 8.88 172.293 7.88C172.973 6.88 173.683 5.93 174.423 5.03C175.183 4.13 175.963 3.35 176.763 2.69C177.583 2.03 178.393 1.58 179.193 1.34C179.413 1.28 179.613 1.25 179.793 1.25C180.133 1.25 180.413 1.35 180.633 1.55C180.873 1.73 180.993 2.05 180.993 2.51C180.993 2.83 180.913 3.23 180.753 3.71C180.493 4.41 180.053 5.19 179.433 6.05C178.813 6.89 178.083 7.77 177.243 8.69C176.403 9.59 175.513 10.48 174.573 11.36C173.653 12.24 172.753 13.06 171.873 13.82C170.993 14.58 170.213 15.23 169.533 15.77C169.353 16.15 169.183 16.52 169.023 16.88C168.883 17.24 168.753 17.59 168.633 17.93C168.573 18.11 168.483 18.38 168.363 18.74C168.243 19.1 168.133 19.5 168.033 19.94C167.933 20.38 167.883 20.8 167.883 21.2C167.883 21.6 167.963 21.95 168.123 22.25C168.283 22.53 168.573 22.67 168.993 22.67C169.333 22.67 169.643 22.56 169.923 22.34C170.223 22.12 170.493 21.88 170.733 21.62C171.573 20.66 172.323 19.55 172.983 18.29C173.063 18.15 173.123 18.08 173.163 18.08C173.203 18.08 173.223 18.14 173.223 18.26C173.223 18.44 173.183 18.63 173.103 18.83C172.723 19.53 172.373 20.12 172.053 20.6C171.753 21.08 171.313 21.61 170.733 22.19C170.473 22.45 170.163 22.68 169.803 22.88C169.463 23.08 169.073 23.18 168.633 23.18ZM169.863 15.08C170.483 14.54 171.203 13.9 172.023 13.16C172.843 12.4 173.683 11.59 174.543 10.73C175.403 9.87 176.213 9.01 176.973 8.15C177.753 7.29 178.423 6.48 178.983 5.72C179.563 4.96 179.953 4.3 180.153 3.74C180.333 3.22 180.423 2.82 180.423 2.54C180.423 2.02 180.193 1.76 179.733 1.76C179.473 1.76 179.163 1.86 178.803 2.06C178.443 2.24 178.113 2.48 177.813 2.78C177.313 3.26 176.723 3.95 176.043 4.85C175.383 5.73 174.683 6.74 173.943 7.88C173.203 9.02 172.473 10.21 171.753 11.45C171.053 12.69 170.423 13.9 169.863 15.08ZM180.085 25.64C179.845 25.52 179.655 25.35 179.515 25.13C179.395 24.91 179.335 24.69 179.335 24.47C179.335 24.25 179.395 24.07 179.515 23.93C179.595 23.85 179.675 23.8 179.755 23.78C179.835 23.78 179.865 23.83 179.845 23.93C179.785 24.23 179.915 24.51 180.235 24.77C180.575 25.05 180.875 25.22 181.135 25.28C181.295 25.3 181.445 25.32 181.585 25.34C181.745 25.38 181.895 25.4 182.035 25.4C182.615 25.4 183.175 25.3 183.715 25.1C184.435 24.86 185.145 24.36 185.845 23.6C186.565 22.86 187.235 22.03 187.855 21.11C188.435 20.23 189.035 19.17 189.655 17.93C190.295 16.67 190.955 15.37 191.635 14.03H185.515C185.455 14.03 185.425 14.01 185.425 13.97C185.425 13.87 185.495 13.75 185.635 13.61C185.795 13.45 185.935 13.37 186.055 13.37H191.965C192.605 12.13 193.275 10.93 193.975 9.77C194.675 8.61 195.405 7.56 196.165 6.62C196.945 5.66 197.755 4.9 198.595 4.34C197.835 4.26 197.055 4.15 196.255 4.01C195.475 3.87 194.785 3.74 194.185 3.62C193.325 3.46 192.475 3.32 191.635 3.2C190.815 3.08 190.005 3.02 189.205 3.02C188.525 3.02 187.865 3.08 187.225 3.2C186.605 3.32 186.005 3.52 185.425 3.8C184.945 4.06 184.495 4.5 184.075 5.12C183.675 5.72 183.475 6.34 183.475 6.98C183.475 7.24 183.515 7.49 183.595 7.73C183.695 7.97 183.845 8.2 184.045 8.42C184.085 8.44 184.075 8.48 184.015 8.54C183.975 8.58 183.925 8.59 183.865 8.57C183.485 8.23 183.205 7.85 183.025 7.43C182.845 6.99 182.755 6.55 182.755 6.11C182.755 5.45 182.915 4.83 183.235 4.25C183.575 3.67 183.995 3.23 184.495 2.93C184.995 2.65 185.515 2.45 186.055 2.33C186.615 2.21 187.195 2.15 187.795 2.15C188.355 2.15 188.925 2.19 189.505 2.27C190.085 2.35 190.685 2.45 191.305 2.57C192.205 2.75 193.145 2.95 194.125 3.17C195.125 3.37 196.075 3.54 196.975 3.68C197.355 3.74 197.735 3.79 198.115 3.83C198.515 3.87 198.905 3.9 199.285 3.92C199.925 3.62 200.545 3.47 201.145 3.47C201.225 3.47 201.395 3.48 201.655 3.5C201.915 3.52 202.045 3.61 202.045 3.77C202.045 3.99 201.885 4.15 201.565 4.25C201.265 4.33 200.935 4.38 200.575 4.4C200.215 4.4 199.955 4.4 199.795 4.4H199.495C199.255 4.56 199.015 4.76 198.775 5C198.535 5.22 198.295 5.47 198.055 5.75C197.175 6.79 196.375 7.97 195.655 9.29C194.935 10.61 194.245 11.97 193.585 13.37H200.905L201.145 12.95C202.305 10.93 203.585 8.98 204.985 7.1C206.385 5.22 207.755 3.32 209.095 1.4C209.155 1.3 209.255 1.26 209.395 1.28C209.555 1.28 209.605 1.33 209.545 1.43C208.745 2.47 207.955 3.62 207.175 4.88C206.415 6.14 205.695 7.42 205.015 8.72C204.335 10 203.705 11.22 203.125 12.38C203.005 12.58 202.855 12.91 202.675 13.37H204.715C204.755 13.37 204.775 13.39 204.775 13.43C204.775 13.51 204.695 13.63 204.535 13.79C204.395 13.95 204.265 14.03 204.145 14.03H202.375C202.115 14.69 201.815 15.44 201.475 16.28C201.155 17.1 200.855 17.93 200.575 18.77C200.295 19.59 200.075 20.32 199.915 20.96C199.795 21.46 199.735 21.91 199.735 22.31C199.735 22.89 199.865 23.31 200.125 23.57C200.345 23.79 200.625 23.9 200.965 23.9C201.365 23.9 201.775 23.74 202.195 23.42C202.695 23.04 203.205 22.54 203.725 21.92C204.245 21.28 204.715 20.65 205.135 20.03C205.555 19.39 205.855 18.9 206.035 18.56C206.155 18.38 206.265 18.29 206.365 18.29C206.425 18.29 206.455 18.33 206.455 18.41C206.455 18.49 206.425 18.59 206.365 18.71C206.145 19.15 205.835 19.69 205.435 20.33C205.035 20.97 204.575 21.61 204.055 22.25C203.535 22.87 202.985 23.39 202.405 23.81C202.125 24.01 201.805 24.17 201.445 24.29C201.105 24.43 200.745 24.5 200.365 24.5C199.825 24.5 199.325 24.34 198.865 24.02C198.245 23.56 197.935 22.78 197.935 21.68C197.955 20.44 198.225 19.16 198.745 17.84C199.265 16.52 199.855 15.25 200.515 14.03H193.285C192.665 15.33 192.035 16.61 191.395 17.87C190.775 19.11 190.115 20.23 189.415 21.23C188.735 22.21 187.945 23.09 187.045 23.87C186.165 24.65 185.165 25.24 184.045 25.64C183.425 25.86 182.685 25.97 181.825 25.97C181.485 25.97 181.165 25.94 180.865 25.88C180.565 25.84 180.305 25.76 180.085 25.64ZM212.546 23.21C211.906 23.21 211.466 23.01 211.226 22.61C210.986 22.19 210.866 21.73 210.866 21.23C210.866 21.13 210.876 20.96 210.896 20.72C210.936 20.46 210.976 20.22 211.016 20C210.736 20.38 210.396 20.8 209.996 21.26C209.616 21.72 209.226 22.11 208.826 22.43C208.186 22.95 207.606 23.21 207.086 23.21C206.586 23.21 206.196 23 205.916 22.58C205.656 22.16 205.526 21.63 205.526 20.99C205.526 20.17 205.706 19.34 206.066 18.5C206.426 17.66 206.896 16.87 207.476 16.13C208.076 15.37 208.736 14.72 209.456 14.18C209.876 13.88 210.386 13.64 210.986 13.46C211.606 13.26 212.226 13.16 212.846 13.16C213.546 13.16 214.156 13.27 214.676 13.49C215.216 13.69 215.586 13.98 215.786 14.36C215.366 14.9 214.936 15.57 214.496 16.37C214.056 17.15 213.676 17.86 213.356 18.5C213.136 18.94 212.896 19.49 212.636 20.15C212.376 20.79 212.246 21.34 212.246 21.8C212.246 22 212.296 22.2 212.396 22.4C212.496 22.6 212.686 22.7 212.966 22.7C213.286 22.7 213.596 22.58 213.896 22.34C214.196 22.1 214.446 21.86 214.646 21.62C215.106 21.12 215.526 20.57 215.906 19.97C216.286 19.37 216.666 18.73 217.046 18.05C217.106 17.97 217.166 17.93 217.226 17.93C217.306 17.93 217.346 17.99 217.346 18.11C217.346 18.21 217.326 18.29 217.286 18.35C216.946 19.01 216.566 19.67 216.146 20.33C215.726 20.99 215.226 21.61 214.646 22.19C214.366 22.47 214.036 22.71 213.656 22.91C213.276 23.11 212.906 23.21 212.546 23.21ZM207.746 22.28C208.126 22.28 208.536 22.08 208.976 21.68C209.436 21.26 209.876 20.76 210.296 20.18C210.736 19.58 211.126 19.01 211.466 18.47C211.826 17.91 212.106 17.48 212.306 17.18C212.726 16.52 213.116 15.97 213.476 15.53C213.836 15.09 214.396 14.75 215.156 14.51C215.196 14.51 215.226 14.51 215.246 14.51C215.286 14.49 215.326 14.48 215.366 14.48C215.186 14.2 214.886 13.99 214.466 13.85C214.046 13.71 213.636 13.64 213.236 13.64C212.616 13.64 212.016 13.81 211.436 14.15C210.856 14.49 210.326 14.92 209.846 15.44C209.386 15.98 208.936 16.57 208.496 17.21C208.056 17.85 207.696 18.5 207.416 19.16C207.156 19.82 207.026 20.45 207.026 21.05C207.026 21.37 207.076 21.66 207.176 21.92C207.296 22.16 207.486 22.28 207.746 22.28ZM217.988 23.21C217.288 23.21 216.788 22.96 216.488 22.46C216.188 21.96 216.038 21.4 216.038 20.78C216.038 20.34 216.098 19.91 216.218 19.49C216.418 18.79 216.668 18.09 216.968 17.39C217.288 16.67 217.588 15.99 217.868 15.35C217.908 15.25 217.978 15.08 218.078 14.84C218.178 14.58 218.238 14.33 218.258 14.09V14C218.258 13.84 218.208 13.72 218.108 13.64C218.028 13.56 217.938 13.52 217.838 13.52C217.678 13.52 217.548 13.56 217.448 13.64C217.408 13.68 217.358 13.7 217.298 13.7C217.238 13.7 217.208 13.67 217.208 13.61C217.208 13.43 217.308 13.3 217.508 13.22C217.788 13.08 218.078 13.01 218.378 13.01C218.738 13.01 219.048 13.13 219.308 13.37C219.588 13.59 219.728 13.93 219.728 14.39C219.728 14.97 219.598 15.55 219.338 16.13C219.078 16.69 218.818 17.25 218.558 17.81C218.338 18.27 218.118 18.75 217.898 19.25C217.678 19.73 217.518 20.19 217.418 20.63C217.358 20.89 217.328 21.15 217.328 21.41C217.328 21.73 217.408 22.01 217.568 22.25C217.728 22.47 218.008 22.58 218.408 22.58C218.928 22.58 219.418 22.41 219.878 22.07C220.338 21.73 220.758 21.3 221.138 20.78C221.538 20.26 221.878 19.73 222.158 19.19C222.438 18.63 222.648 18.15 222.788 17.75C222.768 17.59 222.738 17.35 222.698 17.03C222.658 16.69 222.638 16.31 222.638 15.89C222.638 15.57 222.658 15.24 222.698 14.9C222.738 14.54 222.798 14.18 222.878 13.82C222.938 13.6 223.058 13.32 223.238 12.98C223.418 12.64 223.648 12.47 223.928 12.47C224.148 12.43 224.318 12.51 224.438 12.71C224.558 12.89 224.618 13.14 224.618 13.46C224.618 14.08 224.498 14.81 224.258 15.65C224.018 16.49 223.698 17.32 223.298 18.14C223.278 18.72 223.358 19.17 223.538 19.49C223.738 19.81 223.998 19.97 224.318 19.97C224.798 19.97 225.238 19.71 225.638 19.19C226.058 18.67 226.408 18.12 226.688 17.54C226.828 17.28 226.948 17.15 227.048 17.15C227.108 17.15 227.138 17.19 227.138 17.27C227.138 17.41 227.088 17.57 226.988 17.75C226.788 18.15 226.568 18.56 226.328 18.98C226.108 19.38 225.828 19.71 225.488 19.97C225.168 20.23 224.768 20.36 224.288 20.36C223.868 20.36 223.548 20.22 223.328 19.94C223.108 19.66 222.968 19.33 222.908 18.95C222.648 19.41 222.378 19.85 222.098 20.27C221.838 20.69 221.578 21.05 221.318 21.35C220.878 21.89 220.378 22.34 219.818 22.7C219.278 23.04 218.668 23.21 217.988 23.21ZM229.163 23.24C228.003 23.24 227.183 22.94 226.703 22.34C226.463 22.08 226.293 21.77 226.193 21.41C226.093 21.05 226.042 20.68 226.042 20.3C226.042 19.82 226.103 19.34 226.223 18.86C226.343 18.36 226.493 17.9 226.673 17.48C226.953 16.82 227.323 16.16 227.783 15.5C228.243 14.82 228.793 14.25 229.433 13.79C230.093 13.33 230.813 13.1 231.593 13.1C232.113 13.1 232.523 13.23 232.823 13.49C233.123 13.75 233.273 14.15 233.273 14.69C233.273 15.31 233.083 15.94 232.703 16.58C232.323 17.2 231.843 17.72 231.263 18.14C230.683 18.56 230.083 18.77 229.463 18.77C228.903 18.77 228.413 18.57 227.993 18.17C227.873 18.49 227.773 18.85 227.693 19.25C227.613 19.63 227.573 20.02 227.573 20.42C227.573 21.04 227.693 21.58 227.933 22.04C228.193 22.5 228.653 22.73 229.313 22.73C229.793 22.73 230.253 22.61 230.693 22.37C231.153 22.11 231.563 21.8 231.923 21.44C232.323 21.02 232.703 20.57 233.063 20.09C233.423 19.61 233.773 19.05 234.113 18.41C234.153 18.35 234.183 18.32 234.203 18.32C234.283 18.32 234.323 18.41 234.323 18.59C234.323 18.71 234.283 18.84 234.203 18.98C233.903 19.52 233.553 20.07 233.153 20.63C232.753 21.17 232.343 21.64 231.923 22.04C231.543 22.4 231.133 22.69 230.693 22.91C230.253 23.13 229.743 23.24 229.163 23.24ZM228.143 17.72C228.283 17.92 228.443 18.07 228.623 18.17C228.823 18.25 229.023 18.29 229.223 18.29C229.703 18.29 230.203 18.11 230.723 17.75C231.243 17.37 231.663 16.93 231.982 16.43C232.123 16.21 232.243 15.92 232.343 15.56C232.463 15.2 232.523 14.86 232.523 14.54C232.523 14.26 232.463 14.02 232.343 13.82C232.243 13.6 232.033 13.49 231.713 13.49C231.353 13.49 230.923 13.71 230.423 14.15C229.943 14.59 229.483 15.16 229.043 15.86C228.903 16.1 228.743 16.38 228.563 16.7C228.403 17.02 228.263 17.36 228.143 17.72ZM239.654 23.18C239.074 23.18 238.614 23 238.274 22.64C237.954 22.28 237.794 21.83 237.794 21.29C237.794 21.03 237.844 20.73 237.944 20.39C238.224 19.51 238.664 18.64 239.264 17.78C239.884 16.9 240.394 16.03 240.794 15.17C240.934 14.89 241.004 14.64 241.004 14.42C241.004 14.2 240.934 14.04 240.794 13.94C240.674 13.82 240.524 13.76 240.344 13.76C240.084 13.76 239.754 13.87 239.354 14.09C238.974 14.29 238.534 14.68 238.034 15.26C237.734 15.62 237.394 16.06 237.014 16.58C236.634 17.1 236.324 17.57 236.084 17.99C235.684 18.67 235.324 19.36 235.004 20.06C234.684 20.74 234.404 21.37 234.164 21.95C233.964 22.41 233.724 22.71 233.444 22.85C233.164 22.97 232.894 23.02 232.634 23C232.374 22.98 232.174 22.98 232.034 23C232.594 21.9 233.144 20.74 233.684 19.52C234.224 18.3 234.684 17.08 235.064 15.86C235.244 15.3 235.394 14.76 235.514 14.24C235.634 13.7 235.684 13.35 235.664 13.19V13.13C235.664 12.97 235.744 12.93 235.904 13.01C236.164 13.15 236.344 13.36 236.444 13.64C236.544 13.9 236.594 14.2 236.594 14.54C236.594 14.92 236.544 15.33 236.444 15.77C236.344 16.19 236.224 16.57 236.084 16.91C236.344 16.55 236.624 16.19 236.924 15.83C237.224 15.45 237.554 15.09 237.914 14.75C238.334 14.33 238.784 13.97 239.264 13.67C239.744 13.35 240.264 13.19 240.824 13.19C241.364 13.19 241.754 13.31 241.994 13.55C242.254 13.79 242.384 14.11 242.384 14.51C242.384 14.93 242.264 15.41 242.024 15.95C241.764 16.57 241.444 17.19 241.064 17.81C240.704 18.43 240.374 19.03 240.074 19.61C240.014 19.73 239.914 19.92 239.774 20.18C239.654 20.42 239.544 20.69 239.444 20.99C239.404 21.13 239.364 21.28 239.324 21.44C239.284 21.58 239.264 21.73 239.264 21.89C239.264 22.09 239.304 22.28 239.384 22.46C239.484 22.62 239.664 22.7 239.924 22.7C240.264 22.7 240.584 22.59 240.884 22.37C241.204 22.13 241.474 21.88 241.694 21.62C242.154 21.12 242.574 20.57 242.954 19.97C243.354 19.35 243.744 18.7 244.124 18.02C244.184 17.94 244.224 17.9 244.244 17.9C244.324 17.9 244.364 17.99 244.364 18.17C244.364 18.29 244.344 18.38 244.304 18.44C243.944 19.1 243.564 19.75 243.164 20.39C242.764 21.01 242.274 21.61 241.694 22.19C241.434 22.45 241.134 22.68 240.794 22.88C240.454 23.08 240.074 23.18 239.654 23.18Z" fill="#3B2317"/>
</svg>
