<svg width="30" height="23" viewBox="0 0 30 23" fill="none" xmlns="http://www.w3.org/2000/svg">
<path d="M29.7604 11.8369C29.6473 11.6369 29.4958 11.4615 29.3146 11.3209C29.1335 11.1804 28.9263 11.0776 28.7053 11.0184C27.7025 10.7604 26.6638 10.674 25.6326 10.7626C26.2263 8.12399 25.8385 6.04177 25.4482 4.828C25.312 4.39921 25.022 4.03682 24.6347 3.81148C24.2474 3.58614 23.7905 3.51399 23.3532 3.6091C21.9957 3.91541 20.7107 4.48495 19.5698 5.28588C18.7759 3.54821 17.5755 2.02982 16.0713 0.860525C15.7626 0.626549 15.3867 0.5 15.0002 0.5C14.6138 0.5 14.2378 0.626549 13.9292 0.860525C12.4258 2.03034 11.2259 3.54862 10.4319 5.28588C9.29074 4.48466 8.0052 3.9151 6.64728 3.6091C6.20996 3.51411 5.75314 3.58647 5.366 3.81208C4.97885 4.03769 4.68917 4.40035 4.55348 4.82927C4.1632 6.04305 3.77546 8.12527 4.36915 10.7639C3.33791 10.6752 2.2992 10.7617 1.29647 11.0197C1.0754 11.0788 0.868254 11.1817 0.687098 11.3222C0.505942 11.4628 0.3544 11.6382 0.241303 11.8382C0.122445 12.0438 0.0454894 12.2712 0.0149313 12.507C-0.0156269 12.7429 0.000824309 12.9825 0.0633243 13.2119C0.484118 14.7825 1.77955 17.7677 5.71035 20.1351C9.64115 22.5026 13.1308 22.5 15.0009 22.5C16.8709 22.5 20.3555 22.5 24.2888 20.1351C28.2222 17.7702 29.5151 14.7825 29.9359 13.2106C29.9987 12.9814 30.0156 12.7419 29.9855 12.506C29.9554 12.2702 29.8789 12.0427 29.7604 11.8369ZM20.147 6.75546C21.1937 5.9614 22.3955 5.39911 23.6735 5.10554C23.7414 5.0916 23.812 5.10351 23.8717 5.13895C23.9313 5.1744 23.9758 5.23085 23.9964 5.29739C24.4973 6.86033 24.9893 10.0937 22.6502 14.1865C21.7112 15.8008 20.5077 17.2438 19.0906 18.4545C20.0669 16.7445 20.8487 14.4333 20.8487 11.3944C20.8606 9.82045 20.6238 8.2546 20.147 6.75546ZM6.00529 5.30123C6.02517 5.23398 6.06931 5.17663 6.12905 5.14043C6.18878 5.10423 6.25981 5.09178 6.32819 5.10554C7.60621 5.39911 8.80804 5.9614 9.85472 6.75546C9.37797 8.2546 9.1411 9.82045 9.15298 11.3944C9.15298 14.4333 9.93481 16.747 10.9086 18.4507C9.49119 17.2403 8.28767 15.7972 7.34903 14.1826C5.01242 10.0937 5.5044 6.86033 6.00529 5.30123ZM6.49346 18.8165C3.02286 16.7304 1.89778 14.1583 1.53547 12.8051C1.52597 12.7708 1.52343 12.7348 1.52802 12.6995C1.53261 12.6641 1.54422 12.63 1.56216 12.5992C1.58977 12.5498 1.63534 12.5132 1.68929 12.4969C2.71672 12.24 3.78497 12.1935 4.83062 12.3601C5.15317 13.2586 5.55435 14.1266 6.02944 14.9539C7.33373 17.2184 9.11232 19.1701 11.2417 20.6736C9.56299 20.3393 7.95577 19.7107 6.49346 18.8165ZM15.0009 20.8194C13.8974 20.0264 10.6785 17.2126 10.6785 11.3944C10.6785 5.84864 13.5948 3.03739 14.8483 2.08581C14.8923 2.0526 14.9458 2.03465 15.0009 2.03465C15.0559 2.03465 15.1094 2.0526 15.1534 2.08581C16.4069 3.03739 19.3232 5.84864 19.3232 11.3944C19.3232 17.2484 16.1209 20.0277 15.0009 20.8194ZM28.4637 12.8103C28.1014 14.1583 26.9763 16.7304 23.5057 18.8216C22.0418 19.714 20.4333 20.3405 18.7537 20.6723C20.883 19.1688 22.6616 17.2171 23.9659 14.9526C24.4431 14.126 24.8464 13.2584 25.1711 12.3601C26.2179 12.1948 27.2871 12.2431 28.315 12.502C28.3689 12.5183 28.4145 12.555 28.4421 12.6043C28.4596 12.6353 28.4708 12.6695 28.4749 12.7048C28.4791 12.7402 28.4761 12.7761 28.4663 12.8103H28.4637Z" fill="#513C27"/>
</svg>
