<svg width="212" height="343" viewBox="0 0 212 343" fill="none" xmlns="http://www.w3.org/2000/svg">
<g opacity="0.4" clip-path="url(#clip0_2_882)">
<path d="M124.93 342.54C124.87 340.78 124.78 339.03 124.76 337.27C124.72 332.7 124.27 328.16 123.66 323.65C122.82 317.47 121.56 311.38 119.74 305.41C118.41 301.04 116.66 296.83 114.76 292.69C112.1 286.91 109.37 281.17 106.84 275.34C103.26 267.1 100.8 258.51 99.33 249.65C98.53 244.83 97.72 240 97.17 235.15C96.64 230.46 96.44 225.73 96.1 221.01C96.08 220.76 96.1 220.51 96.33 220.18C96.49 220.5 96.72 220.81 96.78 221.15C96.89 221.81 96.91 222.48 96.96 223.15C97.3 227.4 97.58 231.66 98 235.9C98.65 242.43 99.78 248.9 101.17 255.31C103.12 264.31 106.31 272.87 110.18 281.2C112.7 286.62 115.25 292.04 117.64 297.52C120.43 303.91 122.17 310.63 123.37 317.48C124.09 321.63 124.68 325.82 125.08 330.02C125.44 333.72 125.46 337.46 125.63 341.18C125.65 341.64 125.68 342.1 125.7 342.56H124.95L124.93 342.54Z" fill="#C89663"/>
<path d="M49.97 36.5702C49.29 34.1702 48.58 32.0802 48.11 29.9502C47.37 26.6202 47.02 23.2302 47.71 19.8602C47.99 18.5102 48.56 17.1702 49.21 15.9502C50.81 12.9602 52.49 10.0002 54.23 7.09016C55.02 5.78016 55.92 4.49016 56.98 3.39016C59.72 0.560162 63.06 -0.539839 66.98 0.280161C72.33 1.40016 76.66 3.98016 79.47 8.80016C80.89 11.2402 81.59 13.9302 82.03 16.6802C82.88 22.0002 83.24 27.3802 83.04 32.7602C82.96 34.9802 82.32 37.1802 81.92 39.3802C81.85 39.7602 81.73 40.1202 81.58 40.6902C81.89 40.4902 82.04 40.4202 82.16 40.3202C88.3 35.1302 95.38 31.8602 103.27 30.6102C109.51 29.6302 115.76 29.9202 121.74 32.3502C123.6 33.1002 125.33 34.0502 126.72 35.5202C127.17 36.0002 127.61 36.5102 127.96 37.0602C129.38 39.2402 129.11 41.2602 127.05 42.8802C126.09 43.6302 124.96 44.1802 123.85 44.7002C122.49 45.3202 121.06 45.7902 119.67 46.3602C118.14 46.9902 116.73 47.8502 115.7 49.1502C113.96 51.3402 111.63 52.5002 109.03 53.1802C105.75 54.0302 102.43 54.7302 99.15 55.5802C96.72 56.2202 94.29 56.8702 91.95 57.7702C89.87 58.5702 87.92 59.7202 85.91 60.7302C85.69 60.8402 85.51 61.0502 85.37 61.3802C85.72 61.3002 86.08 61.2502 86.43 61.1502C91.23 59.6402 96.14 59.5602 101.09 60.0902C106.91 60.7102 112.32 62.6602 117.55 65.1602C120.28 66.4602 122.71 68.2102 124.92 70.2602C126.93 72.1302 128.38 74.3602 129.25 76.9702C129.42 77.4702 129.58 77.9802 129.66 78.5002C130.08 81.3602 129.22 82.8902 126.56 84.0702C125.67 84.4602 124.78 84.8302 123.88 85.2102C122.13 85.9502 120.9 87.1902 120.11 88.9202C119.45 90.3602 118.71 91.7702 118.02 93.1902C115.86 97.6702 111.95 99.2102 107.33 99.5102C103.75 99.7402 100.32 98.8602 96.96 97.7902C90.6 95.7602 84.75 92.7502 79.55 88.5202C79.26 88.2802 78.92 88.1002 78.51 87.8402C78.76 88.9002 78.98 89.8202 79.19 90.7402C79.58 92.5002 79.21 94.1602 78.43 95.7402C78.14 96.3302 77.83 96.9302 77.42 97.4402C76.04 99.1602 75.76 101.18 75.67 103.28C75.22 114.52 77.82 125.14 82.18 135.4C84.43 140.67 86.77 145.9 89.03 151.17C91.07 155.93 92.41 160.91 93.32 165.99C93.69 168.06 93.75 170.19 93.94 172.3C94.19 175.02 94.44 177.74 94.65 180.46C94.7 181.05 95.03 181.74 94.25 182.34C93.83 181.31 93.82 180.33 93.73 179.35C93.24 174.44 92.87 169.52 92.21 164.63C91.58 160.03 90.1 155.63 88.28 151.36C85.96 145.88 83.49 140.46 81.2 134.97C78.82 129.27 76.89 123.42 75.89 117.29C75.18 112.93 74.78 108.55 74.94 104.12C74.96 103.6 74.94 103.08 74.7 102.5C74.49 102.96 74.26 103.42 74.08 103.89C71.93 109.36 67.54 112.12 62.2 113.71C60.64 114.17 59.08 113.71 57.82 112.75C56.64 111.85 55.62 110.73 54.6 109.65C54.15 109.18 53.84 108.57 53.5 108C51.78 105.16 49.88 102.47 47.71 99.9502C45.61 97.5102 44.02 94.7602 43.34 91.5902C42.96 89.7902 42.85 87.9302 42.64 86.1002C42.59 85.6802 42.64 85.2502 42.64 84.5802C42.07 84.9702 41.71 85.2002 41.37 85.4602C38.63 87.5602 35.52 88.5702 32.11 88.9802C27.39 89.5502 22.9 88.7702 18.49 87.1702C15.1 85.9402 11.7 84.7002 8.15001 83.9802C6.69001 83.6802 5.22001 83.3202 3.85001 82.7702C1.25001 81.7102 0.0700059 79.6402 5.93741e-06 76.8402C-0.0899941 73.1502 1.49001 70.5102 4.75001 68.8002C6.74001 67.7502 8.88001 67.1602 11.08 67.0802C14.69 66.9402 18.31 66.9702 21.93 67.0602C23.27 67.0902 24.6 67.5002 26.2 67.7802C25.85 67.4002 25.67 67.1402 25.44 66.9502C22.48 64.5002 20.09 61.5902 18.32 58.1702C17.17 55.9502 15.59 54.0702 13.76 52.3802C12.2 50.9402 10.63 49.5302 9.11001 48.0502C6.02001 45.0302 4.14001 41.3402 3.31001 37.1202C3.14001 36.2702 3.16001 35.3502 3.24001 34.4902C3.39001 33.0402 4.51001 32.1302 6.10001 32.0802C7.99001 32.0202 9.76 32.5702 11.48 33.2502C12.5 33.6502 13.49 34.1002 14.64 34.5902C14.61 33.8802 14.6 33.3302 14.55 32.7802C14.38 31.1402 15.06 29.8702 16.25 28.8102C17.96 27.2902 20.04 26.5102 22.25 26.2702C32.26 25.2002 40.96 28.1302 48.32 35.0002C48.83 35.4802 49.33 35.9602 49.98 36.5702H49.97ZM71.03 80.4102C73.65 81.6702 75.62 83.5902 77.48 85.6902C78.52 86.8702 79.73 87.9502 81 88.8802C86.19 92.7002 91.87 95.5902 98.07 97.3702C101.72 98.4202 105.4 99.2602 109.26 98.5402C112.58 97.9202 115.38 96.5702 117.02 93.4402C117.84 91.8802 118.69 90.3402 119.43 88.7402C120.32 86.8002 121.69 85.4002 123.64 84.5502C124.53 84.1602 125.42 83.7902 126.31 83.4002C128.91 82.2502 129.31 80.9102 128.91 78.1802C128.85 77.7502 128.67 77.3402 128.52 76.9202C127.68 74.5502 126.34 72.5002 124.51 70.7802C122.44 68.8402 120.17 67.1602 117.62 65.9102C111.85 63.0902 105.86 61.0202 99.39 60.4902C95.44 60.1702 91.59 60.4902 87.73 61.3202C84.17 62.0802 81.45 63.9702 79.33 66.8402C79.08 67.1802 78.96 67.6202 78.82 68.0202C78.33 69.4302 78.08 70.9702 77.34 72.2402C76.07 74.4402 74.55 76.5002 73.04 78.5602C72.54 79.2502 71.77 79.7502 71.05 80.4002L71.03 80.4102ZM15.41 35.5702C14.74 35.3002 14.34 35.1502 13.95 34.9902C12.73 34.4802 11.52 33.9302 10.29 33.4802C8.88001 32.9602 7.41001 32.6402 5.89001 32.7702C4.75001 32.8702 4.10001 33.4202 3.90001 34.5302C3.81001 35.0402 3.73001 35.6002 3.84001 36.1002C4.19001 37.6802 4.59001 39.2602 5.04001 40.8202C5.35001 41.9002 6.06001 42.7302 6.89001 43.5102C8.66001 45.1702 10.68 46.3802 12.96 47.1602C14.08 47.5502 15.21 47.9102 16.34 48.2802C19.71 49.3902 22.65 51.1802 25.11 53.7602C27.27 56.0302 28.78 58.7102 30.14 61.4902C31.03 63.3102 31.89 65.1502 32.79 66.9602C33.67 68.7202 34.9 70.2102 36.43 71.4502C37.37 72.2102 38.38 72.8302 39.6 72.9902C43.86 73.5402 48.1 73.7302 52.31 72.6002C52.78 72.4802 53.25 72.3702 53.73 72.3102C54.53 72.2002 55.33 72.1402 55.99 72.0702C55.16 70.2502 54.21 68.5002 53.55 66.6502C52.5 63.7402 52.42 60.6602 52.8 57.6302C53.16 54.7902 54.07 52.1102 56.83 50.5602C56.89 50.5302 56.91 50.4102 56.95 50.3302C56.63 47.9502 55.92 45.7002 54.62 43.6502C51.67 39.0202 48.06 35.0102 43.5 31.9202C37.35 27.7502 30.48 26.2402 23.14 26.7402C20.89 26.8902 18.71 27.5702 16.91 29.0602C15.48 30.2402 14.71 31.6702 15.25 33.6002C15.4 34.1502 15.36 34.7502 15.43 35.5702H15.41ZM72.3 58.5702C72.85 57.1002 73.34 55.7902 73.86 54.3902C73.69 53.0702 73.04 51.5802 74.34 50.3002H75.87C77.46 48.0602 78.79 45.6702 79.9 43.1802C81.8 38.9302 82.71 34.4802 82.42 29.8102C82.23 26.7302 82.06 23.6502 81.83 20.5802C81.59 17.4502 81.05 14.3702 79.95 11.4302C77.53 4.95016 70.56 0.290161 63.83 0.710161C60.37 0.930161 57.75 2.55016 56.64 5.97016C56.03 7.84016 55.64 9.80016 55.31 11.7402C54.86 14.3402 53.96 16.5902 51.8 18.3202C48.99 20.5702 48.1 23.8102 48.31 27.2002C48.45 29.4902 49.18 31.7702 49.86 33.9902C50.57 36.3102 51.74 38.4402 53.2 40.4102C55.13 43.0102 56.78 45.7602 57.32 49.0302C57.39 49.4502 57.49 49.8602 57.57 50.2702C57.85 50.2902 58.02 50.3102 58.2 50.3202C59.72 50.3802 60.28 50.7202 60.62 52.2102C60.81 53.0302 60.83 53.9802 60.61 54.7902C60.22 56.2302 60.65 57.4202 61.21 58.5702C62.3 58.1202 63.31 57.7102 64.46 57.2402C65.15 56.0902 66.38 55.8202 67.7 56.1902C68.74 56.4802 69.74 56.9802 70.72 57.4702C71.3 57.7602 71.79 58.2102 72.32 58.5802L72.3 58.5702ZM78.78 91.9902C78.59 91.0402 78.48 90.0802 78.21 89.1602C77 85.0902 74.04 82.6302 70.4 80.8502C70.1 80.7002 69.71 80.6902 69.37 80.7002C66.14 80.8002 63.52 79.4602 61.44 77.1402C60.32 75.8802 59.05 74.8202 57.82 73.7002C57.12 73.0702 56.33 72.7802 55.42 72.7802C52.79 72.7802 50.49 73.6902 48.55 75.4302C44.05 79.4702 42.52 84.4602 43.74 90.3702C44.45 93.7802 45.99 96.7302 48.15 99.4302C49.66 101.32 51.12 103.26 52.54 105.23C53.42 106.44 54.09 107.81 55.01 108.98C55.87 110.08 56.86 111.12 57.94 112C59.49 113.26 61.34 113.52 63.18 112.76C64.88 112.05 66.56 111.24 68.13 110.28C70.35 108.91 72.07 107 73.09 104.57C74.32 101.64 75.69 98.7902 77.47 96.1402C78.29 94.9202 78.74 93.5302 78.79 91.9902H78.78ZM79.3 65.2502C79.64 64.9502 79.89 64.7902 80.06 64.5602C80.69 63.7102 81.33 62.8602 81.88 61.9602C83.95 58.5802 86.79 56.1402 90.42 54.5302C94.15 52.8702 98.05 52.1302 102.09 51.9602C104.2 51.8702 106.33 51.9402 108.44 51.9202C110.99 51.9002 113.17 51.0602 114.83 49.0202C116.05 47.5202 117.61 46.4502 119.4 45.7302C120.87 45.1402 122.38 44.6202 123.82 43.9602C124.85 43.4902 125.89 42.9502 126.77 42.2402C128.45 40.8702 128.64 39.2702 127.49 37.4302C126.68 36.1402 125.62 35.0602 124.3 34.3102C123.12 33.6402 121.89 33.0002 120.62 32.5302C114.89 30.4402 109 30.1702 103.04 31.1502C95.76 32.3502 89.27 35.4102 83.42 39.8402C82.52 40.5202 81.66 41.3802 81.1 42.3402C79.46 45.1502 77.97 48.0502 76.39 50.9802C79.42 55.1702 79.52 60.0802 79.29 65.2302L79.3 65.2502ZM49.03 73.8902C47.63 73.8902 46.27 73.9202 44.91 73.8902C43.02 73.8502 41.11 73.8902 39.24 73.6702C36.23 73.3202 33.46 72.1702 30.83 70.6902C28.16 69.1902 25.37 67.9102 22.28 67.7902C18.54 67.6502 14.78 67.6802 11.04 67.8202C8.97001 67.8902 6.97001 68.4702 5.09001 69.4202C1.39001 71.2902 0.230006 74.3902 0.770006 78.2102C0.920006 79.3102 1.50001 80.0402 2.62001 80.3602C3.91001 80.7302 5.19001 80.9702 6.52001 80.6302C8.56001 80.1102 10.61 79.6102 12.65 79.0602C16.21 78.1002 19.78 77.9902 23.34 78.9802C25.79 79.6702 27.9 81.0602 29.98 82.4702C31.37 83.4102 32.74 84.3802 34.2 85.1902C36.1 86.2402 38.12 86.5602 40.14 85.5202C41.58 84.7802 42.86 84.0002 43.34 82.1402C43.74 80.5702 44.69 79.0802 45.63 77.7202C46.57 76.3702 47.82 75.2302 49.02 73.9002L49.03 73.8902ZM7.37001 44.5602C7.29001 44.6502 7.21001 44.7402 7.13001 44.8202C7.74001 45.5602 8.29001 46.3502 8.97001 47.0302C10.31 48.3702 11.68 49.6902 13.1 50.9402C15.6 53.1502 17.69 55.6502 19.32 58.6002C22.86 65.0102 28.33 69.2202 35.03 71.9502C35.42 72.1102 35.84 72.1902 36.51 72.3902C36.23 72.0302 36.15 71.8802 36.03 71.7902C34.01 70.2502 32.69 68.1802 31.61 65.9302C30.64 63.9002 29.67 61.8702 28.66 59.8702C25.79 54.1902 21.37 50.3302 15.24 48.4902C12.4 47.6402 9.62001 46.6502 7.37001 44.5702V44.5602ZM37.4 86.9702C37.14 86.8502 36.99 86.7402 36.83 86.7102C34.5 86.3202 32.6 85.0502 30.7 83.7502C29.21 82.7302 27.71 81.7002 26.14 80.8302C22.87 79.0202 19.35 78.4402 15.67 79.0802C13.9 79.3902 12.15 79.8602 10.41 80.3102C8.45001 80.8202 6.51001 81.4102 4.44001 81.2402C3.84001 81.1902 3.25001 81.1002 2.65001 81.0402C2.61001 81.1202 2.58001 81.2002 2.54001 81.2802C3.17001 81.6302 3.77001 82.1002 4.45001 82.3102C6.04001 82.7902 7.70001 83.0802 9.29001 83.5602C12.41 84.4902 15.54 85.3902 18.6 86.4902C23.29 88.1702 28.05 88.9502 33 88.1802C34.47 87.9502 35.94 87.7102 37.4 86.9602V86.9702ZM69.01 80.3202C68.56 77.8802 68.2 75.6702 67.73 73.4802C66.95 69.8302 65.17 66.8702 61.77 65.0302C61.31 64.7802 60.99 64.2202 60.67 63.7702C60.21 63.1302 59.84 62.4202 59.36 61.8002C59.01 61.3402 58.52 60.9502 57.88 61.1702C57.22 61.4002 56.98 61.9802 56.89 62.6202C56.85 62.9202 56.85 63.2402 56.85 63.5402C56.85 67.3302 57.89 70.8402 59.81 74.0802C61.61 77.1102 64.12 79.2902 67.63 80.1302C68.04 80.2302 68.46 80.2502 69 80.3302L69.01 80.3202ZM69.59 80.1302C71.76 79.3202 72.99 77.9602 73.88 76.2302C74.5 75.0302 74.66 73.7402 74.82 72.4202C75.21 69.1602 74.55 66.1202 73.06 63.2402C72.71 62.5502 72.17 61.9102 71.58 61.4102C70.29 60.3202 69.3 60.6902 68.93 62.3102C68.88 62.5202 68.81 62.7402 68.82 62.9602C68.87 64.0302 68.45 64.9102 67.89 65.7902C67.06 67.0802 66.86 68.5902 67.31 69.9902C68.08 72.3502 68.52 74.7502 68.85 77.1902C68.97 78.1202 69.3 79.0302 69.59 80.1402V80.1302ZM53.94 66.1502C54.05 66.1302 54.16 66.1102 54.27 66.0802C54.28 65.8202 54.3 65.5602 54.31 65.3002C54.33 62.7402 55.12 60.4902 56.89 58.5802C57.76 57.6502 58.51 56.6102 59.26 55.5802C59.87 54.7502 60.23 53.8002 60.12 52.7402C59.96 51.1702 58.94 50.5202 57.44 50.9902C56.14 51.4002 55.29 52.2902 54.66 53.4602C53.15 56.2502 52.95 59.2402 53.29 62.3102C53.43 63.6002 53.72 64.8702 53.95 66.1502H53.94ZM82.16 62.5202C82.54 62.4102 82.59 62.4102 82.63 62.3902C82.84 62.2302 83.05 62.0602 83.25 61.9002C86.02 59.6702 89.03 57.8302 92.46 56.8302C96.17 55.7402 99.92 54.7502 103.66 53.7502C105.17 53.3502 106.71 53.0402 108.24 52.6902C108.24 52.5902 108.22 52.4902 108.21 52.3902C107.75 52.3902 107.29 52.3702 106.83 52.3902C104.94 52.4602 103.04 52.5602 101.15 52.6202C97.95 52.7302 94.86 53.3702 91.89 54.5202C88.29 55.9202 85.1 57.9002 82.95 61.2302C82.72 61.5802 82.52 61.9502 82.18 62.5202H82.16ZM77.24 70.0102C77.32 70.0602 77.4 70.1002 77.49 70.1502C77.62 69.7902 77.78 69.4402 77.88 69.0802C78.91 65.1502 79.01 61.1702 78.35 57.1802C78.06 55.4502 77.52 53.7602 76.52 52.2702C76.08 51.6102 75.59 51.0102 74.78 50.8402C74.07 51.7402 73.9 52.0602 74.22 53.0402C74.79 54.7902 75.43 56.5202 76.14 58.2202C76.69 59.5402 77.13 60.8402 77.01 62.3002C76.95 63.0902 76.97 63.8902 77.06 64.6702C77.26 66.4502 77.74 68.2102 77.24 70.0302V70.0102ZM70.23 60.1802C73.03 60.8602 73.76 63.3602 74.81 65.6902C74.88 65.4602 74.94 65.3702 74.93 65.2902C74.23 61.4502 72.33 58.5102 68.6 56.9802C68.08 56.7702 67.5 56.6802 66.94 56.6102C65.09 56.4002 64.28 57.9702 65 59.6002C65.16 59.9602 65.49 60.2902 65.52 60.6502C65.65 62.2202 66.81 62.5502 68.05 62.9802C68.52 61.8302 68.59 60.4802 70.22 60.1702L70.23 60.1802ZM47.99 24.0902C48.52 21.5602 49.63 19.3602 51.65 17.7102C53.28 16.3802 54.1 14.6402 54.54 12.6602C55.02 10.4302 55.51 8.20016 55.98 5.96016C55.98 5.92016 55.9 5.86016 55.81 5.76016C55.6 6.06016 55.38 6.32016 55.21 6.62016C53.22 10.1002 51.2 13.5602 49.25 17.0602C48.03 19.2502 47.9 21.6602 47.99 24.0902ZM58.77 73.5102C58.54 72.9302 58.38 72.4902 58.2 72.0702C57.07 69.5102 56.39 66.8402 56.36 64.0302C56.36 63.3402 56.4 62.6002 56.61 61.9502C57.01 60.7202 57.98 60.4002 59.11 60.9902C59.36 61.1202 59.62 61.2302 59.88 61.3502C60.7 58.7802 60.7 58.7602 59.54 56.2802C58.76 57.2202 58.08 58.1802 57.27 59.0202C53.43 63.0102 53.91 70.0202 58.77 73.5102ZM63.89 58.0602C61.89 58.4802 60.71 59.6802 60.53 61.5102C60.39 63.0402 61.39 64.3102 63.41 65.2102C63.93 64.8302 64.43 64.4902 64.9 64.1302C65.67 63.5402 65.83 62.9502 65.52 62.1902C64.96 60.8202 64.43 59.4402 63.88 58.0502L63.89 58.0602ZM75.49 64.0902C76.1 62.9002 76.53 61.6802 76.28 60.4202C75.93 58.6202 74.87 57.1002 74.18 55.4202C74.08 55.4302 73.99 55.4502 73.89 55.4602C73.48 56.6402 73.07 57.8202 72.75 58.7402C73.72 60.6502 74.57 62.3102 75.48 64.0902H75.49ZM75.55 65.1202C75.61 65.1702 75.66 65.2202 75.72 65.2702C75.62 68.0902 75.51 70.9102 75.41 73.7302C77.19 70.4902 77.15 67.1002 76.41 63.4302C76.06 64.1202 75.81 64.6302 75.55 65.1302V65.1202Z" fill="#C89663"/>
<path d="M13.63 202.25C13.89 202.18 14.15 202.06 14.42 202.05C18.36 201.92 22.22 201.17 26.12 200.64C29.76 200.14 33.44 199.89 37.1 199.52C40.44 199.19 43.79 199.2 47.13 199.54C56.51 200.5 65.4 202.9 73.02 208.76C76.54 211.47 79.44 214.78 81.57 218.69C83.24 221.75 85.17 224.63 87.3 227.38C91.38 232.63 94.2 238.53 96.48 244.73C98.15 249.28 99.95 253.79 101.68 258.32C101.78 258.57 101.83 258.85 101.7 259.2C101.36 258.7 100.99 258.21 100.67 257.7C97.71 252.94 94.81 248.13 91.79 243.41C88.46 238.22 84.6 233.43 80.42 228.89C74.07 221.97 66.47 217.15 57.41 214.51C48.82 212.01 40.19 209.7 31.52 207.5C26.7 206.28 21.92 204.93 17.11 203.64C16.22 203.4 15.32 203.21 14.44 202.96C14.15 202.88 13.88 202.71 13.6 202.58C13.62 202.47 13.63 202.35 13.65 202.24L13.63 202.25ZM20.31 203.57C20.3 203.62 20.29 203.67 20.28 203.72C20.66 203.85 21.04 204.01 21.43 204.12C24.78 205.03 28.11 205.98 31.48 206.82C40.44 209.07 49.37 211.41 58.22 214.08C65.95 216.42 72.77 220.23 78.48 225.96C80.16 227.65 81.76 229.43 83.39 231.17C83.68 231.48 83.97 231.79 84.25 232.1C84.32 232.04 84.38 231.99 84.45 231.93C84.21 231.55 84.01 231.15 83.74 230.8C80.85 227.06 78.03 223.25 75.02 219.6C71.46 215.29 67.08 211.95 62.18 209.25C55.97 205.83 49.18 204.79 42.27 204.23C40.23 204.06 38.18 203.97 36.13 203.91C30.86 203.77 25.59 203.66 20.32 203.55L20.31 203.57ZM96.89 248.67C96.96 248.38 96.99 248.34 96.98 248.31C96.57 247.17 96.16 246.03 95.75 244.89C93.57 238.78 90.74 233.02 86.75 227.87C84.62 225.12 82.71 222.23 81 219.19C77.48 212.95 72.46 208.29 65.97 205.23C58.67 201.78 50.93 200.19 42.9 200C40.85 199.95 38.8 200.07 36.75 200.23C33.71 200.47 30.67 200.77 27.64 201.13C24.99 201.45 22.35 201.88 19.7 202.25C18.67 202.39 17.63 202.49 16.6 202.61C18.74 202.87 20.87 202.98 23 203.03C27.52 203.13 32.04 203.19 36.56 203.29C40.66 203.38 44.75 203.64 48.8 204.31C52.64 204.95 56.43 205.77 59.99 207.43C70.9 212.53 79.77 220.05 86.68 229.89C90.04 234.67 92.67 239.86 95.2 245.09C95.75 246.22 96.27 247.35 96.88 248.65L96.89 248.67ZM96.32 249.34C91.01 236.56 84.18 224.85 73.03 216.2C73.1 216.48 73.26 216.71 73.44 216.9C77.14 220.79 80.52 224.96 83.5 229.42C87.64 235.61 91.58 241.94 95.61 248.2C95.85 248.58 96.08 248.96 96.32 249.33V249.34Z" fill="#C89663"/>
<path d="M93.03 168.45C92.95 168.23 92.85 168.02 92.81 167.8C92.24 165.12 92.62 162.47 93.08 159.82C93.21 159.04 93.3 158.25 93.35 157.46C93.68 152.74 93.89 148.01 94.35 143.31C94.94 137.31 96.52 131.56 99.36 126.2C101.43 122.29 104.04 118.72 107.18 115.63C110.94 111.93 114.87 108.4 118.82 104.9C122.69 101.48 127.14 98.8301 131.38 95.9101C136.46 92.4101 141.37 88.7101 145.71 84.3101C146.27 83.7401 146.87 83.2201 147.49 82.7201C147.79 82.4701 148.18 82.3201 148.52 82.1201C149.03 82.7801 148.71 83.2901 148.51 83.7601C146.59 88.2101 144.72 92.7001 142.68 97.1001C139.76 103.39 136.23 109.33 131.85 114.72C126.68 121.08 120.76 126.7 114.24 131.68C111.98 133.41 109.68 135.11 107.56 137.01C102.39 141.65 98.23 147.05 95.63 153.58C94.47 156.49 93.92 159.52 93.49 162.58C93.28 164.11 93.28 165.66 93.19 167.2C93.17 167.61 93.19 168.02 93.19 168.43C93.13 168.44 93.08 168.45 93.02 168.46L93.03 168.45ZM94.14 154.66C94.22 154.68 94.31 154.7 94.39 154.72C94.44 154.66 94.52 154.62 94.55 154.55C94.63 154.4 94.7 154.25 94.75 154.09C96.51 149.07 99.39 144.74 102.84 140.75C105.9 137.21 109.53 134.31 113.25 131.52C120.19 126.32 126.46 120.41 131.82 113.6C138.75 104.8 143.42 94.7401 147.57 84.4201C147.67 84.1701 147.7 83.8901 147.77 83.6201C147.17 83.8801 146.72 84.2401 146.33 84.6501C141.88 89.1801 136.85 92.9901 131.62 96.5801C127.38 99.4901 122.93 102.15 119.07 105.57C115.34 108.88 111.6 112.18 108.07 115.69C103.79 119.94 100.35 124.82 98.11 130.49C96.48 134.6 95.53 138.87 95 143.24C94.86 144.38 94.81 145.52 94.71 146.77C94.91 146.66 94.97 146.64 94.98 146.61C95.05 146.37 95.12 146.13 95.18 145.89C96.23 141.45 98.15 137.38 100.56 133.52C103.1 129.45 105.95 125.61 109.34 122.24C113.58 118.02 117.86 113.81 122.38 109.89C129.95 103.33 137.41 96.6601 143.76 88.8701C143.84 88.7701 143.97 88.7101 144.07 88.6301C140.5 93.4401 136.62 97.9401 132.2 101.94C127.91 105.82 123.52 109.58 119.24 113.45C114.11 118.09 109.11 122.85 104.87 128.35C99.92 134.77 96.14 141.72 94.84 149.83C94.58 151.43 94.38 153.04 94.15 154.64L94.14 154.66Z" fill="#C89663"/>
<path d="M74.76 50.1699C77.66 40.7799 77.76 31.1199 77.64 21.4399C78.93 30.9799 77.21 47.3099 74.76 50.1699Z" fill="#C89663"/>
<path d="M67.24 30.4702C68.32 39.0302 68.48 47.6802 67.82 56.3302C67.71 56.3402 67.61 56.3502 67.5 56.3602C67.45 56.0602 67.36 55.7502 67.36 55.4502C67.42 52.4102 67.54 49.3702 67.56 46.3302C67.59 42.6702 67.58 39.0102 67.52 35.3502C67.5 33.7202 67.33 32.1002 67.23 30.4802L67.24 30.4702Z" fill="#C89663"/>
<path d="M98.36 78.23C91.23 75.8 84.13 73.37 76.57 72.62C76.57 72.48 76.59 72.35 76.6 72.21C77 72.17 77.4 72.07 77.79 72.09C83.11 72.4 93.44 75.49 98.36 78.23Z" fill="#C89663"/>
<path d="M107.22 67.3398C109.74 67.3398 112.19 67.7998 114.62 68.3598C117.53 69.0298 120.45 69.6798 123.15 71.0098C124.52 71.6898 125.82 72.5398 127.1 73.3798C127.78 73.8298 128.32 74.4498 128.76 75.4998C128.32 75.3298 128.09 75.3198 127.97 75.1898C125.6 72.7598 122.63 71.3398 119.47 70.3198C115.46 69.0198 111.36 68.0898 107.22 67.3398Z" fill="#C89663"/>
<path d="M33.03 38.1199C40.2 42.3499 51.53 51.2499 53.27 56.1299C51.8 54.4399 50.4 52.6799 48.85 51.0599C47.26 49.4099 45.57 47.8499 43.84 46.3599C42.14 44.8999 40.34 43.5399 38.55 42.1799C36.73 40.7999 34.87 39.4699 33.03 38.1099V38.1199Z" fill="#C89663"/>
<path d="M34.61 48.3301C41.27 53.2101 48.03 57.9701 53.5 64.2601C53.33 64.4401 53.31 64.4901 53.27 64.5101C53.24 64.5301 53.18 64.5401 53.15 64.5301C53.04 64.4701 52.92 64.4201 52.82 64.3401C52.69 64.2301 52.57 64.0901 52.45 63.9601C50.92 62.4401 49.48 60.8001 47.84 59.4101C44.08 56.2201 40.21 53.1401 36.39 50.0201C35.75 49.5001 35.07 49.0101 34.41 48.5101C34.48 48.4501 34.54 48.3901 34.61 48.3301Z" fill="#C89663"/>
<path d="M108.32 42.6699C98.37 45.3499 89.29 49.6499 81.84 56.9599C89.05 49.1899 98.13 44.8899 108.32 42.6699Z" fill="#C89663"/>
<path d="M59.03 1.78998C58.91 2.59998 58.71 3.40998 58.69 4.22998C58.63 6.94998 58.56 9.66998 58.65 12.38C58.72 14.35 59.02 16.31 59.26 18.27C59.54 20.53 59.86 22.79 60.17 25.05C60.22 25.44 60.28 25.83 60.14 26.25C59.79 24.28 59.38 22.33 59.09 20.35C58.7 17.66 58.33 14.96 58.08 12.26C57.8 9.19998 57.58 6.11998 58.26 3.06998C58.36 2.61998 58.51 2.17998 58.64 1.72998C58.77 1.74998 58.9 1.76998 59.03 1.78998Z" fill="#C89663"/>
<path d="M56.74 27.21C59.31 35.69 61.48 44.26 62.79 53.04C60.77 44.43 58.76 35.82 56.74 27.21Z" fill="#C89663"/>
<path d="M78.47 77.5098C86.59 80.3498 93.6 85.1798 100.59 90.0598C93.38 85.5998 86.25 81.0198 78.47 77.5098Z" fill="#C89663"/>
<path d="M58.12 97.3401C57.88 91.3101 61.4 79.7901 63.92 78.5601C63.83 78.8901 63.81 79.1401 63.7 79.3401C61 84.2901 59.34 89.6001 58.24 95.1101C58.1 95.8401 58.16 96.6001 58.12 97.3501V97.3401Z" fill="#C89663"/>
<path d="M46.14 73.3398C44.53 74.5598 30.18 77.0098 26.23 76.8898C32.87 75.7098 39.5 74.5198 46.14 73.3398Z" fill="#C89663"/>
<path d="M80.17 67.3399C84.39 65.5699 88.67 64.9399 92.99 64.6999C97.3 64.4599 101.61 64.6599 105.9 65.3399C105.43 65.3399 104.95 65.3399 104.48 65.3399C104 65.3299 103.51 65.2899 103.03 65.2799C99.34 65.2199 95.63 64.9799 91.95 65.1499C88.09 65.3299 84.29 66.0399 80.63 67.3699C80.56 67.3899 80.47 67.3599 80.18 67.3299L80.17 67.3399Z" fill="#C89663"/>
<path d="M44.42 52.75C47.13 55.37 49.84 57.98 52.7 60.74C52.93 58.24 54.55 56.75 56.19 55.25C54.77 57.33 52.74 59.15 53.31 62.01C53.22 62.06 53.19 62.09 53.15 62.1C53.11 62.11 53.05 62.12 53.03 62.1C52.74 61.83 52.45 61.57 52.18 61.28C49.54 58.51 46.91 55.74 44.27 52.97C44.32 52.9 44.37 52.82 44.43 52.75H44.42Z" fill="#C89663"/>
<path d="M72.08 93.2002C72.61 96.0202 72.97 98.8402 72.56 101.71C72.33 103.31 72.22 104.94 71.93 106.53C71.72 107.69 71.38 108.11 70.64 108.76C71.03 107.06 71.54 105.42 71.77 103.74C72.01 102.01 72.02 100.24 72.07 98.4802C72.12 96.7202 72.08 94.9602 72.08 93.2002Z" fill="#C89663"/>
<path d="M104.47 49.4C108.39 47.3 117.37 45.22 120.05 45.86C117.43 46.36 114.8 46.79 112.2 47.38C109.6 47.97 107.05 48.72 104.47 49.4Z" fill="#C89663"/>
<path d="M108.08 36.0002C111.97 34.0602 121.4 32.8902 124.68 33.9402C123.99 34.2102 123.24 34.0902 122.52 34.0902C121.73 34.0902 120.93 34.0702 120.14 34.0902C119.35 34.1102 118.56 34.1502 117.77 34.2402C116.94 34.3302 116.12 34.5002 115.3 34.6202C114.52 34.7402 113.73 34.8202 112.96 34.9602C112.18 35.1002 111.41 35.2702 110.64 35.4402C109.88 35.6002 109.12 35.7802 108.08 36.0102V36.0002Z" fill="#C89663"/>
<path d="M50.97 19.2302C51.28 24.7102 53.17 29.8402 54.41 35.1202C53.27 32.5702 52.51 29.9002 51.8 27.2102C51.11 24.5802 50.34 21.9602 50.41 19.2402C50.6 19.2402 50.78 19.2302 50.97 19.2202V19.2302Z" fill="#C89663"/>
<path d="M78.69 57.3102C78.82 56.9402 78.89 56.5102 79.11 56.1902C79.84 55.1002 80.53 53.9502 81.41 52.9902C83.73 50.4502 86.33 48.2202 89.11 46.1902C89.38 45.9902 89.67 45.8302 90.01 45.7202C86.05 49.3702 81.56 52.5102 79.02 57.5002C78.91 57.4402 78.8 57.3802 78.69 57.3102Z" fill="#C89663"/>
<path d="M46.04 97.1298C46.08 96.6598 46.04 96.1699 46.17 95.7299C47.3 91.8199 48.81 88.0798 50.94 84.5998C50.98 84.5298 51.08 84.4998 51.3 84.3398C50.34 86.5998 49.39 88.6798 48.57 90.8198C47.77 92.9198 47.1 95.0798 46.38 97.2198C46.27 97.1898 46.15 97.1598 46.04 97.1398V97.1298Z" fill="#C89663"/>
<path d="M22.18 26.3901C24.1 26.4701 31.13 31.0901 34.12 34.1401C30.17 31.5801 26.26 29.0401 22.18 26.3901Z" fill="#C89663"/>
<path d="M3.59999 36.0698C7.84999 39.1798 12.6 41.4398 17.12 44.0998C12.52 42.0398 7.95999 39.9198 3.85999 36.9398C3.65999 36.7898 3.56999 36.4898 3.42999 36.2598C3.48999 36.1998 3.54999 36.1398 3.60999 36.0798L3.59999 36.0698Z" fill="#C89663"/>
<path d="M69.81 40.8501C70.29 47.8701 69.98 55.3101 69.01 56.8701C69.29 51.2001 69.58 45.6101 69.81 40.8501Z" fill="#C89663"/>
<path d="M74.08 15.3302C73.69 11.1402 73.3 6.95018 72.91 2.76018C72.98 2.73018 73.05 2.71018 73.13 2.68018C73.25 2.84018 73.45 2.98018 73.47 3.16018C74.08 7.19018 74.29 11.2502 74.07 15.3402L74.08 15.3302Z" fill="#C89663"/>
<path d="M13.11 73.4099C9.36999 74.1399 5.12999 74.9799 0.849994 75.8099C0.609994 75.4699 0.819994 75.3099 1.17999 75.2299C2.54999 74.9199 3.89999 74.5599 5.27999 74.2999C8.03999 73.7699 10.81 73.3599 13.11 73.4099Z" fill="#C89663"/>
<path d="M42.58 66.3502C38.84 66.5002 31.43 64.2902 29.94 62.4802C30.95 62.3902 31.55 63.1302 32.33 63.3902C33.2 63.6702 34.04 64.0602 34.91 64.3702C35.73 64.6602 36.57 64.9202 37.41 65.1702C38.29 65.4402 39.16 65.7202 40.06 65.9302C40.91 66.1202 41.78 66.2302 42.58 66.3602V66.3502Z" fill="#C89663"/>
<path d="M40.96 68.6602C45.58 69.1902 50.16 70.1101 55.02 69.8401C53.2 70.8601 45.23 70.1602 40.96 68.6602Z" fill="#C89663"/>
<path d="M122.64 85.4798C119.41 84.1498 116.18 82.8198 112.95 81.4898C112.97 81.4298 112.99 81.3598 113.01 81.2998C114.13 81.6398 115.26 81.9498 116.37 82.3198C117.5 82.6898 118.63 83.0598 119.71 83.5398C120.79 84.0098 122.08 84.1498 122.83 85.2098C122.77 85.2998 122.71 85.3998 122.65 85.4898L122.64 85.4798Z" fill="#C89663"/>
<path d="M89.04 72.3701C85.13 71.9701 81.3 71.3301 77.35 71.5401C77.51 70.8501 78.02 71.0001 78.41 70.9801C81.5 70.8601 84.53 71.2001 87.52 71.9601C88.03 72.0901 88.53 72.2301 89.03 72.3701H89.04Z" fill="#C89663"/>
<path d="M105.12 90.8701C108.35 92.2101 113.12 95.9301 113.55 97.6101C112.51 96.7101 111.7 95.9801 110.86 95.2901C109.94 94.5401 108.99 93.8301 108.05 93.1101C107.16 92.4201 106.26 91.7401 105.12 90.8701Z" fill="#C89663"/>
<path d="M49.22 73.9001C45.63 75.3801 41.89 76.2401 38.03 76.6701C41.73 75.6401 45.43 74.6101 49.14 73.5801C49.17 73.6901 49.2 73.8001 49.22 73.9001Z" fill="#C89663"/>
<path d="M60.81 63.79C61.42 67.06 62 70.17 62.61 73.46C61.22 70.53 60.72 67.56 60.48 64.53C60.46 64.33 60.66 64.12 60.81 63.79Z" fill="#C89663"/>
<path d="M65.1 78.9199C63.96 82.1099 62.88 85.1399 61.84 88.0599C61.68 86.2899 63.87 79.7799 65.1 78.9199Z" fill="#C89663"/>
<path d="M39.68 80.75C37.65 82.28 32.84 83.99 31.31 83.62C34.02 82.69 36.74 81.76 39.68 80.75Z" fill="#C89663"/>
<path d="M74.33 96.23C74.94 99.06 74.62 103.7 73.59 105.03C73.85 101.94 74.11 98.89 74.33 96.23Z" fill="#C89663"/>
<path d="M84.84 47.3999C82.5 50.0299 79.87 52.4099 78.1 55.5299C78.02 54.5599 78.54 53.8499 79.08 53.1799C80.79 51.0499 82.67 49.0799 84.84 47.3999Z" fill="#C89663"/>
<path d="M72.78 78.1898C73.23 74.8998 72.3 71.8297 71.42 68.7397C73.05 70.9697 73.93 76.7098 72.78 78.1898Z" fill="#C89663"/>
<path d="M33.43 31.1398C30.81 29.4698 28.39 27.9198 25.78 26.2498C27.31 26.2198 31.5 28.9698 33.43 31.1398Z" fill="#C89663"/>
<path d="M117.47 81.4997C120.72 81.8897 124.54 83.2397 125.36 84.1497C125.34 84.1897 125.33 84.2298 125.3 84.2598C125.27 84.2898 125.22 84.3398 125.2 84.3298C122.62 83.3898 120.05 82.4397 117.47 81.4897V81.4997Z" fill="#C89663"/>
<path d="M78.85 63.7002C78.73 60.9902 77.52 58.8802 76.64 56.6602C78.39 58.5502 79.67 62.2902 78.85 63.7002Z" fill="#C89663"/>
<path d="M119.32 35.6502C121.82 35.2602 124.32 34.9502 126.8 35.5502C126.8 35.6602 126.8 35.7602 126.8 35.8702C124.31 35.8002 121.81 35.7202 119.32 35.6502Z" fill="#C89663"/>
<path d="M0.149994 77.6499C1.94999 76.7999 3.86999 76.3999 5.89999 76.3999C4.01999 76.9399 2.12999 77.4799 0.249994 78.0199C0.219994 77.8999 0.189994 77.7799 0.149994 77.6599V77.6499Z" fill="#C89663"/>
<path d="M47.41 98.6802C47.5 96.7902 48.18 95.0902 49.1 93.4702C48.68 95.2502 48.33 97.0602 47.41 98.6802Z" fill="#C89663"/>
<path d="M61.83 64.7002C62.02 65.6502 62.22 66.6002 62.41 67.5502C62.6 68.5302 62.77 69.5102 62.97 70.5902C62.08 69.1102 61.34 65.7502 61.83 64.7002Z" fill="#C89663"/>
<path d="M75.05 3.85986C75.74 5.75986 75.7 7.73986 75.62 10.0499C75.3 7.78986 75.02 5.84986 74.74 3.89986C74.84 3.88986 74.94 3.86986 75.04 3.85986H75.05Z" fill="#C89663"/>
<path d="M73.46 71.3999C74.03 73.1199 74.71 74.8099 73.97 76.6199C73.8 74.8799 73.63 73.1399 73.46 71.3999Z" fill="#C89663"/>
<path d="M68.06 58.3501C67.05 59.2701 66.15 60.0901 65.3 60.8601C65.23 59.8701 66.07 59.0601 68.06 58.3501Z" fill="#C89663"/>
<path d="M62.83 61.5C64.56 62.02 65.27 62.78 65.17 63.88C64.42 63.12 63.63 62.3 62.83 61.5Z" fill="#C89663"/>
<path d="M62.96 60.6099C64.32 60.9799 65.35 61.4699 65.83 62.7299C64.93 62.0599 64.03 61.3899 62.96 60.6099Z" fill="#C89663"/>
<path d="M158.84 208.38C158.68 208.66 158.54 208.9 158.36 209.2C158.62 209.34 158.82 209.48 159.05 209.56C162.11 210.68 165.24 211.61 168.46 212.08C172.29 212.64 176.15 213.04 180.01 213.39C182.83 213.64 185.68 213.68 188.51 213.84C179.88 214.38 171.36 213.55 162.97 211.48C161.24 211.05 159.5 210.58 157.81 209.51C159.17 206.83 158.95 204.03 158.46 201.21C159.17 203.31 159.6 205.43 159.09 207.78C165.28 209.42 171.6 210.08 177.91 210.73C171.5 210.8 165.19 210.03 158.85 208.41L158.84 208.38Z" fill="#C89663"/>
<path d="M160.84 204.62C161.23 204.62 161.62 204.62 162.01 204.62C164.1 204.6 166.21 204.75 168.28 204.52C171.96 204.11 175.65 203.63 179.29 202.9C185.92 201.57 192.38 199.59 198.76 197.36C198.83 197.34 198.92 197.36 199.05 197.48C198.08 197.89 197.13 198.34 196.14 198.69C189.1 201.23 181.93 203.28 174.53 204.44C170.57 205.06 166.57 205.42 162.54 205.24C161.96 205.21 161.39 205.06 160.81 204.96C160.81 204.84 160.82 204.72 160.83 204.6L160.84 204.62Z" fill="#C89663"/>
<path d="M135.43 141.97C135.34 143.47 135.29 144.97 135.16 146.46C134.75 150.96 134.59 155.48 134.68 160C134.73 162.25 135.01 164.49 135.17 166.74C135.27 168.15 135.37 169.56 135.43 170.97C135.57 173.85 135.68 176.73 135.68 179.61C135.38 176.69 135.05 173.78 134.79 170.86C134.57 168.33 134.39 165.79 134.25 163.26C134.14 161.3 133.97 159.33 134.05 157.37C134.22 153.41 134.51 149.45 134.81 145.49C134.9 144.31 135.16 143.14 135.35 141.97C135.38 141.97 135.4 141.97 135.43 141.97Z" fill="#C89663"/>
<path d="M164.39 242.35C166.36 245.85 167.57 249.62 168.61 253.45C169.4 256.35 170.05 259.28 170.33 262.28C170.52 264.34 170.26 266.37 169.83 268.38C169.81 268.5 169.72 268.61 169.64 268.7C169.59 268.75 169.5 268.77 169.3 268.86C169.27 268.53 169.17 268.21 169.24 267.93C170.11 264.21 169.64 260.54 168.82 256.89C167.71 251.93 166.28 247.06 164.39 242.35Z" fill="#C89663"/>
<path d="M140.07 229.25C136.68 238.39 135.61 247.86 135.87 257.53C134.98 247.77 135.92 238.27 140.07 229.25Z" fill="#C89663"/>
<path d="M128.8 247.14C130.14 239.26 132.98 231.99 137.69 225.49C137.95 225.13 138.19 224.6 139.06 224.75C138.21 225.95 137.39 227.03 136.67 228.16C135.93 229.32 135.23 230.52 134.59 231.74C133.95 232.96 133.38 234.22 132.83 235.48C132.28 236.74 131.76 238.02 131.27 239.31C130.78 240.6 130.33 241.9 129.91 243.21C129.5 244.51 129.16 245.83 128.79 247.14H128.8Z" fill="#C89663"/>
<path d="M160.05 228.9C166.23 234.05 170.27 240.58 172.61 248.2C173.6 251.41 174.01 255.17 173.55 256.56C173.39 251.05 171.68 246.14 169.37 241.38C167.06 236.62 163.65 232.68 160.06 228.9H160.05Z" fill="#C89663"/>
<path d="M144.34 148.54C142.69 156.72 142.01 165.01 141.01 173.29C141.09 171.67 141.15 170.05 141.24 168.43C141.32 166.97 141.41 165.51 141.55 164.06C142.04 159.17 142.43 154.26 143.54 149.45C143.62 149.11 143.76 148.78 143.88 148.45C144.03 148.48 144.18 148.51 144.33 148.55L144.34 148.54Z" fill="#C89663"/>
<path d="M133.9 204.1C135.09 201.82 141.56 195.87 144.61 194.27C143.77 195.03 142.92 195.8 142.06 196.58C142.4 197.37 141.97 197.94 141.47 198.44C139.89 200 138.31 201.54 136.68 203.05C135.77 203.9 134.78 204.67 133.78 205.44C136.12 202.58 139.1 200.32 141.47 197.5C141.39 197.41 141.31 197.32 141.22 197.24C139.97 198.37 138.7 199.48 137.47 200.63C136.26 201.77 135.08 202.95 133.89 204.11L133.9 204.1Z" fill="#C89663"/>
<path d="M165.61 219.59C173.28 223.26 181.37 224.6 189.23 226.33C184.03 226.63 167.13 221.98 165.61 219.59Z" fill="#C89663"/>
<path d="M203.36 222.18C199.61 222.3 195.86 222.56 192.11 222.52C187.06 222.46 182.05 221.95 177.21 220.35C177.06 220.3 176.91 220.24 176.79 220.07C179.67 220.59 182.54 221.27 185.44 221.59C188.38 221.91 191.35 221.93 194.31 221.99C197.32 222.05 200.32 222 203.33 222C203.33 222.06 203.35 222.12 203.35 222.18H203.36Z" fill="#C89663"/>
<path d="M195.01 166.54C193.13 168.86 180.1 176.27 176.05 177.31C182.52 173.93 188.67 170.4 194.55 166.42C194.61 166.38 194.77 166.48 195.01 166.54Z" fill="#C89663"/>
<path d="M146.69 225.48C149.91 233.13 149.82 241.26 150.14 249.33C149.38 241.33 149.24 233.23 146.69 225.48Z" fill="#C89663"/>
<path d="M153.93 182.46C154.1 182.11 154.23 181.73 154.45 181.41C154.99 180.67 155.53 179.92 156.15 179.24C159.61 175.49 163.33 172.01 167.45 168.98C167.57 168.89 167.7 168.81 167.88 168.78C163.17 173.23 158.19 177.4 154.25 182.61C154.14 182.56 154.04 182.51 153.93 182.45V182.46Z" fill="#C89663"/>
<path d="M125.9 171.31C125.66 170.8 125.35 170.31 125.2 169.78C124.35 166.69 123.45 163.6 122.75 160.47C122.12 157.67 121.73 154.81 121.25 151.98C121.2 151.66 121.25 151.32 121.25 150.82C122.74 157.76 123.96 164.6 126.24 171.19C126.13 171.23 126.02 171.27 125.91 171.31H125.9Z" fill="#C89663"/>
<path d="M81.08 194.17C84.13 192.87 95.8 192.98 101.29 194.12C97.94 193.99 94.53 193.76 91.12 193.76C87.77 193.76 84.42 194.02 81.08 194.17Z" fill="#C89663"/>
<path d="M205.61 189.36C205.41 189.54 205.35 189.64 205.29 189.63C201.75 189.44 198.47 190.64 195.15 191.6C192.88 192.26 190.62 192.97 188.3 193.51C189.08 193.18 189.85 192.82 190.64 192.53C194.43 191.1 198.28 189.87 202.27 189.12C203.16 188.95 204.1 189.03 205.02 189.03C205.19 189.03 205.36 189.21 205.62 189.36H205.61Z" fill="#C89663"/>
<path d="M148.9 183.46C148.58 182.05 148.27 180.63 147.92 179.08C148.57 173.9 149.96 168.74 151.8 163.68C151.44 165.24 151.09 166.8 150.73 168.36C149.94 171.85 149.15 175.34 148.38 178.83C148.32 179.08 148.46 179.37 148.5 179.64C148.71 180.9 148.93 182.15 149.14 183.41C149.06 183.42 148.98 183.44 148.89 183.45L148.9 183.46Z" fill="#C89663"/>
<path d="M169.41 142.84C165.82 145.21 163.72 148.76 161.32 152.05C160.54 153.12 159.82 154.25 158.94 155.29C159.02 155.05 159.08 154.8 159.2 154.57C161.09 151.01 163.41 147.75 166.05 144.72C166.68 144.01 167.45 143.41 168.21 142.83C168.49 142.62 168.89 142.28 169.4 142.83L169.41 142.84Z" fill="#C89663"/>
<path d="M103.32 155.13C105.33 160.42 108.1 165.03 111.08 169.43C108.35 167.47 102.76 157.51 103.32 155.13Z" fill="#C89663"/>
<path d="M113.67 223.89C118.84 221.91 122.66 218.08 126.7 214.56C126.76 214.62 126.82 214.69 126.88 214.75C125.62 216 124.43 217.33 123.1 218.5C120.81 220.52 118.47 222.5 115.62 223.73C114.64 224.15 114.64 224.15 113.67 223.89Z" fill="#C89663"/>
<path d="M105.01 209.5C110.59 208.57 116.79 207.54 122.99 206.51C121.11 207.82 108.59 209.8 105.01 209.5Z" fill="#C89663"/>
<path d="M150.41 204.93C149.82 208.45 149.04 211.9 146.23 214.48C146.74 215.22 147.23 215.93 147.72 216.64C147.65 216.7 147.58 216.77 147.51 216.83C146.93 216.2 146.34 215.56 145.76 214.92C145.647 215.28 145.903 216.274 146.53 217.9C146.25 217.51 145.94 217.14 145.68 216.74C145.41 216.32 145.18 215.88 144.93 215.44C144.51 215.48 144.12 215.51 143.58 215.56C144.42 214.99 145.18 214.56 145.83 214.01C147.43 212.65 148.43 210.88 149.1 208.91C149.55 207.59 149.97 206.26 150.4 204.93H150.41Z" fill="#C89663"/>
<path d="M161.51 200.65C166.71 199.05 171.65 196.81 176.7 194.82C174.52 196.64 163.36 201.01 161.51 200.65Z" fill="#C89663"/>
<path d="M154.19 244.24C155.47 251.19 156.51 258.14 155.25 265.2C155.25 261.7 155.39 258.18 155.21 254.69C155.03 251.2 154.54 247.72 154.19 244.24Z" fill="#C89663"/>
<path d="M145.35 225.09C146.89 227.45 148.16 237.02 147.96 242.94C147.69 240.6 147.41 237.5 146.96 234.42C146.52 231.37 145.92 228.35 145.35 225.09Z" fill="#C89663"/>
<path d="M134.57 265.27C133.29 263.64 133.14 256.05 134.16 251.2C134.17 255.96 133.87 260.63 134.57 265.27Z" fill="#C89663"/>
<path d="M127.43 198.4C127.7 193.88 132.45 187.92 136.1 186.33C134.01 187.99 132.27 189.78 130.74 191.77C129.2 193.77 128.49 196.17 127.43 198.4Z" fill="#C89663"/>
<path d="M162 219.08C157.34 218.16 150.38 214.87 149 212.83C151.24 214.03 153.22 215.19 155.28 216.18C157.39 217.19 159.57 218.04 162 219.08Z" fill="#C89663"/>
<path d="M140.15 139.58C139.57 144.3 138.99 149.02 138.38 153.93C138.14 149.54 139.13 140.58 140.15 139.58Z" fill="#C89663"/>
<path d="M148.36 192.69C150.34 195.02 150.15 201.73 148.16 205.24C148.87 201.05 149.89 196.9 148.36 192.69Z" fill="#C89663"/>
<path d="M158.39 153.19C159.38 149.01 163.35 143.21 165.61 142.58C165.38 143.52 164.49 143.8 164.02 144.42C163.52 145.09 162.94 145.7 162.45 146.37C161.93 147.08 161.47 147.83 161 148.57C160.56 149.28 160.12 149.99 159.71 150.72C159.3 151.44 158.92 152.19 158.38 153.2L158.39 153.19Z" fill="#C89663"/>
<path d="M134.6 189.01C135.27 188.42 135.9 187.77 136.62 187.24C138.56 185.82 140.66 184.74 143.05 184.31C143.93 184.15 144.75 184.26 145.58 185.05C145.21 185.11 145 185.21 144.85 185.15C143.53 184.67 142.28 185.05 141.08 185.52C138.79 186.42 136.64 187.58 134.6 189.01Z" fill="#C89663"/>
<path d="M176.57 227.3C173.57 226.99 165.22 223.42 164.55 222.17C168.56 223.88 172.6 225.6 176.57 227.3Z" fill="#C89663"/>
<path d="M166.97 256.35C168.12 260.98 168.28 268.37 167.12 269.64C167.22 268.22 167.38 266.81 167.39 265.39C167.39 263.89 167.26 262.38 167.19 260.88C167.12 259.44 167.05 258 166.97 256.35Z" fill="#C89663"/>
<path d="M127.85 199.9C126.83 199.94 126.21 199.58 125.69 199.14C123.74 197.49 121.83 195.81 119.94 194.09C119.33 193.53 118.85 192.82 118.4 192.1C119.88 193.45 121.32 194.86 122.86 196.14C124.4 197.41 126.04 198.55 127.84 199.9H127.85Z" fill="#C89663"/>
<path d="M156.68 197.9C157.02 199.13 157.41 200.35 157.68 201.59C158.25 204.19 158.35 206.79 157.35 209.34C157.08 210.02 156.79 210.68 155.96 211.06C158.56 205.51 157.63 203.49 156.68 197.9Z" fill="#C89663"/>
<path d="M119.68 205.46C115.19 206.56 110.62 206.25 106.13 206.24C110.59 205.88 115.1 205.51 119.62 205.16C119.62 205.16 119.65 205.29 119.68 205.47V205.46Z" fill="#C89663"/>
<path d="M131.85 173.89C132.99 177.37 133.19 180.81 133.41 184.24C133.42 184.43 133.22 184.63 132.88 184.81C132.54 181.25 132.21 177.69 131.85 173.89Z" fill="#C89663"/>
<path d="M130.91 211.66C131.12 213.69 127.51 218.66 124.84 220.19C127.07 217.5 129.59 215.02 130.91 211.66Z" fill="#C89663"/>
<path d="M120.97 160.8C122.35 165.08 123.73 169.35 125.13 173.68C124 172.59 121.7 165.41 120.97 160.8Z" fill="#C89663"/>
<path d="M151.55 225.43C151.75 225.55 151.99 225.62 152.1 225.78C152.44 226.3 152.77 226.83 153.04 227.39C154.29 229.93 155.27 232.58 155.99 235.32C156.03 235.47 156.01 235.64 156.02 235.65C154.58 232.34 153.08 228.92 151.55 225.42V225.43Z" fill="#C89663"/>
<path d="M153.03 181.84C153.27 180.06 156.79 175.13 159.14 173.37C157.02 176.31 155.04 179.05 153.03 181.84Z" fill="#C89663"/>
<path d="M197.68 216.26C200.91 215.79 204.25 215.3 207.85 214.78C206.72 215.85 201.38 216.51 197.68 216.26Z" fill="#C89663"/>
<path d="M91.46 190.77C88.88 190.99 85.6 191.28 82.24 191.57C83.46 190.47 87.64 190.2 91.46 190.77Z" fill="#C89663"/>
<path d="M120.92 197.21C123.32 198.57 125.72 199.93 128.34 201.41C127.89 201.46 127.65 201.56 127.47 201.49C125 200.48 122.74 199.13 120.92 197.2V197.21Z" fill="#C89663"/>
<path d="M193.19 163.89C192.77 164.85 189.06 167.66 186.59 168.89C188.66 166.79 192.38 163.98 193.19 163.89Z" fill="#C89663"/>
<path d="M105.98 166.28C103.83 163.78 101.87 159.97 101.93 158.43C103.35 161.18 104.67 163.73 105.98 166.28Z" fill="#C89663"/>
<path d="M145.41 150.51C145.48 153.55 144.81 156.52 144.44 159.52C144.21 157.58 144.78 151.74 145.41 150.51Z" fill="#C89663"/>
<path d="M147.95 186.43C147.78 185.36 147.61 184.04 147.35 182.74C147.09 181.45 146.75 180.18 146.45 178.93C147.63 179.63 148.24 182.77 147.94 186.43H147.95Z" fill="#C89663"/>
<path d="M141.68 216.21C142.1 218.22 142.51 220.23 142.93 222.25C142.11 221.05 141.23 217.5 141.68 216.21Z" fill="#C89663"/>
<path d="M157.59 254.23C158.26 256.22 158.45 258.25 158.25 260.3C158.16 260.3 158.07 260.31 157.98 260.32C157.85 258.29 157.72 256.26 157.58 254.22L157.59 254.23Z" fill="#C89663"/>
<path d="M151.53 188.2C152.08 186.72 153.99 186.08 156.99 186.3C155.02 186.7 153.17 186.97 151.53 188.2Z" fill="#C89663"/>
<path d="M203.08 213.73C204.57 213.35 205.95 212.84 207.64 212.8C206.68 213.6 205.33 213.84 203.08 213.73Z" fill="#C89663"/>
<path d="M140.71 219.72C140.49 218.58 140.28 217.44 140.06 216.3C140.18 216.28 140.3 216.25 140.41 216.23C140.88 217.32 140.69 218.55 141.02 219.67C140.91 219.69 140.81 219.7 140.7 219.72H140.71Z" fill="#C89663"/>
<path d="M30.17 342.54C30.55 341.9 30.88 341.22 31.31 340.61C34.11 336.68 37.66 333.49 41.45 330.56C46.14 326.94 51.27 324.01 56.45 321.17C66.66 315.58 76.88 310.01 87.07 304.39C89.42 303.1 91.69 301.68 94 300.31C103.75 294.5 110.36 286.15 114.2 275.5C116.59 268.87 118.36 262.08 119.68 255.18C120.54 250.71 121.18 246.19 121.91 241.7C122.35 239.02 122.74 236.34 123.23 233.67C123.42 232.66 123.82 231.69 124.18 230.55C123.45 230.71 122.84 230.81 122.25 230.96C118.28 232.01 114.3 231.92 110.33 231.02C107.89 230.47 105.68 229.32 103.76 227.72C101.99 226.25 100.3 224.68 98.64 223.09C96.25 220.8 93.94 218.44 91.55 216.14C89.42 214.1 87.02 212.42 84.39 211.08C83.72 210.74 83.06 210.37 82.4 210.01C78.5 207.89 77.01 203.43 78.11 199.57C79.3 195.4 81.15 191.5 83.65 187.95C86.15 184.4 89.77 182.59 93.91 181.71C97.66 180.91 101.46 180.82 105.28 181.1C105.4 181.1 105.52 181.08 105.79 181.06C105.6 180.68 105.46 180.36 105.29 180.06C102.5 175.39 101.13 170.32 101.08 164.89C101.06 162.88 101.15 160.89 101.52 158.89C102.01 156.23 103.27 154.04 105.15 152.15C107.37 149.92 109.52 147.63 111.77 145.45C113.21 144.05 114.72 142.71 116.32 141.5C119.55 139.07 123.06 137.11 127.02 136.12C130.15 135.33 133.26 135.62 136.28 136.7C139.22 137.75 141.4 139.71 142.72 142.53C143.42 144.04 143.94 145.64 144.51 147.21C145.43 149.71 146.33 152.22 147.31 154.91C147.67 154.42 147.88 154.12 148.1 153.83C151.85 148.85 156.58 145.17 162.53 143.19C165.23 142.29 168.06 142.1 170.84 142.67C176.09 143.76 179.38 148.6 178.59 153.88C178.4 155.16 178.22 156.45 178.08 157.73C178.04 158.11 178.15 158.5 178.2 159C178.8 158.96 179.25 158.94 179.69 158.9C183.44 158.59 187.07 159 190.39 160.88C193.37 162.58 195.68 164.92 196.22 168.48C196.72 171.77 196.12 174.9 194.4 177.78C192.56 180.87 190.1 183.36 186.93 185.06C184.68 186.26 182.33 187.27 180.02 188.36C179.61 188.55 179.19 188.72 178.78 189.1C179.03 189.13 179.29 189.16 179.54 189.18C180.66 189.27 181.79 189.31 182.91 189.45C184.19 189.6 185.4 189.4 186.63 189.07C189.99 188.16 193.39 187.51 196.88 187.4C199.28 187.33 201.65 187.53 203.96 188.19C208.73 189.56 211.39 192.93 211.64 197.87C211.77 200.49 211.45 203.06 210.71 205.56C210.06 207.76 209.38 209.97 208.53 212.1C207.86 213.76 207.88 215.26 208.83 216.76C209.08 217.15 209.27 217.57 209.5 217.97C210.7 219.98 210.65 222.04 209.66 224.09C208.39 226.74 206.56 228.96 204.28 230.8C200.78 233.62 196.75 235.26 192.37 236.15C188.65 236.9 184.89 237.06 181.12 236.88C179.58 236.8 178.06 236.51 176.48 236.3C176.48 236.42 176.45 236.56 176.51 236.63C178.23 238.98 178.84 241.72 179.14 244.52C179.77 250.57 178.62 256.35 176.13 261.87C175.91 262.37 175.65 262.85 175.4 263.33C173.13 267.78 169.37 269.97 164.51 270.61C160.95 271.08 157.49 270.65 154.08 269.71C149.39 268.42 144.62 267.61 139.79 267.04C137.66 266.79 135.6 266.26 133.62 265.41C130.79 264.19 128.67 262.16 127 259.63C124.64 256.05 123.24 252.08 122.42 247.9C122.39 247.74 122.39 247.57 122.35 247.4C122.26 246.99 122.17 246.59 121.93 246.16C121.73 247.34 121.54 248.52 121.34 249.71C119.65 259.62 117.47 269.4 113.6 278.73C109.96 287.49 104.25 294.59 96.21 299.64C90.97 302.93 85.58 306.02 80.17 309.03C70.95 314.16 61.63 319.11 52.41 324.22C46.68 327.4 41.28 331.06 36.55 335.65C34.41 337.73 32.41 339.91 30.89 342.51H30.14L30.17 342.54ZM125.05 230.29C124.9 230.65 124.74 230.99 124.62 231.35C122.95 236.47 122.31 241.71 123.11 247.06C123.79 251.58 125.35 255.8 127.93 259.6C129.65 262.13 131.85 264.1 134.78 265.06C136.6 265.66 138.48 266.13 140.37 266.38C144.85 266.98 149.31 267.63 153.67 268.86C157 269.8 160.38 270.27 163.84 269.94C168.61 269.49 172.4 267.51 174.67 263.1C177.84 256.94 179.19 250.45 178.22 243.55C177.96 241.68 177.5 239.85 176.54 238.19C175.74 236.82 174.71 235.82 173.06 235.36C171.01 234.79 169.02 234 167.05 233.19C163.37 231.68 160.16 229.43 157.55 226.85C155.55 226.5 153.82 226.22 152.11 225.89C149.76 225.44 147.42 225.11 145.02 225.55C144.16 225.71 143.27 225.68 142.39 225.7C140.14 225.74 138.1 225.13 136.35 223.65C136.14 223.47 135.88 223.35 135.66 223.22C131.81 226.83 133.21 226.57 125.05 230.27V230.29ZM158.33 226.76C159.27 227.49 160.25 228.19 161.15 228.97C163.85 231.28 167.03 231.99 170.48 231.99C173.42 231.99 176.33 231.64 179.2 231.11C183.57 230.31 187.93 230.31 192.3 231.11C194.53 231.51 196.81 231.93 199.01 231.16C200.98 230.48 202.94 229.68 204.73 228.64C206.83 227.42 208.31 225.52 209.21 223.22C209.83 221.64 209.82 220.12 208.94 218.64C208.62 218.1 208.35 217.53 208.03 216.99C207.05 215.36 207.03 213.74 207.73 211.96C208.62 209.71 209.34 207.39 210.02 205.06C210.68 202.8 211.04 200.48 210.9 198.12C210.62 193.29 208.23 190.37 204.18 189.13C202.44 188.6 200.58 188.31 198.76 188.21C194.71 187.98 190.77 188.79 186.87 189.81C185.39 190.2 183.92 190.36 182.4 190.12C179.68 189.7 176.98 189.85 174.33 190.64C172.77 191.11 171.2 191.59 169.69 192.18C167.9 192.88 166.14 193.66 164.42 194.51C163.31 195.06 162.38 195.95 162.09 197.18C161.72 198.75 161.49 200.37 161.35 201.99C161.06 205.31 159.85 208.14 157.29 210.33C157.05 210.53 156.75 210.67 156.4 210.89C157.63 211.82 158.75 212.11 159.89 212.39C160.86 212.63 161.85 212.85 162.78 213.21C164.08 213.7 165.09 214.6 165.58 215.93C166.84 219.32 166.27 222.58 162.93 224.55C161.54 225.37 160.01 225.96 158.32 226.76H158.33ZM177.56 159.6C177.48 158.81 177.33 158.28 177.38 157.77C177.51 156.31 177.72 154.86 177.9 153.41C178.46 148.9 175.39 144.39 170.93 143.45C167.22 142.67 163.58 143.19 160.17 144.83C155.93 146.86 152.26 149.68 149.25 153.32C148.17 154.63 147.42 155.9 147.69 157.84C148.12 160.96 147.6 164.11 146.87 167.17C146.25 169.77 145.41 172.31 144.7 174.89C144.37 176.09 144.06 177.31 144.37 178.56C148.22 178.14 151.66 178.77 154.31 181.95C156.56 182.34 158.53 183.31 159.8 185.4C160.92 187.25 161.65 189.23 161.87 191.39C161.92 191.85 162.03 192.31 162.17 193.06C162.6 192.3 162.87 191.83 163.14 191.36C166.22 186.08 170.5 182.38 176.69 181.33C179.49 180.86 182.33 180.61 185.14 180.2C187.58 179.84 190.01 179.41 192.23 178.23C193.4 177.62 194.28 176.77 194.67 175.5C195 174.42 195.37 173.34 195.52 172.23C195.96 169 195.28 166.09 192.85 163.71C191.38 162.28 189.72 161.2 187.8 160.53C185.11 159.59 182.34 159.35 179.51 159.59C178.95 159.64 178.38 159.59 177.58 159.59L177.56 159.6ZM122.46 142.63C122.3 143.04 122.17 143.29 122.1 143.57C121.79 144.78 121.55 146.02 121.17 147.21C120.13 150.47 118.01 152.01 114.61 152.26C112.36 152.42 110.12 152.72 107.88 153.01C105.01 153.38 103.12 154.89 102.5 157.81C102.43 158.14 102.32 158.45 102.25 158.78C101.59 161.88 101.62 165.01 101.97 168.14C102.58 173.51 104.53 178.33 107.84 182.6C108.16 183.02 108.55 183.39 109.08 183.99C109.2 183.21 109.29 182.68 109.35 182.16C109.64 179.71 110.28 177.39 111.8 175.4C113.23 173.53 115.09 173.37 116.73 175.05C117.5 175.84 118.15 176.83 118.6 177.84C119.23 179.29 119.69 180.83 120.09 182.36C120.68 184.59 121.65 186.59 123.21 188.3C123.38 188.49 123.6 188.62 123.89 188.86C123.89 188.4 123.93 188.11 123.89 187.83C123.09 183.51 123.42 179.25 124.6 175.04C125.29 172.57 126.15 170.18 127.73 168.11C128.64 166.92 129.72 165.96 131.13 165.42C132.73 164.81 133.9 165.22 134.67 166.77C135.08 167.59 135.27 168.51 135.65 169.34C135.97 170.05 136.33 170.78 136.85 171.34C138.17 172.79 139.24 174.37 139.72 176.28C140 177.4 140.2 178.54 140.44 179.69H142.63C142.98 179.42 143.28 179.19 143.54 178.99C143.38 176.52 143.97 174.3 144.7 172.11C145.73 169.01 146.58 165.87 146.92 162.61C147.28 159.15 147.15 155.78 145.68 152.53C144.91 150.82 144.38 149 143.73 147.24C143.19 145.79 142.7 144.32 142.05 142.92C141.01 140.69 139.34 139.04 137.16 137.87C134.41 136.4 131.85 136.7 129.43 138.54C128.56 139.2 127.78 139.96 126.95 140.67C125.65 141.78 124.44 143.12 122.45 142.62L122.46 142.63ZM106.35 181.89C105.95 181.82 105.46 181.68 104.97 181.67C101.37 181.61 97.77 181.65 94.23 182.4C89.75 183.35 86.01 185.47 83.55 189.46C81.68 192.5 80.15 195.71 78.99 199.08C78.36 200.9 78.31 202.76 78.87 204.63C79.14 205.53 79.62 206.16 80.44 206.63C82.56 207.82 84.84 208.44 87.24 208.6C89.87 208.78 92.5 208.9 95.13 209.09C98.43 209.32 101.39 210.52 104.03 212.49C106.22 214.13 108.22 215.97 109.85 218.17C111.17 219.95 112.46 221.76 113.68 223.61C115.12 225.79 116.96 227.5 119.25 228.76C121.06 229.76 122.98 230.12 124.92 229.35C126.78 228.61 128.62 227.77 130.36 226.8C132.23 225.75 133.71 224.2 135.03 222.59C134.98 222.4 134.97 222.31 134.93 222.24C132.74 219.2 131.53 215.74 130.69 212.13C130.6 211.73 130.5 211.3 130.29 210.96C129.53 209.73 128.72 208.53 127.87 207.22C127.27 207.28 126.48 207.46 125.7 207.41C120.99 207.05 117.11 205.09 114.21 201.31C112.56 199.16 111.49 196.72 110.65 194.16C109.65 191.11 109.29 187.97 109.13 184.89C108.21 183.9 107.36 182.98 106.35 181.89ZM80.5 207.5C80.7 207.75 80.86 208.06 81.12 208.24C82.19 208.96 83.25 209.74 84.39 210.32C87.47 211.9 90.25 213.88 92.74 216.28C94.61 218.08 96.45 219.92 98.31 221.72C99.78 223.15 101.26 224.57 102.77 225.96C106.71 229.59 111.4 231.13 116.7 230.9C118.04 230.84 119.41 230.82 120.74 230.34C120.62 230.2 120.58 230.13 120.51 230.09C120.41 230.02 120.29 229.97 120.18 229.92C117.39 228.79 115.13 226.99 113.42 224.5C112.78 223.57 112.17 222.62 111.53 221.68C109.42 218.58 107.03 215.74 104.05 213.43C101.8 211.68 99.33 210.39 96.48 209.98C94.79 209.74 93.07 209.63 91.37 209.52C87.7 209.29 83.99 209.25 80.48 207.49L80.5 207.5ZM141.32 198.01C141.46 197.18 141.95 196.59 142.5 196.03C143.11 195.4 143.75 194.79 144.3 194.11C145.45 192.67 145.33 191.36 143.83 189.87C143.11 190.05 142.27 190.25 141.43 190.46C136.13 191.8 132.32 195.1 129.59 199.69C127.67 202.9 128.11 206.17 129.9 209.33C130.65 210.65 131.79 211.08 133.27 210.96C135.53 210.77 137.54 209.84 139.58 209C145 206.77 147.22 200.02 146.85 195.76C146.8 195.14 146.58 194.62 145.8 194.49C144.09 195.35 142.86 196.86 141.32 198.03V198.01ZM156.18 211.52C154.51 212.15 153.07 212.94 151.54 213.2C149.77 213.5 148.25 214.14 146.66 214.93C142.21 217.14 138.53 216.79 135.12 213.82C134.44 213.22 133.89 212.47 133.2 211.7C132.64 211.66 131.98 211.62 131.36 211.58C131.3 211.77 131.24 211.86 131.26 211.93C132.07 215.06 133.03 218.14 134.87 220.84C135.59 221.89 136.51 222.87 137.53 223.63C139.49 225.11 141.68 224.87 143.41 223.1C143.99 222.51 144.44 221.78 144.91 221.09C145.75 219.84 146.54 218.56 147.4 217.32C148.51 215.72 151.41 214.93 153.26 216.78C154.06 217.58 154.8 218.43 155.58 219.24C156.09 219.77 156.63 220.27 157.15 220.76C158.52 220.05 159.79 220.06 161.09 220.36C161.58 220.47 162.07 220.56 162.57 220.63C163.94 220.83 164.72 220.23 165.23 218.94C165.87 217.32 164.61 214.82 163.25 214.22C162.19 213.76 161.07 213.37 159.94 213.11C158.54 212.78 157.19 212.4 156.2 211.53L156.18 211.52ZM127.76 206.46C127.76 205.11 127.76 203.78 127.76 202.46C127.76 202.34 127.72 202.21 127.68 202.1C127.19 200.78 127.23 199.4 127.2 198.02C127.18 197.28 127.06 196.53 126.86 195.82C126.15 193.36 124.77 191.25 123.1 189.36C121.13 187.14 119.87 184.63 119.17 181.76C118.8 180.27 118.27 178.79 117.59 177.42C117.14 176.52 116.39 175.69 115.58 175.08C114.4 174.18 113.59 174.53 113.15 175.92C112.38 178.35 112.55 180.72 113.75 182.96C114.32 184.02 115.07 184.99 115.71 186.02C116.33 187.01 116.98 187.99 117.53 189.02C118.5 190.86 118.5 192.69 117.38 194.5C117.07 195 116.87 195.58 116.6 196.18C116.91 196.22 117.03 196.26 117.15 196.26C118.89 196.26 119.46 196.67 119.91 198.34C120.1 199.06 120.25 199.8 120.4 200.54C120.7 202.03 121.15 203.45 122.11 204.66C123.66 206.62 125.39 207.16 127.78 206.46H127.76ZM134.24 211.67C135.69 214.09 139.04 215.9 141.74 215.61C146.38 215.12 149.82 212.87 151.7 208.47C153.14 205.1 153.45 201.6 152.81 198.02C152.56 196.63 152.16 195.24 151.19 194.13C150.51 193.35 149.76 192.7 148.38 193.11C148.21 193.61 147.89 194.2 147.8 194.83C147.57 196.4 147.56 198 147.25 199.55C146.23 204.59 143.65 208.41 138.56 210.14C137.14 210.62 135.74 211.14 134.24 211.67ZM144.42 189.21C145.1 188.55 145.33 187.73 145.34 186.82C145.35 185.9 145.34 184.98 145.44 184.07C145.7 181.76 144.64 180.5 142.32 180.37C140.23 180.25 138.34 180.87 136.62 181.97C132.39 184.69 129.59 188.48 128.45 193.4C128.07 195.02 127.87 196.69 127.72 198.35C127.64 199.22 127.83 200.12 127.9 201C132.31 192.61 139.1 189.78 144.42 189.22V189.21ZM139.82 179.81C139.72 179.29 139.62 178.85 139.54 178.39C139.15 175.98 138.28 173.78 136.52 172.05C135.68 171.22 135.16 170.28 134.82 169.19C134.57 168.4 134.32 167.58 133.9 166.87C133.2 165.65 132.18 165.59 131.48 166.78C130.9 167.77 130.39 168.89 130.22 170.01C129.95 171.86 129.95 173.75 129.91 175.63C129.86 178.28 129.51 180.87 128.58 183.37C128.09 184.7 127.68 186.06 127.24 187.41C126.69 189.1 126.51 190.83 126.63 192.6C126.68 193.38 126.92 194.07 127.4 194.89C128.93 187.57 132.76 182.37 139.81 179.81H139.82ZM162.08 195.14L162.35 195.26C163.35 194.05 164.71 193.39 166.09 192.8C167.63 192.15 169.19 191.53 170.77 191.01C175.82 189.35 180.77 187.45 185.5 185.02C187.99 183.74 190.17 182.09 191.95 179.92C192.14 179.69 192.28 179.41 192.44 179.16C189.78 180.22 187.05 180.64 184.34 181.04C182.07 181.38 179.78 181.56 177.51 181.9C173.32 182.53 169.72 184.31 166.84 187.48C164.99 189.51 163.5 191.77 162.34 194.24C162.21 194.52 162.17 194.84 162.09 195.14H162.08ZM149.93 212.75C150.12 212.8 150.25 212.87 150.36 212.86C150.77 212.8 151.19 212.75 151.59 212.63C156.37 211.2 159.67 208.32 160.56 203.21C160.93 201.06 160.88 198.88 160.45 196.72C160.08 194.84 159.29 193.14 158.17 191.6C157.4 190.53 156.44 189.65 155.13 189.28C153.57 188.84 152.57 189.44 152.28 191.02C152 192.5 152.37 193.92 152.75 195.33C153.1 196.62 153.52 197.91 153.67 199.22C154.2 203.97 153.34 208.39 150.27 212.21C150.15 212.36 150.06 212.55 149.93 212.75ZM115.81 197.01C115.97 196.43 116.04 196.04 116.19 195.68C116.51 194.91 116.86 194.15 117.23 193.4C117.72 192.4 117.81 191.38 117.34 190.38C116.79 189.21 116.19 188.06 115.53 186.95C115 186.05 114.33 185.24 113.77 184.36C112.57 182.47 111.94 180.42 112.17 178.17C112.25 177.41 112.44 176.66 112.59 175.79C111.5 176.95 110.72 178.7 110.32 180.73C109.73 183.72 109.83 186.72 110.33 189.7C110.93 193.28 112.06 196.67 114.03 199.74C115.78 202.45 118.09 204.49 121.14 205.65C121.47 205.78 121.82 205.86 122.16 205.97C120.66 204.14 120.09 202.02 119.67 199.83C119.55 199.22 119.41 198.6 119.2 198.02C118.8 196.89 118.11 196.53 116.96 196.77C116.65 196.83 116.35 196.9 115.8 197.01H115.81ZM122.07 142.09C124.03 142.61 125.18 141.52 126.35 140.48C126.98 139.92 127.56 139.32 128.23 138.82C129.1 138.17 130.03 137.61 130.94 137.02C131.17 136.87 131.41 136.75 131.84 136.5C129.25 136.2 127.02 136.66 124.86 137.51C119.91 139.46 115.66 142.44 111.95 146.23C110.02 148.21 108.08 150.18 106.15 152.15C105.87 152.44 105.61 152.75 105.3 153.09C105.49 153.14 105.58 153.2 105.64 153.18C108.48 152.2 111.45 152.07 114.4 151.77C117.92 151.41 119.78 150.08 120.79 146.72C121.05 145.84 121.22 144.93 121.45 144.05C121.61 143.46 121.81 142.88 122.06 142.09H122.07ZM142.11 224.69C142.15 224.77 142.2 224.84 142.24 224.92C142.55 224.94 142.86 225 143.16 224.98C144.28 224.9 145.41 224.79 146.53 224.7C148.98 224.49 151.34 225.06 153.72 225.55C155.28 225.87 156.84 226.1 158.44 225.71C160.38 225.23 162.16 224.44 163.66 223.11C164.35 222.5 165.04 221.82 165.14 220.65C163.81 221.41 162.55 221.28 161.26 221.01C160.11 220.77 158.95 220.61 157.81 221.07C157.24 221.3 156.73 221.15 156.31 220.73C155.87 220.29 155.45 219.82 155.02 219.37C154.3 218.62 153.58 217.86 152.83 217.13C151.34 215.68 148.97 216.3 148.03 217.55C147.51 218.25 147.02 218.99 146.53 219.71C145.28 221.56 144.37 223.7 142.11 224.7V224.69ZM167.96 232.43C167.96 232.5 167.96 232.56 167.95 232.63C168.04 232.71 168.13 232.81 168.24 232.85C172.95 234.81 177.82 236.13 182.94 236.19C185.52 236.22 188.13 236.03 190.69 235.69C194.88 235.13 198.81 233.75 202.33 231.33C202.73 231.06 203.1 230.76 203.49 230.47C203.29 230.35 203.17 230.35 203.06 230.39C202.83 230.48 202.59 230.57 202.37 230.68C199.07 232.47 195.59 232.53 192.01 231.79C187.82 230.93 183.63 231 179.43 231.75C176.51 232.28 173.56 232.67 170.58 232.61C169.71 232.59 168.85 232.48 167.98 232.42L167.96 232.43ZM130.75 166.72C130.67 166.64 130.59 166.56 130.5 166.48C130.03 166.86 129.45 167.16 129.1 167.64C128.22 168.85 127.25 170.05 126.65 171.41C124.17 176.99 123.53 182.83 124.7 188.83C124.88 189.77 125.03 190.79 125.91 191.65C126.07 188.88 126.82 186.4 127.72 183.98C128.84 180.96 129.37 177.86 129.26 174.64C129.17 171.91 129.38 169.21 130.74 166.72H130.75ZM161.4 196.85C161.4 195.6 161.46 194.35 161.39 193.1C161.25 190.57 160.68 188.15 159.38 185.94C158.02 183.62 155.92 182.63 153.35 182.51C152.8 182.48 152.18 182.68 151.68 182.93C150.51 183.51 150.11 184.92 150.8 186.04C151.39 186.99 152.09 187.87 152.75 188.81C154.03 188.26 155.24 188.45 156.39 189.08C157.51 189.7 158.36 190.63 159.05 191.69C160.08 193.28 160.76 195.01 161.41 196.85H161.4ZM153.17 181.74C151.56 179.35 146.1 178.23 143.69 179.9C146.01 180.64 146.11 182.47 146 184.4C145.91 186.1 146.09 187.83 145.26 189.43C145.62 189.67 145.88 189.88 146.17 190.04C147.49 190.81 148.22 190.77 149.33 189.73C149.99 189.11 150.55 188.38 151.14 187.72C148.55 184.4 150.17 182.27 153.17 181.74Z" fill="#C89663"/>
</g>
<defs>
<clipPath id="clip0_2_882">
<rect width="211.68" height="342.54" fill="white"/>
</clipPath>
</defs>
</svg>
