<svg width="326" height="548" viewBox="0 0 326 548" fill="none" xmlns="http://www.w3.org/2000/svg">
<g opacity="0.4" clip-path="url(#clip0_2_996)">
<path d="M205.823 486.983C206.162 486.075 206.373 485.124 206.838 484.279C208.697 480.856 210.705 477.539 212.543 474.096C219.39 461.25 223.828 447.391 229.216 433.954C232.872 424.848 236.105 415.573 239.782 406.488C250.031 381.115 265.267 359.058 284.455 339.621C297.261 326.649 310.024 313.634 321.774 299.669C322.767 298.486 323.697 297.049 326 297.303C325.915 298.042 326 298.803 325.746 299.458C324.711 302.289 323.718 305.12 322.492 307.866C313.617 327.958 306.474 348.663 299.247 369.368C297.092 375.537 294.704 381.643 292.4 387.749C286.188 404.376 276.298 418.552 263.661 430.912C257.702 436.743 251.384 442.13 244.727 447.137C241.198 449.799 237.711 452.525 234.203 455.208C223.469 463.447 214.741 473.462 207.789 485.04C207.345 485.779 206.838 486.497 206.373 487.216C206.204 487.131 206.014 487.068 205.845 486.983H205.823ZM310.891 316.55C310.531 317.353 310.214 318.155 309.813 318.916C304.91 327.832 299.923 336.684 295.084 345.642C289.294 356.375 283.652 367.213 277.883 377.967C267.571 397.192 254.765 414.834 242.297 432.665C234.542 443.757 226.617 454.722 218.777 465.771C218.249 466.511 217.847 467.314 217.383 468.095C218.038 468.159 218.355 468.011 218.566 467.779C225.561 459.814 234.013 453.518 242.297 447.032C248.489 442.172 254.617 437.229 260.386 431.862C269.472 423.39 277.566 414.01 283.61 403.045C288.745 393.706 292.591 383.819 296.098 373.805C304.615 349.445 313.088 325.043 323.633 301.444C323.844 301 323.971 300.514 324.119 300.028C323.211 300.387 322.577 300.937 322.069 301.592C318.9 305.859 315.772 310.127 312.624 314.395C312.053 315.155 311.44 315.895 310.827 316.634C311.229 315.641 311.63 314.648 312.243 313.106C311.482 313.803 311.208 314.014 310.975 314.268C302.206 323.374 293.499 332.564 284.645 341.586C264.739 361.868 249.482 385.15 239.254 411.686C233.147 427.51 226.998 443.334 220.89 459.18C220.743 459.56 220.721 459.961 220.637 460.363C220.806 460.469 220.996 460.574 221.165 460.68C221.419 460.215 221.63 459.729 221.926 459.285C229.702 448.32 237.563 437.419 245.234 426.369C254.49 412.996 264.168 399.854 272.114 385.615C281.158 369.389 289.717 352.91 298.613 336.621C302.058 330.346 305.882 324.282 309.559 318.134C309.919 317.543 310.468 317.078 310.912 316.571L310.891 316.55Z" fill="#C89663"/>
<path d="M60.0354 255.238C60.8595 255.175 61.6837 255.048 62.5078 255.09C66.8398 255.259 71.1718 255.513 75.5039 255.64C83.1958 255.872 90.9089 255.766 98.5798 256.294C110.287 257.097 122.057 258.006 133.384 261.302C156.396 268.02 174.654 281.204 186.974 301.993C190.883 308.584 194.328 315.493 197.772 322.359C200.35 327.493 202.506 332.817 204.936 338.036C207.916 344.416 209.395 351.219 210.874 358.043C211.91 362.776 213.241 367.445 214.424 372.156C215.143 375.072 215.861 377.966 216.537 380.903C216.685 381.516 216.537 382.213 216.22 382.91C215.967 382.192 215.671 381.495 215.46 380.755C207.049 351.79 191.2 328.169 165.821 311.289C148.261 299.626 129.855 289.443 111.364 279.387C95.4945 270.746 79.2019 263.097 62.1063 257.224C61.3244 256.949 60.606 256.548 59.8452 256.21C59.9086 255.893 59.9509 255.576 60.0143 255.259L60.0354 255.238ZM71.9537 258.724C71.9115 258.851 71.8692 258.978 71.8481 259.126C72.2918 259.358 72.6933 259.633 73.1582 259.802C88.5633 265.443 102.996 273.154 117.387 280.95C133.954 289.929 150.353 299.183 166.075 309.62C183.994 321.535 198.11 336.81 207.493 356.29C207.789 356.902 208.169 357.473 208.571 358.17C208.74 357.79 208.867 357.642 208.845 357.494C208.824 357.05 208.761 356.628 208.655 356.184C205.422 343.022 199.886 331.022 190.947 320.733C179.62 307.697 166.772 296.394 152.339 286.908C138.455 277.781 123.853 270.069 107.666 265.907C98.1994 263.478 88.5422 261.788 78.9483 259.802C76.645 259.337 74.2994 259.083 71.9749 258.724H71.9537ZM197.751 327.367C197.878 327.282 198.026 327.198 198.153 327.134C197.899 326.5 197.667 325.845 197.413 325.212C193.947 317.056 189.785 309.282 185.093 301.76C171.886 280.527 152.783 267.555 128.693 261.682C124.508 260.668 120.198 260.013 115.908 259.527C109.251 258.745 102.553 258.069 95.8749 257.668C88.9014 257.266 81.9068 257.266 74.9333 257.034C72.7356 256.971 70.559 256.78 68.3613 256.633C74.8699 258.175 81.4419 259.295 87.9927 260.414C99.4039 262.379 110.709 264.83 121.444 269.267C151.451 281.711 176.788 300.408 196.779 326.141C197.096 326.543 197.434 326.944 197.772 327.345L197.751 327.367Z" fill="#C89663"/>
<path d="M148.937 194.9C137.145 195.47 126.157 192.618 115.739 187.146C103.947 180.956 93.0855 173.413 82.9211 164.814C74.5952 157.758 66.6074 150.3 59.2113 142.251C56.9924 139.821 54.9426 137.243 52.8295 134.708C52.9774 134.581 53.1253 134.455 53.2732 134.328C53.9917 135.194 54.6679 136.103 55.4287 136.927C72.9258 155.835 91.9867 172.822 114.767 185.223C121.592 188.942 128.714 191.984 136.448 193.252C140.59 193.949 144.795 194.371 148.937 194.921V194.9Z" fill="#C89663"/>
<path d="M170.555 187.695C170.047 187.991 169.561 188.287 168.547 188.878C169.266 187.125 169.942 185.942 170.238 184.674C171.188 180.66 172.414 176.646 172.731 172.568C173.111 167.645 172.858 162.659 172.541 157.716C171.59 142.356 166.793 127.799 163.222 112.947C164.616 117.236 166.223 121.461 167.321 125.835C169.435 134.095 171.632 142.356 173.069 150.765C174.295 157.842 174.76 165.026 174.084 172.293C173.576 177.639 172.52 182.773 170.533 187.737L170.576 187.695H170.555Z" fill="#C89663"/>
<path d="M164.701 146.666C158.171 121.292 147.627 97.6297 135.412 74.6433C148.831 97.1649 159.777 120.722 164.701 146.666Z" fill="#C89663"/>
<path d="M192.806 167.666C193.06 167.032 193.25 166.377 193.567 165.786C196.504 160.124 198.047 154.06 198.956 147.785C199.78 142.166 200.245 136.504 199.97 130.82C199.59 122.919 198.998 115.017 198.512 107.116C198.47 106.397 198.512 105.679 198.934 104.939C199.442 109.841 200.118 114.721 200.393 119.623C200.752 126.278 200.963 132.954 200.942 139.609C200.942 147.025 199.653 154.293 197.054 161.265C196.166 163.652 195.258 166.103 193.398 167.941L192.806 167.645V167.666Z" fill="#C89663"/>
<path d="M158.763 190.821C148.429 192.216 139.068 189.448 130.383 184.187C120.557 178.208 111.85 170.793 103.905 162.511C103.694 162.278 103.503 162.004 103.461 161.666C107.159 164.898 110.73 168.321 114.619 171.342C119.669 175.251 124.846 179.011 130.172 182.539C136.236 186.554 142.977 189.047 150.183 190.166C153.015 190.61 155.91 190.631 158.784 190.821H158.763Z" fill="#C89663"/>
<path d="M47.0182 97.7985C47.0182 97.7985 47.1872 97.7351 47.2718 97.7351C47.3563 97.7351 47.462 97.7351 47.5254 97.7562C47.6733 97.8407 47.8423 97.9253 47.9691 98.052C48.1593 98.2422 48.3072 98.4746 48.4552 98.6858C53.9071 107.538 60.5214 115.524 67.3047 123.362C71.1718 127.82 75.1657 132.194 79.2864 136.821C70.1998 130.461 47.4197 102.827 47.0393 97.7774L47.0182 97.7985Z" fill="#C89663"/>
<path d="M124.551 130.757C134.419 147.215 142.618 164.772 156.143 178.843C155.974 178.991 155.804 179.117 155.635 179.265C153.459 176.941 151.177 174.702 149.085 172.272C142.217 164.307 137.103 155.18 132.052 146.032C129.326 141.088 126.748 136.039 124.107 131.053C124.255 130.947 124.403 130.842 124.551 130.736V130.757Z" fill="#C89663"/>
<path d="M202.992 84.108C198.132 67.1851 193.25 50.241 188.39 33.3181C194.835 49.7974 200.097 66.6146 203.626 83.939L202.992 84.108Z" fill="#C89663"/>
<path d="M169.012 9.59217C169.561 13.5007 170.026 17.4093 170.639 21.2755C171.294 25.2686 171.991 29.2616 172.858 33.1913C173.724 37.0576 174.802 40.8605 175.859 44.6634C176.915 48.5297 178.056 52.396 179.24 56.5158C173.914 47.6846 166.497 14.7472 169.012 9.57104V9.59217Z" fill="#C89663"/>
<path d="M109.97 110.834C118.887 128.792 127.319 146.983 139.132 163.335C138.92 163.525 138.73 163.694 138.519 163.884C138.159 163.335 137.821 162.744 137.42 162.215C130.954 153.743 125.523 144.638 120.874 135.067C117.028 127.165 113.287 119.179 109.505 111.235C109.653 111.109 109.822 110.961 109.97 110.834Z" fill="#C89663"/>
<path d="M90.5073 133.736C96.5722 140.011 102.447 146.476 108.744 152.497C115.041 158.497 121.761 164.075 128.692 170.181C113.583 159.997 101.285 147.617 90.4862 133.736H90.5073Z" fill="#C89663"/>
<path d="M100.143 63.9314C100.46 65.7695 100.735 67.6287 101.115 69.4456C102.595 76.3542 105.426 82.7769 108.11 89.263C110.223 94.3757 112.463 99.4252 114.344 104.686C113.668 103.46 112.949 102.256 112.315 101.01C107.455 91.5447 103.165 81.8473 100.207 71.6006C99.4883 69.1498 98.8121 66.6146 99.5306 64.037C99.7419 63.9948 99.9532 63.9525 100.165 63.9314H100.143Z" fill="#C89663"/>
<path d="M66.6918 179.666C80.9346 181.124 95.0295 183.427 108.3 189.068C108.237 189.322 108.173 189.575 108.11 189.807C103.672 188.455 99.277 186.998 94.797 185.793C90.1269 184.547 85.3723 183.554 80.6387 182.519C76.0109 181.504 71.3408 180.596 66.6918 179.645V179.666Z" fill="#C89663"/>
<path d="M170.512 187.716C175.161 183.829 176.831 178.505 177.803 172.8C179.05 165.512 179.853 158.202 179.536 150.786C180.677 160.547 180.043 169.568 177.676 178.801C176.873 181.927 175.415 184.653 173.154 186.977C172.372 187.78 171.611 188.139 170.555 187.674L170.512 187.716Z" fill="#C89663"/>
<path d="M116.732 194.857C107.223 195.406 81.3785 190.8 78.2932 187.674C91.2259 191.434 104.222 192.786 116.732 194.857Z" fill="#C89663"/>
<path d="M132.179 30.1279C138.878 39.1704 142.766 49.5861 146.633 60.023C141.646 50.1143 137.568 39.7408 131.08 30.5927L132.179 30.1279Z" fill="#C89663"/>
<path d="M204.704 126.912C204.704 130.017 204.894 133.144 204.661 136.229C204.281 141.405 203.774 146.581 203.055 151.736C202.548 155.243 201.217 157.715 199.505 159.321C201.407 154.102 202.844 148.799 203.267 143.264C203.668 137.813 203.964 132.362 204.302 126.912C204.45 126.912 204.577 126.912 204.725 126.912H204.704Z" fill="#C89663"/>
<path d="M166.455 16.9017C167.047 26.5991 170.238 35.6416 172.647 44.8742C170.364 40.522 169.097 35.8317 167.723 31.1626C165.568 23.7892 165.039 18.8243 166.434 16.8806L166.455 16.9017Z" fill="#C89663"/>
<path d="M51.815 97.6082C56.1893 103.545 60.5847 109.461 64.959 115.397C61.4723 113.116 51.7939 100.418 51.2867 97.9462C51.4558 97.8406 51.6249 97.7138 51.815 97.6082Z" fill="#C89663"/>
<path d="M37.1918 112.672C33.0078 108.193 29.9648 103.038 27.2599 97.6712C27.112 97.3755 27.3022 96.8895 27.3444 96.5092C27.5346 96.4459 27.7037 96.3825 27.8939 96.3191C31.0002 101.77 34.0855 107.221 37.1918 112.672Z" fill="#C89663"/>
<path d="M27.6615 176.687C29.7747 174.617 37.9315 173.645 48.4129 174.194C41.4606 175.039 34.635 175.863 27.6615 176.687Z" fill="#C89663"/>
<path d="M91.8175 182.244L72.0804 177.427C78.9694 177.659 85.5203 179.307 91.9232 181.652C91.8809 181.863 91.8387 182.053 91.8175 182.265V182.244Z" fill="#C89663"/>
<path d="M102.193 88.7556C99.4884 84.0865 97.4808 79.2272 96.9103 73.9243C97.1216 73.8609 97.3118 73.7975 97.5231 73.7341C99.0869 78.7413 100.629 83.7484 102.193 88.7556Z" fill="#C89663"/>
<path d="M207.852 548.463C206.5 548.611 206.521 547.766 206.436 547.09C206.119 544.217 205.697 541.364 205.506 538.491C204.344 520.744 204.133 502.955 205.02 485.187C205.612 473.483 206.542 461.799 207.704 450.137C208.824 438.94 210.451 427.784 211.804 416.608C213.008 406.678 214.086 396.727 215.269 386.798C217.509 368.058 218.46 349.233 218.207 330.367C218.08 319.909 217.552 309.451 216.706 299.014C215.058 278.753 211.529 258.83 204.386 239.667C199.928 227.688 193.863 216.533 187.396 205.568C182.557 197.371 175.034 193.504 165.758 192.723C164.87 192.638 163.94 192.638 163.053 192.828C157.685 193.948 152.191 194.561 147.035 196.695C138.434 200.265 129.39 201.089 120.197 200.561C109.61 199.948 99.3403 197.455 88.9857 195.342C75.715 192.638 62.402 190.103 48.7508 190.631C37.065 191.075 25.9496 194.011 15.257 198.702C12.9536 199.716 10.6714 200.857 8.30461 201.702C6.71973 202.251 4.98692 202.61 3.29638 202.631C0.401322 202.674 -0.845453 200.941 0.485849 198.406C2.02847 195.49 3.78241 192.554 6.00124 190.124C11.7491 183.807 18.9973 179.56 26.7738 176.222C31.4228 174.215 36.1352 172.377 40.7842 170.412C48.455 167.138 56.4428 166.356 64.6631 167.159C65.3182 167.222 65.9944 167.159 67.2834 167.159C66.2268 166.187 65.6351 165.574 64.9589 165.046C50.7584 153.806 39.7064 139.862 30.1337 124.63C27.281 120.066 25.1889 115.165 24.3014 109.862C23.8576 107.136 23.7519 104.263 24.09 101.538C24.6606 96.9107 27.45 94.6078 32.1201 94.2909C36.0506 94.0162 39.8544 94.8191 43.5736 95.9388C47.0814 96.9952 50.5682 97.629 54.2451 97.1431C60.5001 96.3191 66.2268 98.2628 71.7633 100.819C81.8009 105.467 89.8099 112.672 96.8468 121.059C97.3117 121.608 97.7554 122.179 98.2203 122.728C98.326 122.834 98.5373 122.855 98.9388 123.003C98.8332 122.306 98.812 121.714 98.6218 121.186C93.2121 105.826 93.36 90.1922 96.234 74.4102C97.7977 65.7691 99.9954 57.2971 104.179 49.5011C109.61 39.4023 117.831 32.8318 129.136 30.4444C134.018 29.4091 138.645 30.4021 142.914 32.9796C146.676 35.2403 149.909 38.1558 152.339 41.7897C155.699 46.818 158.805 51.9942 162.017 57.107C162.524 57.9309 162.989 58.776 163.496 59.6211C163.708 59.5788 163.919 59.5155 164.13 59.4732C163.982 58.607 163.835 57.7196 163.687 56.8534C162.968 52.9449 162.059 49.0786 161.531 45.1489C160.369 36.4656 161.954 28.0781 164.49 19.8174C165.356 16.9652 166.011 14.0496 166.962 11.2397C167.765 8.85234 168.547 6.40158 169.836 4.26773C172.625 -0.359135 176.64 -1.24648 181.099 1.75359C183.086 3.10573 184.882 4.83817 186.467 6.65511C193.673 15.0426 197.455 25.0147 199.23 35.7896C199.906 39.8671 200.223 44.0503 200.245 48.1913C200.371 65.6212 202.379 82.7554 207.028 99.5727C209.817 109.65 210.177 119.876 208.549 130.165C207.683 135.595 206.838 141.045 205.485 146.37C202.802 156.975 196.927 165.849 189.383 173.56C182.515 180.596 181.627 188.476 184.945 197.202C185.875 199.631 187.206 201.913 188.495 204.195C194.771 215.35 201.111 226.484 205.57 238.569C210.24 251.203 213.494 264.196 215.586 277.485C218.735 297.683 219.939 318.007 219.728 338.395C219.622 348.853 219.094 359.311 218.27 369.748C217.235 382.593 215.798 395.396 214.339 408.199C213.093 419.207 211.487 430.172 210.219 441.179C208.676 454.7 207.366 468.243 206.711 481.849C205.971 497.187 205.908 512.526 206.415 527.843C206.626 533.97 207.345 540.076 207.81 546.181C207.873 546.942 207.81 547.724 207.81 548.463H207.852ZM189.953 147.933C190.08 137.158 188.094 126.616 183.804 116.496C182.283 112.925 180.803 109.333 179.451 105.7C175.14 94.1219 170.893 82.523 166.603 70.9242C163.074 61.3747 158.002 52.6702 152.254 44.3038C149.676 40.5643 146.633 37.2685 142.808 34.7543C138.244 31.7543 133.32 30.9514 128.058 32.3036C123.177 33.5501 118.824 35.8107 114.893 38.9798C109.315 43.4588 105.638 49.2687 103.081 55.8393C98.9388 66.4452 97.0158 77.4947 96.1706 88.7978C95.3464 99.8685 96.7834 110.58 100.418 121.017C104.835 133.714 111.026 145.482 118.929 156.363C125.671 165.638 133.658 173.645 143.062 180.215C147.14 183.068 151.494 185.413 156.269 186.934C163.623 189.279 170.428 188.328 176.809 183.807C181.268 180.638 184.121 176.434 186.065 171.448C189.002 163.947 190.059 156.13 189.953 147.912V147.933ZM162.376 190.863L162.292 190.061C161.806 189.913 161.32 189.744 160.834 189.617C158.573 189.047 156.227 188.645 154.029 187.885C148.26 185.877 143.189 182.603 138.371 178.905C124.128 167.94 113.71 153.912 105.764 137.961C100.503 127.376 93.5079 118.228 84.379 110.728C79.7512 106.925 74.7429 103.714 69.2064 101.411C64.7687 99.5727 60.1831 98.0093 55.2806 98.6854C50.6738 99.3192 46.3207 98.4952 41.9675 97.1431C38.6921 96.129 35.2899 95.5585 31.8243 95.9177C28.3587 96.2769 26.2244 97.967 25.7383 101.39C25.3791 103.925 25.3791 106.629 25.7806 109.164C26.6259 114.467 28.739 119.369 31.5707 123.954C45.2852 146.137 62.8457 164.391 85.5624 177.532C97.4596 184.42 109.948 189.638 123.431 192.406C134.419 194.666 145.45 195.131 156.46 192.596C158.446 192.131 160.39 191.476 162.355 190.927L162.376 190.863ZM188.136 171.279C188.284 171.384 188.432 171.49 188.58 171.617C189.066 171.279 189.658 171.004 190.038 170.56C195.3 164.539 199.759 158.032 202.569 150.468C205.105 143.644 206.204 136.524 207.176 129.362C208.486 119.601 208.148 109.946 205.675 100.354C204.196 94.5867 202.823 88.7978 201.724 82.9456C199.59 71.7481 198.956 60.4028 198.786 49.0152C198.66 41.2404 197.878 33.5501 195.321 26.1133C193.018 19.3948 190.059 13.0355 185.262 7.71147C183.487 5.72551 181.395 3.90857 179.134 2.49304C176.492 0.866245 174.105 1.43668 172.182 3.90857C171.04 5.36635 170.047 7.07765 169.477 8.85234C167.659 14.5144 166.053 20.2399 164.447 25.9654C164.046 27.4232 163.898 28.9866 163.813 30.5078C163.391 38.2403 164.828 45.6137 168.357 52.5012C170.533 56.7478 172.9 60.9099 175.309 65.0508C181.458 75.6355 186.34 86.7485 189.256 98.6854C191.327 107.136 192.595 115.651 191.94 124.397C191.369 131.961 191.221 139.503 191.559 147.088C191.898 154.609 190.925 162.025 188.58 169.229C188.369 169.884 188.284 170.602 188.136 171.279ZM1.24659 200.498C3.88807 201.765 5.62087 201.617 8.26235 200.117C13.9257 196.906 19.5678 193.695 25.21 190.504C31.1269 187.145 37.3185 184.504 43.8483 182.603C52.8293 179.983 61.6412 180.11 70.2841 183.913C73.5807 185.37 76.9618 186.659 80.1527 188.349C93.0642 195.152 106.821 198.744 121.36 199.441C128.058 199.758 134.715 199.293 141.224 197.497C142.09 197.265 142.914 196.885 143.759 196.568C143.696 196.378 143.654 196.166 143.59 195.976C142.724 195.913 141.857 195.828 140.991 195.828C130.784 195.807 120.916 193.885 111.216 190.8C98.1147 186.638 86.0696 180.342 74.8697 172.441C71.8267 170.286 68.5513 168.976 64.8955 168.574C57.3515 167.708 49.9342 168.321 42.8128 171.152C37.3608 173.328 31.9511 175.567 26.5413 177.87C21.3641 180.067 16.546 182.899 12.1295 186.363C8.19895 189.448 4.64881 192.913 2.38771 197.455C1.92281 198.385 1.62697 199.399 1.20433 200.498H1.24659ZM163.729 41.7897C163.496 41.7897 163.264 41.8108 163.01 41.832C163.095 43.2475 163.032 44.6841 163.264 46.0785C163.75 49.1842 164.236 52.3322 164.997 55.3745C169.709 74.4947 176.091 93.0655 183.403 111.362C185.6 116.876 187.418 122.559 189.425 128.158C189.573 128.58 189.827 128.982 190.101 129.531C190.376 129.151 190.545 129.003 190.545 128.855C191.073 122.01 191.179 115.186 190.059 108.362C187.523 92.9388 181.987 78.6567 174.105 65.2198C169.773 57.8253 165.483 50.3885 163.729 41.8108V41.7897ZM21.8501 194.138C22.1671 194.244 22.3572 194.371 22.484 194.328C23.9633 193.927 25.4425 193.526 26.9006 193.082C38.5231 189.532 50.3991 188.455 62.4442 189.849C70.0517 190.737 77.5746 192.11 85.1609 193.23C85.816 193.335 86.4711 193.335 87.1262 193.378C87.2107 193.23 87.2952 193.061 87.3586 192.913C87.1262 192.786 86.8726 192.659 86.619 192.554C79.8568 189.575 73.1792 186.427 66.3325 183.701C61.2186 181.673 55.8089 181.462 50.3569 182.391C40.3193 184.082 31.2537 188.159 22.632 193.378C22.3572 193.547 22.1248 193.821 21.8289 194.117L21.8501 194.138Z" fill="#C89663"/>
</g>
<defs>
<clipPath id="clip0_2_996">
<rect width="326" height="548" fill="white"/>
</clipPath>
</defs>
</svg>
