<svg width="512" height="502" viewBox="0 0 512 502" fill="none" xmlns="http://www.w3.org/2000/svg">
<g opacity="0.4" clip-path="url(#clip0_2_1027)">
<path d="M253.642 275.923C250.6 274.71 248.103 273.776 245.649 272.717C242.275 271.247 240.109 268.504 238.205 265.499C233.538 258.182 226.76 253.021 219.859 248.113C208.593 240.051 195.78 234.965 182.974 229.984C169.286 224.659 155.798 218.919 143.072 211.516C134.318 206.4 125.66 201.139 117.75 194.793C110.49 188.982 103.176 183.156 96.4212 176.803C89.8155 170.579 83.6319 163.872 77.6479 157.012C66.0407 143.704 55.1111 129.807 44.8663 115.426C37.489 105.088 30.5457 94.4411 23.3193 84.0055C16.8314 74.6404 9.58234 65.922 1.58601 57.7968C-7.87686 48.1952 -18.1004 39.5028 -29.1682 31.7779C-29.9965 31.1862 -30.7971 30.4875 -31.5443 29.8027C-31.7491 29.624 -31.7891 29.2941 -31.8918 29.0734C-31.1014 27.8295 -30.4656 28.6794 -29.8397 29.1273C-21.2964 35.0096 -13.319 41.578 -5.58275 48.4603C9.57564 61.9835 21.817 77.9097 32.8517 94.8804C44.9629 113.512 58.4249 131.158 72.5879 148.303C80.0327 157.323 87.6584 166.174 96.1542 174.177C103.06 180.696 110.442 186.744 117.886 192.683C129.477 201.913 142.055 209.711 155.412 216.091C166.506 221.381 177.933 225.913 189.303 230.624C198.961 234.627 208.551 238.671 217.299 244.469C220.802 246.806 224.23 249.305 227.817 251.846C226.815 249.988 225.868 248.179 224.855 246.409C221.435 240.443 219.732 233.976 219.496 227.182C219.25 219.495 219.783 211.931 223.127 204.755C229.019 192.102 242.672 186.417 254.538 187.891C261.618 188.76 268.689 189.753 275.778 190.499C283.731 191.344 291.053 193.703 296.576 199.702C299.621 203.015 301.991 206.951 304.607 210.643C305.248 211.563 305.703 212.582 306.444 213.95C307.452 212.307 308.249 210.905 309.158 209.6C311.9 205.668 315.793 203.199 319.991 201.095C324.595 198.788 329.272 196.511 333.58 193.716C343.267 187.389 350.012 178.495 354.958 168.129C356.366 165.163 358.025 162.285 359.777 159.488C361.909 156.105 364.772 153.425 368.36 151.607C373.37 149.097 377.363 150.386 380.097 155.295C381.971 158.635 382.725 162.243 382.599 166.033C382.451 170.524 381.541 174.875 379.97 179.043C378.235 183.624 377.241 188.296 376.592 193.137C374.983 205.202 371.34 216.705 365.889 227.613C364.656 230.077 362.992 232.361 361.37 235.009C362.124 234.783 362.763 234.652 363.307 234.405C379.477 226.624 396.182 226.16 413.183 231.033C418.772 232.633 423.593 235.791 426.736 240.796C431.154 247.797 437.184 253.289 443.069 258.949C447.547 263.25 450.451 268.341 451.791 274.36C453.114 280.398 451.657 285.714 447.68 290.534C441.196 298.378 432.732 302.364 422.932 303.972C420.179 304.421 417.391 304.609 414.622 305.077C410.538 305.773 406.449 306.399 402.458 307.44C396.542 308.995 390.618 310.446 384.463 310.547C384.077 310.538 383.703 310.703 382.943 310.86C383.546 311.484 383.845 312.007 384.301 312.274C391.312 316.491 396.272 322.721 400.783 329.279C408.44 340.385 413.905 352.463 415.945 365.91C416.305 368.354 416.442 370.866 416.33 373.325C415.936 381.142 410.32 385.548 402.623 384.108C399.98 383.604 397.404 382.797 394.775 382.24C392.164 381.699 389.493 381.301 386.783 380.837C386.725 381.016 386.465 381.314 386.533 381.537C389.498 393.398 380.063 408.269 363.652 407.155C352.343 406.397 343.777 401.216 336.148 393.346C327.675 384.641 322.15 374.248 317.476 363.254C317.098 362.334 316.634 361.438 316.205 360.539C315.98 360.572 315.77 360.586 315.545 360.619C315.528 361.653 315.53 362.703 315.513 363.737C315.393 369.4 315.574 375.13 315.084 380.765C314.32 389.307 310.913 396.821 305.416 403.495C298.158 412.301 289.04 418.24 278.323 421.8C270.944 424.242 263.474 426.113 255.547 425.914C253.302 425.855 250.982 427.01 248.799 427.858C245.936 428.997 243.245 430.614 240.321 431.635C235.978 433.154 231.63 433.063 227.413 430.792C224.869 429.423 223.457 427.208 222.309 424.765C217.906 415.416 217.743 405.868 221.936 396.516C224.487 390.812 227.645 385.276 231.215 380.133C235.327 374.218 240.21 368.811 244.802 363.248C251.944 354.537 259.42 346.084 265.162 336.347C266.198 334.596 267.087 332.751 267.883 330.824C261.169 338.63 253.462 345.244 244.857 350.745C234.541 357.342 223.368 361.651 211.096 363.199C207.346 363.662 203.712 365.046 200.098 366.218C196.279 367.474 192.618 369.228 188.736 370.33C183.619 371.797 178.536 371.458 173.643 369.022C164.435 364.428 159.953 352.389 164.364 343.162C166.309 339.092 168.849 335.278 170.992 331.282C174.815 324.196 178.33 316.973 182.299 309.982C188.473 299.148 196.885 290.562 208.24 285.067C214.288 282.12 220.641 280.552 227.343 280.239C235.109 279.872 242.851 279.418 250.318 276.988C251.277 276.678 252.218 276.351 253.57 275.892L253.642 275.923ZM318.563 302.59C316.079 308.518 310.156 310.231 303.956 311.473C307.501 330.036 312.472 347.942 319.845 365.125C324.178 375.231 329.267 384.883 337.177 392.769C342.587 398.146 348.154 403.266 355.942 404.753C359.489 405.423 363.115 405.966 366.696 405.847C381.038 405.385 387.992 390.839 385.176 381.401C384.993 380.783 385.12 380.074 385.107 379.375C390.698 380.485 396.068 381.435 401.382 382.598C410.144 384.509 415.382 380.461 415.169 371.46C415.06 367.563 414.459 363.63 413.551 359.822C411.189 349.863 406.886 340.7 401.313 332.166C396.641 325.042 391.276 318.524 384.198 313.593C381.532 311.725 378.753 310.513 375.417 310.126C359.958 308.335 344.836 305.068 330.432 298.987C328.557 298.203 326.62 297.529 325.199 296.977C322.965 298.861 321.111 300.422 318.563 302.59ZM325.199 295.436C336.866 300.407 348.671 304.056 360.758 306.968C374.855 310.356 388.759 310.396 402.667 305.885C407.052 304.468 411.771 304.096 416.338 303.297C419.816 302.695 423.313 302.371 426.728 301.615C434.956 299.815 441.874 295.759 447.292 289.212C450.638 285.152 452.039 280.541 451.035 275.339C449.877 269.413 447.233 264.287 442.794 260.053C436.596 254.152 430.133 248.479 425.53 241.087C424.074 238.735 421.986 236.88 419.52 235.384C415.938 233.175 412.124 231.682 408.061 230.889C394.699 228.274 381.507 228.658 368.631 233.415C363.218 235.409 358.554 238.385 354.674 242.832C352.19 245.678 349.173 248.158 346.086 250.38C334.411 258.872 321.309 263.89 306.995 265.785C306.509 265.853 306.047 266.007 304.997 266.271C308.95 269.032 311.315 272.636 314.907 275.247C321.538 280.05 325.514 286.732 325.15 295.492L325.199 295.436ZM269.74 270.668C268.437 271.333 267.933 271.648 267.406 271.876C264.441 273.057 261.491 274.219 258.526 275.4C257.862 275.672 257.116 275.775 256.489 276.08C249.532 279.317 242.172 280.76 234.6 281.394C230.806 281.721 227.026 282.256 223.271 282.913C214.55 284.413 208.433 289.693 203.521 296.713C200.106 301.566 197.561 306.85 195.126 312.196C191.081 321.153 185.703 329.044 177.922 335.33C173.276 339.076 169.203 343.518 165.984 348.672C164.389 351.213 163.724 353.779 165.14 356.555C166.054 358.401 166.986 360.264 168.119 361.973C171.01 366.364 174.86 368.38 180.256 367.157C185.55 365.976 190.552 364.115 195.296 361.536C198.637 359.7 201.954 357.777 205.335 356.008C209.864 353.636 214.676 352.82 219.76 353.685C222.205 354.115 224.692 354.384 227.144 354.656C231.818 355.163 236.127 354.171 240.218 351.776C248.94 346.705 256.721 340.419 263.667 333.174C266.346 330.367 268.534 327.033 270.529 323.695C274.911 316.343 275.357 308.015 275.859 299.735C275.915 298.768 275.509 297.693 275.013 296.834C273.241 293.715 272.448 290.302 272.033 286.794C271.932 286.083 272 285.29 271.695 284.663C269.656 280.46 268.624 276.118 269.707 270.705L269.74 270.668ZM248.67 379.373C248.084 380.271 247.354 381.37 246.605 382.454C244.964 384.823 243.644 387.538 241.586 389.446C237.98 392.788 234.021 395.822 229.977 398.651C226.67 400.976 224.116 403.827 222.147 407.286C220.896 409.472 220.028 411.894 220.655 414.407C221.549 418.006 222.394 421.66 223.834 425.047C225.5 428.926 228.859 431.202 233.133 431.228C235.759 431.226 238.491 430.726 240.99 429.891C243.693 428.973 246.112 427.217 248.785 426.108C250.947 425.209 253.292 424.175 255.535 424.199C263.438 424.312 270.906 422.407 278.301 419.946C288.623 416.5 297.351 410.745 304.352 402.271C309.445 396.097 312.436 389.137 313.545 381.289C314.741 372.928 314.327 364.57 313.527 356.203C313.277 353.559 312.656 350.888 311.887 348.349C308.618 337.663 305.451 326.936 303.455 315.919C303.175 314.397 302.708 312.941 302.399 311.754C298.459 310.97 294.706 310.611 291.213 309.464C287.811 308.363 284.669 306.44 281.068 304.74C281.357 306.139 281.565 307.14 281.774 308.141C283.742 317.724 284.611 327.364 284.003 337.157C283.103 351.643 278.686 364.634 268.221 375.198C262.799 380.659 256.897 382.161 249.656 379.447C249.477 379.389 249.252 379.421 248.638 379.41L248.67 379.373ZM304.837 251.383C309.47 245.398 312.513 239.205 310.89 231.857C309.019 223.44 305.949 215.419 301.266 208.121C300.15 206.393 298.288 205.031 296.527 203.854C293.721 201.996 290.468 202.041 287.222 202.19C279.874 202.529 272.778 201.678 266.225 198.025C264.151 196.87 262.092 195.696 260.033 194.522C254.381 191.228 248.283 189.872 241.852 191.077C235.232 192.312 230.237 196.081 226.563 201.757C223.286 206.828 222.528 212.131 224.954 217.657C226.198 220.479 227.85 223.133 229.532 225.715C231.664 228.985 233.076 232.478 233.464 236.356C233.688 238.617 234.036 240.887 234.052 243.162C234.087 250.337 235.997 257.018 238.994 263.468C242.733 271.548 251.753 275.945 260.298 273.407C262.836 272.64 265.293 271.441 267.601 270.112C275.733 265.378 284.097 261.206 293.276 258.73C297.968 257.45 301.647 254.4 304.855 251.4L304.837 251.383ZM289.581 261.011C289.593 261.185 289.604 261.359 289.651 261.531C292.225 262.04 294.916 262.225 297.341 263.129C302.139 264.923 306.906 264.496 311.69 263.525C319.737 261.895 327.431 259.204 334.778 255.521C348.319 248.724 358.705 238.55 365.396 225.02C370.412 214.912 373.661 204.049 375.046 192.803C375.63 188.037 376.845 183.526 378.266 178.965C379.591 174.779 380.427 170.364 380.968 165.985C381.456 162.118 380.413 158.39 378.277 155.051C376.32 152.032 374.055 151.169 370.624 152.207C367.21 153.225 364.89 155.658 363.578 158.74C362.249 161.841 361.462 165.186 360.654 168.479C359.221 174.406 358.43 180.499 356.567 186.28C353.402 196.07 346.851 202.938 336.864 206.151C333.215 207.326 329.513 208.224 325.838 209.278C322.953 210.103 320.045 210.842 317.246 211.907C313.714 213.249 310.841 215.526 308.523 218.747C309.508 221.639 310.47 224.445 311.416 227.269C312.68 231.158 313.44 235.098 312.529 239.186C310.043 250.191 303.08 256.929 292.423 260.083C291.48 260.374 290.556 260.682 289.632 260.99L289.581 261.011ZM248.161 377.552C249.323 377.911 250.121 378.05 250.844 378.386C255.198 380.35 259.47 379.851 263.212 377.217C266.053 375.239 268.779 372.867 270.941 370.164C274.746 365.39 277.651 359.995 279.454 354.095C284.621 337.237 283.344 320.36 279.444 303.519C279.201 302.52 278.458 301.643 277.957 300.714C277.75 300.763 277.527 300.83 277.32 300.879C277.239 301.988 277.122 303.099 277.056 304.188C276.243 316.621 272.345 327.966 265.733 338.549C259.957 347.798 252.979 356.096 245.87 364.279C239.898 371.16 233.979 378.056 229.224 385.835C226.107 390.947 223.099 396.123 221.594 402.019C221.361 402.963 221.235 403.934 221.048 405.05C221.58 404.891 221.843 404.891 221.94 404.779C225.348 400.085 230.051 396.913 234.696 393.658C239.559 390.266 243.818 386.249 246.126 380.561C246.547 379.552 247.347 378.71 248.142 377.536L248.161 377.552ZM271.733 269.097C270.547 273.764 270.763 277.951 272.575 281.925C276.181 289.857 282.659 294.199 290.858 296.34C291.733 296.579 292.709 296.513 293.633 296.468C296.512 296.326 299.391 296.183 302.263 295.937C303.899 295.791 305.588 295.659 307.149 295.186C310.373 294.198 313.231 292.464 314.768 289.349C316.769 285.327 316.426 281.324 313.656 277.695C312.273 275.898 310.59 274.331 309.191 272.552C303.568 265.352 295.916 262.771 287.132 262.839C286.012 262.845 284.818 263.048 283.815 263.484C279.769 265.263 275.769 267.179 271.715 269.081L271.733 269.097ZM361.155 160.952C360.939 160.862 360.741 160.788 360.525 160.697C359.311 162.915 357.99 165.105 356.867 167.37C354.03 172.989 351.211 178.624 347.167 183.484C340.856 191.053 333.123 196.758 324.197 200.898C321.294 202.232 318.436 203.703 315.711 205.323C312.143 207.42 309.701 210.631 308.032 214.386C307.606 215.325 307.052 216.448 308.204 217.42C309.413 216.148 310.487 214.955 311.67 213.825C314.925 210.733 319.094 209.489 323.287 208.33C327.652 207.124 332.077 206.037 336.413 204.676C345.978 201.684 352.453 195.241 355.29 185.788C357.728 177.658 359.255 169.257 361.174 160.969L361.155 160.952ZM164.755 346.584C164.918 346.661 165.081 346.737 165.244 346.814C165.733 346.291 166.334 345.865 166.68 345.281C169.465 340.436 173.802 337.044 177.84 333.358C181.647 329.896 185.618 326.512 188.101 321.862C190.799 316.778 193.48 311.677 196.069 306.53C199.503 299.663 203.308 293.086 209.283 288.043C210.112 287.356 210.901 286.603 212.14 285.521C211.139 285.729 210.737 285.739 210.363 285.904C201.204 289.972 193.639 296.086 187.785 304.184C182.937 310.867 179.15 318.213 175.451 325.571C172.538 331.353 169.317 336.997 166.278 342.735C165.643 343.951 165.262 345.29 164.79 346.582L164.755 346.584ZM274.383 288.648C274.168 289.083 274.005 289.269 274.017 289.443C274.027 289.845 274.126 290.259 274.205 290.656C275.289 295.239 277.735 299.013 281.152 302.126C287.408 307.848 294.951 310.104 303.298 310.047C307.621 310.018 311.343 308.383 314.706 305.845C316.386 304.558 317.622 302.916 317.039 300.277C314.125 297.603 310.239 297.358 306.491 297.332C302.287 297.301 298.072 297.883 293.873 297.922C291.668 297.931 289.318 297.617 287.239 296.918C283.191 295.581 279.464 293.574 276.468 290.468C275.847 289.827 275.128 289.298 274.402 288.664L274.383 288.648ZM222.342 213.509C217.425 225.571 224.518 250.704 233.979 256.437C233.526 252.371 233.031 248.203 232.605 244.03C232.314 241.056 232.3 238.028 231.767 235.105C231.324 232.719 230.56 230.25 229.383 228.141C226.791 223.52 223.507 219.278 222.342 213.509ZM250.045 189.017C250.073 189.173 250.118 189.31 250.146 189.466C252.204 190.115 254.305 190.638 256.303 191.43C258.391 192.27 260.487 193.213 262.422 194.378C269.471 198.628 276.946 201.187 285.307 200.814C288.99 200.652 292.692 200.507 296.278 201.998C294.194 199.95 292.211 197.826 289.863 196.269C285.736 193.52 280.931 192.636 276.094 192.053C268.837 191.161 261.56 190.217 254.303 189.325C252.908 189.157 251.486 189.095 250.08 189.015L250.045 189.017ZM179.685 368.789C182.768 369.841 185.842 369.476 188.754 368.543C192.301 367.411 195.761 366.039 199.182 364.6C203.113 362.951 207.12 361.63 211.386 361.289C217.202 360.825 222.767 359.259 228.215 357.262C228.933 357.004 229.606 356.608 230.86 355.998C227.425 355.687 224.641 355.683 221.942 355.13C214.84 353.685 208.457 355.324 202.349 358.941C195.25 363.167 187.973 367.108 179.65 368.791L179.685 368.789ZM316.926 279.172C318.998 285.404 316.253 290.317 312.78 295.086C313.854 297.989 317.747 297.323 318.552 300.122C321.931 298.844 323.799 296.214 323.663 292.687C323.449 287.257 320.739 282.958 316.943 279.153L316.926 279.172Z" fill="#C89663"/>
<path d="M66.7951 141.674C69.6254 145.684 71.2158 150.251 72.3764 154.934C74.3091 162.717 77.6376 169.915 81.103 177.068C88.3814 192.104 97.7235 205.828 107.219 219.489C117.043 233.601 121.996 249.46 124.332 266.213C126.062 278.701 126.959 291.315 128.654 303.805C130.225 315.271 132.353 326.664 134.236 338.074C134.687 340.827 135.172 343.577 135.519 346.338C135.634 347.258 135.369 348.238 135.293 349.189C135.036 349.259 134.796 349.345 134.539 349.415C133.854 348.621 133.016 347.89 132.517 346.996C127.697 338.463 122.605 330.054 118.207 321.3C109.431 303.809 98.8221 287.44 88.1626 271.092C81.9998 261.617 76.8355 251.637 73.3986 240.806C71.3191 234.206 70.5245 227.45 70.8963 220.597C71.2776 213.884 71.9587 207.203 72.34 200.489C72.8256 192.228 73.4344 183.977 73.4296 175.714C73.4128 164.458 71.6976 153.457 66.5352 143.25C66.3137 142.827 66.2803 142.339 66.161 141.874C66.3492 141.809 66.5721 141.742 66.7603 141.676L66.7951 141.674ZM129.198 338.397C129.384 338.297 129.551 338.18 129.753 338.062C129.543 337.288 129.365 336.477 129.119 335.706C119.69 307.65 112.235 279.023 105.28 250.275C101.619 235.151 96.1987 220.655 88.9502 206.824C84.299 197.948 79.8497 188.952 76.471 179.482C76.2958 178.969 75.9325 178.521 75.2824 177.462C75.19 179.184 75.1546 180.201 75.1029 181.238C74.7038 188.46 74.3048 195.682 73.8361 202.909C73.4673 208.781 72.9242 214.665 72.6089 220.551C72.183 228.406 73.3858 236.01 76.0453 243.41C79.4355 252.792 84.0772 261.529 89.3621 269.943C96.9282 282.019 104.713 293.957 111.926 306.249C117.515 315.78 122.328 325.749 127.513 335.517C128.035 336.497 128.625 337.438 129.18 338.38L129.198 338.397ZM132.9 344.904C133.16 344.869 133.436 344.815 133.696 344.78C133.508 343.567 133.374 342.369 133.135 341.177C131.742 333.866 129.984 326.597 129.008 319.222C126.783 302.304 125.062 285.334 122.923 268.392C120.676 250.634 115.521 233.879 105.001 219.061C94.5954 204.377 85.0487 189.196 77.2314 172.936C77.0867 172.613 76.7053 172.411 76.4422 172.149C76.2727 172.23 76.0684 172.314 75.8989 172.396C76.7517 175.139 77.3306 177.971 78.4876 180.554C82.4136 189.322 86.2723 198.129 90.6046 206.695C97.7232 220.674 103.081 235.28 106.904 250.48C111.064 267.023 115.138 283.589 119.575 300.077C123.331 314.039 127.535 327.9 131.584 341.789C131.901 342.853 132.442 343.85 132.879 344.853L132.9 344.904Z" fill="#C89663"/>
<path d="M365.54 164.648C362.906 197.809 347.125 224.348 323.474 246.903C326.543 243.387 329.665 239.884 332.696 236.336C343.831 223.276 352.592 208.8 358.507 192.627C361.519 184.44 363.498 176.008 364.448 167.366C364.556 166.378 364.751 165.402 364.878 164.431C365.094 164.521 365.292 164.595 365.508 164.686L365.54 164.648Z" fill="#C89663"/>
<path d="M410.164 282.375C383.917 287.458 357.54 289.347 330.943 285.21C330.945 284.982 330.945 284.72 330.947 284.492C334.609 284.805 338.296 285.203 341.97 285.427C345.786 285.677 349.612 285.804 353.435 285.895C357.258 285.987 361.073 285.974 364.903 285.908C368.628 285.848 372.348 285.719 376.062 285.486C379.879 285.245 383.69 284.9 387.498 284.52C391.306 284.14 395.107 283.655 398.89 283.155C402.621 282.675 406.366 282.141 410.114 281.643C410.13 281.887 410.147 282.131 410.164 282.375Z" fill="#C89663"/>
<path d="M317.381 278.652C324.522 278.362 331.098 278.267 337.627 277.738C344.208 277.188 350.767 276.325 357.3 275.34C363.816 274.374 370.277 273.097 376.794 272.131C358.301 277.688 339.344 280.055 319.663 280.021C322.595 284.742 322.551 289.226 320.163 293.729C321.281 288.577 321.552 283.569 317.381 278.652Z" fill="#C89663"/>
<path d="M355.126 219.991C351.685 224.46 348.563 229.24 344.731 233.368C335.891 242.859 326.925 252.306 315.789 259.204C312.144 261.464 308.05 263.036 304.126 264.79C303.225 265.183 302.098 265.084 301.073 265.206C301.021 264.964 300.967 264.688 300.916 264.446C301.408 264.22 301.861 263.927 302.374 263.753C310.03 261.519 316.588 257.312 322.765 252.413C331.6 245.408 339.288 237.238 347.05 229.132C349.829 226.248 352.084 222.875 354.6 219.729C354.782 219.821 354.963 219.914 355.142 219.972L355.126 219.991Z" fill="#C89663"/>
<path d="M317.091 303.338C341.037 311.715 360.91 326.338 378.866 343.908C372.436 338.724 365.972 333.541 359.558 328.337C353.129 323.152 346.203 318.649 338.953 314.78C331.665 310.878 324.1 307.521 316.641 303.929C316.804 303.743 316.929 303.524 317.089 303.303L317.091 303.338Z" fill="#C89663"/>
<path d="M285.731 404.931C301.639 379.486 307.53 352.215 301.005 322.597C304.99 336.823 305.428 351.167 302.81 365.629C300.19 380.057 294.142 393 285.731 404.931Z" fill="#C89663"/>
<path d="M288.07 372.823C290.209 362.629 291.677 352.341 292.628 341.931C293.616 331.027 293.23 320.269 289.764 309.772C289.652 309.412 289.591 309.031 289.53 308.65C289.732 308.531 289.936 308.447 290.138 308.329C290.592 309.086 291.272 309.81 291.434 310.639C292.42 315.072 293.561 319.476 294.113 323.956C295.296 333.575 293.952 343.119 292.679 352.659C291.763 359.496 290.369 366.243 288.086 372.804L288.07 372.823Z" fill="#C89663"/>
<path d="M350.53 311.773C372.587 320.961 392.519 333.111 406.942 352.777C391.603 334.311 371.771 322.084 350.53 311.773Z" fill="#C89663"/>
<path d="M197.279 318.336C197.606 317.736 197.675 317.469 197.809 317.39C215.058 308.223 232.066 298.618 248.306 287.751C248.405 287.674 248.64 287.781 249.203 287.813C233.04 300.057 215.741 309.77 197.26 318.32L197.279 318.336Z" fill="#C89663"/>
<path d="M357.782 375.847C342.569 359.982 328.934 342.872 317.443 324.094C329.913 342.088 343.815 359.005 357.782 375.847Z" fill="#C89663"/>
<path d="M381.807 239.439C366.678 244.786 351.275 250.222 336.01 255.613C340.151 251.657 372.733 240.14 381.807 239.439Z" fill="#C89663"/>
<path d="M272.855 283.448C272.441 284.561 272.382 285.23 272.003 285.588C261.58 295.992 250.085 305.067 237.771 313.165C249.255 303.425 260.742 293.72 272.839 283.466L272.855 283.448Z" fill="#C89663"/>
<path d="M164.561 357.819C179.871 349.747 194.298 340.28 208.859 330.473C202.867 337.075 170.932 357.021 164.561 357.819Z" fill="#C89663"/>
<path d="M324.1 289.594C327.234 290.625 330.343 291.797 333.535 292.65C336.907 293.56 340.352 294.272 343.792 294.915C347.144 295.546 350.519 296 353.892 296.42C357.371 296.868 360.863 297.227 364.351 297.551C367.752 297.864 371.129 298.091 374.613 298.608C374.023 298.683 373.424 298.881 372.826 298.851C360.07 298.698 347.486 297.221 335.042 294.456C331.645 293.688 328.383 292.315 325.065 291.156C324.581 290.997 324.183 290.551 323.759 290.247L324.046 289.58L324.1 289.594Z" fill="#C89663"/>
<path d="M269.778 199.028C274.855 202.606 284.313 225.706 285.058 235.827C282.8 229.695 280.747 223.478 278.269 217.449C275.774 211.437 272.818 205.58 269.797 199.044L269.778 199.028Z" fill="#C89663"/>
<path d="M288.136 261.389C288.649 260.689 288.767 260.366 289.001 260.21C293.003 257.541 295.283 253.763 296.314 249.124C297.705 242.833 298.091 236.452 297.897 230.022C297.877 229.218 297.822 228.417 297.802 227.613C297.992 227.582 298.199 227.533 298.39 227.503C298.667 229.252 299.032 231.013 299.189 232.788C299.699 238.706 299.118 244.558 297.834 250.352C296.95 254.333 294.716 257.495 291.806 260.265C290.901 261.114 289.891 261.708 288.102 261.391L288.136 261.389Z" fill="#C89663"/>
<path d="M256.823 245.369C247.632 233.088 240.974 219.445 235.228 205.32C242.427 218.681 249.608 232.026 256.823 245.369Z" fill="#C89663"/>
<path d="M385.798 380.764C377.525 369.611 368.458 359.143 359.217 349.211C368.171 355.976 385.383 375.978 385.798 380.764Z" fill="#C89663"/>
<path d="M264.912 227.456C271.896 236.402 276.296 246.468 279.475 257.108C279.949 258.669 280.082 260.358 280.194 261.996C280.223 262.677 279.764 263.39 279.068 263.963C278.571 261.3 278.278 258.554 277.507 255.98C274.689 246.77 270.798 237.999 266.142 229.578C265.744 228.87 265.31 228.164 264.912 227.456Z" fill="#C89663"/>
<path d="M246.068 328.5C241.215 334.85 235.116 340.9 228.434 346.376C225.814 348.514 223.118 350.552 220.344 352.49C218.956 353.442 217.384 354.266 215.452 353.924C227.439 347.179 236.648 337.19 246.084 328.481L246.068 328.5Z" fill="#C89663"/>
<path d="M253.915 258.661C244.533 251.522 236.989 242.841 231.515 232.427C231.693 232.222 231.872 232.018 232.051 231.813C232.511 232.15 233.174 232.367 233.414 232.806C237.363 240.12 242.879 246.277 248.179 252.606C249.969 254.726 251.992 256.655 253.899 258.679L253.915 258.661Z" fill="#C89663"/>
<path d="M451.197 283.084C450.492 283.517 449.833 284.122 449.062 284.367C439.153 287.452 428.998 288.979 418.589 288.843C429.413 287.113 440.265 285.539 450.733 282.188C450.894 282.492 451.037 282.78 451.197 283.084Z" fill="#C89663"/>
<path d="M339.499 204.486C333.442 214.734 328.332 225.514 321.309 235.214C326.19 225.938 331.033 216.63 335.986 207.384C336.669 206.113 337.897 205.119 338.871 204.003C339.076 204.182 339.278 204.326 339.499 204.486Z" fill="#C89663"/>
<path d="M343.654 375.088C353.168 390.043 356.748 396.051 366.592 405.854C365.297 406.887 364.547 405.905 363.814 405.167C358.941 400.227 354.7 394.789 351.109 388.869C348.644 384.817 346.399 380.662 344.068 376.53C343.888 376.21 343.862 375.826 343.654 375.088Z" fill="#C89663"/>
<path d="M251.728 425.104C260.397 416.448 268.013 406.969 274.611 396.702C272.096 404.47 257.318 423.133 251.728 425.104Z" fill="#C89663"/>
<path d="M351.242 271.758C342.684 274.875 320.022 277.843 315.881 276.425C327.853 274.845 339.53 273.303 351.242 271.758Z" fill="#C89663"/>
<path d="M315.364 305.731C325.325 311.867 334.531 318.983 342.154 328.061C338.468 324.844 334.927 321.46 331.062 318.447C326.606 314.984 321.86 311.892 317.258 308.596C316.374 307.956 315.601 307.15 314.782 306.435C314.993 306.193 315.188 305.97 315.399 305.728L315.364 305.731Z" fill="#C89663"/>
<path d="M302.451 304.818C291.508 307.361 279.113 304.05 276.115 296.812C279.917 299.672 283.478 303.107 288.404 303.702C293.171 304.29 297.963 304.474 302.451 304.818Z" fill="#C89663"/>
<path d="M403.292 252.815C411.734 248.253 425.464 244.471 429.684 245.499C426.498 247.045 423.482 246.969 420.755 247.801C417.805 248.701 414.811 249.463 411.859 250.328C409.009 251.151 406.159 251.974 403.309 252.797L403.292 252.815Z" fill="#C89663"/>
<path d="M242.112 397.902C235.727 405.669 227.437 411.674 221.583 420.035C221.459 418.223 222.319 416.712 223.493 415.442C225.891 412.881 228.327 410.353 230.895 407.974C234.566 404.557 238.367 401.254 242.112 397.902Z" fill="#C89663"/>
<path d="M280.524 265.79C286.744 266.63 291.853 268.368 295.919 272.277C299.462 275.696 302.742 279.379 306.123 282.984C306.595 283.495 306.871 284.194 306.96 284.993C305.147 283.05 303.252 281.2 301.538 279.18C296.187 272.872 289.831 268.242 281.576 266.577C281.415 266.535 281.28 266.352 280.524 265.79Z" fill="#C89663"/>
<path d="M303.383 296.685C302.115 297.086 301.464 297.305 300.642 297.57C297.496 295.087 294.181 292.685 291.092 290.023C288.02 287.342 285.124 284.422 282.344 281.406C289.088 286.569 294.802 293.063 303.367 296.703L303.383 296.685Z" fill="#C89663"/>
<path d="M253.511 306.778C259.986 300.336 266.591 293.744 272.969 287.413C272.644 290.342 260.362 302.761 253.511 306.778Z" fill="#C89663"/>
<path d="M318.649 332.784C314.287 328.387 306.949 314.02 307.432 310.574C311.197 318.022 314.863 325.285 318.649 332.784Z" fill="#C89663"/>
<path d="M276.22 265.836C277.989 266.364 279.819 266.748 281.514 267.473C287.628 270.089 293.376 273.236 297.645 278.567C298.143 279.199 298.76 279.77 299.228 280.474C292.385 274.109 284.713 269.183 275.476 266.726C275.933 266.24 276.146 266.033 276.36 265.826L276.255 265.833L276.22 265.836Z" fill="#C89663"/>
<path d="M293.231 309.783C295.506 312.325 297.911 325.731 297.69 335.567C296.134 326.638 294.698 318.175 293.231 309.783Z" fill="#C89663"/>
<path d="M276.325 265.829C274.461 259.32 272.58 252.794 270.602 245.89C274.307 251.942 276.091 258.317 277.636 264.777C277.037 265.238 276.619 265.529 276.236 265.817L276.341 265.81L276.325 265.829Z" fill="#C89663"/>
<path d="M258.628 424.375L270.561 410.701C267.456 415.988 264.426 421.34 259.15 424.83C258.982 424.684 258.796 424.521 258.628 424.375Z" fill="#C89663"/>
<path d="M377.334 364.267C382.673 369.123 386.966 374.802 390.627 380.98C388.462 379.778 387.537 377.53 386.101 375.719C384.643 373.856 383.233 371.938 381.81 370.074C380.329 368.126 378.832 366.196 377.334 364.267Z" fill="#C89663"/>
<path d="M276.341 201.543C279.535 203.446 283.096 210.978 284.47 218.01C281.643 212.267 279.001 206.913 276.341 201.543Z" fill="#C89663"/>
<path d="M183.211 353.023C178.093 356.52 172.942 360.054 166.848 361.814C171.945 358.266 177.583 355.714 183.211 353.023Z" fill="#C89663"/>
<path d="M222.488 354.919C226.732 351.446 230.977 347.973 235.769 344.06C230.862 350.396 225.683 354.79 222.488 354.919Z" fill="#C89663"/>
<path d="M350.018 392.111C353.949 396.853 357.763 401.427 361.71 406.149C358.033 404.349 351.718 396.741 350.018 392.111Z" fill="#C89663"/>
<path d="M327.05 218.038C328.567 213.593 330.43 209.353 333.72 205.997C333.939 206.123 334.176 206.264 334.378 206.408C331.931 210.302 329.5 214.178 327.052 218.073L327.05 218.038Z" fill="#C89663"/>
<path d="M426.035 242.314C422.017 243.461 418.001 244.643 413.982 245.79C417.652 243.389 421.544 241.672 425.843 241.294L426.035 242.314Z" fill="#C89663"/>
</g>
<defs>
<clipPath id="clip0_2_1027">
<rect width="309" height="408.228" fill="white" transform="translate(0.626953 233.211) rotate(-48.8898)"/>
</clipPath>
</defs>
</svg>
